<svg xmlns="http://www.w3.org/2000/svg" xmlns:xlink="http://www.w3.org/1999/xlink" width="483.781" height="362.833" viewBox="0 0 362.836 272.125"><defs><symbol id="c" overflow="visible" style="overflow:visible"><path d="M4.672-4.562a1.95 1.95 0 0 0-1.422-.625C1.766-5.187.5-4.016.5-2.516.5-1.03 1.766.141 3.25.141c1.281 0 2.047-1.032 2.047-1.875 0-.094 0-.157-.125-.157-.11 0-.11.063-.125.157C4.984-.704 4.14-.11 3.313-.11c-.485 0-1.97-.266-1.97-2.407 0-2.187 1.516-2.421 1.97-2.421.703 0 1.546.515 1.734 1.765.016.063.031.125.125.125.125 0 .125-.047.125-.234v-1.672c0-.156 0-.234-.094-.234-.062 0-.078.03-.156.125zm0 0" style="stroke:none"/></symbol><symbol id="d" overflow="visible" style="overflow:visible"><path d="M5.734-2.5c0-1.469-1.156-2.687-2.609-2.687C1.656-5.187.5-3.97.5-2.5A2.624 2.624 0 0 0 3.125.14a2.62 2.62 0 0 0 2.61-2.64M3.125-.125c-.703 0-1.781-.547-1.781-2.484 0-1.844 1.125-2.328 1.781-2.328s1.766.5 1.766 2.328c0 1.937-1.078 2.484-1.766 2.484m0 0" style="stroke:none"/></symbol><symbol id="e" overflow="visible" style="overflow:visible"><path d="M5.531-4.766v4.063c0 .406-.047.453-.703.453V0a17 17 0 0 1 2.047 0v-.25c-.656 0-.719-.047-.719-.453v-3.64c0-.391.063-.454.719-.454v-.25H5.688c-.235 0-.266 0-.344.188L3.672-.734 1.984-4.86c-.078-.188-.125-.188-.328-.188H.47v.25c.656 0 .703.063.703.453v3.36c0 .218 0 .734-.703.734V0c.203-.016.64-.031.844-.031.14 0 .593.015.843.031v-.25c-.719 0-.719-.516-.719-.734v-3.703h.016L3.281-.173c.047.078.094.172.188.172.11 0 .156-.094.187-.172Zm0 0" style="stroke:none"/></symbol><symbol id="f" overflow="visible" style="overflow:visible"><path d="M1.828-4.328c0-.422.063-.469.75-.469v-.25c-.328.016-.844.031-1.094.031S.72-5.03.375-5.046v.25c.703 0 .75.046.75.468v3.61c0 .421-.047.468-.75.468V0c.344-.016.86-.031 1.11-.031S2.25-.016 2.577 0v-.25c-.687 0-.75-.047-.75-.469zm0 0" style="stroke:none"/></symbol><symbol id="g" overflow="visible" style="overflow:visible"><path d="M5.313-4.984H.484L.36-3.328h.235C.688-4.563.89-4.734 1.969-4.734c.547 0 .578 0 .578.422V-.75c0 .39-.031.5-.797.5h-.203V0c.39-.031.969-.031 1.36-.031.39 0 .968 0 1.359.031v-.25h-.22c-.75 0-.796-.11-.796-.5v-3.562c0-.422.031-.422.594-.422 1.047 0 1.265.156 1.36 1.406h.25zm0 0" style="stroke:none"/></symbol><symbol id="h" overflow="visible" style="overflow:visible"><path d="M3.172-2.297c.984 0 1.797-.625 1.797-1.36 0-.702-.735-1.39-1.875-1.39H.438v.25c.656 0 .703.063.703.453v3.64c0 .407-.047.454-.703.454V0c.28-.016.843-.031 1.062-.031s.766.015 1.063.031v-.25c-.657 0-.704-.047-.704-.453v-1.594zM1.828-4.375c0-.39.047-.422.39-.422h.673c1.234 0 1.234.75 1.234 1.14 0 .376 0 1.141-1.234 1.141H1.828zm0 0" style="stroke:none"/></symbol><symbol id="i" overflow="visible" style="overflow:visible"><path d="M4.188-2.75h-2.36v-1.594c0-.39.063-.453.719-.453v-.25c-.297.016-.844.031-1.063.031S.72-5.03.422-5.046v.25c.656 0 .703.062.703.452v3.64c0 .407-.047.454-.703.454V0c.281-.016.844-.031 1.062-.031.22 0 .766.015 1.063.031v-.25c-.656 0-.719-.047-.719-.453V-2.5h2.36v1.797c0 .406-.063.453-.72.453V0c.298-.016.845-.031 1.063-.031.219 0 .766.015 1.063.031v-.25c-.657 0-.703-.047-.703-.453v-3.64c0-.391.046-.454.703-.454v-.25c-.282.016-.844.031-1.063.031s-.765-.015-1.062-.03v.25c.656 0 .719.062.719.452zm0 0" style="stroke:none"/></symbol><symbol id="j" overflow="visible" style="overflow:visible"><path d="M3.234-5c-.062-.156-.109-.203-.218-.203-.141 0-.157.047-.203.172L1.234-.97c-.109.266-.28.703-.906.719V0c.219-.016.5-.031.719-.031.172 0 .625.015.812.031v-.25c-.406-.016-.437-.344-.437-.437 0-.079 0-.094.328-.97h2.031L4-1.108c.078.203.203.53.203.593 0 .266-.344.266-.516.266V0c.266-.016.844-.031 1.047-.031.329 0 .72.015.954.031v-.25c-.563 0-.641-.047-.766-.39Zm.454 3.094H1.859l.922-2.36Zm0 0" style="stroke:none"/></symbol><symbol id="k" overflow="visible" style="overflow:visible"><path d="M3.766-4.953c0-.156 0-.234-.094-.234-.063 0-.078.015-.219.234-.047.047-.14.187-.187.25a1.74 1.74 0 0 0-1.22-.484C1.142-5.187.5-4.516.5-3.75c0 .547.313.875.438 1 .296.281.484.328 1.39.531.531.125.625.14.844.36.062.03.328.297.328.734 0 .484-.39 1.016-1.062 1.016-.266 0-.782-.032-1.204-.375C.781-.828.75-1.312.75-1.578c-.016-.078-.094-.094-.125-.094-.125 0-.125.078-.125.25v1.328C.5.063.5.141.594.141.656.14.672.125.813-.094A1.4 1.4 0 0 0 1-.344c.281.25.797.485 1.438.485A1.54 1.54 0 0 0 4-1.391c0-.625-.39-1.015-.39-1.015-.36-.375-.516-.406-1.36-.61a21 21 0 0 1-.594-.14C1.156-3.36 1-3.734 1-4.031c0-.453.39-.938 1.047-.938 1.25 0 1.422 1.157 1.469 1.469.015.063.015.125.125.125.125 0 .125-.047.125-.234zm0 0" style="stroke:none"/></symbol><symbol id="l" overflow="visible" style="overflow:visible"><path d="M4.781-5.016H.421v.25c.657 0 .704.063.704.454v3.609c0 .406-.047.453-.703.453V0h4.484l.282-1.906h-.235C4.781-.72 4.547-.25 3.281-.25H2.234c-.343 0-.406-.031-.406-.422v-1.812h.688c.734 0 .843.203.843.859h.25v-1.953h-.25c0 .656-.109.844-.843.844h-.688v-1.61c0-.39.063-.422.406-.422h1c1.125 0 1.391.344 1.5 1.407h.235Zm0 0" style="stroke:none"/></symbol><symbol id="m" overflow="visible" style="overflow:visible"><path d="M4.156-.078C4.891-.375 5.734-1.25 5.734-2.5c0-1.469-1.156-2.687-2.609-2.687C1.656-5.187.5-3.97.5-2.5A2.624 2.624 0 0 0 3.125.14c.344 0 .656-.078.719-.093.156.734.281 1.36.969 1.36.734 0 .968-.86.968-1.329 0-.078 0-.187-.11-.187-.093 0-.093.062-.109.172-.062.375-.437.5-.671.5-.157 0-.438 0-.735-.641m-1.625-.14C2.047-.407 1.312-.985 1.312-2.5c0-1.828 1.047-2.437 1.813-2.437.75 0 1.797.609 1.797 2.437 0 .828-.234 1.672-.906 2.125-.157-.281-.391-.75-.891-.75a.634.634 0 0 0-.656.625c0 .172.047.266.062.281M3.766-.25c-.016.016-.297.14-.641.14-.422 0-.453-.343-.453-.39 0-.219.187-.406.453-.406.313 0 .531.219.64.656m0 0" style="stroke:none"/></symbol><symbol id="n" overflow="visible" style="overflow:visible"><path d="M1.828-4.344c0-.39.063-.453.719-.453v-.25c-.297.016-.844.031-1.063.031S.72-5.03.422-5.046v.25c.672 0 .703.062.703.484v2.125c0 .25 0 .609.016.734C1.234-.656 2.016.14 3.109.14c1.141 0 1.766-1 1.782-1.72v-2.609c0-.39.265-.609.703-.609v-.25c-.25.016-.766.031-.828.031-.266 0-.563-.015-.828-.03v.25c.703 0 .703.515.703.75v2.296c0 1.14-.844 1.64-1.516 1.64-.297 0-1.297-.109-1.297-1.593zm0 0" style="stroke:none"/></symbol><symbol id="o" overflow="visible" style="overflow:visible"><path d="M1.828-4.375c0-.25.016-.344.11-.39.078-.032.343-.032.515-.032.719 0 1.563.031 1.563 1.078 0 .375-.047 1.094-1.328 1.094h-.86ZM3.563-2.5c.687-.172 1.296-.625 1.296-1.219 0-.687-.875-1.328-2.062-1.328H.437v.25c.657 0 .704.063.704.453v3.64c0 .407-.047.454-.703.454V0c.296-.016.765-.031 1.046-.031s.797.015 1.047.031v-.25c-.656 0-.703-.047-.703-.453v-1.703h.875c.25 0 .5 0 .813.312.203.203.203.438.203.875 0 .547 0 .735.312 1.032.172.171.578.328 1.016.328.625 0 .766-.61.766-.813 0-.047 0-.14-.125-.14-.11 0-.11.093-.11.125-.078.593-.422.609-.5.609-.187 0-.281-.125-.344-.234C4.656-.47 4.61-.75 4.47-1.375c-.078-.344-.172-.844-.907-1.125m0 0" style="stroke:none"/></symbol><symbol id="p" overflow="visible" style="overflow:visible"><path d="m3.266-2.344-1.36-2a.46.46 0 0 1-.11-.265c0-.188.282-.188.407-.188v-.25c-.265.016-.906.031-1.062.031-.266 0-.657-.015-.953-.03v.25c.515 0 .625.062.796.312l1.688 2.468v1.313c0 .406-.047.453-.703.453V0C2.25-.016 2.734-.031 3-.031c.281 0 .797.015 1.047.031v-.25c-.656 0-.703-.047-.703-.484v-1.282l1.422-2.093c.359-.532.687-.672 1.062-.688v-.25a10 10 0 0 1-.687.031c-.266 0-.532-.015-.797-.03v.25c.203.015.281.14.281.296 0 .14-.078.266-.156.375zm0 0" style="stroke:none"/></symbol><symbol id="J" overflow="visible" style="overflow:visible"><path d="M2.25-5.953a.6.6 0 0 1-.047-.156c0-.282.516-.282.797-.282v-.312c-.344.031-1.047.031-1.422.031-.469 0-.89-.016-1.25-.031v.312c.766 0 .844.032.984.36L3.75.016c.063.14.078.203.234.203.172 0 .188-.047.25-.203l2.329-5.782c.25-.625.89-.625 1.078-.625v-.312a20 20 0 0 1-.953.031c-.297 0-.86-.016-1.11-.031v.312c.563 0 .688.297.688.47 0 .046 0 .077-.047.202L4.28-.906zm0 0" style="stroke:none"/></symbol><symbol id="K" overflow="visible" style="overflow:visible"><path d="M4.688-5.016H.422v.25c.656 0 .703.063.703.454v3.609c0 .406-.047.453-.703.453V0c.328-.016.844-.031 1.094-.031.312 0 .922.015 1.203.031v-.25c-.735 0-.89 0-.89-.484v-1.657H2.5c.719 0 .828.22.828.86h.25v-1.953h-.25c0 .656-.11.859-.828.859h-.672v-1.719c0-.39.063-.422.406-.422h.922c1.078 0 1.375.313 1.469 1.407h.234zm0 0" style="stroke:none"/></symbol><symbol id="q" overflow="visible" style="overflow:visible"><path d="M1.563-.453c.312.281.75.562 1.328.562.953 0 1.812-.968 1.812-2.296 0-1.172-.61-2.282-1.547-2.282-.594 0-1.172.203-1.61.594v-.484h-.75v6.265h.767Zm0-2.813c.25-.343.625-.578 1.046-.578.75 0 1.329.75 1.329 1.656 0 1.016-.688 1.704-1.422 1.704-.391 0-.657-.203-.844-.47-.11-.14-.11-.171-.11-.343Zm0 0" style="stroke:none"/></symbol><symbol id="r" overflow="visible" style="overflow:visible"><path d="M4.61-2.156c0-1.313-.985-2.375-2.157-2.375C1.25-4.531.297-3.438.297-2.156c0 1.297 1 2.265 2.14 2.265 1.188 0 2.172-1 2.172-2.265M2.436-.516c-.671 0-1.374-.546-1.374-1.734s.75-1.672 1.375-1.672c.687 0 1.406.5 1.406 1.672 0 1.156-.672 1.734-1.406 1.734m0 0" style="stroke:none"/></symbol><symbol id="s" overflow="visible" style="overflow:visible"><path d="M1.531-6.812H.797V0h.734Zm0 0" style="stroke:none"/></symbol><symbol id="t" overflow="visible" style="overflow:visible"><path d="M4.375-4.36h-.734C2.359-1.233 2.344-.78 2.328-.561c-.062-.657-.844-2.485-.89-2.563L.906-4.359H.141L2.047 0c-.125.297-.313.797-.36.89-.25.563-.421.563-.562.563a2.5 2.5 0 0 1-.766-.156l.063.64c.219.047.484.079.703.079.344 0 .703-.125 1.11-1.125zm0 0" style="stroke:none"/></symbol><symbol id="u" overflow="visible" style="overflow:visible"><path d="M4.266-2.922c0-.656-.141-1.547-1.344-1.547-.875 0-1.36.672-1.422.75v-.703H.797V0h.766v-2.406c0-.64.25-1.453.984-1.453.953 0 .953.687.953 1V0h.766zm0 0" style="stroke:none"/></symbol><symbol id="v" overflow="visible" style="overflow:visible"><path d="M7-2.922c0-.656-.156-1.547-1.344-1.547-.593 0-1.11.282-1.468.813-.25-.75-.938-.813-1.25-.813-.704 0-1.172.407-1.438.766v-.719H.797V0h.766v-2.406c0-.672.265-1.453.984-1.453.922 0 .969.625.969 1V0h.765v-2.406c0-.672.266-1.453.985-1.453.922 0 .968.625.968 1V0H7Zm0 0" style="stroke:none"/></symbol><symbol id="w" overflow="visible" style="overflow:visible"><path d="M1.594-6.672H.719v.875h.875zM1.53-4.359H.797V0h.734Zm0 0" style="stroke:none"/></symbol><symbol id="x" overflow="visible" style="overflow:visible"><path d="M3.922-2.828c0-1.016-.719-1.703-1.625-1.703-.64 0-1.078.172-1.547.422l.063.656c.515-.36 1-.485 1.484-.485.453 0 .86.391.86 1.11v.422C1.671-2.391.436-1.97.436-1.11c0 .422.266 1.218 1.11 1.218.14 0 1.062-.015 1.625-.468V0h.75zm-.766 1.531c0 .188 0 .438-.344.625-.28.172-.656.188-.765.188-.469 0-.906-.235-.906-.641 0-.687 1.593-.766 2.015-.781zm0 0" style="stroke:none"/></symbol><symbol id="y" overflow="visible" style="overflow:visible"><path d="M4.063-2.156c0-.328-.016-1.063-.391-1.656-.406-.61-1-.72-1.36-.72-1.078 0-1.968 1.048-1.968 2.313C.344-.922 1.28.11 2.469.11c.61 0 1.172-.234 1.547-.515l-.047-.64a2.4 2.4 0 0 1-1.5.562c-.781 0-1.406-.703-1.438-1.672zm-2.985-.531c.156-.75.672-1.235 1.235-1.235.515 0 1.062.328 1.187 1.235zm0 0" style="stroke:none"/></symbol><symbol id="z" overflow="visible" style="overflow:visible"><path d="M4.375-4.36h-.734l-.782 2.048c-.203.53-.5 1.328-.578 1.796h-.015c-.063-.359-.313-1.03-.407-1.296L.906-4.36H.141L1.828 0h.86Zm0 0" style="stroke:none"/></symbol><symbol id="A" overflow="visible" style="overflow:visible"><path d="M4.266-4.36H3.5v2.844c0 .735-.547 1.079-1.172 1.079-.703 0-.765-.25-.765-.672v-3.25H.797v3.297c0 .703.219 1.171 1.031 1.171.531 0 1.219-.156 1.703-.578V0h.735zm0 0" style="stroke:none"/></symbol><symbol id="B" overflow="visible" style="overflow:visible"><path d="M1.719-3.781h1.375v-.578H1.719v-1.25h-.672v1.25h-.86v.578h.829v2.61c0 .593.125 1.28.812 1.28S3.016-.14 3.25-.266l-.156-.578c-.25.203-.563.328-.875.328-.36 0-.5-.296-.5-.812zm0 0" style="stroke:none"/></symbol><symbol id="C" overflow="visible" style="overflow:visible"><path d="M4.016-4.11c-.578-.327-.907-.421-1.5-.421-1.375 0-2.157 1.187-2.157 2.36C.36-.97 1.25.108 2.47.108c.531 0 1.078-.14 1.61-.5l-.063-.656a2.44 2.44 0 0 1-1.532.531c-.812 0-1.359-.718-1.359-1.671 0-.766.36-1.704 1.39-1.704.516 0 .844.079 1.391.422zm0 0" style="stroke:none"/></symbol><symbol id="D" overflow="visible" style="overflow:visible"><path d="M4.266-6.812h-.75v2.89a2.22 2.22 0 0 0-1.422-.547c-.969 0-1.735 1.032-1.735 2.297C.36-.89 1.11.11 2.047.11c.312 0 .89-.093 1.453-.625V0h.766ZM3.5-1.36c0 .125-.016.312-.328.593a1.06 1.06 0 0 1-.735.282c-.609 0-1.312-.47-1.312-1.688 0-1.297.844-1.687 1.422-1.687.437 0 .734.218.953.53zm0 0" style="stroke:none"/></symbol><symbol id="E" overflow="visible" style="overflow:visible"><path d="M6.563-4.36h-.72l-.64 2.079c-.094.36-.39 1.328-.437 1.75H4.75c-.047-.297-.281-1.172-.453-1.735l-.64-2.093h-.688l-.563 1.843c-.094.344-.437 1.47-.469 1.97h-.015c-.047-.47-.375-1.579-.531-2.11L.89-4.36H.14L1.484 0h.766c.063-.156.406-1.25.61-2.016.14-.453.421-1.421.453-1.796.03.28.187.953.312 1.374L4.344 0h.86zm0 0" style="stroke:none"/></symbol><symbol id="F" overflow="visible" style="overflow:visible"><path d="M1.547-2.094c0-.984.703-1.687 1.656-1.719v-.656c-.875.016-1.406.5-1.719.953v-.906H.797V0h.75zm0 0" style="stroke:none"/></symbol><symbol id="G" overflow="visible" style="overflow:visible"><path d="M5.203-3.484c-.344.89-.812 2.109-.922 2.578-.047-.219-.172-.578-.312-.985L2.422-5.953l-.328-.86H.984V0h.766v-6.078c.063.312.453 1.375.719 2.047L3.922-.22h.703l1.313-3.406c.312-.812.406-1.062.468-1.25.094-.281.36-1 .407-1.219l.015.016V0h.766v-6.812H6.469zm0 0" style="stroke:none"/></symbol><symbol id="H" overflow="visible" style="overflow:visible"><path d="m2.75-2.672 1.656-1.687h-.89L1.53-2.312v-4.5H.828V0H1.5v-1.39l.781-.813L3.812 0h.813Zm0 0" style="stroke:none"/></symbol><symbol id="I" overflow="visible" style="overflow:visible"><path d="M3.922-3.969v-.39H.406v.578h2.485L.28-.406V0h3.657v-.61H2.5c-.11 0-.234.016-.344.016h-.844Zm0 0" style="stroke:none"/></symbol><symbol id="L" overflow="visible" style="overflow:visible"><path d="M3.453-3.844c.219 0 .485-.031.735-.031.171 0 .546.031.578.031l-.11-.625c-.687 0-1.265.188-1.562.313a1.54 1.54 0 0 0-.922-.313c-.844 0-1.563.703-1.563 1.61 0 .359.125.703.329.968-.297.407-.297.782-.297.829 0 .265.093.546.265.75C.391-.017.281.438.281.702c0 .735.969 1.313 2.157 1.313 1.218 0 2.187-.578 2.187-1.328 0-1.36-1.64-1.36-2.031-1.36h-.86c-.125 0-.562 0-.562-.531 0-.11.031-.266.11-.344.202.14.53.281.89.281.875 0 1.562-.718 1.562-1.593 0-.485-.218-.844-.312-.985zM2.172-1.828c-.36 0-.875-.219-.875-1.031 0-.828.516-1.047.875-1.047.422 0 .875.281.875 1.047s-.453 1.03-.875 1.03m.437 1.86c.22 0 1.329 0 1.329.671 0 .438-.688.766-1.485.766S.97 1.156.97.703c0-.031 0-.672.765-.672zm0 0" style="stroke:none"/></symbol><symbol id="M" overflow="visible" style="overflow:visible"><path d="M4.266-2.922c0-.656-.141-1.547-1.344-1.547-.61 0-1.078.313-1.39.703v-3.046H.796V0h.766v-2.406c0-.64.25-1.453.984-1.453.953 0 .953.687.953 1V0h.766zm0 0" style="stroke:none"/></symbol><symbol id="O" overflow="visible" style="overflow:visible"><path d="M3.36-4.203c-.5-.234-.907-.328-1.407-.328-.25 0-1.625 0-1.625 1.297 0 .484.281.797.531.984.297.203.516.25 1.047.36.36.062.922.187.922.702 0 .672-.765.672-.922.672-.781 0-1.343-.359-1.515-.468l-.11.656c.313.156.844.437 1.64.437.173 0 .72 0 1.142-.312.296-.234.468-.625.468-1.047 0-.547-.36-.875-.375-.906-.39-.344-.656-.406-1.14-.5-.547-.094-1-.203-1-.688 0-.594.718-.594.843-.594.313 0 .829.032 1.391.36zm0 0" style="stroke:none"/></symbol><symbol id="P" overflow="visible" style="overflow:visible"><path d="M2.703-1.89v-.579H.11v.578zm0 0" style="stroke:none"/></symbol><symbol id="Q" overflow="visible" style="overflow:visible"><path d="M1.734-3.781h1.079v-.578h-1.11v-1.172c0-.719.656-.782.906-.782.204 0 .47.016.797.157v-.657c-.125-.03-.422-.109-.781-.109-.922 0-1.64.703-1.64 1.688v.875h-.72v.578h.72V0h.75zm0 0" style="stroke:none"/></symbol><symbol id="N" overflow="visible" style="overflow:visible"><path d="M4.688-2.312c0-1.547-.922-2.032-1.641-2.032-1.344 0-2.64 1.407-2.64 2.797C.406-.64.983.11 1.983.11c.625 0 1.329-.234 2.079-.828.125.516.453.828.89.828.516 0 .828-.546.828-.703 0-.062-.062-.094-.125-.094-.062 0-.093.032-.125.094-.172.485-.531.485-.547.485-.296 0-.296-.766-.296-1 0-.203 0-.22.093-.344.922-1.156 1.125-2.297 1.125-2.313a.1.1 0 0 0-.11-.093c-.109 0-.109.03-.155.203-.172.625-.5 1.375-.953 1.953zM4.016-.97c-.86.75-1.61.86-2 .86-.594 0-.891-.438-.891-1.063 0-.484.266-1.547.578-2.047.453-.719.984-.906 1.328-.906C4-4.125 4-2.828 4-2.078c0 .375 0 .937.016 1.11m0 0" style="stroke:none"/></symbol><symbol id="R" overflow="visible" style="overflow:visible"><path d="M4.484-6.812h-.812V-6h.812zM4.438-4.36h-.735V0h.735Zm-2.704.578h1.157v-.578H1.703v-1.188c0-.625.344-.766.594-.766.203 0 .422.063.594.172v-.671c-.063-.016-.313-.11-.594-.11-.735 0-1.313.688-1.313 1.672v.89H.266v.579h.718V0h.75zm0 0" style="stroke:none"/></symbol><clipPath id="a"><path d="M239.527 161.574h362.836V433.7H239.527Zm0 0"/></clipPath><clipPath id="b"><path d="M243 299h356v134.7H243Zm0 0"/></clipPath></defs><g clip-path="url(#a)" style="clip-rule:nonzero" transform="translate(-239.527 -161.574)"><path d="M239.527 161.574h362.836V433.7H239.527Zm0 0" style="fill:#fff;fill-opacity:1;fill-rule:nonzero;stroke:none"/></g><path d="M383.953 194.727h-98.078c-7.828 0-14.172 6.343-14.172 14.171v94.114c0 7.824 6.344 14.172 14.172 14.172H556.02c7.828 0 14.171-6.348 14.171-14.172v-94.114c0-7.828-6.343-14.171-14.171-14.171H383.953" style="fill:none;stroke:#bfbfbf;stroke-width:1.99255002;stroke-linecap:butt;stroke-linejoin:miter;stroke-miterlimit:10;stroke-dasharray:2.98883,2.98883;stroke-opacity:1" transform="translate(-239.527 -161.574)"/><g clip-path="url(#b)" style="clip-rule:nonzero" transform="translate(-239.527 -161.574)"><path d="M383.953 327.387h-98.078c-7.828 0-14.172 6.347-14.172 14.176V392.3c0 7.828 6.344 14.176 14.172 14.176H556.02c7.828 0 14.171-6.348 14.171-14.176v-50.738c0-7.829-6.343-14.176-14.171-14.176H383.953" style="fill:none;stroke:#bfbfbf;stroke-width:1.99255002;stroke-linecap:butt;stroke-linejoin:miter;stroke-miterlimit:10;stroke-dasharray:2.98883,2.98883;stroke-opacity:1"/></g><g style="fill:#7f7f7f;fill-opacity:1" transform="translate(-239.527 -161.574)"><use xlink:href="#c" width="100%" height="100%" x="427.15" y="210.004"/><use xlink:href="#d" width="100%" height="100%" x="432.953" y="210.004"/><use xlink:href="#e" width="100%" height="100%" x="439.187" y="210.004"/><use xlink:href="#e" width="100%" height="100%" x="446.512" y="210.004"/><use xlink:href="#f" width="100%" height="100%" x="453.836" y="210.004"/><use xlink:href="#g" width="100%" height="100%" x="456.801" y="210.004"/></g><g style="fill:#7f7f7f;fill-opacity:1" transform="translate(-239.527 -161.574)"><use xlink:href="#h" width="100%" height="100%" x="466.335" y="210.004"/><use xlink:href="#i" width="100%" height="100%" x="471.803" y="210.004"/><use xlink:href="#j" width="100%" height="100%" x="477.822" y="210.004"/><use xlink:href="#k" width="100%" height="100%" x="483.841" y="210.004"/></g><use xlink:href="#l" width="100%" height="100%" x="488.357" y="210.004" style="fill:#7f7f7f;fill-opacity:1" transform="translate(-239.527 -161.574)"/><g style="fill:#7f7f7f;fill-opacity:1" transform="translate(-239.527 -161.574)"><use xlink:href="#m" width="100%" height="100%" x="430.379" y="341.955"/><use xlink:href="#n" width="100%" height="100%" x="436.614" y="341.955"/><use xlink:href="#l" width="100%" height="100%" x="442.632" y="341.955"/><use xlink:href="#o" width="100%" height="100%" x="448.101" y="341.955"/></g><use xlink:href="#p" width="100%" height="100%" x="453.374" y="341.955" style="fill:#7f7f7f;fill-opacity:1" transform="translate(-239.527 -161.574)"/><g style="fill:#7f7f7f;fill-opacity:1" transform="translate(-239.527 -161.574)"><use xlink:href="#h" width="100%" height="100%" x="463.103" y="341.955"/><use xlink:href="#i" width="100%" height="100%" x="468.572" y="341.955"/><use xlink:href="#j" width="100%" height="100%" x="474.591" y="341.955"/><use xlink:href="#k" width="100%" height="100%" x="480.609" y="341.955"/><use xlink:href="#l" width="100%" height="100%" x="485.096" y="341.955"/></g><use xlink:href="#q" width="100%" height="100%" x="285.259" y="184.424" style="fill:#00007f;fill-opacity:1" transform="translate(-239.527 -161.574)"/><g style="fill:#00007f;fill-opacity:1" transform="translate(-239.527 -161.574)"><use xlink:href="#r" width="100%" height="100%" x="290.61" y="184.424"/><use xlink:href="#s" width="100%" height="100%" x="295.519" y="184.424"/><use xlink:href="#t" width="100%" height="100%" x="297.856" y="184.424"/><use xlink:href="#u" width="100%" height="100%" x="302.382" y="184.424"/><use xlink:href="#r" width="100%" height="100%" x="307.448" y="184.424"/><use xlink:href="#v" width="100%" height="100%" x="312.358" y="184.424"/><use xlink:href="#w" width="100%" height="100%" x="320.153" y="184.424"/></g><g style="fill:#00007f;fill-opacity:1" transform="translate(-239.527 -161.574)"><use xlink:href="#x" width="100%" height="100%" x="322.519" y="184.424"/><use xlink:href="#s" width="100%" height="100%" x="327.232" y="184.424"/></g><path d="M323.977 200.8h-33.114a3.543 3.543 0 0 0-3.543 3.544v6.277a3.543 3.543 0 0 0 3.543 3.543h33.114a3.543 3.543 0 0 0 3.543-3.543v-6.277a3.543 3.543 0 0 0-3.543-3.543zm0 0" style="fill:none;stroke:#007f00;stroke-width:.3985;stroke-linecap:butt;stroke-linejoin:miter;stroke-miterlimit:10;stroke-opacity:1" transform="translate(-239.527 -161.574)"/><g style="fill:#007f00;fill-opacity:1" transform="translate(-239.527 -161.574)"><use xlink:href="#y" width="100%" height="100%" x="290.59" y="210.891"/><use xlink:href="#z" width="100%" height="100%" x="294.95" y="210.891"/><use xlink:href="#x" width="100%" height="100%" x="299.476" y="210.891"/><use xlink:href="#s" width="100%" height="100%" x="304.189" y="210.891"/><use xlink:href="#A" width="100%" height="100%" x="306.525" y="210.891"/></g><g style="fill:#007f00;fill-opacity:1" transform="translate(-239.527 -161.574)"><use xlink:href="#x" width="100%" height="100%" x="311.621" y="210.891"/><use xlink:href="#B" width="100%" height="100%" x="316.334" y="210.891"/><use xlink:href="#y" width="100%" height="100%" x="319.878" y="210.891"/></g><path d="M307.418 189.785v10.38" style="fill:none;stroke:#000;stroke-width:.3985;stroke-linecap:butt;stroke-linejoin:miter;stroke-miterlimit:10;stroke-opacity:1" transform="translate(-239.527 -161.574)"/><path d="M198.969 309.012c.097-.598 1.195-1.492 1.492-1.594-.297-.098-1.395-.996-1.492-1.594" style="fill:none;stroke:#000;stroke-width:.31878999;stroke-linecap:round;stroke-linejoin:round;stroke-miterlimit:10;stroke-opacity:1" transform="matrix(0 1 1 0 -239.527 -161.574)"/><g style="fill:#007f00;fill-opacity:1" transform="translate(-239.527 -161.574)"><use xlink:href="#C" width="100%" height="100%" x="288.177" y="236.403"/><use xlink:href="#r" width="100%" height="100%" x="292.537" y="236.403"/></g><g style="fill:#007f00;fill-opacity:1" transform="translate(-239.527 -161.574)"><use xlink:href="#D" width="100%" height="100%" x="297.721" y="236.403"/><use xlink:href="#y" width="100%" height="100%" x="302.787" y="236.403"/><use xlink:href="#E" width="100%" height="100%" x="307.146" y="236.403"/></g><use xlink:href="#r" width="100%" height="100%" x="313.597" y="236.403" style="fill:#007f00;fill-opacity:1" transform="translate(-239.527 -161.574)"/><g style="fill:#007f00;fill-opacity:1" transform="translate(-239.527 -161.574)"><use xlink:href="#F" width="100%" height="100%" x="318.231" y="236.403"/><use xlink:href="#D" width="100%" height="100%" x="321.579" y="236.403"/></g><path d="M307.418 214.344v11.332" style="fill:none;stroke:#000;stroke-width:.3985;stroke-linecap:butt;stroke-linejoin:miter;stroke-miterlimit:10;stroke-opacity:1" transform="translate(-239.527 -161.574)"/><path d="M224.48 309.012c.098-.598 1.196-1.492 1.493-1.594-.297-.098-1.395-.996-1.493-1.594" style="fill:none;stroke:#000;stroke-width:.31878999;stroke-linecap:round;stroke-linejoin:round;stroke-miterlimit:10;stroke-opacity:1" transform="matrix(0 1 1 0 -239.527 -161.574)"/><path d="M377.57 251.824h-38.254a3.543 3.543 0 0 0-3.543 3.543v6.278a3.543 3.543 0 0 0 3.543 3.542h38.254a3.543 3.543 0 0 0 3.543-3.542v-6.278a3.543 3.543 0 0 0-3.543-3.543zm0 0" style="fill:none;stroke:#007f00;stroke-width:.3985;stroke-linecap:butt;stroke-linejoin:miter;stroke-miterlimit:10;stroke-opacity:1" transform="translate(-239.527 -161.574)"/><g style="fill:#007f00;fill-opacity:1" transform="translate(-239.527 -161.574)"><use xlink:href="#G" width="100%" height="100%" x="339.043" y="261.914"/><use xlink:href="#y" width="100%" height="100%" x="347.634" y="261.914"/><use xlink:href="#F" width="100%" height="100%" x="351.994" y="261.914"/><use xlink:href="#H" width="100%" height="100%" x="355.342" y="261.914"/><use xlink:href="#s" width="100%" height="100%" x="360.133" y="261.914"/></g><g style="fill:#007f00;fill-opacity:1" transform="translate(-239.527 -161.574)"><use xlink:href="#y" width="100%" height="100%" x="362.499" y="261.914"/><use xlink:href="#w" width="100%" height="100%" x="366.858" y="261.914"/><use xlink:href="#I" width="100%" height="100%" x="369.195" y="261.914"/><use xlink:href="#y" width="100%" height="100%" x="373.456" y="261.914"/></g><path d="m321.137 239.855 23.176 11.586" style="fill:none;stroke:#000;stroke-width:.3985;stroke-linecap:butt;stroke-linejoin:miter;stroke-miterlimit:10;stroke-opacity:1" transform="translate(-239.527 -161.574)"/><path d="M374.968-62.036c.088-.534 1.068-1.338 1.335-1.427-.266-.086-1.247-.889-1.335-1.425" style="fill:none;stroke:#000;stroke-width:.28512901;stroke-linecap:round;stroke-linejoin:round;stroke-miterlimit:10;stroke-opacity:1" transform="matrix(1 .4999 .4999 -1 -239.527 -161.574)"/><g style="fill:#007f00;fill-opacity:1" transform="translate(-239.527 -161.574)"><use xlink:href="#G" width="100%" height="100%" x="410.935" y="261.914"/><use xlink:href="#y" width="100%" height="100%" x="419.526" y="261.914"/><use xlink:href="#F" width="100%" height="100%" x="423.886" y="261.914"/><use xlink:href="#H" width="100%" height="100%" x="427.234" y="261.914"/><use xlink:href="#s" width="100%" height="100%" x="432.025" y="261.914"/></g><use xlink:href="#y" width="100%" height="100%" x="434.391" y="261.914" style="fill:#007f00;fill-opacity:1" transform="translate(-239.527 -161.574)"/><g style="fill:#007f00;fill-opacity:1" transform="translate(-239.527 -161.574)"><use xlink:href="#F" width="100%" height="100%" x="442.02" y="261.914"/><use xlink:href="#r" width="100%" height="100%" x="445.368" y="261.914"/></g><g style="fill:#007f00;fill-opacity:1" transform="translate(-239.527 -161.574)"><use xlink:href="#r" width="100%" height="100%" x="450.562" y="261.914"/><use xlink:href="#B" width="100%" height="100%" x="455.471" y="261.914"/></g><path d="M381.293 258.504h25.734" style="fill:none;stroke:#000;stroke-width:.3985;stroke-linecap:butt;stroke-linejoin:miter;stroke-miterlimit:10;stroke-opacity:1" transform="translate(-239.527 -161.574)"/><path d="M405.832 256.91c.098.598 1.195 1.496 1.492 1.594-.297.101-1.394.996-1.492 1.594" style="fill:none;stroke:#000;stroke-width:.31878999;stroke-linecap:round;stroke-linejoin:round;stroke-miterlimit:10;stroke-opacity:1" transform="translate(-239.527 -161.574)"/><path d="M511.516 181.969v229.61m51.024-229.61v229.61" style="fill:none;stroke:#000;stroke-width:.99628001;stroke-linecap:butt;stroke-linejoin:miter;stroke-miterlimit:10;stroke-opacity:1" transform="translate(-239.527 -161.574)"/><g style="fill:#000;fill-opacity:1" transform="translate(-239.527 -161.574)"><use xlink:href="#J" width="100%" height="100%" x="516.042" y="185.325"/><use xlink:href="#l" width="100%" height="100%" x="524.025" y="185.325"/><use xlink:href="#o" width="100%" height="100%" x="529.493" y="185.325"/><use xlink:href="#f" width="100%" height="100%" x="535.404" y="185.325"/><use xlink:href="#K" width="100%" height="100%" x="538.369" y="185.325"/></g><g style="fill:#000;fill-opacity:1" transform="translate(-239.527 -161.574)"><use xlink:href="#f" width="100%" height="100%" x="543.651" y="185.325"/><use xlink:href="#l" width="100%" height="100%" x="546.616" y="185.325"/><use xlink:href="#o" width="100%" height="100%" x="552.085" y="185.325"/></g><path d="M462.469 258.504H498.3" style="fill:none;stroke:#000;stroke-width:.3985;stroke-linecap:butt;stroke-linejoin:miter;stroke-miterlimit:10;stroke-opacity:1" transform="translate(-239.527 -161.574)"/><path d="M497.105 256.91c.098.598 1.196 1.496 1.493 1.594-.297.101-1.395.996-1.493 1.598" style="fill:none;stroke:#000;stroke-width:.31878999;stroke-linecap:round;stroke-linejoin:round;stroke-miterlimit:10;stroke-opacity:1" transform="translate(-239.527 -161.574)"/><use xlink:href="#E" width="100%" height="100%" x="416.845" y="286.471" style="fill:#007f00;fill-opacity:1" transform="translate(-239.527 -161.574)"/><g style="fill:#007f00;fill-opacity:1" transform="translate(-239.527 -161.574)"><use xlink:href="#y" width="100%" height="100%" x="423.276" y="286.471"/><use xlink:href="#w" width="100%" height="100%" x="427.636" y="286.471"/><use xlink:href="#L" width="100%" height="100%" x="429.972" y="286.471"/><use xlink:href="#M" width="100%" height="100%" x="434.881" y="286.471"/><use xlink:href="#B" width="100%" height="100%" x="439.948" y="286.471"/></g><use xlink:href="#N" width="100%" height="100%" x="446.791" y="286.471" style="fill:#007f00;fill-opacity:1" transform="translate(-239.527 -161.574)"/><path d="m498.758 284.02-41.738-.004" style="fill:none;stroke:#000;stroke-width:.3985;stroke-linecap:butt;stroke-linejoin:miter;stroke-miterlimit:10;stroke-opacity:1" transform="translate(-239.527 -161.574)"/><path d="M458.215 285.61c-.102-.598-1.195-1.493-1.496-1.594.3-.098 1.394-.996 1.496-1.594" style="fill:none;stroke:#000;stroke-width:.31878999;stroke-linecap:round;stroke-linejoin:round;stroke-miterlimit:10;stroke-opacity:1" transform="translate(-239.527 -161.574)"/><path d="M334.05 276.383h-53.265a3.543 3.543 0 0 0-3.543 3.543v8.183a3.543 3.543 0 0 0 3.543 3.543h53.266a3.543 3.543 0 0 0 3.543-3.543v-8.183a3.543 3.543 0 0 0-3.543-3.543zm0 0" style="fill:none;stroke:#007f00;stroke-width:.3985;stroke-linecap:butt;stroke-linejoin:miter;stroke-miterlimit:10;stroke-opacity:1" transform="translate(-239.527 -161.574)"/><g style="fill:#007f00;fill-opacity:1" transform="translate(-239.527 -161.574)"><use xlink:href="#O" width="100%" height="100%" x="280.513" y="286.471"/><use xlink:href="#q" width="100%" height="100%" x="284.274" y="286.471"/><use xlink:href="#s" width="100%" height="100%" x="289.34" y="286.471"/><use xlink:href="#w" width="100%" height="100%" x="291.677" y="286.471"/></g><g style="fill:#007f00;fill-opacity:1" transform="translate(-239.527 -161.574)"><use xlink:href="#B" width="100%" height="100%" x="294.043" y="286.471"/><use xlink:href="#P" width="100%" height="100%" x="297.587" y="286.471"/><use xlink:href="#x" width="100%" height="100%" x="300.857" y="286.471"/><use xlink:href="#u" width="100%" height="100%" x="305.569" y="286.471"/><use xlink:href="#D" width="100%" height="100%" x="310.636" y="286.471"/><use xlink:href="#P" width="100%" height="100%" x="315.702" y="286.471"/><use xlink:href="#Q" width="100%" height="100%" x="318.971" y="286.471"/></g><g style="fill:#007f00;fill-opacity:1" transform="translate(-239.527 -161.574)"><use xlink:href="#r" width="100%" height="100%" x="321.995" y="286.471"/><use xlink:href="#s" width="100%" height="100%" x="326.904" y="286.471"/><use xlink:href="#D" width="100%" height="100%" x="329.241" y="286.471"/></g><path d="M413.395 284.016h-75.16" style="fill:none;stroke:#000;stroke-width:.3985;stroke-linecap:butt;stroke-linejoin:miter;stroke-miterlimit:10;stroke-opacity:1" transform="translate(-239.527 -161.574)"/><path d="M339.43 285.61c-.102-.598-1.196-1.493-1.496-1.594.3-.098 1.394-.996 1.496-1.594" style="fill:none;stroke:#000;stroke-width:.31878999;stroke-linecap:round;stroke-linejoin:round;stroke-miterlimit:10;stroke-opacity:1" transform="translate(-239.527 -161.574)"/><path d="M307.418 276.203v-35.89" style="fill:none;stroke:#000;stroke-width:.3985;stroke-linecap:butt;stroke-linejoin:miter;stroke-miterlimit:10;stroke-opacity:1" transform="translate(-239.527 -161.574)"/><path d="M-241.508-305.824c.098-.598 1.196-1.496 1.492-1.594-.297-.102-1.394-.996-1.492-1.594" style="fill:none;stroke:#000;stroke-width:.31878999;stroke-linecap:round;stroke-linejoin:round;stroke-miterlimit:10;stroke-opacity:1" transform="matrix(0 -1 -1 0 -239.527 -161.574)"/><use xlink:href="#R" width="100%" height="100%" x="277.84" y="312.938" style="fill:#007f00;fill-opacity:1" transform="translate(-239.527 -161.574)"/><g style="fill:#007f00;fill-opacity:1" transform="translate(-239.527 -161.574)"><use xlink:href="#u" width="100%" height="100%" x="283.103" y="312.938"/><use xlink:href="#x" width="100%" height="100%" x="288.169" y="312.938"/><use xlink:href="#s" width="100%" height="100%" x="292.882" y="312.938"/></g><g style="fill:#007f00;fill-opacity:1" transform="translate(-239.527 -161.574)"><use xlink:href="#C" width="100%" height="100%" x="298.508" y="312.938"/><use xlink:href="#r" width="100%" height="100%" x="302.867" y="312.938"/></g><g style="fill:#007f00;fill-opacity:1" transform="translate(-239.527 -161.574)"><use xlink:href="#D" width="100%" height="100%" x="308.061" y="312.938"/><use xlink:href="#y" width="100%" height="100%" x="313.127" y="312.938"/><use xlink:href="#E" width="100%" height="100%" x="317.486" y="312.938"/></g><use xlink:href="#r" width="100%" height="100%" x="323.927" y="312.938" style="fill:#007f00;fill-opacity:1" transform="translate(-239.527 -161.574)"/><g style="fill:#007f00;fill-opacity:1" transform="translate(-239.527 -161.574)"><use xlink:href="#F" width="100%" height="100%" x="328.571" y="312.938"/><use xlink:href="#D" width="100%" height="100%" x="331.919" y="312.938"/></g><path d="M307.418 291.832v10.379" style="fill:none;stroke:#000;stroke-width:.3985;stroke-linecap:butt;stroke-linejoin:miter;stroke-miterlimit:10;stroke-opacity:1" transform="translate(-239.527 -161.574)"/><path d="M301.016 309.012c.097-.598 1.195-1.492 1.492-1.594-.297-.098-1.395-.996-1.492-1.594" style="fill:none;stroke:#000;stroke-width:.31878999;stroke-linecap:round;stroke-linejoin:round;stroke-miterlimit:10;stroke-opacity:1" transform="matrix(0 1 1 0 -239.527 -161.574)"/><path d="m340.45 309.527 157.85.004" style="fill:none;stroke:#000;stroke-width:.3985;stroke-linecap:butt;stroke-linejoin:miter;stroke-miterlimit:10;stroke-opacity:1" transform="translate(-239.527 -161.574)"/><path d="M497.105 307.938c.098.597 1.196 1.492 1.493 1.593-.297.098-1.395.996-1.493 1.594" style="fill:none;stroke:#000;stroke-width:.31878999;stroke-linecap:round;stroke-linejoin:round;stroke-miterlimit:10;stroke-opacity:1" transform="translate(-239.527 -161.574)"/><g style="fill:#007f00;fill-opacity:1" transform="translate(-239.527 -161.574)"><use xlink:href="#G" width="100%" height="100%" x="333.2" y="338.449"/><use xlink:href="#y" width="100%" height="100%" x="341.791" y="338.449"/><use xlink:href="#F" width="100%" height="100%" x="346.151" y="338.449"/><use xlink:href="#H" width="100%" height="100%" x="349.499" y="338.449"/><use xlink:href="#s" width="100%" height="100%" x="354.29" y="338.449"/></g><use xlink:href="#y" width="100%" height="100%" x="356.656" y="338.449" style="fill:#007f00;fill-opacity:1" transform="translate(-239.527 -161.574)"/><g style="fill:#007f00;fill-opacity:1" transform="translate(-239.527 -161.574)"><use xlink:href="#B" width="100%" height="100%" x="364.285" y="338.449"/><use xlink:href="#F" width="100%" height="100%" x="367.829" y="338.449"/><use xlink:href="#y" width="100%" height="100%" x="371.177" y="338.449"/><use xlink:href="#y" width="100%" height="100%" x="375.536" y="338.449"/><use xlink:href="#O" width="100%" height="100%" x="379.896" y="338.449"/></g><path d="M358.441 265.367v61.36" style="fill:none;stroke:#fff;stroke-width:1.99255002;stroke-linecap:butt;stroke-linejoin:miter;stroke-miterlimit:10;stroke-opacity:1" transform="translate(-239.527 -161.574)"/><path d="M324.094 361.95c.222-1.317 2.633-3.29 3.289-3.509-.656-.218-3.067-2.191-3.29-3.507" style="fill:none;stroke:#fff;stroke-width:1.59404004;stroke-linecap:round;stroke-linejoin:round;stroke-miterlimit:10;stroke-opacity:1" transform="matrix(0 1 1 0 -239.527 -161.574)"/><path d="M358.441 265.367v62.356" style="fill:none;stroke:#000;stroke-width:.3985;stroke-linecap:butt;stroke-linejoin:miter;stroke-miterlimit:10;stroke-opacity:1" transform="translate(-239.527 -161.574)"/><path d="M326.527 360.035c.098-.598 1.196-1.492 1.493-1.594-.297-.097-1.395-.996-1.493-1.593" style="fill:none;stroke:#000;stroke-width:.31878999;stroke-linecap:round;stroke-linejoin:round;stroke-miterlimit:10;stroke-opacity:1" transform="matrix(0 1 1 0 -239.527 -161.574)"/><path d="M388.664 353.871h-60.441a3.543 3.543 0 0 0-3.543 3.543v6.277a3.543 3.543 0 0 0 3.543 3.543h60.441a3.543 3.543 0 0 0 3.543-3.543v-6.277a3.543 3.543 0 0 0-3.543-3.543zm0 0" style="fill:none;stroke:#007f00;stroke-width:.3985;stroke-linecap:butt;stroke-linejoin:miter;stroke-miterlimit:10;stroke-opacity:1" transform="translate(-239.527 -161.574)"/><g style="fill:#007f00;fill-opacity:1" transform="translate(-239.527 -161.574)"><use xlink:href="#D" width="100%" height="100%" x="327.95" y="363.961"/><use xlink:href="#y" width="100%" height="100%" x="333.017" y="363.961"/><use xlink:href="#C" width="100%" height="100%" x="337.376" y="363.961"/><use xlink:href="#r" width="100%" height="100%" x="341.735" y="363.961"/><use xlink:href="#v" width="100%" height="100%" x="346.644" y="363.961"/><use xlink:href="#v" width="100%" height="100%" x="354.44" y="363.961"/><use xlink:href="#w" width="100%" height="100%" x="362.236" y="363.961"/></g><g style="fill:#007f00;fill-opacity:1" transform="translate(-239.527 -161.574)"><use xlink:href="#B" width="100%" height="100%" x="364.602" y="363.961"/><use xlink:href="#v" width="100%" height="100%" x="368.146" y="363.961"/><use xlink:href="#y" width="100%" height="100%" x="375.942" y="363.961"/><use xlink:href="#u" width="100%" height="100%" x="380.301" y="363.961"/><use xlink:href="#B" width="100%" height="100%" x="385.367" y="363.961"/></g><path d="M358.441 341.902v11.332" style="fill:none;stroke:#000;stroke-width:.3985;stroke-linecap:butt;stroke-linejoin:miter;stroke-miterlimit:10;stroke-opacity:1" transform="translate(-239.527 -161.574)"/><path d="M352.04 360.035c.097-.598 1.194-1.492 1.491-1.594-.297-.097-1.394-.996-1.492-1.593" style="fill:none;stroke:#000;stroke-width:.31878999;stroke-linecap:round;stroke-linejoin:round;stroke-miterlimit:10;stroke-opacity:1" transform="matrix(0 1 1 0 -239.527 -161.574)"/><g style="fill:#007f00;fill-opacity:1" transform="translate(-239.527 -161.574)"><use xlink:href="#w" width="100%" height="100%" x="421.312" y="363.961"/><use xlink:href="#u" width="100%" height="100%" x="423.649" y="363.961"/><use xlink:href="#D" width="100%" height="100%" x="428.715" y="363.961"/><use xlink:href="#w" width="100%" height="100%" x="433.781" y="363.961"/></g><g style="fill:#007f00;fill-opacity:1" transform="translate(-239.527 -161.574)"><use xlink:href="#C" width="100%" height="100%" x="436.148" y="363.961"/><use xlink:href="#y" width="100%" height="100%" x="440.507" y="363.961"/><use xlink:href="#O" width="100%" height="100%" x="444.866" y="363.961"/></g><path d="M498.758 360.555H452.55" style="fill:none;stroke:#000;stroke-width:.3985;stroke-linecap:butt;stroke-linejoin:miter;stroke-miterlimit:10;stroke-opacity:1" transform="translate(-239.527 -161.574)"/><path d="M453.746 362.148c-.098-.597-1.195-1.496-1.492-1.593.297-.102 1.394-1 1.492-1.598" style="fill:none;stroke:#000;stroke-width:.31878999;stroke-linecap:round;stroke-linejoin:round;stroke-miterlimit:10;stroke-opacity:1" transform="translate(-239.527 -161.574)"/><path d="m417.863 360.55-25.02.005" style="fill:none;stroke:#000;stroke-width:.3985;stroke-linecap:butt;stroke-linejoin:miter;stroke-miterlimit:10;stroke-opacity:1" transform="translate(-239.527 -161.574)"/><path d="M394.04 362.148c-.103-.597-1.196-1.496-1.497-1.593.3-.102 1.395-1 1.496-1.598" style="fill:none;stroke:#000;stroke-width:.31878999;stroke-linecap:round;stroke-linejoin:round;stroke-miterlimit:10;stroke-opacity:1" transform="translate(-239.527 -161.574)"/><g style="fill:#007f00;fill-opacity:1" transform="translate(-239.527 -161.574)"><use xlink:href="#s" width="100%" height="100%" x="323.834" y="389.473"/><use xlink:href="#y" width="100%" height="100%" x="326.171" y="389.473"/><use xlink:href="#x" width="100%" height="100%" x="330.53" y="389.473"/><use xlink:href="#Q" width="100%" height="100%" x="335.243" y="389.473"/><use xlink:href="#O" width="100%" height="100%" x="338.238" y="389.473"/></g><g style="fill:#007f00;fill-opacity:1" transform="translate(-239.527 -161.574)"><use xlink:href="#x" width="100%" height="100%" x="367.396" y="388.518"/><use xlink:href="#A" width="100%" height="100%" x="372.109" y="388.518"/><use xlink:href="#B" width="100%" height="100%" x="377.175" y="388.518"/><use xlink:href="#M" width="100%" height="100%" x="380.72" y="388.518"/><use xlink:href="#y" width="100%" height="100%" x="385.786" y="388.518"/><use xlink:href="#u" width="100%" height="100%" x="390.145" y="388.518"/></g><g style="fill:#007f00;fill-opacity:1" transform="translate(-239.527 -161.574)"><use xlink:href="#B" width="100%" height="100%" x="395.241" y="388.518"/><use xlink:href="#w" width="100%" height="100%" x="398.785" y="388.518"/><use xlink:href="#C" width="100%" height="100%" x="401.122" y="388.518"/><use xlink:href="#x" width="100%" height="100%" x="405.481" y="388.518"/><use xlink:href="#B" width="100%" height="100%" x="410.194" y="388.518"/><use xlink:href="#w" width="100%" height="100%" x="413.738" y="388.518"/></g><g style="fill:#007f00;fill-opacity:1" transform="translate(-239.527 -161.574)"><use xlink:href="#r" width="100%" height="100%" x="416.104" y="388.518"/><use xlink:href="#u" width="100%" height="100%" x="421.014" y="388.518"/></g><g style="fill:#007f00;fill-opacity:1" transform="translate(-239.527 -161.574)"><use xlink:href="#q" width="100%" height="100%" x="429.359" y="388.518"/><use xlink:href="#x" width="100%" height="100%" x="434.425" y="388.518"/><use xlink:href="#B" width="100%" height="100%" x="439.138" y="388.518"/><use xlink:href="#M" width="100%" height="100%" x="442.682" y="388.518"/><use xlink:href="#O" width="100%" height="100%" x="447.748" y="388.518"/></g><path d="m351.582 367.414-11.469 11.465" style="fill:none;stroke:#000;stroke-width:.3985;stroke-linecap:butt;stroke-linejoin:miter;stroke-miterlimit:10;stroke-opacity:1" transform="translate(-239.527 -161.574)"/><path d="M18.508 360.655c.07-.422.846-1.056 1.057-1.127-.211-.07-.985-.703-1.057-1.127" style="fill:none;stroke:#000;stroke-width:.22543199;stroke-linecap:round;stroke-linejoin:round;stroke-miterlimit:10;stroke-opacity:1" transform="matrix(-1 .99983 .99983 1 -239.527 -161.574)"/><path d="m372.16 367.414 21.266 10.629" style="fill:none;stroke:#000;stroke-width:.3985;stroke-linecap:butt;stroke-linejoin:miter;stroke-miterlimit:10;stroke-opacity:1" transform="translate(-239.527 -161.574)"/><path d="M464.898-143.686c.09-.533 1.07-1.336 1.338-1.425-.27-.088-1.25-.89-1.338-1.427" style="fill:none;stroke:#000;stroke-width:.28512901;stroke-linecap:round;stroke-linejoin:round;stroke-miterlimit:10;stroke-opacity:1" transform="matrix(1 .4999 .4999 -1 -239.527 -161.574)"/><path d="M332.93 392.926v2.351a3.543 3.543 0 0 0 3.543 3.543H498.3" style="fill:none;stroke:#000;stroke-width:.3985;stroke-linecap:butt;stroke-linejoin:miter;stroke-miterlimit:10;stroke-opacity:1" transform="translate(-239.527 -161.574)"/><path d="M497.105 397.227c.098.597 1.196 1.496 1.493 1.593-.297.102-1.395.996-1.493 1.594" style="fill:none;stroke:#000;stroke-width:.31878999;stroke-linecap:round;stroke-linejoin:round;stroke-miterlimit:10;stroke-opacity:1" transform="translate(-239.527 -161.574)"/><path d="M409.465 393.879v1.398a3.543 3.543 0 0 0 3.543 3.543h-.352" style="fill:none;stroke:#000;stroke-width:.3985;stroke-linecap:butt;stroke-linejoin:miter;stroke-miterlimit:10;stroke-opacity:1" transform="translate(-239.527 -161.574)"/></svg>