<svg xmlns="http://www.w3.org/2000/svg" xmlns:xlink="http://www.w3.org/1999/xlink" width="483.781" height="362.833" viewBox="0 0 362.836 272.125"><defs><symbol id="b" overflow="visible"><path d="M1.781-7.422H.813v.969h.968Zm-.078 2.578H.891V0h.812zm0 0" style="stroke:none"/></symbol><symbol id="c" overflow="visible"><path d="M4.75-3.25c0-.719-.172-1.719-1.5-1.719-.984 0-1.516.75-1.578.828v-.765H.89V0h.843v-2.672c0-.719.266-1.625 1.094-1.625 1.047 0 1.063.781 1.063 1.125V0h.859Zm0 0" style="stroke:none"/></symbol><symbol id="d" overflow="visible"><path d="M4.734-7.562h-.812v3.203a2.53 2.53 0 0 0-1.594-.61C1.25-4.969.391-3.829.391-2.422.39-1 1.234.125 2.266.125c.359 0 1-.11 1.609-.687V0h.86Zm-.859 6.046c0 .157 0 .344-.36.672-.25.219-.515.297-.796.297-.672 0-1.469-.515-1.469-1.86 0-1.437.938-1.89 1.578-1.89.485 0 .813.25 1.047.594zm0 0" style="stroke:none"/></symbol><symbol id="e" overflow="visible"><path d="M4.516-2.39c0-.376-.016-1.188-.438-1.844a1.77 1.77 0 0 0-1.5-.797C1.36-5.031.375-3.875.375-2.47c0 1.44 1.047 2.595 2.36 2.595.687 0 1.312-.266 1.734-.578l-.063-.703a2.65 2.65 0 0 1-1.656.61c-.875 0-1.578-.766-1.61-1.845zm-3.313-.594c.172-.828.75-1.375 1.375-1.375.563 0 1.172.375 1.313 1.375zm0 0" style="stroke:none"/></symbol><symbol id="f" overflow="visible"><path d="M1.75-.5c.328.313.813.625 1.469.625 1.062 0 2.015-1.078 2.015-2.562 0-1.297-.687-2.532-1.734-2.532-.656 0-1.281.235-1.781.657v-.532H.89V2.11h.859Zm0-3.125c.25-.39.688-.64 1.156-.64.828 0 1.485.827 1.485 1.827 0 1.126-.782 1.891-1.594 1.891-.438 0-.719-.219-.938-.515-.109-.157-.109-.188-.109-.375Zm0 0" style="stroke:none"/></symbol><symbol id="g" overflow="visible"><path d="M1.906-4.203h1.547v-.64H1.906v-1.391h-.75v1.39H.203v.64h.922v2.907c0 .656.156 1.422.906 1.422.766 0 1.313-.281 1.594-.422l-.172-.64c-.297.234-.64.359-.984.359-.406 0-.563-.328-.563-.906zm0 0" style="stroke:none"/></symbol><symbol id="h" overflow="visible"><path d="M1.719-2.328c0-1.094.781-1.875 1.844-1.906v-.735c-.97.016-1.563.547-1.907 1.047v-.984H.891V0h.828Zm0 0" style="stroke:none"/></symbol><symbol id="i" overflow="visible"><path d="M5.11-2.406c0-1.453-1.079-2.625-2.391-2.625-1.328 0-2.39 1.203-2.39 2.625C.328-.953 1.437.125 2.718.125c1.312 0 2.39-1.11 2.39-2.531M2.718-.578c-.75 0-1.547-.61-1.547-1.938 0-1.312.828-1.843 1.547-1.843.765 0 1.547.562 1.547 1.843 0 1.297-.75 1.938-1.547 1.938m0 0" style="stroke:none"/></symbol><symbol id="j" overflow="visible"><path d="M4.75-4.844h-.86v3.172c0 .813-.609 1.188-1.312 1.188-.765 0-.844-.282-.844-.75v-3.61H.891v3.657c0 .78.25 1.312 1.156 1.312.578 0 1.344-.172 1.875-.656V0h.828Zm0 0" style="stroke:none"/></symbol><symbol id="k" overflow="visible"><path d="M3.734-4.672a3.4 3.4 0 0 0-1.562-.36c-.281 0-1.813 0-1.813 1.438 0 .531.313.875.594 1.078.328.25.578.297 1.172.407.39.078 1.031.218 1.031.797 0 .75-.86.75-1.031.75-.875 0-1.5-.407-1.687-.532l-.125.735c.343.172.937.484 1.828.484.187 0 .797 0 1.265-.36.328-.25.516-.687.516-1.156 0-.609-.406-.968-.422-1.015-.422-.375-.719-.438-1.266-.531-.593-.126-1.093-.235-1.093-.766 0-.688.78-.688.922-.688.343 0 .921.047 1.546.422zm0 0" style="stroke:none"/></symbol><symbol id="l" overflow="visible"><path d="m2.828-2.5 2-2.344h-.89l-1.47 1.797-1.5-1.797H.064L2.109-2.5 0 0h.89l1.58-2.047L4.109 0h.907zm0 0" style="stroke:none"/></symbol><symbol id="m" overflow="visible"><path d="M1.922-4.203h1.203v-.64H1.891v-1.298c0-.812.734-.89 1.015-.89.219 0 .5.031.875.187v-.718a2.9 2.9 0 0 0-.875-.125c-1.015 0-1.812.765-1.812 1.859v.984H.297v.64h.797V0h.828zm0 0" style="stroke:none"/></symbol><symbol id="n" overflow="visible"><path d="M1.703-7.562H.891V0h.812zm0 0" style="stroke:none"/></symbol><symbol id="o" overflow="visible"><path d="M3.844-4.266c.234 0 .547-.046.797-.046.203 0 .625.03.656.03l-.125-.687c-.766 0-1.39.219-1.719.36a1.7 1.7 0 0 0-1.047-.36c-.937 0-1.734.797-1.734 1.782 0 .406.14.796.36 1.078-.313.453-.313.875-.313.937 0 .281.094.594.281.828C.438-.016.313.484.313.781c0 .813 1.078 1.469 2.406 1.469 1.344 0 2.422-.64 2.422-1.484C5.14-.75 3.313-.75 2.89-.75h-.953c-.157 0-.641 0-.641-.578a.7.7 0 0 1 .125-.39c.219.155.578.312.984.312.985 0 1.75-.813 1.75-1.781 0-.516-.234-.922-.36-1.094zM2.406-2.03c-.406 0-.969-.25-.969-1.156 0-.907.563-1.157.97-1.157.468 0 .984.313.984 1.157 0 .859-.516 1.156-.985 1.156m.5 2.062c.235 0 1.469 0 1.469.75 0 .485-.75.844-1.656.844-.875 0-1.656-.344-1.656-.844 0-.047 0-.75.859-.75zm0 0" style="stroke:none"/></symbol><clipPath id="a"><path d="M239.527 161.574h362.836V433.7H239.527Zm0 0"/></clipPath></defs><g clip-path="url(#a)" transform="translate(-239.527 -161.574)"><path d="M239.527 161.574h362.836V433.7H239.527Zm0 0" style="fill:#fff;fill-opacity:1;fill-rule:nonzero;stroke:none"/></g><path d="M269.863 256.715h113.39m-113.39 28.348h56.696" style="fill:none;stroke:#00007f;stroke-width:3.9851;stroke-linecap:butt;stroke-linejoin:miter;stroke-miterlimit:10;stroke-opacity:1" transform="translate(-239.527 -161.574)"/><path d="M269.863 285.063h7.09m21.257 0h7.087m-26.93 0h2.836m25.512 0h2.836m-25.511 0h2.831m25.516 0h2.832m-45.356 28.347h28.348m-28.348 28.344h14.176" style="fill:none;stroke:#007f00;stroke-width:3.9851;stroke-linecap:butt;stroke-linejoin:miter;stroke-miterlimit:10;stroke-opacity:1" transform="translate(-239.527 -161.574)"/><g style="fill:#000;fill-opacity:1" transform="translate(-239.527 -161.574)"><use xlink:href="#b" width="100%" height="100%" x="281.998" y="231.096"/><use xlink:href="#c" width="100%" height="100%" x="284.595" y="231.096"/><use xlink:href="#d" width="100%" height="100%" x="290.224" y="231.096"/><use xlink:href="#e" width="100%" height="100%" x="295.853" y="231.096"/></g><use xlink:href="#f" width="100%" height="100%" x="300.729" y="231.096" style="fill:#000;fill-opacity:1" transform="translate(-239.527 -161.574)"/><g style="fill:#000;fill-opacity:1" transform="translate(-239.527 -161.574)"><use xlink:href="#e" width="100%" height="100%" x="306.664" y="231.096"/><use xlink:href="#c" width="100%" height="100%" x="311.508" y="231.096"/><use xlink:href="#d" width="100%" height="100%" x="317.137" y="231.096"/><use xlink:href="#e" width="100%" height="100%" x="322.766" y="231.096"/></g><g style="fill:#000;fill-opacity:1" transform="translate(-239.527 -161.574)"><use xlink:href="#c" width="100%" height="100%" x="327.642" y="231.096"/><use xlink:href="#g" width="100%" height="100%" x="333.271" y="231.096"/></g><g style="fill:#000;fill-opacity:1" transform="translate(-239.527 -161.574)"><use xlink:href="#h" width="100%" height="100%" x="340.842" y="231.096"/><use xlink:href="#i" width="100%" height="100%" x="344.562" y="231.096"/><use xlink:href="#j" width="100%" height="100%" x="350.017" y="231.096"/><use xlink:href="#c" width="100%" height="100%" x="355.646" y="231.096"/></g><g style="fill:#000;fill-opacity:1" transform="translate(-239.527 -161.574)"><use xlink:href="#d" width="100%" height="100%" x="361.308" y="231.096"/><use xlink:href="#k" width="100%" height="100%" x="366.937" y="231.096"/></g><path d="M292.543 276.559v4.836" style="fill:none;stroke:#7f0000;stroke-width:.99628;stroke-linecap:butt;stroke-linejoin:miter;stroke-miterlimit:10;stroke-opacity:1" transform="translate(-239.527 -161.574)"/><path d="M279.66 294.855c.145-.867 1.735-2.167 2.168-2.312-.433-.145-2.023-1.445-2.168-2.313" style="fill:none;stroke:#7f0000;stroke-width:.79701;stroke-linecap:round;stroke-linejoin:round;stroke-miterlimit:10;stroke-opacity:1" transform="matrix(0 1 1 0 -239.527 -161.574)"/><path d="M292.543 265.219v-4.836" style="fill:none;stroke:#7f0000;stroke-width:.99628;stroke-linecap:butt;stroke-linejoin:miter;stroke-miterlimit:10;stroke-opacity:1" transform="translate(-239.527 -161.574)"/><path d="M-262.113-290.23c.144-.868 1.73-2.168 2.164-2.313-.434-.145-2.02-1.445-2.164-2.312" style="fill:none;stroke:#7f0000;stroke-width:.79701;stroke-linecap:round;stroke-linejoin:round;stroke-miterlimit:10;stroke-opacity:1" transform="matrix(0 -1 -1 0 -239.527 -161.574)"/><path d="M349.234 265.219v-4.836" style="fill:none;stroke:#7f0000;stroke-width:.99628;stroke-linecap:butt;stroke-linejoin:miter;stroke-miterlimit:10;stroke-opacity:1" transform="translate(-239.527 -161.574)"/><path d="M-262.113-346.926c.144-.867 1.73-2.164 2.164-2.308-.434-.145-2.02-1.446-2.164-2.313" style="fill:none;stroke:#7f0000;stroke-width:.79701;stroke-linecap:round;stroke-linejoin:round;stroke-miterlimit:10;stroke-opacity:1" transform="matrix(0 -1 -1 0 -239.527 -161.574)"/><path d="M292.543 266.637v8.504m0-4.254h56.691v-4.25" style="fill:none;stroke:#7f7f7f;stroke-width:.29887;stroke-linecap:butt;stroke-linejoin:miter;stroke-miterlimit:10;stroke-opacity:1" transform="translate(-239.527 -161.574)"/><path d="M272.7 304.902v4.84" style="fill:none;stroke:#7f0000;stroke-width:.99628;stroke-linecap:butt;stroke-linejoin:miter;stroke-miterlimit:10;stroke-opacity:1" transform="translate(-239.527 -161.574)"/><path d="M308.008 275.012c.144-.867 1.734-2.168 2.168-2.313-.434-.144-2.024-1.445-2.168-2.312" style="fill:none;stroke:#7f0000;stroke-width:.79701;stroke-linecap:round;stroke-linejoin:round;stroke-miterlimit:10;stroke-opacity:1" transform="matrix(0 1 1 0 -239.527 -161.574)"/><path d="M272.7 293.566v-4.84" style="fill:none;stroke:#7f0000;stroke-width:.99628;stroke-linecap:butt;stroke-linejoin:miter;stroke-miterlimit:10;stroke-opacity:1" transform="translate(-239.527 -161.574)"/><path d="M-290.46-270.387c.144-.867 1.733-2.168 2.163-2.312-.43-.145-2.02-1.446-2.164-2.313" style="fill:none;stroke:#7f0000;stroke-width:.79701;stroke-linecap:round;stroke-linejoin:round;stroke-miterlimit:10;stroke-opacity:1" transform="matrix(0 -1 -1 0 -239.527 -161.574)"/><path d="M301.047 293.566v-4.84" style="fill:none;stroke:#7f0000;stroke-width:.99628;stroke-linecap:butt;stroke-linejoin:miter;stroke-miterlimit:10;stroke-opacity:1" transform="translate(-239.527 -161.574)"/><path d="M-290.46-298.734c.144-.868 1.733-2.168 2.163-2.313-.43-.144-2.02-1.445-2.164-2.312" style="fill:none;stroke:#7f0000;stroke-width:.79701;stroke-linecap:round;stroke-linejoin:round;stroke-miterlimit:10;stroke-opacity:1" transform="matrix(0 -1 -1 0 -239.527 -161.574)"/><path d="M272.7 294.984v8.504m0-4.254h28.347v-4.25" style="fill:none;stroke:#7f7f7f;stroke-width:.29887;stroke-linecap:butt;stroke-linejoin:miter;stroke-miterlimit:10;stroke-opacity:1" transform="translate(-239.527 -161.574)"/><path d="M281.203 333.25v4.84" style="fill:none;stroke:#7f0000;stroke-width:.99628;stroke-linecap:butt;stroke-linejoin:miter;stroke-miterlimit:10;stroke-opacity:1" transform="translate(-239.527 -161.574)"/><path d="M336.355 283.516c.145-.868 1.735-2.168 2.168-2.313-.433-.144-2.023-1.445-2.168-2.312" style="fill:none;stroke:#7f0000;stroke-width:.79701;stroke-linecap:round;stroke-linejoin:round;stroke-miterlimit:10;stroke-opacity:1" transform="matrix(0 1 1 0 -239.527 -161.574)"/><path d="M281.203 321.914v-4.84" style="fill:none;stroke:#7f0000;stroke-width:.99628;stroke-linecap:butt;stroke-linejoin:miter;stroke-miterlimit:10;stroke-opacity:1" transform="translate(-239.527 -161.574)"/><path d="M-318.809-278.89c.145-.868 1.735-2.169 2.168-2.313-.433-.145-2.023-1.445-2.168-2.313" style="fill:none;stroke:#7f0000;stroke-width:.79701;stroke-linecap:round;stroke-linejoin:round;stroke-miterlimit:10;stroke-opacity:1" transform="matrix(0 -1 -1 0 -239.527 -161.574)"/><path d="M295.375 321.914v-4.84" style="fill:none;stroke:#7f0000;stroke-width:.99628;stroke-linecap:butt;stroke-linejoin:miter;stroke-miterlimit:10;stroke-opacity:1" transform="translate(-239.527 -161.574)"/><path d="M-318.809-293.066c.145-.868 1.735-2.164 2.168-2.309-.433-.145-2.023-1.445-2.168-2.312" style="fill:none;stroke:#7f0000;stroke-width:.79701;stroke-linecap:round;stroke-linejoin:round;stroke-miterlimit:10;stroke-opacity:1" transform="matrix(0 -1 -1 0 -239.527 -161.574)"/><path d="M281.203 323.328v8.504m0-4.25h14.172v-4.254" style="fill:none;stroke:#7f7f7f;stroke-width:.29887;stroke-linecap:butt;stroke-linejoin:miter;stroke-miterlimit:10;stroke-opacity:1" transform="translate(-239.527 -161.574)"/><path d="M439.945 256.715h113.387m-113.387 28.348h56.696" style="fill:none;stroke:#00007f;stroke-width:3.9851;stroke-linecap:butt;stroke-linejoin:miter;stroke-miterlimit:10;stroke-opacity:1" transform="translate(-239.527 -161.574)"/><path d="M439.945 285.063h7.086m21.262 0h7.086m-26.929 0h2.835m25.512 0h2.836m-25.516 0h2.836m25.512 0h2.836m-45.356 28.347h28.348m-28.348 28.344h14.172" style="fill:none;stroke:#007f00;stroke-width:3.9851;stroke-linecap:butt;stroke-linejoin:miter;stroke-miterlimit:10;stroke-opacity:1" transform="translate(-239.527 -161.574)"/><g style="fill:#000;fill-opacity:1" transform="translate(-239.527 -161.574)"><use xlink:href="#b" width="100%" height="100%" x="467.577" y="231.096"/><use xlink:href="#c" width="100%" height="100%" x="470.174" y="231.096"/><use xlink:href="#d" width="100%" height="100%" x="475.803" y="231.096"/><use xlink:href="#e" width="100%" height="100%" x="481.432" y="231.096"/></g><use xlink:href="#l" width="100%" height="100%" x="486.308" y="231.096" style="fill:#000;fill-opacity:1" transform="translate(-239.527 -161.574)"/><g style="fill:#000;fill-opacity:1" transform="translate(-239.527 -161.574)"><use xlink:href="#m" width="100%" height="100%" x="494.97" y="231.096"/><use xlink:href="#i" width="100%" height="100%" x="498.297" y="231.096"/><use xlink:href="#n" width="100%" height="100%" x="503.752" y="231.096"/><use xlink:href="#d" width="100%" height="100%" x="506.348" y="231.096"/><use xlink:href="#b" width="100%" height="100%" x="511.977" y="231.096"/></g><g style="fill:#000;fill-opacity:1" transform="translate(-239.527 -161.574)"><use xlink:href="#c" width="100%" height="100%" x="514.607" y="231.096"/><use xlink:href="#o" width="100%" height="100%" x="520.236" y="231.096"/></g><path d="M462.625 276.559v4.836" style="fill:none;stroke:#7f0000;stroke-width:.99628;stroke-linecap:butt;stroke-linejoin:miter;stroke-miterlimit:10;stroke-opacity:1" transform="translate(-239.527 -161.574)"/><path d="M279.66 464.934c.145-.868 1.735-2.164 2.168-2.309-.433-.145-2.023-1.445-2.168-2.312" style="fill:none;stroke:#7f0000;stroke-width:.79701;stroke-linecap:round;stroke-linejoin:round;stroke-miterlimit:10;stroke-opacity:1" transform="matrix(0 1 1 0 -239.527 -161.574)"/><path d="M462.625 265.219v-4.836" style="fill:none;stroke:#7f0000;stroke-width:.99628;stroke-linecap:butt;stroke-linejoin:miter;stroke-miterlimit:10;stroke-opacity:1" transform="translate(-239.527 -161.574)"/><path d="M-262.113-460.312c.144-.868 1.73-2.168 2.164-2.313-.434-.145-2.02-1.441-2.164-2.309" style="fill:none;stroke:#7f0000;stroke-width:.79701;stroke-linecap:round;stroke-linejoin:round;stroke-miterlimit:10;stroke-opacity:1" transform="matrix(0 -1 -1 0 -239.527 -161.574)"/><path d="M519.316 265.219v-4.836" style="fill:none;stroke:#7f0000;stroke-width:.99628;stroke-linecap:butt;stroke-linejoin:miter;stroke-miterlimit:10;stroke-opacity:1" transform="translate(-239.527 -161.574)"/><path d="M-262.113-517.004c.144-.867 1.73-2.168 2.164-2.312-.434-.145-2.02-1.446-2.164-2.313" style="fill:none;stroke:#7f0000;stroke-width:.79701;stroke-linecap:round;stroke-linejoin:round;stroke-miterlimit:10;stroke-opacity:1" transform="matrix(0 -1 -1 0 -239.527 -161.574)"/><path d="M462.625 266.637v8.504m0-4.254h56.691v-4.25" style="fill:none;stroke:#7f7f7f;stroke-width:.29887;stroke-linecap:butt;stroke-linejoin:miter;stroke-miterlimit:10;stroke-opacity:1" transform="translate(-239.527 -161.574)"/><path d="M462.625 304.902v4.84" style="fill:none;stroke:#7f0000;stroke-width:.99628;stroke-linecap:butt;stroke-linejoin:miter;stroke-miterlimit:10;stroke-opacity:1" transform="translate(-239.527 -161.574)"/><path d="M308.008 464.934c.144-.868 1.734-2.164 2.168-2.309-.434-.145-2.024-1.445-2.168-2.312" style="fill:none;stroke:#7f0000;stroke-width:.79701;stroke-linecap:round;stroke-linejoin:round;stroke-miterlimit:10;stroke-opacity:1" transform="matrix(0 1 1 0 -239.527 -161.574)"/><path d="M462.625 293.566v-4.84" style="fill:none;stroke:#7f0000;stroke-width:.99628;stroke-linecap:butt;stroke-linejoin:miter;stroke-miterlimit:10;stroke-opacity:1" transform="translate(-239.527 -161.574)"/><path d="M-290.46-460.312c.144-.868 1.733-2.168 2.163-2.313-.43-.145-2.02-1.441-2.164-2.309" style="fill:none;stroke:#7f0000;stroke-width:.79701;stroke-linecap:round;stroke-linejoin:round;stroke-miterlimit:10;stroke-opacity:1" transform="matrix(0 -1 -1 0 -239.527 -161.574)"/><path d="M490.969 293.566v-4.84" style="fill:none;stroke:#7f0000;stroke-width:.99628;stroke-linecap:butt;stroke-linejoin:miter;stroke-miterlimit:10;stroke-opacity:1" transform="translate(-239.527 -161.574)"/><path d="M-290.46-488.66c.144-.867 1.733-2.164 2.163-2.309-.43-.144-2.02-1.445-2.164-2.312" style="fill:none;stroke:#7f0000;stroke-width:.79701;stroke-linecap:round;stroke-linejoin:round;stroke-miterlimit:10;stroke-opacity:1" transform="matrix(0 -1 -1 0 -239.527 -161.574)"/><path d="M462.625 294.984v8.504m0-4.254h28.344v-4.25" style="fill:none;stroke:#7f7f7f;stroke-width:.29887;stroke-linecap:butt;stroke-linejoin:miter;stroke-miterlimit:10;stroke-opacity:1" transform="translate(-239.527 -161.574)"/><path d="M448.45 333.25v4.84" style="fill:none;stroke:#7f0000;stroke-width:.99628;stroke-linecap:butt;stroke-linejoin:miter;stroke-miterlimit:10;stroke-opacity:1" transform="translate(-239.527 -161.574)"/><path d="M336.355 450.762c.145-.867 1.735-2.168 2.168-2.313-.433-.144-2.023-1.445-2.168-2.312" style="fill:none;stroke:#7f0000;stroke-width:.79701;stroke-linecap:round;stroke-linejoin:round;stroke-miterlimit:10;stroke-opacity:1" transform="matrix(0 1 1 0 -239.527 -161.574)"/><path d="M448.45 321.914v-4.84" style="fill:none;stroke:#7f0000;stroke-width:.99628;stroke-linecap:butt;stroke-linejoin:miter;stroke-miterlimit:10;stroke-opacity:1" transform="translate(-239.527 -161.574)"/><path d="M-318.809-446.137c.145-.867 1.735-2.168 2.168-2.312-.433-.145-2.023-1.446-2.168-2.313" style="fill:none;stroke:#7f0000;stroke-width:.79701;stroke-linecap:round;stroke-linejoin:round;stroke-miterlimit:10;stroke-opacity:1" transform="matrix(0 -1 -1 0 -239.527 -161.574)"/><path d="M462.625 321.914v-4.84" style="fill:none;stroke:#7f0000;stroke-width:.99628;stroke-linecap:butt;stroke-linejoin:miter;stroke-miterlimit:10;stroke-opacity:1" transform="translate(-239.527 -161.574)"/><path d="M-318.809-460.312c.145-.868 1.735-2.168 2.168-2.313-.433-.145-2.023-1.441-2.168-2.309" style="fill:none;stroke:#7f0000;stroke-width:.79701;stroke-linecap:round;stroke-linejoin:round;stroke-miterlimit:10;stroke-opacity:1" transform="matrix(0 -1 -1 0 -239.527 -161.574)"/><path d="M448.45 323.328v8.504m0-4.25h14.175v-4.254" style="fill:none;stroke:#7f7f7f;stroke-width:.29887;stroke-linecap:butt;stroke-linejoin:miter;stroke-miterlimit:10;stroke-opacity:1" transform="translate(-239.527 -161.574)"/></svg>