<svg xmlns="http://www.w3.org/2000/svg" xmlns:xlink="http://www.w3.org/1999/xlink" width="483.781" height="362.833" viewBox="0 0 362.836 272.125"><defs><symbol id="b" overflow="visible" style="overflow:visible"><path d="M4.688-3.453c1.328 0 2.609-.844 2.609-1.969 0-1.078-1.156-2.031-2.688-2.031H.625v.344h.266c.828 0 .859.125.859.515v5.75c0 .39-.031.5-.86.5H.626V0C1-.031 1.813-.031 2.219-.031c.422 0 1.234 0 1.625.031v-.344h-.266c-.844 0-.86-.11-.86-.5v-2.61zm-2-3.219c0-.36.015-.437.53-.437h1.095c1.859 0 1.859 1.203 1.859 1.687 0 .469 0 1.688-1.86 1.688H2.688zm0 0" style="stroke:none"/></symbol><symbol id="c" overflow="visible" style="overflow:visible"><path d="M2.031-4.86c0-.28.016-.39.125-.437.078-.031.375-.031.563-.031.812 0 1.734.031 1.734 1.187 0 .438-.047 1.22-1.469 1.22h-.953Zm1.922 2.08c.766-.203 1.453-.688 1.453-1.36 0-.75-.984-1.468-2.297-1.468H.484v.28c.735 0 .797.063.797.5V-.78c0 .437-.062.515-.797.515V0c.329-.016.86-.031 1.157-.031.328 0 .89.015 1.172.031v-.266c-.735 0-.782-.078-.782-.515v-1.906h.985c.265 0 .547.015.89.359.235.234.235.5.235.969 0 .625 0 .812.343 1.156.188.187.625.36 1.125.36.688 0 .86-.688.86-.891 0-.063 0-.172-.14-.172-.126 0-.141.094-.141.14-.063.672-.47.672-.532.672-.218 0-.328-.14-.39-.25-.079-.187-.157-.484-.297-1.187-.078-.375-.188-.938-1.016-1.25m0 0" style="stroke:none"/></symbol><symbol id="d" overflow="visible" style="overflow:visible"><path d="M6.375-2.781c0-1.625-1.297-2.985-2.906-2.985-1.625 0-2.906 1.36-2.906 2.985A2.92 2.92 0 0 0 3.469.156 2.92 2.92 0 0 0 6.375-2.78M3.469-.125C2.688-.125 1.5-.75 1.5-2.906c0-2.047 1.234-2.578 1.969-2.578.734 0 1.969.547 1.969 2.578 0 2.156-1.188 2.781-1.97 2.781m0 0" style="stroke:none"/></symbol><symbol id="e" overflow="visible" style="overflow:visible"><path d="M1.969-4.781c-.094-.188-.094-.219-.094-.25 0-.297.375-.297.563-.297v-.281c-.282.015-.938.03-1.157.03-.281 0-.718 0-1.015-.03v.28c.593 0 .656.079.812.438L3.11-.094c.063.14.094.219.235.219s.172-.078.234-.219l1.89-4.515c.298-.688.798-.72.954-.72v-.28c-.234.03-.516.03-.75.03-.297 0-.594 0-.89-.03v.28c.374.032.452.25.452.47 0 .109-.03.203-.093.328L3.594-.844zm0 0" style="stroke:none"/></symbol><symbol id="f" overflow="visible" style="overflow:visible"><path d="M5.328-5.578H.468v.281c.735 0 .782.063.782.516v4c0 .437-.047.515-.781.515V0h4.984l.313-2.11H5.5C5.313-.796 5.047-.265 3.656-.265H2.47c-.375 0-.422-.046-.422-.468v-2.032h.75c.812 0 .937.22.937.954h.282v-2.172h-.282c0 .734-.125.953-.937.953h-.75v-1.797c0-.438.047-.469.422-.469h1.125c1.265 0 1.547.375 1.656 1.563h.281zm0 0" style="stroke:none"/></symbol><symbol id="g" overflow="visible" style="overflow:visible"><path d="M2.5-6.61a.44.44 0 0 1-.062-.187c0-.312.578-.312.89-.312v-.344c-.39.031-1.156.031-1.578.031a34 34 0 0 1-1.375-.031v.344c.828 0 .922.046 1.078.406L4.172.016c.062.156.078.218.25.218.187 0 .219-.047.281-.218l2.578-6.422c.282-.703 1-.703 1.219-.703v-.344c-.344.031-.781.031-1.062.031-.329 0-.954-.016-1.25-.031v.344c.625.015.78.343.78.53 0 .063 0 .079-.062.22L4.75-1.016Zm0 0" style="stroke:none"/></symbol><symbol id="h" overflow="visible" style="overflow:visible"><path d="M2.047-4.812c0-.47.047-.516.828-.516v-.281a37 37 0 0 1-1.234.03c-.282 0-.844-.015-1.22-.03v.28c.782 0 .829.048.829.516v4.016c0 .469-.047.531-.828.531V0c.375-.016.937-.031 1.219-.031.297 0 .859.015 1.234.031v-.266c-.781 0-.828-.062-.828-.53zm0 0" style="stroke:none"/></symbol><symbol id="i" overflow="visible" style="overflow:visible"><path d="M5.203-5.578H.47v.281c.734 0 .781.063.781.516v4c0 .437-.047.515-.781.515V0c.36-.016.937-.031 1.203-.031.36 0 1.031.015 1.344.031v-.266c-.813 0-.97 0-.97-.546v-1.844h.72c.812 0 .937.234.937.953h.266v-2.172h-.266c0 .719-.125.953-.937.953h-.72v-1.906c0-.438.048-.469.423-.469h1.047c1.203 0 1.515.344 1.625 1.563h.265Zm0 0" style="stroke:none"/></symbol><symbol id="j" overflow="visible" style="overflow:visible"><path d="M4.625-4.969c-1.281.032-2.094 1-2.11 1.016H2.5l.203-.953h-.765L.89 0h.828c.281-1.344.5-2.39.531-2.547.203-.719 1.016-1.656 2.203-1.687zm0 0" style="stroke:none"/></symbol><symbol id="k" overflow="visible" style="overflow:visible"><path d="M5.031-3.203c.047-.156.047-.25.047-.39 0-.798-.531-1.438-1.453-1.438-.797 0-1.328.234-1.812.468-.032.313-.079.688-.094.72.5-.313 1.062-.548 1.765-.548.672 0 .735.688.735.875 0 .172-.125.813-.157.829a1.4 1.4 0 0 1-.265.03C3-2.624.703-2.406.703-.921c0 .172.047 1.047 1 1.047.281 0 1.203-.062 1.906-.5a3 3 0 0 1-.078.375h.828zM3.813-1.422c-.204.875-1.266.875-1.407.875-.547 0-.89-.234-.89-.594 0-.859 1.937-.953 2.437-.968zm0 0" style="stroke:none"/></symbol><symbol id="l" overflow="visible" style="overflow:visible"><path d="M5.438-3.312c.062-.313.062-.391.062-.563 0-.656-.312-1.094-1.187-1.094-.688 0-1.297.344-1.766.828l.172-.765h-.781L.89 0h.843l.516-2.469c.266-1.203.781-1.828 1.484-1.828.516 0 .891.172.891.719 0 .031-.016.203-.016.234L3.891 0h.859Zm0 0" style="stroke:none"/></symbol><symbol id="m" overflow="visible" style="overflow:visible"><path d="M6.344-7.562H5.53L4.844-4.36a2.06 2.06 0 0 0-1.469-.61C2.078-4.969.828-3.344.828-1.703.828-.687 1.36.125 2.25.125c.328 0 1-.078 1.75-.687L3.875 0h.86zM4.204-1.47c-.063.297-.657.922-1.376.922-.437 0-1.14-.234-1.14-1.281 0-1.297.875-2.469 2.046-2.469.72 0 .922.594.922.61 0 .015 0 .062-.015.14zm0 0" style="stroke:none"/></symbol><symbol id="n" overflow="visible" style="overflow:visible"><path d="M5.688-3c0-1.094-.72-2.031-1.907-2.031-1.562 0-3 1.625-3 3.187 0 1.11.75 1.969 1.922 1.969C4.172.125 5.688-1.312 5.688-3M2.844-.578c-.516 0-1.203-.297-1.203-1.36 0-1.28.875-2.421 2-2.421.734 0 1.218.5 1.218 1.312 0 1.078-.765 2.469-2.015 2.469m0 0" style="stroke:none"/></symbol><symbol id="o" overflow="visible" style="overflow:visible"><path d="M8.469-3.312c.047-.204.078-.313.078-.563 0-.656-.328-1.094-1.219-1.094-.953 0-1.562.64-1.828.907-.031-.438-.25-.907-1.187-.907-.875 0-1.516.578-1.766.828l.172-.765h-.781L.89 0h.843l.516-2.469c.219-1.015.672-1.828 1.5-1.828.453 0 .89.14.89.719 0 .031-.03.203-.03.234L3.905 0h.844l.531-2.469c.219-1.015.657-1.828 1.485-1.828.468 0 .89.14.89.719 0 .031-.015.203-.015.234L6.92 0h.86Zm0 0" style="stroke:none"/></symbol><symbol id="p" overflow="visible" style="overflow:visible"><path d="M5.438-4.547c-.579-.422-.985-.484-1.579-.484-1.75 0-3.015 1.734-3.015 3.187 0 1 .625 1.969 1.875 1.969.578 0 1.219-.156 1.906-.562l.094-.735c-.438.281-1.047.594-1.844.594-.766 0-1.172-.563-1.172-1.328 0-.953.656-2.422 2.016-2.422.656 0 .953.125 1.437.484zm0 0" style="stroke:none"/></symbol><symbol id="q" overflow="visible" style="overflow:visible"><path d="M3.313-7.562H2.5L.89 0h.813zm0 0" style="stroke:none"/></symbol><symbol id="r" overflow="visible" style="overflow:visible"><path d="M3.344-7.422h-.969l-.203.969h.969zM.89 0h.812L2.72-4.844h-.813zm0 0" style="stroke:none"/></symbol><symbol id="s" overflow="visible" style="overflow:visible"><path d="M8.313-4.844h-.797L6.234-2.328c-.296.562-.687 1.297-.812 1.734h-.016v-.312c0-.625-.047-1.094-.093-1.672l-.204-2.266h-.78L3.093-2.422c-.328.61-.64 1.235-.813 1.797h-.015c.015-.078.015-.281.015-.5 0-.11 0-.656-.094-1.64L2-4.845h-.828L1.64 0h.875c.046-.11.765-1.484 1-1.953.468-.953.937-1.875 1.047-2.281h.015c0 .03-.016.234-.016.453 0 .515.047 1.11.079 1.625L4.844 0h.953zm0 0" style="stroke:none"/></symbol><symbol id="t" overflow="visible" style="overflow:visible"><path d="M2.797-4.203h1.547l.125-.64H2.937l.297-1.391H2.47l-.281 1.39h-.954l-.14.64h.922c-.141.61-.688 3.063-.688 3.485 0 .625.266.844.672.844.578 0 1.156-.172 1.688-.422l-.047-.64c-.391.265-.766.359-1.063.359-.11 0-.406 0-.406-.516 0-.11.015-.187.031-.265zm0 0" style="stroke:none"/></symbol><symbol id="u" overflow="visible" style="overflow:visible"><path d="M5.031-2.39c.047-.188.11-.61.11-.954 0-.203 0-.765-.36-1.203-.203-.25-.593-.484-1.156-.484C2.219-5.031.844-3.453.844-1.86c0 1.125.719 1.984 1.875 1.984.734 0 1.422-.297 1.844-.578.03-.14.062-.547.078-.703-.391.281-1.063.61-1.782.61-.734 0-1.25-.548-1.25-1.438 0-.141 0-.266.032-.407zm-3.203-.594C2.218-3.86 2.906-4.36 3.5-4.36c1.031 0 1.031 1.015 1.031 1.375zm0 0" style="stroke:none"/></symbol><symbol id="v" overflow="visible" style="overflow:visible"><path d="M4.734-4.672c-.484-.25-.89-.36-1.5-.36-.406 0-.984.048-1.5.438-.453.344-.64.938-.64 1.25 0 .328.14.578.36.797.265.266.546.328 1.202.453.281.063.797.172.797.656 0 .016 0 .876-1.203.876-.39 0-1.031-.094-1.578-.532l-.235.578c-.015.032-.046.094-.046.141 0 .031.672.5 1.718.5 1.813 0 2.141-1.36 2.141-1.797 0-.531-.312-.812-.406-.906-.313-.235-.5-.266-1.094-.406-.437-.079-.844-.172-.844-.61 0-.015 0-.797 1.094-.797.594 0 1.016.141 1.453.422zm0 0" style="stroke:none"/></symbol><symbol id="w" overflow="visible" style="overflow:visible"><path d="M4.86-4.844h-.813l-.86 2.266c-.234.61-.562 1.484-.656 2h-.015c-.063-.39-.344-1.14-.453-1.438L1-4.844H.156L2.031 0h.953zm0 0" style="stroke:none"/></symbol><symbol id="x" overflow="visible" style="overflow:visible"><path d="M4.516-2.39c0-.376-.016-1.188-.438-1.844a1.77 1.77 0 0 0-1.5-.797C1.36-5.031.375-3.875.375-2.47c0 1.44 1.047 2.595 2.36 2.595.687 0 1.312-.266 1.734-.578l-.063-.703a2.65 2.65 0 0 1-1.656.61c-.875 0-1.578-.766-1.61-1.845zm-3.313-.594c.172-.828.75-1.375 1.375-1.375.563 0 1.172.375 1.313 1.375zm0 0" style="stroke:none"/></symbol><symbol id="y" overflow="visible" style="overflow:visible"><path d="M1.719-2.328c0-1.094.781-1.875 1.844-1.906v-.735c-.97.016-1.563.547-1.907 1.047v-.984H.891V0h.828Zm0 0" style="stroke:none"/></symbol><symbol id="z" overflow="visible" style="overflow:visible"><path d="M4.734-7.562h-.812v3.203a2.53 2.53 0 0 0-1.594-.61C1.25-4.969.391-3.829.391-2.422.39-1 1.234.125 2.266.125c.359 0 1-.11 1.609-.687V0h.86Zm-.859 6.046c0 .157 0 .344-.36.672-.25.219-.515.297-.796.297-.672 0-1.469-.515-1.469-1.86 0-1.437.938-1.89 1.578-1.89.485 0 .813.25 1.047.594zm0 0" style="stroke:none"/></symbol><symbol id="A" overflow="visible" style="overflow:visible"><path d="M1.781-7.422H.813v.969h.968Zm-.078 2.578H.891V0h.812zm0 0" style="stroke:none"/></symbol><symbol id="B" overflow="visible" style="overflow:visible"><path d="M4.469-4.562c-.64-.36-1.016-.47-1.672-.47C1.28-5.031.39-3.702.39-2.421c0 1.36 1 2.547 2.359 2.547.594 0 1.188-.156 1.781-.562l-.078-.735a2.65 2.65 0 0 1-1.687.594c-.907 0-1.516-.781-1.516-1.86 0-.843.39-1.89 1.547-1.89.578 0 .937.078 1.547.484zm0 0" style="stroke:none"/></symbol><symbol id="C" overflow="visible" style="overflow:visible"><path d="M1.906-4.203h1.547v-.64H1.906v-1.391h-.75v1.39H.203v.64h.922v2.907c0 .656.156 1.422.906 1.422.766 0 1.313-.281 1.594-.422l-.172-.64c-.297.234-.64.359-.984.359-.406 0-.563-.328-.563-.906zm0 0" style="stroke:none"/></symbol><clipPath id="a"><path d="M239.527 161.574h362.836V433.7H239.527Zm0 0"/></clipPath></defs><g clip-path="url(#a)" style="clip-rule:nonzero" transform="translate(-239.527 -161.574)"><path d="M239.527 161.574h362.836V433.7H239.527Zm0 0" style="fill:#fff;fill-opacity:1;fill-rule:nonzero;stroke:none"/></g><path d="M322.402 209.074h-21.257a7.09 7.09 0 0 0-7.09 7.086v155.906a7.09 7.09 0 0 0 7.09 7.086h42.52a7.085 7.085 0 0 0 7.085-7.086V216.16a7.085 7.085 0 0 0-7.086-7.086h-21.262m198.43 0H499.57a7.085 7.085 0 0 0-7.086 7.086v155.906a7.085 7.085 0 0 0 7.086 7.086h42.52a7.09 7.09 0 0 0 7.09-7.086V216.16a7.09 7.09 0 0 0-7.09-7.086h-21.258" style="fill:none;stroke:#000;stroke-width:.3985;stroke-linecap:butt;stroke-linejoin:miter;stroke-miterlimit:10;stroke-opacity:1" transform="translate(-239.527 -161.574)"/><g style="fill:#000;fill-opacity:1" transform="translate(-239.527 -161.574)"><use xlink:href="#b" width="100%" height="100%" x="302.177" y="220.363"/><use xlink:href="#c" width="100%" height="100%" x="310.261" y="220.363"/></g><use xlink:href="#d" width="100%" height="100%" x="316.599" y="220.363" style="fill:#000;fill-opacity:1" transform="translate(-239.527 -161.574)"/><g style="fill:#000;fill-opacity:1" transform="translate(-239.527 -161.574)"><use xlink:href="#e" width="100%" height="100%" x="323.297" y="220.363"/><use xlink:href="#f" width="100%" height="100%" x="329.985" y="220.363"/><use xlink:href="#c" width="100%" height="100%" x="336.061" y="220.363"/></g><g style="fill:#000;fill-opacity:1" transform="translate(-239.527 -161.574)"><use xlink:href="#g" width="100%" height="100%" x="497.518" y="220.363"/><use xlink:href="#f" width="100%" height="100%" x="506.387" y="220.363"/><use xlink:href="#c" width="100%" height="100%" x="512.464" y="220.363"/><use xlink:href="#h" width="100%" height="100%" x="519.031" y="220.363"/><use xlink:href="#i" width="100%" height="100%" x="522.326" y="220.363"/></g><g style="fill:#000;fill-opacity:1" transform="translate(-239.527 -161.574)"><use xlink:href="#h" width="100%" height="100%" x="528.195" y="220.363"/><use xlink:href="#f" width="100%" height="100%" x="531.489" y="220.363"/><use xlink:href="#c" width="100%" height="100%" x="537.566" y="220.363"/></g><path d="M350.75 237.418h140.902" style="fill:none;stroke:#000;stroke-width:.99628001;stroke-linecap:butt;stroke-linejoin:miter;stroke-miterlimit:10;stroke-opacity:1" transform="translate(-239.527 -161.574)"/><path d="M489.918 235.11c.145.867 1.734 2.163 2.168 2.308-.434.145-2.023 1.445-2.168 2.312" style="fill:none;stroke:#000;stroke-width:.79701;stroke-linecap:round;stroke-linejoin:round;stroke-miterlimit:10;stroke-opacity:1" transform="translate(-239.527 -161.574)"/><path d="M492.484 265.766H351.582" style="fill:none;stroke:#000;stroke-width:.99628001;stroke-linecap:butt;stroke-linejoin:miter;stroke-miterlimit:10;stroke-opacity:1" transform="translate(-239.527 -161.574)"/><path d="M353.316 268.078c-.144-.867-1.734-2.168-2.168-2.312.434-.145 2.024-1.446 2.168-2.313" style="fill:none;stroke:#000;stroke-width:.79701;stroke-linecap:round;stroke-linejoin:round;stroke-miterlimit:10;stroke-opacity:1" transform="translate(-239.527 -161.574)"/><g style="fill:#7f7f7f;fill-opacity:1" transform="translate(-239.527 -161.574)"><use xlink:href="#j" width="100%" height="100%" x="404.435" y="261.632"/><use xlink:href="#k" width="100%" height="100%" x="408.155" y="261.632"/><use xlink:href="#l" width="100%" height="100%" x="413.392" y="261.632"/><use xlink:href="#m" width="100%" height="100%" x="419.021" y="261.632"/></g><g style="fill:#7f7f7f;fill-opacity:1" transform="translate(-239.527 -161.574)"><use xlink:href="#n" width="100%" height="100%" x="424.683" y="261.632"/><use xlink:href="#o" width="100%" height="100%" x="430.137" y="261.632"/></g><path d="M350.75 294.113h140.902" style="fill:none;stroke:#000;stroke-width:.99628001;stroke-linecap:butt;stroke-linejoin:miter;stroke-miterlimit:10;stroke-opacity:1" transform="translate(-239.527 -161.574)"/><path d="M489.918 291.8c.145.868 1.734 2.169 2.168 2.313-.434.145-2.023 1.446-2.168 2.313" style="fill:none;stroke:#000;stroke-width:.79701;stroke-linecap:round;stroke-linejoin:round;stroke-miterlimit:10;stroke-opacity:1" transform="translate(-239.527 -161.574)"/><path d="M492.484 322.46H351.582" style="fill:none;stroke:#000;stroke-width:.99628001;stroke-linecap:butt;stroke-linejoin:miter;stroke-miterlimit:10;stroke-opacity:1" transform="translate(-239.527 -161.574)"/><path d="M353.316 324.77c-.144-.864-1.734-2.165-2.168-2.31.434-.144 2.024-1.444 2.168-2.312" style="fill:none;stroke:#000;stroke-width:.79701;stroke-linecap:round;stroke-linejoin:round;stroke-miterlimit:10;stroke-opacity:1" transform="translate(-239.527 -161.574)"/><g style="fill:#7f7f7f;fill-opacity:1" transform="translate(-239.527 -161.574)"><use xlink:href="#j" width="100%" height="100%" x="404.435" y="318.325"/><use xlink:href="#k" width="100%" height="100%" x="408.155" y="318.325"/><use xlink:href="#l" width="100%" height="100%" x="413.392" y="318.325"/><use xlink:href="#m" width="100%" height="100%" x="419.021" y="318.325"/></g><g style="fill:#7f7f7f;fill-opacity:1" transform="translate(-239.527 -161.574)"><use xlink:href="#n" width="100%" height="100%" x="424.683" y="318.325"/><use xlink:href="#o" width="100%" height="100%" x="430.137" y="318.325"/></g><path d="M421.617 336.633v14.176" style="fill:none;stroke:#3f3f3f;stroke-width:.3985;stroke-linecap:butt;stroke-linejoin:miter;stroke-miterlimit:10;stroke-dasharray:2.98883,2.98883;stroke-opacity:1" transform="translate(-239.527 -161.574)"/><path d="M350.75 364.98h140.902" style="fill:none;stroke:#000;stroke-width:.99628001;stroke-linecap:butt;stroke-linejoin:miter;stroke-miterlimit:10;stroke-opacity:1" transform="translate(-239.527 -161.574)"/><path d="M489.918 362.668c.145.867 1.734 2.168 2.168 2.312-.434.145-2.023 1.446-2.168 2.313" style="fill:none;stroke:#000;stroke-width:.79701;stroke-linecap:round;stroke-linejoin:round;stroke-miterlimit:10;stroke-opacity:1" transform="translate(-239.527 -161.574)"/><path d="M308.23 187.813v20.43" style="fill:none;stroke:#000;stroke-width:.99628001;stroke-linecap:butt;stroke-linejoin:miter;stroke-miterlimit:10;stroke-opacity:1" transform="translate(-239.527 -161.574)"/><path d="M206.508 310.543c.144-.867 1.734-2.168 2.168-2.313-.434-.144-2.024-1.445-2.168-2.312" style="fill:none;stroke:#000;stroke-width:.79701;stroke-linecap:round;stroke-linejoin:round;stroke-miterlimit:10;stroke-opacity:1" transform="matrix(0 1 1 0 -239.527 -161.574)"/><g style="fill:#000;fill-opacity:1" transform="translate(-239.527 -161.574)"><use xlink:href="#p" width="100%" height="100%" x="296.149" y="181.907"/><use xlink:href="#q" width="100%" height="100%" x="300.993" y="181.907"/><use xlink:href="#k" width="100%" height="100%" x="303.589" y="181.907"/><use xlink:href="#r" width="100%" height="100%" x="308.826" y="181.907"/></g><use xlink:href="#o" width="100%" height="100%" x="311.455" y="181.907" style="fill:#000;fill-opacity:1" transform="translate(-239.527 -161.574)"/><path d="M336.578 194.898v13.344" style="fill:none;stroke:#000;stroke-width:.99628001;stroke-linecap:butt;stroke-linejoin:miter;stroke-miterlimit:10;stroke-opacity:1" transform="translate(-239.527 -161.574)"/><path d="M206.508 338.887c.144-.867 1.734-2.164 2.168-2.309-.434-.144-2.024-1.445-2.168-2.312" style="fill:none;stroke:#000;stroke-width:.79701;stroke-linecap:round;stroke-linejoin:round;stroke-miterlimit:10;stroke-opacity:1" transform="matrix(0 1 1 0 -239.527 -161.574)"/><g style="fill:#000;fill-opacity:1" transform="translate(-239.527 -161.574)"><use xlink:href="#s" width="100%" height="100%" x="319.729" y="190.766"/><use xlink:href="#r" width="100%" height="100%" x="327.18" y="190.766"/><use xlink:href="#t" width="100%" height="100%" x="329.777" y="190.766"/><use xlink:href="#l" width="100%" height="100%" x="333.715" y="190.766"/><use xlink:href="#u" width="100%" height="100%" x="339.344" y="190.766"/><use xlink:href="#v" width="100%" height="100%" x="344.188" y="190.766"/></g><use xlink:href="#v" width="100%" height="100%" x="348.399" y="190.766" style="fill:#000;fill-opacity:1" transform="translate(-239.527 -161.574)"/><path d="M506.656 187.813v20.43" style="fill:none;stroke:#000;stroke-width:.99628001;stroke-linecap:butt;stroke-linejoin:miter;stroke-miterlimit:10;stroke-opacity:1" transform="translate(-239.527 -161.574)"/><path d="M206.508 508.969c.144-.867 1.734-2.168 2.168-2.313-.434-.144-2.024-1.441-2.168-2.308" style="fill:none;stroke:#000;stroke-width:.79701;stroke-linecap:round;stroke-linejoin:round;stroke-miterlimit:10;stroke-opacity:1" transform="matrix(0 1 1 0 -239.527 -161.574)"/><g style="fill:#000;fill-opacity:1" transform="translate(-239.527 -161.574)"><use xlink:href="#p" width="100%" height="100%" x="494.575" y="181.907"/><use xlink:href="#q" width="100%" height="100%" x="499.419" y="181.907"/><use xlink:href="#k" width="100%" height="100%" x="502.015" y="181.907"/><use xlink:href="#r" width="100%" height="100%" x="507.252" y="181.907"/></g><use xlink:href="#o" width="100%" height="100%" x="509.881" y="181.907" style="fill:#000;fill-opacity:1" transform="translate(-239.527 -161.574)"/><path d="M520.832 379.152v20.43" style="fill:none;stroke:#000;stroke-width:.99628001;stroke-linecap:butt;stroke-linejoin:miter;stroke-miterlimit:10;stroke-opacity:1" transform="translate(-239.527 -161.574)"/><path d="M397.848 523.14c.144-.863 1.734-2.163 2.168-2.308-.434-.144-2.024-1.445-2.168-2.312" style="fill:none;stroke:#000;stroke-width:.79701;stroke-linecap:round;stroke-linejoin:round;stroke-miterlimit:10;stroke-opacity:1" transform="matrix(0 1 1 0 -239.527 -161.574)"/><g style="fill:#000;fill-opacity:1" transform="translate(-239.527 -161.574)"><use xlink:href="#w" width="100%" height="100%" x="505.511" y="413.893"/><use xlink:href="#x" width="100%" height="100%" x="510.54" y="413.893"/><use xlink:href="#y" width="100%" height="100%" x="515.384" y="413.893"/><use xlink:href="#z" width="100%" height="100%" x="519.104" y="413.893"/><use xlink:href="#A" width="100%" height="100%" x="524.733" y="413.893"/></g><g style="fill:#000;fill-opacity:1" transform="translate(-239.527 -161.574)"><use xlink:href="#B" width="100%" height="100%" x="527.362" y="413.893"/><use xlink:href="#C" width="100%" height="100%" x="532.206" y="413.893"/></g></svg>