<svg xmlns="http://www.w3.org/2000/svg" xmlns:xlink="http://www.w3.org/1999/xlink" width="248.872" height="184.132" viewBox="0 0 186.654 138.099"><defs><symbol id="a" overflow="visible" style="overflow:visible"><path d="M1.719-2.328c0-1.094.781-1.875 1.844-1.906v-.735c-.97.016-1.563.547-1.907 1.047v-.984H.891V0h.828Zm0 0" style="stroke:none"/></symbol><symbol id="b" overflow="visible" style="overflow:visible"><path d="M5.11-2.406c0-1.453-1.079-2.625-2.391-2.625-1.328 0-2.39 1.203-2.39 2.625C.328-.953 1.437.125 2.718.125c1.312 0 2.39-1.11 2.39-2.531M2.718-.578c-.75 0-1.547-.61-1.547-1.938 0-1.312.828-1.843 1.547-1.843.765 0 1.547.562 1.547 1.843 0 1.297-.75 1.938-1.547 1.938m0 0" style="stroke:none"/></symbol><symbol id="c" overflow="visible" style="overflow:visible"><path d="M1.906-4.203h1.547v-.64H1.906v-1.391h-.75v1.39H.203v.64h.922v2.907c0 .656.156 1.422.906 1.422.766 0 1.313-.281 1.594-.422l-.172-.64c-.297.234-.64.359-.984.359-.406 0-.563-.328-.563-.906zm0 0" style="stroke:none"/></symbol><symbol id="d" overflow="visible" style="overflow:visible"><path d="M1.703-7.562H.891V0h.812zm0 0" style="stroke:none"/></symbol><symbol id="e" overflow="visible" style="overflow:visible"><path d="M4.516-2.39c0-.376-.016-1.188-.438-1.844a1.77 1.77 0 0 0-1.5-.797C1.36-5.031.375-3.875.375-2.47c0 1.44 1.047 2.595 2.36 2.595.687 0 1.312-.266 1.734-.578l-.063-.703a2.65 2.65 0 0 1-1.656.61c-.875 0-1.578-.766-1.61-1.845zm-3.313-.594c.172-.828.75-1.375 1.375-1.375.563 0 1.172.375 1.313 1.375zm0 0" style="stroke:none"/></symbol><symbol id="f" overflow="visible" style="overflow:visible"><path d="M4.36-3.156c0-1.11-.798-1.875-1.813-1.875-.703 0-1.188.172-1.703.468l.062.72c.563-.407 1.11-.548 1.64-.548.517 0 .954.438.954 1.25v.47C1.86-2.657.484-2.189.484-1.235c0 .469.297 1.36 1.236 1.36.156 0 1.187-.031 1.812-.516V0h.828ZM3.5-1.437c0 .203 0 .484-.375.687-.312.188-.719.203-.844.203-.531 0-1.015-.25-1.015-.703 0-.766 1.765-.844 2.234-.86zm0 0" style="stroke:none"/></symbol><symbol id="g" overflow="visible" style="overflow:visible"><path d="M1.922-4.203h1.203v-.64H1.891v-1.298c0-.812.734-.89 1.015-.89.219 0 .5.031.875.187v-.718a2.9 2.9 0 0 0-.875-.125c-1.015 0-1.812.765-1.812 1.859v.984H.297v.64h.797V0h.828zm0 0" style="stroke:none"/></symbol><symbol id="h" overflow="visible" style="overflow:visible"><path d="M4.75-4.844h-.86v3.172c0 .813-.609 1.188-1.312 1.188-.765 0-.844-.282-.844-.75v-3.61H.891v3.657c0 .78.25 1.312 1.156 1.312.578 0 1.344-.172 1.875-.656V0h.828Zm0 0" style="stroke:none"/></symbol><symbol id="i" overflow="visible" style="overflow:visible"><path d="M4.75-3.25c0-.719-.172-1.719-1.5-1.719-.672 0-1.203.344-1.547.797v-3.39H.891V0h.843v-2.672c0-.719.266-1.625 1.094-1.625 1.047 0 1.063.781 1.063 1.125V0h.859Zm0 0" style="stroke:none"/></symbol><symbol id="j" overflow="visible" style="overflow:visible"><path d="M4.75-3.25c0-.719-.172-1.719-1.5-1.719-.984 0-1.516.75-1.578.828v-.765H.89V0h.843v-2.672c0-.719.266-1.625 1.094-1.625 1.047 0 1.063.781 1.063 1.125V0h.859Zm0 0" style="stroke:none"/></symbol><symbol id="k" overflow="visible" style="overflow:visible"><path d="M1.781-7.422H.813v.969h.968Zm-.078 2.578H.891V0h.812zm0 0" style="stroke:none"/></symbol><symbol id="l" overflow="visible" style="overflow:visible"><path d="M4.469-4.562c-.64-.36-1.016-.47-1.672-.47C1.28-5.031.39-3.702.39-2.421c0 1.36 1 2.547 2.359 2.547.594 0 1.188-.156 1.781-.562l-.078-.735a2.65 2.65 0 0 1-1.687.594c-.907 0-1.516-.781-1.516-1.86 0-.843.39-1.89 1.547-1.89.578 0 .937.078 1.547.484zm0 0" style="stroke:none"/></symbol><symbol id="m" overflow="visible" style="overflow:visible"><path d="M1.75-.5c.328.313.813.625 1.469.625 1.062 0 2.015-1.078 2.015-2.562 0-1.297-.687-2.532-1.734-2.532-.656 0-1.281.235-1.781.657v-.532H.89V2.11h.859Zm0-3.125c.25-.39.688-.64 1.156-.64.828 0 1.485.827 1.485 1.827 0 1.126-.782 1.891-1.594 1.891-.438 0-.719-.219-.938-.515-.109-.157-.109-.188-.109-.375Zm0 0" style="stroke:none"/></symbol></defs><path d="M92.182 20.407 63.835 34.579m28.347-14.172 28.348 14.172m-56.695 0L49.663 48.755m14.172-14.176 14.172 14.176m42.523-14.176-14.176 14.176m14.176-14.176 14.172 14.176m-85.039 0L28.4 70.012m21.263-21.257-2.836 21.257m31.18-21.257L65.253 70.012m12.754-21.257 5.672 21.257m22.675-21.257L102.1 70.012m4.254-21.257 14.172 21.257m14.176-21.257 4.25 21.257m-4.25-21.257 22.676 21.257" style="fill:none;stroke:#000;stroke-width:.3985;stroke-linecap:butt;stroke-linejoin:miter;stroke-miterlimit:10;stroke-opacity:1"/><path d="M99.268 20.407a7.085 7.085 0 0 0-7.086-7.086 7.085 7.085 0 0 0-7.085 7.086 7.085 7.085 0 0 0 7.085 7.086 7.085 7.085 0 0 0 7.086-7.086zm0 0" style="fill:#00007f;fill-opacity:1;fill-rule:nonzero;stroke:#000;stroke-width:.79701;stroke-linecap:butt;stroke-linejoin:miter;stroke-miterlimit:10;stroke-opacity:1"/><path d="M70.92 34.579a7.09 7.09 0 0 0-7.085-7.086 7.088 7.088 0 0 0 0 14.176 7.09 7.09 0 0 0 7.086-7.09zm0 0" style="fill:#7f7f7f;fill-opacity:1;fill-rule:nonzero;stroke:#000;stroke-width:.79701;stroke-linecap:butt;stroke-linejoin:miter;stroke-miterlimit:10;stroke-opacity:1"/><path d="M127.616 34.579a7.088 7.088 0 1 0-14.175.003 7.088 7.088 0 0 0 14.175-.003zM56.749 48.755a7.088 7.088 0 0 0-14.176 0 7.088 7.088 0 0 0 14.176 0zm0 0" style="fill:#7f0000;fill-opacity:1;fill-rule:nonzero;stroke:#000;stroke-width:.79701;stroke-linecap:butt;stroke-linejoin:miter;stroke-miterlimit:10;stroke-opacity:1"/><path d="M85.097 48.755a7.088 7.088 0 0 0-14.176 0 7.088 7.088 0 0 0 14.176 0zm0 0" style="fill:#7f7f7f;fill-opacity:1;fill-rule:nonzero;stroke:#000;stroke-width:.79701;stroke-linecap:butt;stroke-linejoin:miter;stroke-miterlimit:10;stroke-opacity:1"/><path d="M113.44 48.755a7.085 7.085 0 0 0-7.086-7.086 7.085 7.085 0 0 0-7.086 7.086 7.085 7.085 0 0 0 7.086 7.086 7.085 7.085 0 0 0 7.086-7.086zm28.348 0a7.085 7.085 0 0 0-7.086-7.086 7.085 7.085 0 0 0-7.086 7.086 7.085 7.085 0 0 0 7.086 7.086 7.085 7.085 0 0 0 7.086-7.086zM35.487 70.012a7.085 7.085 0 0 0-7.086-7.086 7.088 7.088 0 0 0 0 14.176 7.09 7.09 0 0 0 7.086-7.09zm18.426 0a7.085 7.085 0 0 0-7.086-7.086 7.088 7.088 0 0 0 0 14.176 7.09 7.09 0 0 0 7.086-7.09zm0 0" style="fill:#fff;fill-opacity:1;fill-rule:nonzero;stroke:#000;stroke-width:.79701;stroke-linecap:butt;stroke-linejoin:miter;stroke-miterlimit:10;stroke-opacity:1"/><path d="M72.339 70.012a7.085 7.085 0 0 0-7.086-7.086 7.088 7.088 0 0 0 0 14.176 7.09 7.09 0 0 0 7.086-7.09zm0 0" style="fill:#007f00;fill-opacity:1;fill-rule:nonzero;stroke:#000;stroke-width:.79701;stroke-linecap:butt;stroke-linejoin:miter;stroke-miterlimit:10;stroke-opacity:1"/><path d="M90.764 70.012a7.088 7.088 0 1 0-14.175.005 7.088 7.088 0 0 0 14.175-.005zm0 0" style="fill:#7f0000;fill-opacity:1;fill-rule:nonzero;stroke:#000;stroke-width:.79701;stroke-linecap:butt;stroke-linejoin:miter;stroke-miterlimit:10;stroke-opacity:1"/><path d="M109.19 70.012a7.088 7.088 0 0 0-14.176 0 7.09 7.09 0 0 0 7.086 7.09 7.09 7.09 0 0 0 7.09-7.09zm18.426 0a7.088 7.088 0 1 0-14.177.006 7.088 7.088 0 0 0 14.177-.006zm18.422 0a7.085 7.085 0 0 0-7.086-7.086 7.088 7.088 0 0 0 0 14.176 7.09 7.09 0 0 0 7.086-7.09zm18.426 0a7.085 7.085 0 0 0-7.086-7.086 7.088 7.088 0 0 0 0 14.176 7.09 7.09 0 0 0 7.086-7.09zm0 0" style="fill:#fff;fill-opacity:1;fill-rule:nonzero;stroke:#000;stroke-width:.79701;stroke-linecap:butt;stroke-linejoin:miter;stroke-miterlimit:10;stroke-opacity:1"/><path d="M28.401 98.36a7.085 7.085 0 0 0-7.086-7.086 7.085 7.085 0 0 0-7.086 7.086 7.085 7.085 0 0 0 7.086 7.086 7.085 7.085 0 0 0 7.086-7.086zm0 0" style="fill:#00007f;fill-opacity:1;fill-rule:nonzero;stroke:#000;stroke-width:.79701;stroke-linecap:butt;stroke-linejoin:miter;stroke-miterlimit:10;stroke-opacity:1"/><g style="fill:#00007f;fill-opacity:1" transform="translate(-327.81 -207.949)"><use xlink:href="#a" width="100%" height="100%" x="339.685" y="323.464"/><use xlink:href="#b" width="100%" height="100%" x="343.405" y="323.464"/></g><g style="fill:#00007f;fill-opacity:1" transform="translate(-327.81 -207.949)"><use xlink:href="#b" width="100%" height="100%" x="349.176" y="323.464"/><use xlink:href="#c" width="100%" height="100%" x="354.631" y="323.464"/></g><path d="M78.007 98.36a7.085 7.085 0 0 0-7.086-7.086 7.085 7.085 0 0 0-7.086 7.086 7.085 7.085 0 0 0 7.086 7.086 7.085 7.085 0 0 0 7.086-7.086zm0 0" style="fill:#007f00;fill-opacity:1;fill-rule:nonzero;stroke:#000;stroke-width:.79701;stroke-linecap:butt;stroke-linejoin:miter;stroke-miterlimit:10;stroke-opacity:1"/><g style="fill:#007f00;fill-opacity:1" transform="translate(-327.81 -207.949)"><use xlink:href="#d" width="100%" height="100%" x="390.716" y="324.806"/><use xlink:href="#e" width="100%" height="100%" x="393.313" y="324.806"/><use xlink:href="#f" width="100%" height="100%" x="398.156" y="324.806"/><use xlink:href="#g" width="100%" height="100%" x="403.393" y="324.806"/></g><path d="M127.616 98.36a7.088 7.088 0 0 0-14.176 0 7.088 7.088 0 0 0 14.176 0zm21.258 0a7.085 7.085 0 0 0-7.086-7.086 7.085 7.085 0 0 0-7.086 7.086 7.085 7.085 0 0 0 7.086 7.086 7.085 7.085 0 0 0 7.086-7.086zm21.262 0a7.085 7.085 0 0 0-7.086-7.086 7.085 7.085 0 0 0-7.086 7.086 7.085 7.085 0 0 0 7.086 7.086 7.085 7.085 0 0 0 7.086-7.086zm0 0" style="fill:#7f0000;fill-opacity:1;fill-rule:nonzero;stroke:#000;stroke-width:.79701;stroke-linecap:butt;stroke-linejoin:miter;stroke-miterlimit:10;stroke-opacity:1"/><g style="fill:#7f0000;fill-opacity:1" transform="translate(-327.81 -207.949)"><use xlink:href="#f" width="100%" height="100%" x="436.991" y="324.806"/><use xlink:href="#h" width="100%" height="100%" x="442.228" y="324.806"/><use xlink:href="#c" width="100%" height="100%" x="447.857" y="324.806"/><use xlink:href="#i" width="100%" height="100%" x="451.795" y="324.806"/><use xlink:href="#e" width="100%" height="100%" x="457.424" y="324.806"/><use xlink:href="#j" width="100%" height="100%" x="462.268" y="324.806"/></g><g style="fill:#7f0000;fill-opacity:1" transform="translate(-327.81 -207.949)"><use xlink:href="#c" width="100%" height="100%" x="467.93" y="324.806"/><use xlink:href="#k" width="100%" height="100%" x="471.868" y="324.806"/><use xlink:href="#l" width="100%" height="100%" x="474.464" y="324.806"/><use xlink:href="#f" width="100%" height="100%" x="479.308" y="324.806"/><use xlink:href="#c" width="100%" height="100%" x="484.544" y="324.806"/><use xlink:href="#k" width="100%" height="100%" x="488.482" y="324.806"/></g><g style="fill:#7f0000;fill-opacity:1" transform="translate(-327.81 -207.949)"><use xlink:href="#b" width="100%" height="100%" x="491.111" y="324.806"/><use xlink:href="#j" width="100%" height="100%" x="496.566" y="324.806"/></g><g style="fill:#7f0000;fill-opacity:1" transform="translate(-327.81 -207.949)"><use xlink:href="#m" width="100%" height="100%" x="459.37" y="336.509"/><use xlink:href="#f" width="100%" height="100%" x="464.999" y="336.509"/><use xlink:href="#c" width="100%" height="100%" x="470.236" y="336.509"/><use xlink:href="#i" width="100%" height="100%" x="474.174" y="336.509"/></g></svg>