<svg xmlns="http://www.w3.org/2000/svg" xmlns:xlink="http://www.w3.org/1999/xlink" width="483.781" height="362.833" viewBox="0 0 362.836 272.125"><defs><symbol id="b" overflow="visible" style="overflow:visible"><path d="M4.672-4.562a1.95 1.95 0 0 0-1.422-.625C1.766-5.187.5-4.016.5-2.516.5-1.03 1.766.141 3.25.141c1.281 0 2.047-1.032 2.047-1.875 0-.094 0-.157-.125-.157-.11 0-.11.063-.125.157C4.984-.704 4.14-.11 3.313-.11c-.485 0-1.97-.266-1.97-2.407 0-2.187 1.516-2.421 1.97-2.421.703 0 1.546.515 1.734 1.765.016.063.031.125.125.125.125 0 .125-.047.125-.234v-1.672c0-.156 0-.234-.094-.234-.062 0-.078.03-.156.125zm0 0" style="stroke:none"/></symbol><symbol id="c" overflow="visible" style="overflow:visible"><path d="M5.734-2.5c0-1.469-1.156-2.687-2.609-2.687C1.656-5.187.5-3.97.5-2.5A2.624 2.624 0 0 0 3.125.14a2.62 2.62 0 0 0 2.61-2.64M3.125-.125c-.703 0-1.781-.547-1.781-2.484 0-1.844 1.125-2.328 1.781-2.328s1.766.5 1.766 2.328c0 1.937-1.078 2.484-1.766 2.484m0 0" style="stroke:none"/></symbol><symbol id="d" overflow="visible" style="overflow:visible"><path d="M5.531-4.766v4.063c0 .406-.047.453-.703.453V0a17 17 0 0 1 2.047 0v-.25c-.656 0-.719-.047-.719-.453v-3.64c0-.391.063-.454.719-.454v-.25H5.688c-.235 0-.266 0-.344.188L3.672-.734 1.984-4.86c-.078-.188-.125-.188-.328-.188H.47v.25c.656 0 .703.063.703.453v3.36c0 .218 0 .734-.703.734V0c.203-.016.64-.031.844-.031.14 0 .593.015.843.031v-.25c-.719 0-.719-.516-.719-.734v-3.703h.016L3.281-.173c.047.078.094.172.188.172.11 0 .156-.094.187-.172Zm0 0" style="stroke:none"/></symbol><symbol id="e" overflow="visible" style="overflow:visible"><path d="M3.172-2.297c.984 0 1.797-.625 1.797-1.36 0-.702-.735-1.39-1.875-1.39H.438v.25c.656 0 .703.063.703.453v3.64c0 .407-.047.454-.703.454V0c.28-.016.843-.031 1.062-.031s.766.015 1.063.031v-.25c-.657 0-.704-.047-.704-.453v-1.594zM1.828-4.375c0-.39.047-.422.39-.422h.673c1.234 0 1.234.75 1.234 1.14 0 .376 0 1.141-1.234 1.141H1.828zm0 0" style="stroke:none"/></symbol><symbol id="f" overflow="visible" style="overflow:visible"><path d="M1.828-4.344c0-.39.063-.453.719-.453v-.25c-.297.016-.844.031-1.063.031S.72-5.03.422-5.046v.25c.672 0 .703.062.703.484v2.125c0 .25 0 .609.016.734C1.234-.656 2.016.14 3.109.14c1.141 0 1.766-1 1.782-1.72v-2.609c0-.39.265-.609.703-.609v-.25c-.25.016-.766.031-.828.031-.266 0-.563-.015-.828-.03v.25c.703 0 .703.515.703.75v2.296c0 1.14-.844 1.64-1.516 1.64-.297 0-1.297-.109-1.297-1.593zm0 0" style="stroke:none"/></symbol><symbol id="g" overflow="visible" style="overflow:visible"><path d="M5.313-4.984H.484L.36-3.328h.235C.688-4.563.89-4.734 1.969-4.734c.547 0 .578 0 .578.422V-.75c0 .39-.031.5-.797.5h-.203V0c.39-.031.969-.031 1.36-.031.39 0 .968 0 1.359.031v-.25h-.22c-.75 0-.796-.11-.796-.5v-3.562c0-.422.031-.422.594-.422 1.047 0 1.265.156 1.36 1.406h.25zm0 0" style="stroke:none"/></symbol><symbol id="h" overflow="visible" style="overflow:visible"><path d="M3.234-5c-.062-.156-.109-.203-.218-.203-.141 0-.157.047-.203.172L1.234-.97c-.109.266-.28.703-.906.719V0c.219-.016.5-.031.719-.031.172 0 .625.015.812.031v-.25c-.406-.016-.437-.344-.437-.437 0-.079 0-.094.328-.97h2.031L4-1.108c.078.203.203.53.203.593 0 .266-.344.266-.516.266V0c.266-.016.844-.031 1.047-.031.329 0 .72.015.954.031v-.25c-.563 0-.641-.047-.766-.39Zm.454 3.094H1.859l.922-2.36Zm0 0" style="stroke:none"/></symbol><symbol id="i" overflow="visible" style="overflow:visible"><path d="M1.828-4.328c0-.422.063-.469.75-.469v-.25c-.328.016-.844.031-1.094.031S.72-5.03.375-5.046v.25c.703 0 .75.046.75.468v3.61c0 .421-.047.468-.75.468V0c.344-.016.86-.031 1.11-.031S2.25-.016 2.577 0v-.25c-.687 0-.75-.047-.75-.469zm0 0" style="stroke:none"/></symbol><symbol id="j" overflow="visible" style="overflow:visible"><path d="M1.89-4.922c-.077-.125-.109-.125-.296-.125H.422v.25c.234 0 .516 0 .703.063v3.75c0 .218 0 .734-.703.734V0c.203-.016.64-.031.844-.031.14 0 .593.015.843.031v-.25c-.703 0-.703-.516-.703-.734V-4.5l.094.11L4.578-.11c.078.11.11.11.172.11.14 0 .14-.062.14-.25v-3.797c0-.234 0-.75.704-.75v-.25c-.203.016-.64.031-.844.031-.14 0-.594-.015-.844-.03v.25c.703 0 .703.515.703.75v2.905zm0 0" style="stroke:none"/></symbol><symbol id="k" overflow="visible" style="overflow:visible"><path d="M1.828-4.375c0-.25.016-.344.11-.39.078-.032.343-.032.515-.032.719 0 1.563.031 1.563 1.078 0 .375-.047 1.094-1.328 1.094h-.86ZM3.563-2.5c.687-.172 1.296-.625 1.296-1.219 0-.687-.875-1.328-2.062-1.328H.437v.25c.657 0 .704.063.704.453v3.64c0 .407-.047.454-.703.454V0c.296-.016.765-.031 1.046-.031s.797.015 1.047.031v-.25c-.656 0-.703-.047-.703-.453v-1.703h.875c.25 0 .5 0 .813.312.203.203.203.438.203.875 0 .547 0 .735.312 1.032.172.171.578.328 1.016.328.625 0 .766-.61.766-.813 0-.047 0-.14-.125-.14-.11 0-.11.093-.11.125-.078.593-.422.609-.5.609-.187 0-.281-.125-.344-.234C4.656-.47 4.61-.75 4.47-1.375c-.078-.344-.172-.844-.907-1.125m0 0" style="stroke:none"/></symbol><symbol id="l" overflow="visible" style="overflow:visible"><path d="M4.188-2.75h-2.36v-1.594c0-.39.063-.453.719-.453v-.25c-.297.016-.844.031-1.063.031S.72-5.03.422-5.046v.25c.656 0 .703.062.703.452v3.64c0 .407-.047.454-.703.454V0c.281-.016.844-.031 1.062-.031.22 0 .766.015 1.063.031v-.25c-.656 0-.719-.047-.719-.453V-2.5h2.36v1.797c0 .406-.063.453-.72.453V0c.298-.016.845-.031 1.063-.031.219 0 .766.015 1.063.031v-.25c-.657 0-.703-.047-.703-.453v-3.64c0-.391.046-.454.703-.454v-.25c-.282.016-.844.031-1.063.031s-.765-.015-1.062-.03v.25c.656 0 .719.062.719.452zm0 0" style="stroke:none"/></symbol><symbol id="m" overflow="visible" style="overflow:visible"><path d="M4.781-5.016H.421v.25c.657 0 .704.063.704.454v3.609c0 .406-.047.453-.703.453V0h4.484l.282-1.906h-.235C4.781-.72 4.547-.25 3.281-.25H2.234c-.343 0-.406-.031-.406-.422v-1.812h.688c.734 0 .843.203.843.859h.25v-1.953h-.25c0 .656-.109.844-.843.844h-.688v-1.61c0-.39.063-.422.406-.422h1c1.125 0 1.391.344 1.5 1.407h.235Zm0 0" style="stroke:none"/></symbol><symbol id="n" overflow="visible" style="overflow:visible"><path d="M3.766-4.953c0-.156 0-.234-.094-.234-.063 0-.078.015-.219.234-.047.047-.14.187-.187.25a1.74 1.74 0 0 0-1.22-.484C1.142-5.187.5-4.516.5-3.75c0 .547.313.875.438 1 .296.281.484.328 1.39.531.531.125.625.14.844.36.062.03.328.297.328.734 0 .484-.39 1.016-1.062 1.016-.266 0-.782-.032-1.204-.375C.781-.828.75-1.312.75-1.578c-.016-.078-.094-.094-.125-.094-.125 0-.125.078-.125.25v1.328C.5.063.5.141.594.141.656.14.672.125.813-.094A1.4 1.4 0 0 0 1-.344c.281.25.797.485 1.438.485A1.54 1.54 0 0 0 4-1.391c0-.625-.39-1.015-.39-1.015-.36-.375-.516-.406-1.36-.61a21 21 0 0 1-.594-.14C1.156-3.36 1-3.734 1-4.031c0-.453.39-.938 1.047-.938 1.25 0 1.422 1.157 1.469 1.469.015.063.015.125.125.125.125 0 .125-.047.125-.234zm0 0" style="stroke:none"/></symbol><symbol id="o" overflow="visible" style="overflow:visible"><path d="m3.266-2.344-1.36-2a.46.46 0 0 1-.11-.265c0-.188.282-.188.407-.188v-.25c-.265.016-.906.031-1.062.031-.266 0-.657-.015-.953-.03v.25c.515 0 .625.062.796.312l1.688 2.468v1.313c0 .406-.047.453-.703.453V0C2.25-.016 2.734-.031 3-.031c.281 0 .797.015 1.047.031v-.25c-.656 0-.703-.047-.703-.484v-1.282l1.422-2.093c.359-.532.687-.672 1.062-.688v-.25a10 10 0 0 1-.687.031c-.266 0-.532-.015-.797-.03v.25c.203.015.281.14.281.296 0 .14-.078.266-.156.375zm0 0" style="stroke:none"/></symbol><symbol id="p" overflow="visible" style="overflow:visible"><path d="M4.64-1.906h-.25C4.314-1.125 4.22-.25 2.845-.25h-.61c-.343 0-.406-.031-.406-.422v-3.64c0-.485.156-.485.89-.485v-.25a30 30 0 0 1-1.202.031c-.25 0-.735-.015-1.094-.03v.25c.656 0 .703.062.703.452v3.64c0 .407-.047.454-.703.454V0h4.031zm0 0" style="stroke:none"/></symbol><symbol id="q" overflow="visible" style="overflow:visible"><path d="M5.281-4.953c0-.156 0-.234-.093-.234-.063 0-.063.03-.141.125l-.39.5a1.88 1.88 0 0 0-1.423-.625C1.781-5.187.5-4.016.5-2.516.5-1.062 1.734.141 3.25.141c.344 0 1.078-.047 1.453-.594.094.14.39.437.5.437.078 0 .078-.078.078-.218v-1.11c0-.39.047-.437.563-.437v-.25c-.328.015-.719.031-.985.031-.343 0-.921 0-1.265-.031v.25h.203c.75 0 .781.11.781.5v.297c0 .218 0 .453-.39.687-.22.125-.547.188-.829.188-.609 0-2.015-.328-2.015-2.407 0-2.156 1.484-2.421 1.969-2.421.703 0 1.53.515 1.718 1.765.016.063.032.125.125.125.125 0 .125-.047.125-.234zm0 0" style="stroke:none"/></symbol><symbol id="r" overflow="visible" style="overflow:visible"><path d="M4.688-5.016H.422v.25c.656 0 .703.063.703.454v3.609c0 .406-.047.453-.703.453V0c.328-.016.844-.031 1.094-.031.312 0 .922.015 1.203.031v-.25c-.735 0-.89 0-.89-.484v-1.657H2.5c.719 0 .828.22.828.86h.25v-1.953h-.25c0 .656-.11.859-.828.859h-.672v-1.719c0-.39.063-.422.406-.422h.922c1.078 0 1.375.313 1.469 1.407h.234zm0 0" style="stroke:none"/></symbol><symbol id="s" overflow="visible" style="overflow:visible"><path d="M4.531-2.89c.032-.126.032-.22.032-.344 0-.72-.47-1.297-1.313-1.297-.703 0-1.187.218-1.625.422-.031.297-.062.609-.078.656.453-.281.953-.485 1.578-.485.61 0 .672.594.672.766s-.11.735-.14.766c-.032 0-.204.015-.235.015C2.703-2.359.64-2.17.64-.828c0 .156.03.937.89.937.25 0 1.094-.046 1.719-.453A2 2 0 0 1 3.172 0h.75zm-1.11 1.609c-.171.797-1.124.797-1.265.797-.484 0-.797-.22-.797-.532 0-.796 1.735-.875 2.188-.89zm0 0" style="stroke:none"/></symbol><symbol id="t" overflow="visible" style="overflow:visible"><path d="M4.156-4.469c-1.156.032-1.875.89-1.906.922l.188-.875H1.75L.797 0h.75c.25-1.203.437-2.156.484-2.297.172-.64.906-1.484 1.985-1.515Zm0 0" style="stroke:none"/></symbol><symbol id="u" overflow="visible" style="overflow:visible"><path d="M3.016-6.672H2.14l-.188.875h.875zM.796 0h.735l.922-4.36H1.72Zm0 0" style="stroke:none"/></symbol><symbol id="v" overflow="visible" style="overflow:visible"><path d="M2.516-3.781h1.39l.11-.578H2.64l.265-1.25h-.672L1.97-4.36h-.86l-.125.578h.829c-.125.547-.61 2.765-.61 3.14 0 .547.234.75.61.75.515 0 1.015-.156 1.5-.375L3.28-.844c-.36.25-.703.328-.953.328-.11 0-.375 0-.375-.468 0-.094.016-.172.031-.235zm0 0" style="stroke:none"/></symbol><symbol id="w" overflow="visible" style="overflow:visible"><path d="M4.89-2.984c.063-.266.063-.36.063-.5 0-.594-.297-.985-1.078-.985-.75 0-1.281.453-1.547.703l.64-3.046H2.25L.797 0h.766l.468-2.234c.235-1.078.703-1.625 1.328-1.625.47 0 .797.156.797.64 0 .031-.015.188-.015.203L3.5 0h.766zm0 0" style="stroke:none"/></symbol><symbol id="x" overflow="visible" style="overflow:visible"><path d="M7.625-2.984c.031-.172.063-.266.063-.5 0-.594-.297-.985-1.094-.985-.86 0-1.407.578-1.64.813-.032-.39-.235-.813-1.079-.813-.781 0-1.36.516-1.578.75l.14-.703h-.703L.797 0h.766l.468-2.234c.203-.891.594-1.625 1.344-1.625.406 0 .797.125.797.64 0 .031-.016.188-.016.203L3.516 0h.765l.469-2.234c.203-.891.594-1.625 1.344-1.625.406 0 .797.125.797.64 0 .031-.016.188-.016.203L6.235 0H7Zm0 0" style="stroke:none"/></symbol><symbol id="y" overflow="visible" style="overflow:visible"><path d="M4.531-2.156c.032-.156.094-.547.094-.86 0-.171 0-.687-.312-1.078-.188-.218-.547-.437-1.047-.437C2-4.531.75-3.11.75-1.671c0 1 .656 1.78 1.688 1.78.656 0 1.296-.265 1.671-.515.016-.125.047-.485.079-.64-.36.265-.97.562-1.61.562-.672 0-1.125-.5-1.125-1.297 0-.125 0-.235.031-.375zm-2.875-.531c.328-.782.953-1.235 1.5-1.235.922 0 .922.922.922 1.235zm0 0" style="stroke:none"/></symbol><symbol id="z" overflow="visible" style="overflow:visible"><path d="M4.688-3.89c.078-.079.078-.094.109-.188l.047-.281H1.328l-.11.578h2.548L.484-.516c-.125.11-.125.125-.14.22A1.7 1.7 0 0 0 .28 0h3.657l.14-.61H2.625c-.125 0-.234.016-.36.016H1.36zm0 0" style="stroke:none"/></symbol><symbol id="A" overflow="visible" style="overflow:visible"><path d="M5.125-2.703c0-.985-.656-1.828-1.719-1.828C2-4.531.703-3.063.703-1.656c0 .984.688 1.765 1.735 1.765 1.328 0 2.687-1.296 2.687-2.812M2.563-.516c-.47 0-1.079-.265-1.079-1.218 0-1.157.782-2.188 1.797-2.188.656 0 1.094.453 1.094 1.172 0 .984-.687 2.234-1.812 2.234m0 0" style="stroke:none"/></symbol><symbol id="B" overflow="visible" style="overflow:visible"><path d="M4.89-2.984c.063-.266.063-.36.063-.5 0-.594-.297-.985-1.078-.985-.61 0-1.172.313-1.578.75l.14-.703h-.703L.797 0h.766l.468-2.234c.235-1.078.703-1.625 1.328-1.625.47 0 .797.156.797.64 0 .031-.015.188-.015.203L3.5 0h.766zm0 0" style="stroke:none"/></symbol><symbol id="C" overflow="visible" style="overflow:visible"><path d="M1.672-.453c.14.172.5.562 1.187.562C4.016.11 5.25-1.25 5.25-2.875c0-.828-.375-1.594-1.14-1.594-.61 0-1.282.25-1.75.594l.109-.484h-.735L.406 1.906h.766Zm.562-2.672c.047-.156.047-.172.172-.297.422-.36.828-.422 1.016-.422.61 0 1.031.5 1.031 1.25 0 1.11-.937 2.11-1.828 2.11a.8.8 0 0 1-.812-.657s.03-.109.03-.14zm0 0" style="stroke:none"/></symbol><symbol id="D" overflow="visible" style="overflow:visible"><path d="M2.984-6.812H2.25L.797 0h.734Zm0 0" style="stroke:none"/></symbol><symbol id="E" overflow="visible" style="overflow:visible"><path d="M4.89-4.094C4.376-4.469 4-4.53 3.47-4.53 1.906-4.531.75-2.97.75-1.656c0 .89.578 1.765 1.703 1.765.516 0 1.094-.14 1.703-.5l.078-.656c-.375.25-.921.531-1.64.531-.688 0-1.063-.5-1.063-1.203 0-.86.594-2.172 1.813-2.172.594 0 .86.11 1.297.422zm0 0" style="stroke:none"/></symbol><symbol id="F" overflow="visible" style="overflow:visible"><path d="M5.297-4.36h-.734L3.234-2.155c-.312.547-.687 1.25-.78 1.594h-.017c.016-.079.016-.141.016-.25 0-.516-.172-1.5-.281-2L1.828-4.36h-.766l.954 4.218c0 .016.03.11.03.125 0 .063-.452.75-.53.875-.282.422-.453.594-.688.594-.172 0-.484-.047-.734-.156l-.078.64c.265.047.53.079.687.079.281 0 .688-.047 1.375-1.157zm0 0" style="stroke:none"/></symbol><symbol id="G" overflow="visible" style="overflow:visible"><path d="M1.89-.672c-.171 0-.484 0-.484-.39 0-.188.078-.36.188-.5.281.234.578.296.86.296.983 0 1.937-.953 1.937-1.937 0-.281-.094-.531-.172-.656a.2.2 0 0 1 .047.015c.218 0 .5-.031.734-.031.172 0 .375.016.531.016.032 0 .047 0 .047-.11a5 5 0 0 0 .031-.5 4.5 4.5 0 0 0-1.625.313 1.33 1.33 0 0 0-.859-.313c-1.031 0-1.953.969-1.953 1.938 0 .219.062.453.156.64-.437.485-.484.907-.484 1.094 0 .14.047.36.125.485C.375-.017.109.516.109.875c0 .625.75 1.14 1.907 1.14C3.094 2.016 4.5 1.5 4.5.407c0-.734-.594-1.078-1.75-1.078Zm.673-1.156c-.376 0-.704-.219-.704-.719 0-.578.375-1.36 1.141-1.36.375 0 .703.22.703.72 0 .593-.375 1.359-1.14 1.359m.03 1.86c.61 0 1.204.109 1.204.577 0 .485-.797.86-1.656.86-.75 0-1.344-.297-1.344-.672 0-.172.187-.766.922-.766zm0 0" style="stroke:none"/></symbol><clipPath id="a"><path d="M239.527 161.574h362.836V433.7H239.527Zm0 0"/></clipPath></defs><g clip-path="url(#a)" style="clip-rule:nonzero" transform="translate(-239.527 -161.574)"><path d="M239.527 161.574h362.836V433.7H239.527Zm0 0" style="fill:#fff;fill-opacity:1;fill-rule:nonzero;stroke:none"/></g><path d="M428.703 197.012h-99.215c-7.828 0-14.172 6.343-14.172 14.172v-2.832c0 7.828 6.344 14.171 14.172 14.171h99.215c7.828 0 14.172-6.343 14.172-14.171v2.832c0-7.829-6.344-14.172-14.172-14.172zm0 0" style="fill:none;stroke:#000;stroke-width:.99628001;stroke-linecap:butt;stroke-linejoin:miter;stroke-miterlimit:10;stroke-opacity:1" transform="translate(-239.527 -161.574)"/><g style="fill:#000;fill-opacity:1" transform="translate(-239.527 -161.574)"><use xlink:href="#b" width="100%" height="100%" x="347.885" y="205.061"/><use xlink:href="#c" width="100%" height="100%" x="353.688" y="205.061"/><use xlink:href="#d" width="100%" height="100%" x="359.922" y="205.061"/><use xlink:href="#e" width="100%" height="100%" x="367.247" y="205.061"/><use xlink:href="#f" width="100%" height="100%" x="372.716" y="205.061"/></g><use xlink:href="#g" width="100%" height="100%" x="378.764" y="205.061" style="fill:#000;fill-opacity:1" transform="translate(-239.527 -161.574)"/><use xlink:href="#h" width="100%" height="100%" x="383.908" y="205.061" style="fill:#000;fill-opacity:1" transform="translate(-239.527 -161.574)"/><g style="fill:#000;fill-opacity:1" transform="translate(-239.527 -161.574)"><use xlink:href="#g" width="100%" height="100%" x="389.279" y="205.061"/><use xlink:href="#i" width="100%" height="100%" x="395.081" y="205.061"/><use xlink:href="#c" width="100%" height="100%" x="398.047" y="205.061"/><use xlink:href="#j" width="100%" height="100%" x="404.281" y="205.061"/></g><path d="M428.703 245.324h-99.215c-7.828 0-14.172 6.348-14.172 14.176v2.586c0 7.828 6.344 14.172 14.172 14.172h99.215c7.828 0 14.172-6.344 14.172-14.172V259.5c0-7.828-6.344-14.176-14.172-14.176zm0 0" style="fill:none;stroke:#7f0000;stroke-width:.99628001;stroke-linecap:butt;stroke-linejoin:miter;stroke-miterlimit:10;stroke-opacity:1" transform="translate(-239.527 -161.574)"/><g style="fill:#7f0000;fill-opacity:1" transform="translate(-239.527 -161.574)"><use xlink:href="#h" width="100%" height="100%" x="352.042" y="257.132"/><use xlink:href="#k" width="100%" height="100%" x="358.061" y="257.132"/><use xlink:href="#i" width="100%" height="100%" x="363.971" y="257.132"/><use xlink:href="#g" width="100%" height="100%" x="366.936" y="257.132"/><use xlink:href="#l" width="100%" height="100%" x="372.739" y="257.132"/><use xlink:href="#d" width="100%" height="100%" x="378.757" y="257.132"/><use xlink:href="#m" width="100%" height="100%" x="386.082" y="257.132"/></g><g style="fill:#7f0000;fill-opacity:1" transform="translate(-239.527 -161.574)"><use xlink:href="#g" width="100%" height="100%" x="391.58" y="257.132"/><use xlink:href="#i" width="100%" height="100%" x="397.383" y="257.132"/><use xlink:href="#b" width="100%" height="100%" x="400.348" y="257.132"/></g><g style="fill:#7f0000;fill-opacity:1" transform="translate(-239.527 -161.574)"><use xlink:href="#b" width="100%" height="100%" x="332.886" y="269.327"/><use xlink:href="#c" width="100%" height="100%" x="338.688" y="269.327"/><use xlink:href="#j" width="100%" height="100%" x="344.923" y="269.327"/><use xlink:href="#n" width="100%" height="100%" x="350.941" y="269.327"/><use xlink:href="#g" width="100%" height="100%" x="355.428" y="269.327"/><use xlink:href="#k" width="100%" height="100%" x="361.231" y="269.327"/><use xlink:href="#h" width="100%" height="100%" x="367.141" y="269.327"/><use xlink:href="#i" width="100%" height="100%" x="373.16" y="269.327"/></g><g style="fill:#7f0000;fill-opacity:1" transform="translate(-239.527 -161.574)"><use xlink:href="#j" width="100%" height="100%" x="376.154" y="269.327"/><use xlink:href="#g" width="100%" height="100%" x="382.173" y="269.327"/></g><g style="fill:#7f0000;fill-opacity:1" transform="translate(-239.527 -161.574)"><use xlink:href="#n" width="100%" height="100%" x="391.687" y="269.327"/><use xlink:href="#o" width="100%" height="100%" x="396.174" y="269.327"/><use xlink:href="#n" width="100%" height="100%" x="402.192" y="269.327"/><use xlink:href="#g" width="100%" height="100%" x="406.679" y="269.327"/><use xlink:href="#m" width="100%" height="100%" x="412.482" y="269.327"/></g><use xlink:href="#d" width="100%" height="100%" x="417.98" y="269.327" style="fill:#7f0000;fill-opacity:1" transform="translate(-239.527 -161.574)"/><path d="M428.703 299.059h-99.215c-7.828 0-14.172 6.347-14.172 14.175v-2.836c0 7.829 6.344 14.172 14.172 14.172h99.215c7.828 0 14.172-6.343 14.172-14.172v2.836c0-7.828-6.344-14.175-14.172-14.175zm0 0" style="fill:none;stroke:#00007f;stroke-width:.99628001;stroke-linecap:butt;stroke-linejoin:miter;stroke-miterlimit:10;stroke-opacity:1" transform="translate(-239.527 -161.574)"/><g style="fill:#00007f;fill-opacity:1" transform="translate(-239.527 -161.574)"><use xlink:href="#e" width="100%" height="100%" x="342.027" y="307.107"/><use xlink:href="#c" width="100%" height="100%" x="347.496" y="307.107"/><use xlink:href="#p" width="100%" height="100%" x="353.731" y="307.107"/></g><g style="fill:#00007f;fill-opacity:1" transform="translate(-239.527 -161.574)"><use xlink:href="#o" width="100%" height="100%" x="358.129" y="307.107"/><use xlink:href="#j" width="100%" height="100%" x="364.148" y="307.107"/><use xlink:href="#c" width="100%" height="100%" x="370.166" y="307.107"/><use xlink:href="#d" width="100%" height="100%" x="376.401" y="307.107"/><use xlink:href="#i" width="100%" height="100%" x="383.725" y="307.107"/><use xlink:href="#h" width="100%" height="100%" x="386.69" y="307.107"/><use xlink:href="#p" width="100%" height="100%" x="392.709" y="307.107"/></g><g style="fill:#00007f;fill-opacity:1" transform="translate(-239.527 -161.574)"><use xlink:href="#i" width="100%" height="100%" x="401.477" y="307.107"/><use xlink:href="#c" width="100%" height="100%" x="404.442" y="307.107"/><use xlink:href="#e" width="100%" height="100%" x="410.676" y="307.107"/></g><path d="M428.703 347.371h-99.215c-7.828 0-14.172 6.348-14.172 14.176v2.586c0 7.828 6.344 14.172 14.172 14.172h99.215c7.828 0 14.172-6.344 14.172-14.172v-2.586c0-7.828-6.344-14.176-14.172-14.176zm0 0" style="fill:none;stroke:#007f00;stroke-width:.99628001;stroke-linecap:butt;stroke-linejoin:miter;stroke-miterlimit:10;stroke-opacity:1" transform="translate(-239.527 -161.574)"/><g style="fill:#007f00;fill-opacity:1" transform="translate(-239.527 -161.574)"><use xlink:href="#b" width="100%" height="100%" x="342.546" y="359.179"/><use xlink:href="#k" width="100%" height="100%" x="348.348" y="359.179"/></g><g style="fill:#007f00;fill-opacity:1" transform="translate(-239.527 -161.574)"><use xlink:href="#o" width="100%" height="100%" x="353.601" y="359.179"/><use xlink:href="#e" width="100%" height="100%" x="359.62" y="359.179"/><use xlink:href="#g" width="100%" height="100%" x="365.088" y="359.179"/><use xlink:href="#c" width="100%" height="100%" x="370.891" y="359.179"/><use xlink:href="#q" width="100%" height="100%" x="377.125" y="359.179"/><use xlink:href="#k" width="100%" height="100%" x="383.419" y="359.179"/><use xlink:href="#h" width="100%" height="100%" x="389.329" y="359.179"/></g><g style="fill:#007f00;fill-opacity:1" transform="translate(-239.527 -161.574)"><use xlink:href="#e" width="100%" height="100%" x="395.377" y="359.179"/><use xlink:href="#l" width="100%" height="100%" x="400.846" y="359.179"/><use xlink:href="#i" width="100%" height="100%" x="406.865" y="359.179"/><use xlink:href="#b" width="100%" height="100%" x="409.83" y="359.179"/></g><g style="fill:#007f00;fill-opacity:1" transform="translate(-239.527 -161.574)"><use xlink:href="#e" width="100%" height="100%" x="345.976" y="371.373"/><use xlink:href="#k" width="100%" height="100%" x="351.445" y="371.373"/></g><g style="fill:#007f00;fill-opacity:1" transform="translate(-239.527 -161.574)"><use xlink:href="#c" width="100%" height="100%" x="357.15" y="371.373"/><use xlink:href="#c" width="100%" height="100%" x="363.384" y="371.373"/><use xlink:href="#r" width="100%" height="100%" x="369.619" y="371.373"/></g><g style="fill:#007f00;fill-opacity:1" transform="translate(-239.527 -161.574)"><use xlink:href="#n" width="100%" height="100%" x="378.592" y="371.373"/><use xlink:href="#o" width="100%" height="100%" x="383.079" y="371.373"/><use xlink:href="#n" width="100%" height="100%" x="389.098" y="371.373"/><use xlink:href="#g" width="100%" height="100%" x="393.585" y="371.373"/><use xlink:href="#m" width="100%" height="100%" x="399.387" y="371.373"/></g><use xlink:href="#d" width="100%" height="100%" x="404.886" y="371.373" style="fill:#007f00;fill-opacity:1" transform="translate(-239.527 -161.574)"/><path d="M442.875 222.523c12.758 0 12.758 25.512 1.457 25.512" style="fill:none;stroke:#000;stroke-width:1.99255002;stroke-linecap:butt;stroke-linejoin:miter;stroke-miterlimit:10;stroke-opacity:1" transform="translate(-239.527 -161.574)"/><path d="M446.96 251.543c-.218-1.316-2.628-3.29-3.288-3.508.66-.219 3.07-2.191 3.289-3.508" style="fill:none;stroke:#000;stroke-width:1.59404004;stroke-linecap:round;stroke-linejoin:round;stroke-miterlimit:10;stroke-opacity:1" transform="translate(-239.527 -161.574)"/><use xlink:href="#s" width="100%" height="100%" x="461.713" y="238.688" style="fill:#000;fill-opacity:1" transform="translate(-239.527 -161.574)"/><g style="fill:#000;fill-opacity:1" transform="translate(-239.527 -161.574)"><use xlink:href="#t" width="100%" height="100%" x="466.161" y="238.688"/><use xlink:href="#u" width="100%" height="100%" x="469.509" y="238.688"/><use xlink:href="#v" width="100%" height="100%" x="471.846" y="238.688"/><use xlink:href="#w" width="100%" height="100%" x="475.39" y="238.688"/><use xlink:href="#x" width="100%" height="100%" x="480.456" y="238.688"/><use xlink:href="#y" width="100%" height="100%" x="488.252" y="238.688"/></g><g style="fill:#000;fill-opacity:1" transform="translate(-239.527 -161.574)"><use xlink:href="#v" width="100%" height="100%" x="492.641" y="238.688"/><use xlink:href="#u" width="100%" height="100%" x="496.185" y="238.688"/><use xlink:href="#z" width="100%" height="100%" x="498.522" y="238.688"/><use xlink:href="#s" width="100%" height="100%" x="502.783" y="238.688"/><use xlink:href="#v" width="100%" height="100%" x="507.496" y="238.688"/><use xlink:href="#u" width="100%" height="100%" x="511.04" y="238.688"/></g><g style="fill:#000;fill-opacity:1" transform="translate(-239.527 -161.574)"><use xlink:href="#A" width="100%" height="100%" x="513.406" y="238.688"/><use xlink:href="#B" width="100%" height="100%" x="518.315" y="238.688"/></g><path d="M442.875 273.547c12.758 0 12.758 25.512 1.457 25.512" style="fill:none;stroke:#000;stroke-width:1.99255002;stroke-linecap:butt;stroke-linejoin:miter;stroke-miterlimit:10;stroke-opacity:1" transform="translate(-239.527 -161.574)"/><path d="M446.96 302.566c-.218-1.316-2.628-3.289-3.288-3.507.66-.22 3.07-2.192 3.289-3.508" style="fill:none;stroke:#000;stroke-width:1.59404004;stroke-linecap:round;stroke-linejoin:round;stroke-miterlimit:10;stroke-opacity:1" transform="translate(-239.527 -161.574)"/><g style="fill:#000;fill-opacity:1" transform="translate(-239.527 -161.574)"><use xlink:href="#u" width="100%" height="100%" x="461.713" y="288.757"/><use xlink:href="#B" width="100%" height="100%" x="464.05" y="288.757"/><use xlink:href="#v" width="100%" height="100%" x="469.116" y="288.757"/><use xlink:href="#y" width="100%" height="100%" x="472.661" y="288.757"/><use xlink:href="#t" width="100%" height="100%" x="477.02" y="288.757"/></g><use xlink:href="#C" width="100%" height="100%" x="480.397" y="288.757" style="fill:#000;fill-opacity:1" transform="translate(-239.527 -161.574)"/><g style="fill:#000;fill-opacity:1" transform="translate(-239.527 -161.574)"><use xlink:href="#A" width="100%" height="100%" x="485.738" y="288.757"/><use xlink:href="#D" width="100%" height="100%" x="490.648" y="288.757"/><use xlink:href="#s" width="100%" height="100%" x="492.984" y="288.757"/><use xlink:href="#v" width="100%" height="100%" x="497.697" y="288.757"/><use xlink:href="#u" width="100%" height="100%" x="501.241" y="288.757"/></g><g style="fill:#000;fill-opacity:1" transform="translate(-239.527 -161.574)"><use xlink:href="#A" width="100%" height="100%" x="503.608" y="288.757"/><use xlink:href="#B" width="100%" height="100%" x="508.517" y="288.757"/></g><path d="M442.875 324.57c12.758 0 12.758 25.512 1.457 25.512" style="fill:none;stroke:#000;stroke-width:1.99255002;stroke-linecap:butt;stroke-linejoin:miter;stroke-miterlimit:10;stroke-opacity:1" transform="translate(-239.527 -161.574)"/><path d="M446.96 353.59c-.218-1.317-2.628-3.29-3.288-3.508.66-.219 3.07-2.191 3.289-3.504" style="fill:none;stroke:#000;stroke-width:1.59404004;stroke-linecap:round;stroke-linejoin:round;stroke-miterlimit:10;stroke-opacity:1" transform="translate(-239.527 -161.574)"/><g style="fill:#000;fill-opacity:1" transform="translate(-239.527 -161.574)"><use xlink:href="#E" width="100%" height="100%" x="461.991" y="333.667"/><use xlink:href="#t" width="100%" height="100%" x="466.35" y="333.667"/><use xlink:href="#F" width="100%" height="100%" x="469.698" y="333.667"/><use xlink:href="#C" width="100%" height="100%" x="474.224" y="333.667"/><use xlink:href="#v" width="100%" height="100%" x="479.29" y="333.667"/><use xlink:href="#A" width="100%" height="100%" x="482.835" y="333.667"/><use xlink:href="#G" width="100%" height="100%" x="487.744" y="333.667"/><use xlink:href="#t" width="100%" height="100%" x="492.653" y="333.667"/></g><g style="fill:#000;fill-opacity:1" transform="translate(-239.527 -161.574)"><use xlink:href="#s" width="100%" height="100%" x="496.03" y="333.667"/><use xlink:href="#C" width="100%" height="100%" x="500.743" y="333.667"/><use xlink:href="#w" width="100%" height="100%" x="505.809" y="333.667"/><use xlink:href="#u" width="100%" height="100%" x="510.875" y="333.667"/></g><use xlink:href="#E" width="100%" height="100%" x="513.242" y="333.667" style="fill:#000;fill-opacity:1" transform="translate(-239.527 -161.574)"/><g style="fill:#000;fill-opacity:1" transform="translate(-239.527 -161.574)"><use xlink:href="#E" width="100%" height="100%" x="466.404" y="345.861"/><use xlink:href="#A" width="100%" height="100%" x="470.764" y="345.861"/><use xlink:href="#x" width="100%" height="100%" x="475.673" y="345.861"/><use xlink:href="#C" width="100%" height="100%" x="483.468" y="345.861"/><use xlink:href="#u" width="100%" height="100%" x="488.534" y="345.861"/><use xlink:href="#D" width="100%" height="100%" x="490.871" y="345.861"/></g><g style="fill:#000;fill-opacity:1" transform="translate(-239.527 -161.574)"><use xlink:href="#s" width="100%" height="100%" x="493.237" y="345.861"/><use xlink:href="#v" width="100%" height="100%" x="497.95" y="345.861"/><use xlink:href="#u" width="100%" height="100%" x="501.495" y="345.861"/><use xlink:href="#A" width="100%" height="100%" x="503.831" y="345.861"/><use xlink:href="#B" width="100%" height="100%" x="508.74" y="345.861"/></g></svg>