<svg xmlns="http://www.w3.org/2000/svg" xmlns:xlink="http://www.w3.org/1999/xlink" width="483.781" height="362.833" viewBox="0 0 362.836 272.125"><defs><symbol id="b" overflow="visible" style="overflow:visible"><path d="M7.281-4.844h-.797L5.797-2.53c-.125.39-.453 1.469-.5 1.937H5.28c-.047-.328-.312-1.297-.5-1.922l-.718-2.328h-.766l-.61 2.047c-.124.39-.5 1.64-.53 2.203H2.14c-.063-.531-.422-1.765-.594-2.36l-.563-1.89H.156L1.641 0h.875c.046-.172.422-1.39.672-2.25.156-.5.453-1.578.484-1.984h.015c.016.312.204 1.062.344 1.53L4.828 0h.969zm0 0" style="stroke:none"/></symbol><symbol id="c" overflow="visible" style="overflow:visible"><path d="M1.781-7.422H.813v.969h.968Zm-.078 2.578H.891V0h.812zm0 0" style="stroke:none"/></symbol><symbol id="d" overflow="visible" style="overflow:visible"><path d="M1.906-4.203h1.547v-.64H1.906v-1.391h-.75v1.39H.203v.64h.922v2.907c0 .656.156 1.422.906 1.422.766 0 1.313-.281 1.594-.422l-.172-.64c-.297.234-.64.359-.984.359-.406 0-.563-.328-.563-.906zm0 0" style="stroke:none"/></symbol><symbol id="e" overflow="visible" style="overflow:visible"><path d="M4.75-3.25c0-.719-.172-1.719-1.5-1.719-.984 0-1.516.75-1.578.828v-.765H.89V0h.843v-2.672c0-.719.266-1.625 1.094-1.625 1.047 0 1.063.781 1.063 1.125V0h.859Zm0 0" style="stroke:none"/></symbol><symbol id="f" overflow="visible" style="overflow:visible"><path d="M4.516-2.39c0-.376-.016-1.188-.438-1.844a1.77 1.77 0 0 0-1.5-.797C1.36-5.031.375-3.875.375-2.47c0 1.44 1.047 2.595 2.36 2.595.687 0 1.312-.266 1.734-.578l-.063-.703a2.65 2.65 0 0 1-1.656.61c-.875 0-1.578-.766-1.61-1.845zm-3.313-.594c.172-.828.75-1.375 1.375-1.375.563 0 1.172.375 1.313 1.375zm0 0" style="stroke:none"/></symbol><symbol id="g" overflow="visible" style="overflow:visible"><path d="M3.734-4.672a3.4 3.4 0 0 0-1.562-.36c-.281 0-1.813 0-1.813 1.438 0 .531.313.875.594 1.078.328.25.578.297 1.172.407.39.078 1.031.218 1.031.797 0 .75-.86.75-1.031.75-.875 0-1.5-.407-1.687-.532l-.125.735c.343.172.937.484 1.828.484.187 0 .797 0 1.265-.36.328-.25.516-.687.516-1.156 0-.609-.406-.968-.422-1.015-.422-.375-.719-.438-1.266-.531-.593-.126-1.093-.235-1.093-.766 0-.688.78-.688.922-.688.343 0 .921.047 1.546.422zm0 0" style="stroke:none"/></symbol><symbol id="h" overflow="visible" style="overflow:visible"><path d="M4.734-7.562h-.812v3.203a2.53 2.53 0 0 0-1.594-.61C1.25-4.969.391-3.829.391-2.422.39-1 1.234.125 2.266.125c.359 0 1-.11 1.609-.687V0h.86Zm-.859 6.046c0 .157 0 .344-.36.672-.25.219-.515.297-.796.297-.672 0-1.469-.515-1.469-1.86 0-1.437.938-1.89 1.578-1.89.485 0 .813.25 1.047.594zm0 0" style="stroke:none"/></symbol><symbol id="i" overflow="visible" style="overflow:visible"><path d="m2.828-2.5 2-2.344h-.89l-1.47 1.797-1.5-1.797H.064L2.109-2.5 0 0h.89l1.58-2.047L4.109 0h.907zm0 0" style="stroke:none"/></symbol><symbol id="j" overflow="visible" style="overflow:visible"><path d="M4.36-3.156c0-1.11-.798-1.875-1.813-1.875-.703 0-1.188.172-1.703.468l.062.72c.563-.407 1.11-.548 1.64-.548.517 0 .954.438.954 1.25v.47C1.86-2.657.484-2.189.484-1.235c0 .469.297 1.36 1.236 1.36.156 0 1.187-.031 1.812-.516V0h.828ZM3.5-1.437c0 .203 0 .484-.375.687-.312.188-.719.203-.844.203-.531 0-1.015-.25-1.015-.703 0-.766 1.765-.844 2.234-.86zm0 0" style="stroke:none"/></symbol><symbol id="k" overflow="visible" style="overflow:visible"><path d="M4.469-4.562c-.64-.36-1.016-.47-1.672-.47C1.28-5.031.39-3.702.39-2.421c0 1.36 1 2.547 2.359 2.547.594 0 1.188-.156 1.781-.562l-.078-.735a2.65 2.65 0 0 1-1.687.594c-.907 0-1.516-.781-1.516-1.86 0-.843.39-1.89 1.547-1.89.578 0 .937.078 1.547.484zm0 0" style="stroke:none"/></symbol><symbol id="l" overflow="visible" style="overflow:visible"><path d="M2.688-6.594c0-.39.03-.515.906-.515h.281v-.344c-.39.031-1.25.031-1.656.031-.438 0-1.297 0-1.672-.031v.344h.281c.86 0 .89.125.89.515v5.75c0 .39-.03.5-.89.5H.547V0C.922-.031 1.78-.031 2.203-.031s1.281 0 1.672.031v-.344h-.281c-.875 0-.906-.11-.906-.5zm0 0" style="stroke:none"/></symbol><symbol id="m" overflow="visible" style="overflow:visible"><path d="M2.11-5.469c-.11-.14-.126-.14-.329-.14H.47v.28c.265 0 .562 0 .781.079v4.156c0 .25 0 .828-.781.828V0c.234-.016.719-.031.937-.031.172 0 .672.015.938.031v-.266c-.781 0-.781-.578-.781-.828V-5l.109.125 3.422 4.75C5.187 0 5.219 0 5.28 0c.157 0 .157-.078.157-.281V-4.5c0-.25 0-.828.78-.828v-.281c-.234.015-.718.03-.937.03-.172 0-.672 0-.937-.03v.28c.781 0 .781.579.781.829v3.234zm0 0" style="stroke:none"/></symbol><symbol id="n" overflow="visible" style="overflow:visible"><path d="M1.281-.781c0 .437-.062.515-.797.515V0h3.079C5.093 0 6.25-1.266 6.25-2.766S5.125-5.609 3.563-5.609H.483v.28c.735 0 .797.063.797.5zm1.188.515c-.39 0-.438-.046-.438-.468V-4.86c0-.438.047-.47.438-.47h.828c.953 0 1.422.5 1.562.704.25.313.485.766.485 1.86 0 .906-.157 1.359-.39 1.703-.173.25-.641.796-1.657.796zm0 0" style="stroke:none"/></symbol><symbol id="o" overflow="visible" style="overflow:visible"><path d="M5.328-5.578H.468v.281c.735 0 .782.063.782.516v4c0 .437-.047.515-.781.515V0h4.984l.313-2.11H5.5C5.313-.796 5.047-.265 3.656-.265H2.47c-.375 0-.422-.046-.422-.468v-2.032h.75c.812 0 .937.22.937.954h.282v-2.172h-.282c0 .734-.125.953-.937.953h-.75v-1.797c0-.438.047-.469.422-.469h1.125c1.265 0 1.547.375 1.656 1.563h.281zm0 0" style="stroke:none"/></symbol><symbol id="p" overflow="visible" style="overflow:visible"><path d="M4.438-.766c.046.063.078.11.078.204 0 .078-.063.265-.36.296V0a33 33 0 0 1 1.172-.031c.266 0 .703.015 1.047.031v-.266c-.328 0-.578 0-.781-.187-.157-.14-1.875-2.531-2-2.703l1.125-1.5c.375-.485.797-.672 1.297-.672v-.281c-.282.03-.61.03-.891.03-.297 0-.781-.015-1-.03v.28c.172.016.328.11.328.376 0 .187-.094.312-.172.406l-.86 1.156-1.03-1.406c-.094-.125-.094-.187-.094-.234 0-.188.14-.297.36-.297v-.281c-.282.015-.938.03-1.173.03-.296 0-.718 0-1.046-.03v.28c.625 0 .718.063 1.03.485l1.5 2.078-1.25 1.688c-.327.406-.687.781-1.405.812V0a17 17 0 0 1 .89-.031c.344 0 .844.015 1 .031v-.266c-.219-.03-.344-.171-.344-.39 0-.188.094-.297.266-.547.344-.438.672-.906 1.016-1.344zm0 0" style="stroke:none"/></symbol><symbol id="q" overflow="visible" style="overflow:visible"><path d="M2.031-4.86c0-.28.016-.39.125-.437.078-.031.375-.031.563-.031.812 0 1.734.031 1.734 1.187 0 .438-.047 1.22-1.469 1.22h-.953Zm1.922 2.08c.766-.203 1.453-.688 1.453-1.36 0-.75-.984-1.468-2.297-1.468H.484v.28c.735 0 .797.063.797.5V-.78c0 .437-.062.515-.797.515V0c.329-.016.86-.031 1.157-.031.328 0 .89.015 1.172.031v-.266c-.735 0-.782-.078-.782-.515v-1.906h.985c.265 0 .547.015.89.359.235.234.235.5.235.969 0 .625 0 .812.343 1.156.188.187.625.36 1.125.36.688 0 .86-.688.86-.891 0-.063 0-.172-.14-.172-.126 0-.141.094-.141.14-.063.672-.47.672-.532.672-.218 0-.328-.14-.39-.25-.079-.187-.157-.484-.297-1.187-.078-.375-.188-.938-1.016-1.25m0 0" style="stroke:none"/></symbol><symbol id="r" overflow="visible" style="overflow:visible"><path d="M4.688-3.453c1.328 0 2.609-.844 2.609-1.969 0-1.078-1.156-2.031-2.688-2.031H.625v.344h.266c.828 0 .859.125.859.515v5.75c0 .39-.031.5-.86.5H.626V0C1-.031 1.813-.031 2.219-.031c.422 0 1.234 0 1.625.031v-.344h-.266c-.844 0-.86-.11-.86-.5v-2.61zm-2-3.219c0-.36.015-.437.53-.437h1.095c1.859 0 1.859 1.203 1.859 1.687 0 .469 0 1.688-1.86 1.688H2.688zm0 0" style="stroke:none"/></symbol><symbol id="s" overflow="visible" style="overflow:visible"><path d="M6.375-2.781c0-1.625-1.297-2.985-2.906-2.985-1.625 0-2.906 1.36-2.906 2.985A2.92 2.92 0 0 0 3.469.156 2.92 2.92 0 0 0 6.375-2.78M3.469-.125C2.688-.125 1.5-.75 1.5-2.906c0-2.047 1.234-2.578 1.969-2.578.734 0 1.969.547 1.969 2.578 0 2.156-1.188 2.781-1.97 2.781m0 0" style="stroke:none"/></symbol><symbol id="t" overflow="visible" style="overflow:visible"><path d="M1.969-4.781c-.094-.188-.094-.219-.094-.25 0-.297.375-.297.563-.297v-.281c-.282.015-.938.03-1.157.03-.281 0-.718 0-1.015-.03v.28c.593 0 .656.079.812.438L3.11-.094c.063.14.094.219.235.219s.172-.078.234-.219l1.89-4.515c.298-.688.798-.72.954-.72v-.28c-.234.03-.516.03-.75.03-.297 0-.594 0-.89-.03v.28c.374.032.452.25.452.47 0 .109-.03.203-.093.328L3.594-.844zm0 0" style="stroke:none"/></symbol><symbol id="u" overflow="visible" style="overflow:visible"><path d="M2.5-6.61a.44.44 0 0 1-.062-.187c0-.312.578-.312.89-.312v-.344c-.39.031-1.156.031-1.578.031a34 34 0 0 1-1.375-.031v.344c.828 0 .922.046 1.078.406L4.172.016c.062.156.078.218.25.218.187 0 .219-.047.281-.218l2.578-6.422c.282-.703 1-.703 1.219-.703v-.344c-.344.031-.781.031-1.062.031-.329 0-.954-.016-1.25-.031v.344c.625.015.78.343.78.53 0 .063 0 .079-.062.22L4.75-1.016Zm0 0" style="stroke:none"/></symbol><symbol id="v" overflow="visible" style="overflow:visible"><path d="M2.047-4.812c0-.47.047-.516.828-.516v-.281a37 37 0 0 1-1.234.03c-.282 0-.844-.015-1.22-.03v.28c.782 0 .829.048.829.516v4.016c0 .469-.047.531-.828.531V0c.375-.016.937-.031 1.219-.031.297 0 .859.015 1.234.031v-.266c-.781 0-.828-.062-.828-.53zm0 0" style="stroke:none"/></symbol><symbol id="w" overflow="visible" style="overflow:visible"><path d="M5.203-5.578H.47v.281c.734 0 .781.063.781.516v4c0 .437-.047.515-.781.515V0c.36-.016.937-.031 1.203-.031.36 0 1.031.015 1.344.031v-.266c-.813 0-.97 0-.97-.546v-1.844h.72c.812 0 .937.234.937.953h.266v-2.172h-.266c0 .719-.125.953-.937.953h-.72v-1.906c0-.438.048-.469.423-.469h1.047c1.203 0 1.515.344 1.625 1.563h.265Zm0 0" style="stroke:none"/></symbol><clipPath id="a"><path d="M239.527 161.574h362.836V433.7H239.527Zm0 0"/></clipPath></defs><g clip-path="url(#a)" style="clip-rule:nonzero" transform="translate(-239.527 -161.574)"><path d="M239.527 161.574h362.836V433.7H239.527Zm0 0" style="fill:#fff;fill-opacity:1;fill-rule:nonzero;stroke:none"/></g><g style="fill:#7f0000;fill-opacity:1" transform="translate(-239.527 -161.574)"><use xlink:href="#b" width="100%" height="100%" x="319.481" y="181.131"/><use xlink:href="#c" width="100%" height="100%" x="326.932" y="181.131"/><use xlink:href="#d" width="100%" height="100%" x="329.529" y="181.131"/><use xlink:href="#e" width="100%" height="100%" x="333.467" y="181.131"/><use xlink:href="#f" width="100%" height="100%" x="339.096" y="181.131"/><use xlink:href="#g" width="100%" height="100%" x="343.94" y="181.131"/></g><use xlink:href="#g" width="100%" height="100%" x="348.15" y="181.131" style="fill:#7f0000;fill-opacity:1" transform="translate(-239.527 -161.574)"/><g style="fill:#7f0000;fill-opacity:1" transform="translate(-239.527 -161.574)"><use xlink:href="#c" width="100%" height="100%" x="409.066" y="181.214"/><use xlink:href="#e" width="100%" height="100%" x="411.663" y="181.214"/><use xlink:href="#h" width="100%" height="100%" x="417.292" y="181.214"/><use xlink:href="#f" width="100%" height="100%" x="422.921" y="181.214"/></g><use xlink:href="#i" width="100%" height="100%" x="427.797" y="181.214" style="fill:#7f0000;fill-opacity:1" transform="translate(-239.527 -161.574)"/><g style="fill:#7f0000;fill-opacity:1" transform="translate(-239.527 -161.574)"><use xlink:href="#c" width="100%" height="100%" x="487.514" y="181.131"/><use xlink:href="#e" width="100%" height="100%" x="490.111" y="181.131"/><use xlink:href="#g" width="100%" height="100%" x="495.74" y="181.131"/><use xlink:href="#d" width="100%" height="100%" x="499.918" y="181.131"/><use xlink:href="#j" width="100%" height="100%" x="503.856" y="181.131"/></g><g style="fill:#7f0000;fill-opacity:1" transform="translate(-239.527 -161.574)"><use xlink:href="#e" width="100%" height="100%" x="509.125" y="181.131"/><use xlink:href="#k" width="100%" height="100%" x="514.754" y="181.131"/><use xlink:href="#f" width="100%" height="100%" x="519.598" y="181.131"/></g><path d="M220.395 72.547H142.44a3.543 3.543 0 0 0-3.543 3.543v49.605a3.543 3.543 0 0 0 3.543 3.543h77.954a3.543 3.543 0 0 0 3.543-3.543V76.09a3.543 3.543 0 0 0-3.543-3.543zm0 0" style="fill:none;stroke:#000;stroke-width:.3985;stroke-linecap:butt;stroke-linejoin:miter;stroke-miterlimit:10;stroke-opacity:1"/><g style="fill:#000;fill-opacity:1" transform="translate(-239.527 -161.574)"><use xlink:href="#l" width="100%" height="100%" x="399.266" y="245.209"/><use xlink:href="#m" width="100%" height="100%" x="403.685" y="245.209"/><use xlink:href="#n" width="100%" height="100%" x="410.372" y="245.209"/><use xlink:href="#o" width="100%" height="100%" x="417.179" y="245.209"/><use xlink:href="#p" width="100%" height="100%" x="423.255" y="245.209"/><use xlink:href="#o" width="100%" height="100%" x="429.943" y="245.209"/></g><use xlink:href="#q" width="100%" height="100%" x="436.052" y="245.209" style="fill:#000;fill-opacity:1" transform="translate(-239.527 -161.574)"/><path d="M135.352 171.758H57.398a3.543 3.543 0 0 0-3.543 3.543v77.957a3.543 3.543 0 0 0 3.543 3.543h77.954a3.546 3.546 0 0 0 3.546-3.543V175.3a3.546 3.546 0 0 0-3.546-3.543zm0 0" style="fill:none;stroke:#000;stroke-width:.3985;stroke-linecap:butt;stroke-linejoin:miter;stroke-miterlimit:10;stroke-opacity:1"/><g style="fill:#000;fill-opacity:1" transform="translate(-239.527 -161.574)"><use xlink:href="#r" width="100%" height="100%" x="315.678" y="344.422"/><use xlink:href="#q" width="100%" height="100%" x="323.762" y="344.422"/></g><use xlink:href="#s" width="100%" height="100%" x="330.1" y="344.422" style="fill:#000;fill-opacity:1" transform="translate(-239.527 -161.574)"/><g style="fill:#000;fill-opacity:1" transform="translate(-239.527 -161.574)"><use xlink:href="#t" width="100%" height="100%" x="336.787" y="344.422"/><use xlink:href="#o" width="100%" height="100%" x="343.475" y="344.422"/><use xlink:href="#q" width="100%" height="100%" x="349.551" y="344.422"/></g><path d="M305.434 171.758H227.48a3.543 3.543 0 0 0-3.542 3.543v77.957a3.543 3.543 0 0 0 3.542 3.543h77.954a3.543 3.543 0 0 0 3.543-3.543V175.3a3.543 3.543 0 0 0-3.543-3.543zm0 0" style="fill:none;stroke:#000;stroke-width:.3985;stroke-linecap:butt;stroke-linejoin:miter;stroke-miterlimit:10;stroke-opacity:1"/><g style="fill:#000;fill-opacity:1" transform="translate(-239.527 -161.574)"><use xlink:href="#u" width="100%" height="100%" x="482.672" y="344.422"/><use xlink:href="#o" width="100%" height="100%" x="491.541" y="344.422"/><use xlink:href="#q" width="100%" height="100%" x="497.618" y="344.422"/><use xlink:href="#v" width="100%" height="100%" x="504.185" y="344.422"/><use xlink:href="#w" width="100%" height="100%" x="507.48" y="344.422"/></g><g style="fill:#000;fill-opacity:1" transform="translate(-239.527 -161.574)"><use xlink:href="#v" width="100%" height="100%" x="513.349" y="344.422"/><use xlink:href="#o" width="100%" height="100%" x="516.643" y="344.422"/><use xlink:href="#q" width="100%" height="100%" x="522.72" y="344.422"/></g><path d="M259.371 23.39v6.633c0 7.829-6.348 14.176-14.172 14.176H124.723c-7.828 0-14.172 6.344-14.172 14.172v112.93" style="fill:none;stroke:#000;stroke-width:.3985;stroke-linecap:butt;stroke-linejoin:miter;stroke-miterlimit:10;stroke-opacity:1"/><path d="M112.145 170.105c-.598.098-1.497 1.196-1.594 1.493-.102-.297-.996-1.395-1.594-1.493" style="fill:none;stroke:#000;stroke-width:.31878999;stroke-linecap:round;stroke-linejoin:round;stroke-miterlimit:10;stroke-opacity:1"/><path d="M181.418 23.477V58.37" style="fill:none;stroke:#fff;stroke-width:3.98510003;stroke-linecap:butt;stroke-linejoin:miter;stroke-miterlimit:10;stroke-opacity:1"/><path d="M181.418 23.477v48.609" style="fill:none;stroke:#000;stroke-width:.3985;stroke-linecap:butt;stroke-linejoin:miter;stroke-miterlimit:10;stroke-opacity:1"/><path d="M183.012 70.89c-.598.102-1.496 1.196-1.594 1.497-.102-.301-.996-1.395-1.594-1.496" style="fill:none;stroke:#000;stroke-width:.31878999;stroke-linecap:round;stroke-linejoin:round;stroke-miterlimit:10;stroke-opacity:1"/><path d="M96.375 23.39V171.3" style="fill:none;stroke:#000;stroke-width:.3985;stroke-linecap:butt;stroke-linejoin:miter;stroke-miterlimit:10;stroke-opacity:1"/><path d="M97.969 170.105c-.598.098-1.492 1.196-1.594 1.493-.098-.297-.996-1.395-1.594-1.493" style="fill:none;stroke:#000;stroke-width:.31878999;stroke-linecap:round;stroke-linejoin:round;stroke-miterlimit:10;stroke-opacity:1"/><path d="M273.543 23.39V171.3" style="fill:none;stroke:#000;stroke-width:.3985;stroke-linecap:butt;stroke-linejoin:miter;stroke-miterlimit:10;stroke-opacity:1"/><path d="M275.137 170.105c-.598.098-1.492 1.196-1.594 1.493-.098-.297-.996-1.395-1.594-1.493" style="fill:none;stroke:#000;stroke-width:.31878999;stroke-linecap:round;stroke-linejoin:round;stroke-miterlimit:10;stroke-opacity:1"/><path d="M167.242 129.238v7.086c0 7.828-6.344 14.176-14.172 14.176h-14.172c-7.828 0-14.175 6.344-14.175 14.172v6.629" style="fill:none;stroke:#000;stroke-width:.3985;stroke-linecap:butt;stroke-linejoin:miter;stroke-miterlimit:10;stroke-opacity:1"/><path d="M126.316 170.105c-.597.098-1.492 1.196-1.593 1.493-.098-.297-.996-1.395-1.594-1.493" style="fill:none;stroke:#000;stroke-width:.31878999;stroke-linecap:round;stroke-linejoin:round;stroke-miterlimit:10;stroke-opacity:1"/><path d="M195.59 129.238v7.086c0 7.828 6.348 14.176 14.176 14.176h14.172c7.828 0 14.171 6.344 14.171 14.172v6.629" style="fill:none;stroke:#000;stroke-width:.3985;stroke-linecap:butt;stroke-linejoin:miter;stroke-miterlimit:10;stroke-opacity:1"/><path d="M239.703 170.105c-.598.098-1.492 1.196-1.594 1.493-.097-.297-.996-1.395-1.593-1.493" style="fill:none;stroke:#000;stroke-width:.31878999;stroke-linecap:round;stroke-linejoin:round;stroke-miterlimit:10;stroke-opacity:1"/><path d="M139.555 214.277h83.726" style="fill:none;stroke:#000;stroke-width:.3985;stroke-linecap:butt;stroke-linejoin:miter;stroke-miterlimit:10;stroke-opacity:1"/><path d="M140.75 215.875c-.102-.598-1.195-1.496-1.496-1.598.3-.097 1.394-.996 1.496-1.593m81.336 0c.098.597 1.195 1.496 1.492 1.593-.297.102-1.394 1-1.492 1.598" style="fill:none;stroke:#000;stroke-width:.31878999;stroke-linecap:round;stroke-linejoin:round;stroke-miterlimit:10;stroke-opacity:1"/></svg>