<svg xmlns="http://www.w3.org/2000/svg" xmlns:xlink="http://www.w3.org/1999/xlink" width="483.781" height="362.833" viewBox="0 0 362.836 272.125"><defs><symbol id="b" overflow="visible" style="overflow:visible"><path d="M4.688-3.453c1.328 0 2.609-.844 2.609-1.969 0-1.078-1.156-2.031-2.688-2.031H.625v.344h.266c.828 0 .859.125.859.515v5.75c0 .39-.031.5-.86.5H.626V0C1-.031 1.813-.031 2.219-.031c.422 0 1.234 0 1.625.031v-.344h-.266c-.844 0-.86-.11-.86-.5v-2.61zm-2-3.219c0-.36.015-.437.53-.437h1.095c1.859 0 1.859 1.203 1.859 1.687 0 .469 0 1.688-1.86 1.688H2.688zm0 0" style="stroke:none"/></symbol><symbol id="c" overflow="visible" style="overflow:visible"><path d="M2.031-4.86c0-.28.016-.39.125-.437.078-.031.375-.031.563-.031.812 0 1.734.031 1.734 1.187 0 .438-.047 1.22-1.469 1.22h-.953Zm1.922 2.08c.766-.203 1.453-.688 1.453-1.36 0-.75-.984-1.468-2.297-1.468H.484v.28c.735 0 .797.063.797.5V-.78c0 .437-.062.515-.797.515V0c.329-.016.86-.031 1.157-.031.328 0 .89.015 1.172.031v-.266c-.735 0-.782-.078-.782-.515v-1.906h.985c.265 0 .547.015.89.359.235.234.235.5.235.969 0 .625 0 .812.343 1.156.188.187.625.36 1.125.36.688 0 .86-.688.86-.891 0-.063 0-.172-.14-.172-.126 0-.141.094-.141.14-.063.672-.47.672-.532.672-.218 0-.328-.14-.39-.25-.079-.187-.157-.484-.297-1.187-.078-.375-.188-.938-1.016-1.25m0 0" style="stroke:none"/></symbol><symbol id="d" overflow="visible" style="overflow:visible"><path d="M6.375-2.781c0-1.625-1.297-2.985-2.906-2.985-1.625 0-2.906 1.36-2.906 2.985A2.92 2.92 0 0 0 3.469.156 2.92 2.92 0 0 0 6.375-2.78M3.469-.125C2.688-.125 1.5-.75 1.5-2.906c0-2.047 1.234-2.578 1.969-2.578.734 0 1.969.547 1.969 2.578 0 2.156-1.188 2.781-1.97 2.781m0 0" style="stroke:none"/></symbol><symbol id="e" overflow="visible" style="overflow:visible"><path d="M1.969-4.781c-.094-.188-.094-.219-.094-.25 0-.297.375-.297.563-.297v-.281c-.282.015-.938.03-1.157.03-.281 0-.718 0-1.015-.03v.28c.593 0 .656.079.812.438L3.11-.094c.063.14.094.219.235.219s.172-.078.234-.219l1.89-4.515c.298-.688.798-.72.954-.72v-.28c-.234.03-.516.03-.75.03-.297 0-.594 0-.89-.03v.28c.374.032.452.25.452.47 0 .109-.03.203-.093.328L3.594-.844zm0 0" style="stroke:none"/></symbol><symbol id="f" overflow="visible" style="overflow:visible"><path d="M5.328-5.578H.468v.281c.735 0 .782.063.782.516v4c0 .437-.047.515-.781.515V0h4.984l.313-2.11H5.5C5.313-.796 5.047-.265 3.656-.265H2.47c-.375 0-.422-.046-.422-.468v-2.032h.75c.812 0 .937.22.937.954h.282v-2.172h-.282c0 .734-.125.953-.937.953h-.75v-1.797c0-.438.047-.469.422-.469h1.125c1.265 0 1.547.375 1.656 1.563h.281zm0 0" style="stroke:none"/></symbol><symbol id="g" overflow="visible" style="overflow:visible"><path d="M5.203-5.578H.47v.281c.734 0 .781.063.781.516v4c0 .437-.047.515-.781.515V0c.36-.016.937-.031 1.203-.031.36 0 1.031.015 1.344.031v-.266c-.813 0-.97 0-.97-.546v-1.844h.72c.812 0 .937.234.937.953h.266v-2.172h-.266c0 .719-.125.953-.937.953h-.72v-1.906c0-.438.048-.469.423-.469h1.047c1.203 0 1.515.344 1.625 1.563h.265Zm0 0" style="stroke:none"/></symbol><symbol id="h" overflow="visible" style="overflow:visible"><path d="M2.656-4.578c-.937-.234-1.172-.984-1.172-1.375 0-.75.625-1.438 1.547-1.438 1.5 0 2.078 1.11 2.235 2.22.03.14.03.202.14.202.14 0 .14-.062.14-.265v-2.188c0-.187 0-.266-.109-.266-.078 0-.078.016-.171.141l-.407.64c-.296-.296-.796-.78-1.843-.78C1.75-7.687.78-6.734.78-5.578c0 .703.375 1.187.516 1.36.516.53.844.609 1.75.827.172.047.36.079.531.125.64.141.86.204 1.203.579.063.062.39.437.39 1.03 0 .766-.577 1.563-1.577 1.563-.453 0-1.188-.093-1.781-.562-.72-.547-.75-1.344-.75-1.719-.016-.078-.079-.094-.141-.094-.14 0-.14.063-.14.266v2.187c0 .172 0 .25.124.25.078 0 .094-.03.156-.125l.407-.656c.312.313 1.015.781 2.14.781 1.36 0 2.266-1.093 2.266-2.25 0-.875-.531-1.906-1.734-2.203zm0 0" style="stroke:none"/></symbol><symbol id="i" overflow="visible" style="overflow:visible"><path d="M5.906-5.547H.546L.392-3.703h.28c.095-1.375.313-1.563 1.517-1.563.609 0 .64 0 .64.47v3.968c0 .437-.031.562-.875.562H1.72V0c.437-.031 1.078-.031 1.515-.031.438 0 1.079 0 1.5.031v-.266H4.5c-.828 0-.875-.125-.875-.562v-3.969c0-.469.031-.469.64-.469 1.173 0 1.423.188 1.516 1.563h.266zm0 0" style="stroke:none"/></symbol><symbol id="j" overflow="visible" style="overflow:visible"><path d="M3.594-5.547c-.078-.172-.125-.25-.25-.25-.14 0-.172.078-.219.219l-1.766 4.5c-.109.297-.296.781-.984.812V0c.234-.016.547-.031.797-.031.187 0 .687.015.906.031v-.266a.485.485 0 0 1-.5-.5c0-.078 0-.109.375-1.078h2.25l.25.61c.078.218.219.593.219.656 0 .312-.39.312-.578.312V0A33 33 0 0 1 5.25-.031c.375 0 .797.015 1.063.031v-.266c-.61 0-.704-.062-.844-.437zm.5 3.438H2.062L3.095-4.75Zm0 0" style="stroke:none"/></symbol><symbol id="k" overflow="visible" style="overflow:visible"><path d="m6.14-5.297.016.016v4.5c0 .437-.062.515-.797.515V0A21 21 0 0 1 7.64 0v-.266c-.734 0-.796-.078-.796-.515v-4.047c0-.438.062-.5.797-.5v-.281H6.313c-.25 0-.282 0-.375.203L4.077-.812 2.203-5.406c-.078-.203-.14-.203-.375-.203H.516v.28c.734 0 .78.063.78.5v3.735c0 .25 0 .828-.78.828V0c.218-.016.718-.031.937-.031.156 0 .656.015.938.031v-.266c-.782 0-.782-.578-.782-.828v-4.125L3.656-.203c.047.11.094.203.203.203s.172-.094.204-.203Zm0 0" style="stroke:none"/></symbol><symbol id="l" overflow="visible" style="overflow:visible"><path d="M2.5-6.61a.44.44 0 0 1-.062-.187c0-.312.578-.312.89-.312v-.344c-.39.031-1.156.031-1.578.031a34 34 0 0 1-1.375-.031v.344c.828 0 .922.046 1.078.406L4.172.016c.062.156.078.218.25.218.187 0 .219-.047.281-.218l2.578-6.422c.282-.703 1-.703 1.219-.703v-.344c-.344.031-.781.031-1.062.031-.329 0-.954-.016-1.25-.031v.344c.625.015.78.343.78.53 0 .063 0 .079-.062.22L4.75-1.016Zm0 0" style="stroke:none"/></symbol><symbol id="m" overflow="visible" style="overflow:visible"><path d="M2.047-4.812c0-.47.047-.516.828-.516v-.281a37 37 0 0 1-1.234.03c-.282 0-.844-.015-1.22-.03v.28c.782 0 .829.048.829.516v4.016c0 .469-.047.531-.828.531V0c.375-.016.937-.031 1.219-.031.297 0 .859.015 1.234.031v-.266c-.781 0-.828-.062-.828-.53zm0 0" style="stroke:none"/></symbol><symbol id="n" overflow="visible" style="overflow:visible"><path d="M1.86-.5c.156.188.546.625 1.328.625 1.28 0 2.64-1.516 2.64-3.328 0-.922-.406-1.766-1.266-1.766-.687 0-1.421.282-1.937.657l.11-.532h-.813L.453 2.11h.844zm.624-2.969c.047-.187.063-.203.188-.328.484-.406.922-.469 1.14-.469.672 0 1.141.563 1.141 1.375 0 1.235-1.031 2.344-2.047 2.344-.734 0-.89-.672-.89-.719 0-.015.03-.125.03-.156zm0 0" style="stroke:none"/></symbol><symbol id="o" overflow="visible" style="overflow:visible"><path d="M4.734-4.672c-.484-.25-.89-.36-1.5-.36-.406 0-.984.048-1.5.438-.453.344-.64.938-.64 1.25 0 .328.14.578.36.797.265.266.546.328 1.202.453.281.063.797.172.797.656 0 .016 0 .876-1.203.876-.39 0-1.031-.094-1.578-.532l-.235.578c-.015.032-.046.094-.046.141 0 .031.672.5 1.718.5 1.813 0 2.141-1.36 2.141-1.797 0-.531-.312-.812-.406-.906-.313-.235-.5-.266-1.094-.406-.437-.079-.844-.172-.844-.61 0-.015 0-.797 1.094-.797.594 0 1.016.141 1.453.422zm0 0" style="stroke:none"/></symbol><symbol id="p" overflow="visible" style="overflow:visible"><path d="M5.031-2.39c.047-.188.11-.61.11-.954 0-.203 0-.765-.36-1.203-.203-.25-.593-.484-1.156-.484C2.219-5.031.844-3.453.844-1.86c0 1.125.719 1.984 1.875 1.984.734 0 1.422-.297 1.844-.578.03-.14.062-.547.078-.703-.391.281-1.063.61-1.782.61-.734 0-1.25-.548-1.25-1.438 0-.141 0-.266.032-.407zm-3.203-.594C2.218-3.86 2.906-4.36 3.5-4.36c1.031 0 1.031 1.015 1.031 1.375zm0 0" style="stroke:none"/></symbol><symbol id="q" overflow="visible" style="overflow:visible"><path d="M5.766-4.844h-.844L4.25-1.609c-.11.468-.61 1.125-1.562 1.125-.547 0-.735-.125-.735-.438 0-.031 0-.11.031-.25l.782-3.672h-.86l-.781 3.688c-.031.14-.047.297-.047.453 0 .39.125.828.938.828.625 0 1.422-.203 2.015-.656L3.921 0h.829Zm0 0" style="stroke:none"/></symbol><symbol id="r" overflow="visible" style="overflow:visible"><path d="M6.344-7.562H5.53L4.844-4.36a2.06 2.06 0 0 0-1.469-.61C2.078-4.969.828-3.344.828-1.703.828-.687 1.36.125 2.25.125c.328 0 1-.078 1.75-.687L3.875 0h.86zM4.204-1.47c-.063.297-.657.922-1.376.922-.437 0-1.14-.234-1.14-1.281 0-1.297.875-2.469 2.046-2.469.72 0 .922.594.922.61 0 .015 0 .062-.015.14zm0 0" style="stroke:none"/></symbol><symbol id="s" overflow="visible" style="overflow:visible"><path d="M5.688-3c0-1.094-.72-2.031-1.907-2.031-1.562 0-3 1.625-3 3.187 0 1.11.75 1.969 1.922 1.969C4.172.125 5.688-1.312 5.688-3M2.844-.578c-.516 0-1.203-.297-1.203-1.36 0-1.28.875-2.421 2-2.421.734 0 1.218.5 1.218 1.312 0 1.078-.765 2.469-2.015 2.469m0 0" style="stroke:none"/></symbol><symbol id="t" overflow="visible" style="overflow:visible"><path d="M4.625-4.969c-1.281.032-2.094 1-2.11 1.016H2.5l.203-.953h-.765L.89 0h.828c.281-1.344.5-2.39.531-2.547.203-.719 1.016-1.656 2.203-1.687zm0 0" style="stroke:none"/></symbol><symbol id="u" overflow="visible" style="overflow:visible"><path d="M5.031-3.203c.047-.156.047-.25.047-.39 0-.798-.531-1.438-1.453-1.438-.797 0-1.328.234-1.812.468-.032.313-.079.688-.094.72.5-.313 1.062-.548 1.765-.548.672 0 .735.688.735.875 0 .172-.125.813-.157.829a1.4 1.4 0 0 1-.265.03C3-2.624.703-2.406.703-.921c0 .172.047 1.047 1 1.047.281 0 1.203-.062 1.906-.5a3 3 0 0 1-.078.375h.828zM3.813-1.422c-.204.875-1.266.875-1.407.875-.547 0-.89-.234-.89-.594 0-.859 1.937-.953 2.437-.968zm0 0" style="stroke:none"/></symbol><symbol id="v" overflow="visible" style="overflow:visible"><path d="M5.438-3.312c.062-.313.062-.391.062-.563 0-.656-.312-1.094-1.187-1.094-.688 0-1.297.344-1.766.828l.172-.765h-.781L.89 0h.843l.516-2.469c.266-1.203.781-1.828 1.484-1.828.516 0 .891.172.891.719 0 .031-.016.203-.016.234L3.891 0h.859Zm0 0" style="stroke:none"/></symbol><symbol id="w" overflow="visible" style="overflow:visible"><path d="M8.469-3.312c.047-.204.078-.313.078-.563 0-.656-.328-1.094-1.219-1.094-.953 0-1.562.64-1.828.907-.031-.438-.25-.907-1.187-.907-.875 0-1.516.578-1.766.828l.172-.765h-.781L.89 0h.843l.516-2.469c.219-1.015.672-1.828 1.5-1.828.453 0 .89.14.89.719 0 .031-.03.203-.03.234L3.905 0h.844l.531-2.469c.219-1.015.657-1.828 1.485-1.828.468 0 .89.14.89.719 0 .031-.015.203-.015.234L6.92 0h.86Zm0 0" style="stroke:none"/></symbol><symbol id="x" overflow="visible" style="overflow:visible"><path d="M5.438-4.547c-.579-.422-.985-.484-1.579-.484-1.75 0-3.015 1.734-3.015 3.187 0 1 .625 1.969 1.875 1.969.578 0 1.219-.156 1.906-.562l.094-.735c-.438.281-1.047.594-1.844.594-.766 0-1.172-.563-1.172-1.328 0-.953.656-2.422 2.016-2.422.656 0 .953.125 1.437.484zm0 0" style="stroke:none"/></symbol><symbol id="y" overflow="visible" style="overflow:visible"><path d="M3.313-7.562H2.5L.89 0h.813zm0 0" style="stroke:none"/></symbol><symbol id="z" overflow="visible" style="overflow:visible"><path d="M3.344-7.422h-.969l-.203.969h.969zM.89 0h.812L2.72-4.844h-.813zm0 0" style="stroke:none"/></symbol><symbol id="A" overflow="visible" style="overflow:visible"><path d="M8.313-4.844h-.797L6.234-2.328c-.296.562-.687 1.297-.812 1.734h-.016v-.312c0-.625-.047-1.094-.093-1.672l-.204-2.266h-.78L3.093-2.422c-.328.61-.64 1.235-.813 1.797h-.015c.015-.078.015-.281.015-.5 0-.11 0-.656-.094-1.64L2-4.845h-.828L1.64 0h.875c.046-.11.765-1.484 1-1.953.468-.953.937-1.875 1.047-2.281h.015c0 .03-.016.234-.016.453 0 .515.047 1.11.079 1.625L4.844 0h.953zm0 0" style="stroke:none"/></symbol><symbol id="B" overflow="visible" style="overflow:visible"><path d="M2.797-4.203h1.547l.125-.64H2.937l.297-1.391H2.47l-.281 1.39h-.954l-.14.64h.922c-.141.61-.688 3.063-.688 3.485 0 .625.266.844.672.844.578 0 1.156-.172 1.688-.422l-.047-.64c-.391.265-.766.359-1.063.359-.11 0-.406 0-.406-.516 0-.11.015-.187.031-.265zm0 0" style="stroke:none"/></symbol><symbol id="C" overflow="visible" style="overflow:visible"><path d="M5.203-4.312c.094-.11.094-.11.125-.22l.063-.312H1.484l-.125.64h2.828L.531-.577c-.125.125-.125.14-.156.234A2 2 0 0 0 .313 0H4.39l.14-.672H1.516zm0 0" style="stroke:none"/></symbol><symbol id="D" overflow="visible" style="overflow:visible"><path d="M2.813-4.203h1.203l.125-.64H2.906l.297-1.344c.094-.547.64-.844 1.188-.844.14 0 .484.015.843.187l.157-.718a3.2 3.2 0 0 0-.844-.125c-1.078 0-1.984.843-2.188 1.812l-.234 1.031h-.812l-.125.64H2L1.094 0h.828zm0 0" style="stroke:none"/></symbol><symbol id="E" overflow="visible" style="overflow:visible"><path d="M4.86-4.844h-.813l-.86 2.266c-.234.61-.562 1.484-.656 2h-.015c-.063-.39-.344-1.14-.453-1.438L1-4.844H.156L2.031 0h.953zm0 0" style="stroke:none"/></symbol><symbol id="F" overflow="visible" style="overflow:visible"><path d="M4.516-2.39c0-.376-.016-1.188-.438-1.844a1.77 1.77 0 0 0-1.5-.797C1.36-5.031.375-3.875.375-2.47c0 1.44 1.047 2.595 2.36 2.595.687 0 1.312-.266 1.734-.578l-.063-.703a2.65 2.65 0 0 1-1.656.61c-.875 0-1.578-.766-1.61-1.845zm-3.313-.594c.172-.828.75-1.375 1.375-1.375.563 0 1.172.375 1.313 1.375zm0 0" style="stroke:none"/></symbol><symbol id="G" overflow="visible" style="overflow:visible"><path d="M1.719-2.328c0-1.094.781-1.875 1.844-1.906v-.735c-.97.016-1.563.547-1.907 1.047v-.984H.891V0h.828Zm0 0" style="stroke:none"/></symbol><symbol id="H" overflow="visible" style="overflow:visible"><path d="M4.734-7.562h-.812v3.203a2.53 2.53 0 0 0-1.594-.61C1.25-4.969.391-3.829.391-2.422.39-1 1.234.125 2.266.125c.359 0 1-.11 1.609-.687V0h.86Zm-.859 6.046c0 .157 0 .344-.36.672-.25.219-.515.297-.796.297-.672 0-1.469-.515-1.469-1.86 0-1.437.938-1.89 1.578-1.89.485 0 .813.25 1.047.594zm0 0" style="stroke:none"/></symbol><symbol id="I" overflow="visible" style="overflow:visible"><path d="M1.781-7.422H.813v.969h.968Zm-.078 2.578H.891V0h.812zm0 0" style="stroke:none"/></symbol><symbol id="J" overflow="visible" style="overflow:visible"><path d="M4.469-4.562c-.64-.36-1.016-.47-1.672-.47C1.28-5.031.39-3.702.39-2.421c0 1.36 1 2.547 2.359 2.547.594 0 1.188-.156 1.781-.562l-.078-.735a2.65 2.65 0 0 1-1.687.594c-.907 0-1.516-.781-1.516-1.86 0-.843.39-1.89 1.547-1.89.578 0 .937.078 1.547.484zm0 0" style="stroke:none"/></symbol><symbol id="K" overflow="visible" style="overflow:visible"><path d="M1.906-4.203h1.547v-.64H1.906v-1.391h-.75v1.39H.203v.64h.922v2.907c0 .656.156 1.422.906 1.422.766 0 1.313-.281 1.594-.422l-.172-.64c-.297.234-.64.359-.984.359-.406 0-.563-.328-.563-.906zm0 0" style="stroke:none"/></symbol><clipPath id="a"><path d="M239.527 161.574h362.836V433.7H239.527Zm0 0"/></clipPath></defs><g clip-path="url(#a)" style="clip-rule:nonzero" transform="translate(-239.527 -161.574)"><path d="M239.527 161.574h362.836V433.7H239.527Zm0 0" style="fill:#fff;fill-opacity:1;fill-rule:nonzero;stroke:none"/></g><path d="M279.21 206.094h-21.26a7.085 7.085 0 0 0-7.087 7.086v155.91a7.09 7.09 0 0 0 7.086 7.086h42.52a7.09 7.09 0 0 0 7.09-7.086V213.18a7.09 7.09 0 0 0-7.09-7.086H279.21m283.47 0h-21.262a7.085 7.085 0 0 0-7.086 7.086v170.082a7.085 7.085 0 0 0 7.086 7.086h42.52a7.085 7.085 0 0 0 7.085-7.086V213.18a7.085 7.085 0 0 0-7.085-7.086H562.68" style="fill:none;stroke:#000;stroke-width:.3985;stroke-linecap:butt;stroke-linejoin:miter;stroke-miterlimit:10;stroke-opacity:1" transform="translate(-239.527 -161.574)"/><path d="M420.945 220.266h-7.086a7.09 7.09 0 0 0-7.09 7.09v155.906a7.09 7.09 0 0 0 7.09 7.086h14.172a7.085 7.085 0 0 0 7.086-7.086V227.355a7.09 7.09 0 0 0-7.086-7.09h-7.086" style="fill:#000;fill-opacity:1;fill-rule:nonzero;stroke:#000;stroke-width:.3985;stroke-linecap:butt;stroke-linejoin:miter;stroke-miterlimit:10;stroke-opacity:1" transform="translate(-239.527 -161.574)"/><g style="fill:#000;fill-opacity:1" transform="translate(-239.527 -161.574)"><use xlink:href="#b" width="100%" height="100%" x="258.985" y="217.384"/><use xlink:href="#c" width="100%" height="100%" x="267.069" y="217.384"/></g><use xlink:href="#d" width="100%" height="100%" x="273.407" y="217.384" style="fill:#000;fill-opacity:1" transform="translate(-239.527 -161.574)"/><g style="fill:#000;fill-opacity:1" transform="translate(-239.527 -161.574)"><use xlink:href="#e" width="100%" height="100%" x="280.084" y="217.384"/><use xlink:href="#f" width="100%" height="100%" x="286.771" y="217.384"/><use xlink:href="#c" width="100%" height="100%" x="292.847" y="217.384"/></g><g style="fill:#000;fill-opacity:1" transform="translate(-239.527 -161.574)"><use xlink:href="#b" width="100%" height="100%" x="381.516" y="217.384"/><use xlink:href="#c" width="100%" height="100%" x="389.6" y="217.384"/></g><g style="fill:#000;fill-opacity:1" transform="translate(-239.527 -161.574)"><use xlink:href="#d" width="100%" height="100%" x="395.938" y="217.384"/><use xlink:href="#d" width="100%" height="100%" x="402.866" y="217.384"/><use xlink:href="#g" width="100%" height="100%" x="409.793" y="217.384"/></g><g style="fill:#000;fill-opacity:1" transform="translate(-239.527 -161.574)"><use xlink:href="#h" width="100%" height="100%" x="419.764" y="217.384"/><use xlink:href="#i" width="100%" height="100%" x="426.429" y="217.384"/><use xlink:href="#c" width="100%" height="100%" x="432.876" y="217.384"/><use xlink:href="#f" width="100%" height="100%" x="439.444" y="217.384"/><use xlink:href="#j" width="100%" height="100%" x="445.52" y="217.384"/><use xlink:href="#k" width="100%" height="100%" x="452.207" y="217.384"/></g><g style="fill:#000;fill-opacity:1" transform="translate(-239.527 -161.574)"><use xlink:href="#l" width="100%" height="100%" x="539.365" y="217.384"/><use xlink:href="#f" width="100%" height="100%" x="548.235" y="217.384"/><use xlink:href="#c" width="100%" height="100%" x="554.311" y="217.384"/><use xlink:href="#m" width="100%" height="100%" x="560.878" y="217.384"/><use xlink:href="#g" width="100%" height="100%" x="564.173" y="217.384"/></g><g style="fill:#000;fill-opacity:1" transform="translate(-239.527 -161.574)"><use xlink:href="#m" width="100%" height="100%" x="570.042" y="217.384"/><use xlink:href="#f" width="100%" height="100%" x="573.336" y="217.384"/><use xlink:href="#c" width="100%" height="100%" x="579.413" y="217.384"/></g><path d="M307.559 234.441h98.378" style="fill:none;stroke:#000;stroke-width:.99628001;stroke-linecap:butt;stroke-linejoin:miter;stroke-miterlimit:10;stroke-opacity:1" transform="translate(-239.527 -161.574)"/><path d="M404.207 232.129c.145.867 1.73 2.168 2.164 2.312-.433.145-2.02 1.446-2.164 2.309" style="fill:none;stroke:#000;stroke-width:.79701;stroke-linecap:round;stroke-linejoin:round;stroke-miterlimit:10;stroke-opacity:1" transform="translate(-239.527 -161.574)"/><path d="M406.77 262.79h-98.38" style="fill:none;stroke:#000;stroke-width:.99628001;stroke-linecap:butt;stroke-linejoin:miter;stroke-miterlimit:10;stroke-opacity:1" transform="translate(-239.527 -161.574)"/><path d="M310.121 265.098c-.144-.868-1.73-2.164-2.164-2.309.434-.144 2.02-1.445 2.164-2.312" style="fill:none;stroke:#000;stroke-width:.79701;stroke-linecap:round;stroke-linejoin:round;stroke-miterlimit:10;stroke-opacity:1" transform="translate(-239.527 -161.574)"/><g style="fill:#000;fill-opacity:1" transform="translate(-239.527 -161.574)"><use xlink:href="#n" width="100%" height="100%" x="324.286" y="256.532"/><use xlink:href="#o" width="100%" height="100%" x="329.915" y="256.532"/><use xlink:href="#p" width="100%" height="100%" x="334.094" y="256.532"/><use xlink:href="#q" width="100%" height="100%" x="338.937" y="256.532"/><use xlink:href="#r" width="100%" height="100%" x="344.566" y="256.532"/></g><use xlink:href="#s" width="100%" height="100%" x="350.228" y="256.532" style="fill:#000;fill-opacity:1" transform="translate(-239.527 -161.574)"/><g style="fill:#7f7f7f;fill-opacity:1" transform="translate(-239.527 -161.574)"><use xlink:href="#t" width="100%" height="100%" x="355.681" y="256.532"/><use xlink:href="#u" width="100%" height="100%" x="359.401" y="256.532"/><use xlink:href="#v" width="100%" height="100%" x="364.637" y="256.532"/><use xlink:href="#r" width="100%" height="100%" x="370.266" y="256.532"/></g><g style="fill:#7f7f7f;fill-opacity:1" transform="translate(-239.527 -161.574)"><use xlink:href="#s" width="100%" height="100%" x="375.928" y="256.532"/><use xlink:href="#w" width="100%" height="100%" x="381.382" y="256.532"/></g><path d="M307.559 291.133h98.378" style="fill:none;stroke:#000;stroke-width:.99628001;stroke-linecap:butt;stroke-linejoin:miter;stroke-miterlimit:10;stroke-opacity:1" transform="translate(-239.527 -161.574)"/><path d="M404.207 288.824c.145.867 1.73 2.164 2.164 2.309-.433.144-2.02 1.445-2.164 2.312" style="fill:none;stroke:#000;stroke-width:.79701;stroke-linecap:round;stroke-linejoin:round;stroke-miterlimit:10;stroke-opacity:1" transform="translate(-239.527 -161.574)"/><path d="M406.77 319.48h-98.38" style="fill:none;stroke:#000;stroke-width:.99628001;stroke-linecap:butt;stroke-linejoin:miter;stroke-miterlimit:10;stroke-opacity:1" transform="translate(-239.527 -161.574)"/><path d="M310.121 321.793c-.144-.867-1.73-2.168-2.164-2.313.434-.144 2.02-1.445 2.164-2.312" style="fill:none;stroke:#000;stroke-width:.79701;stroke-linecap:round;stroke-linejoin:round;stroke-miterlimit:10;stroke-opacity:1" transform="translate(-239.527 -161.574)"/><g style="fill:#000;fill-opacity:1" transform="translate(-239.527 -161.574)"><use xlink:href="#n" width="100%" height="100%" x="324.286" y="313.225"/><use xlink:href="#o" width="100%" height="100%" x="329.915" y="313.225"/><use xlink:href="#p" width="100%" height="100%" x="334.094" y="313.225"/><use xlink:href="#q" width="100%" height="100%" x="338.937" y="313.225"/><use xlink:href="#r" width="100%" height="100%" x="344.566" y="313.225"/></g><use xlink:href="#s" width="100%" height="100%" x="350.228" y="313.225" style="fill:#000;fill-opacity:1" transform="translate(-239.527 -161.574)"/><g style="fill:#7f7f7f;fill-opacity:1" transform="translate(-239.527 -161.574)"><use xlink:href="#t" width="100%" height="100%" x="355.681" y="313.225"/><use xlink:href="#u" width="100%" height="100%" x="359.401" y="313.225"/><use xlink:href="#v" width="100%" height="100%" x="364.637" y="313.225"/><use xlink:href="#r" width="100%" height="100%" x="370.266" y="313.225"/></g><g style="fill:#7f7f7f;fill-opacity:1" transform="translate(-239.527 -161.574)"><use xlink:href="#s" width="100%" height="100%" x="375.928" y="313.225"/><use xlink:href="#w" width="100%" height="100%" x="381.382" y="313.225"/></g><path d="M350.078 333.656v14.172" style="fill:none;stroke:#3f3f3f;stroke-width:.3985;stroke-linecap:butt;stroke-linejoin:miter;stroke-miterlimit:10;stroke-dasharray:2.98883,2.98883;stroke-opacity:1" transform="translate(-239.527 -161.574)"/><path d="M307.559 362h98.378" style="fill:none;stroke:#000;stroke-width:.99628001;stroke-linecap:butt;stroke-linejoin:miter;stroke-miterlimit:10;stroke-opacity:1" transform="translate(-239.527 -161.574)"/><path d="M404.207 359.691c.145.864 1.73 2.164 2.164 2.309-.433.145-2.02 1.445-2.164 2.313" style="fill:none;stroke:#000;stroke-width:.79701;stroke-linecap:round;stroke-linejoin:round;stroke-miterlimit:10;stroke-opacity:1" transform="translate(-239.527 -161.574)"/><path d="M265.035 184.832v20.43" style="fill:none;stroke:#000;stroke-width:.99628001;stroke-linecap:butt;stroke-linejoin:miter;stroke-miterlimit:10;stroke-opacity:1" transform="translate(-239.527 -161.574)"/><path d="M203.527 267.348c.145-.868 1.735-2.168 2.168-2.313-.433-.144-2.023-1.441-2.168-2.308" style="fill:none;stroke:#000;stroke-width:.79701;stroke-linecap:round;stroke-linejoin:round;stroke-miterlimit:10;stroke-opacity:1" transform="matrix(0 1 1 0 -239.527 -161.574)"/><g style="fill:#000;fill-opacity:1" transform="translate(-239.527 -161.574)"><use xlink:href="#x" width="100%" height="100%" x="252.957" y="178.929"/><use xlink:href="#y" width="100%" height="100%" x="257.801" y="178.929"/><use xlink:href="#u" width="100%" height="100%" x="260.397" y="178.929"/><use xlink:href="#z" width="100%" height="100%" x="265.634" y="178.929"/></g><use xlink:href="#w" width="100%" height="100%" x="268.263" y="178.929" style="fill:#000;fill-opacity:1" transform="translate(-239.527 -161.574)"/><path d="M293.383 191.922v13.34" style="fill:none;stroke:#000;stroke-width:.99628001;stroke-linecap:butt;stroke-linejoin:miter;stroke-miterlimit:10;stroke-opacity:1" transform="translate(-239.527 -161.574)"/><path d="M203.527 295.695c.145-.867 1.735-2.168 2.168-2.312-.433-.145-2.023-1.445-2.168-2.309" style="fill:none;stroke:#000;stroke-width:.79701;stroke-linecap:round;stroke-linejoin:round;stroke-miterlimit:10;stroke-opacity:1" transform="matrix(0 1 1 0 -239.527 -161.574)"/><g style="fill:#000;fill-opacity:1" transform="translate(-239.527 -161.574)"><use xlink:href="#A" width="100%" height="100%" x="276.537" y="187.787"/><use xlink:href="#z" width="100%" height="100%" x="283.988" y="187.787"/><use xlink:href="#B" width="100%" height="100%" x="286.585" y="187.787"/><use xlink:href="#v" width="100%" height="100%" x="290.523" y="187.787"/><use xlink:href="#p" width="100%" height="100%" x="296.152" y="187.787"/><use xlink:href="#o" width="100%" height="100%" x="300.996" y="187.787"/></g><use xlink:href="#o" width="100%" height="100%" x="305.206" y="187.787" style="fill:#000;fill-opacity:1" transform="translate(-239.527 -161.574)"/><path d="M548.504 184.832v20.43" style="fill:none;stroke:#000;stroke-width:.99628001;stroke-linecap:butt;stroke-linejoin:miter;stroke-miterlimit:10;stroke-opacity:1" transform="translate(-239.527 -161.574)"/><path d="M203.527 550.816c.145-.867 1.735-2.168 2.168-2.312-.433-.145-2.023-1.445-2.168-2.309" style="fill:none;stroke:#000;stroke-width:.79701;stroke-linecap:round;stroke-linejoin:round;stroke-miterlimit:10;stroke-opacity:1" transform="matrix(0 1 1 0 -239.527 -161.574)"/><g style="fill:#000;fill-opacity:1" transform="translate(-239.527 -161.574)"><use xlink:href="#x" width="100%" height="100%" x="536.421" y="178.929"/><use xlink:href="#y" width="100%" height="100%" x="541.265" y="178.929"/><use xlink:href="#u" width="100%" height="100%" x="543.861" y="178.929"/><use xlink:href="#z" width="100%" height="100%" x="549.098" y="178.929"/></g><use xlink:href="#w" width="100%" height="100%" x="551.727" y="178.929" style="fill:#000;fill-opacity:1" transform="translate(-239.527 -161.574)"/><path d="M435.117 376.176H533.5" style="fill:none;stroke:#000;stroke-width:.99628001;stroke-linecap:butt;stroke-linejoin:miter;stroke-miterlimit:10;stroke-opacity:1" transform="translate(-239.527 -161.574)"/><path d="M531.766 373.863c.144.867 1.734 2.168 2.168 2.313-.434.144-2.024 1.445-2.168 2.308" style="fill:none;stroke:#000;stroke-width:.79701;stroke-linecap:round;stroke-linejoin:round;stroke-miterlimit:10;stroke-opacity:1" transform="translate(-239.527 -161.574)"/><g style="fill:#000;fill-opacity:1" transform="translate(-239.527 -161.574)"><use xlink:href="#o" width="100%" height="100%" x="449.396" y="369.918"/><use xlink:href="#p" width="100%" height="100%" x="453.575" y="369.918"/><use xlink:href="#t" width="100%" height="100%" x="458.418" y="369.918"/><use xlink:href="#z" width="100%" height="100%" x="462.138" y="369.918"/><use xlink:href="#u" width="100%" height="100%" x="464.735" y="369.918"/></g><g style="fill:#000;fill-opacity:1" transform="translate(-239.527 -161.574)"><use xlink:href="#y" width="100%" height="100%" x="470.004" y="369.918"/><use xlink:href="#z" width="100%" height="100%" x="472.6" y="369.918"/><use xlink:href="#C" width="100%" height="100%" x="475.196" y="369.918"/><use xlink:href="#p" width="100%" height="100%" x="479.931" y="369.918"/></g><use xlink:href="#r" width="100%" height="100%" x="484.807" y="369.918" style="fill:#000;fill-opacity:1" transform="translate(-239.527 -161.574)"/><use xlink:href="#n" width="100%" height="100%" x="494.08" y="369.918" style="fill:#000;fill-opacity:1" transform="translate(-239.527 -161.574)"/><g style="fill:#000;fill-opacity:1" transform="translate(-239.527 -161.574)"><use xlink:href="#t" width="100%" height="100%" x="499.415" y="369.918"/><use xlink:href="#s" width="100%" height="100%" x="503.135" y="369.918"/></g><g style="fill:#000;fill-opacity:1" transform="translate(-239.527 -161.574)"><use xlink:href="#s" width="100%" height="100%" x="508.895" y="369.918"/><use xlink:href="#D" width="100%" height="100%" x="514.349" y="369.918"/></g><path d="M562.68 390.348v20.43" style="fill:none;stroke:#000;stroke-width:.99628001;stroke-linecap:butt;stroke-linejoin:miter;stroke-miterlimit:10;stroke-opacity:1" transform="translate(-239.527 -161.574)"/><path d="M409.043 564.988c.145-.867 1.734-2.164 2.168-2.308-.434-.145-2.023-1.446-2.168-2.313" style="fill:none;stroke:#000;stroke-width:.79701;stroke-linecap:round;stroke-linejoin:round;stroke-miterlimit:10;stroke-opacity:1" transform="matrix(0 1 1 0 -239.527 -161.574)"/><g style="fill:#000;fill-opacity:1" transform="translate(-239.527 -161.574)"><use xlink:href="#E" width="100%" height="100%" x="547.358" y="425.088"/><use xlink:href="#F" width="100%" height="100%" x="552.387" y="425.088"/><use xlink:href="#G" width="100%" height="100%" x="557.231" y="425.088"/><use xlink:href="#H" width="100%" height="100%" x="560.951" y="425.088"/><use xlink:href="#I" width="100%" height="100%" x="566.58" y="425.088"/></g><g style="fill:#000;fill-opacity:1" transform="translate(-239.527 -161.574)"><use xlink:href="#J" width="100%" height="100%" x="569.209" y="425.088"/><use xlink:href="#K" width="100%" height="100%" x="574.053" y="425.088"/></g></svg>