<svg xmlns="http://www.w3.org/2000/svg" xmlns:xlink="http://www.w3.org/1999/xlink" width="334.128" height="172.047" viewBox="0 0 250.596 129.035"><defs><symbol id="a" overflow="visible"><path d="M4.266-6.297c-.079-.172-.094-.219-.313-.219-.234 0-.25.047-.312.22L1.328-.626c-.062.156-.062.172-.328.203a5 5 0 0 1-.469.016H.36V0c.25-.016.797-.016 1.079-.016.25 0 .921 0 1.14.016v-.406c-.203 0-.562 0-.828-.094.031-.078.031-.11.047-.14l.5-1.204H4.78l.594 1.438H4.5V0c.297-.016 1.203-.016 1.547-.016.297 0 1.25 0 1.484.016v-.406h-.89Zm-.72 1.375 1.08 2.672H2.453Zm0 0" style="stroke:none"/></symbol><symbol id="b" overflow="visible"><path d="m1.938-6.453-1.61.078v.39c.578 0 .64 0 .64.376V0h.391c.157-.172.313-.36.47-.547.468.5.984.61 1.343.61 1.297 0 2.281-.782 2.281-2.141 0-1.266-.875-2.11-2.156-2.11a2.12 2.12 0 0 0-1.36.485Zm.046 3.187a1.52 1.52 0 0 1 1.188-.609c1.156 0 1.156 1.172 1.156 1.797 0 .406 0 .937-.219 1.281-.28.453-.718.547-1.015.547-.64 0-.985-.453-1.11-.656Zm0 0" style="stroke:none"/></symbol><symbol id="c" overflow="visible"><path d="M3.5-3.969c0-.172 0-.25-.14-.25-.047 0-.063 0-.204.094L2.97-4c-.266-.156-.61-.219-.938-.219C1.75-4.219.36-4.219.36-3c0 .969 1.141 1.172 1.438 1.219.25.047.562.11.594.11.375.077.75.312.75.702 0 .719-.86.719-1.047.719-.469 0-1.063-.156-1.328-1.047C.719-1.484.703-1.5.546-1.5c-.187 0-.187.031-.187.25v1.063c0 .171 0 .25.141.25.063 0 .078 0 .266-.157L1-.266c.422.329.922.329 1.094.329.515 0 1.672-.125 1.672-1.36 0-.437-.235-.75-.422-.922-.39-.312-.703-.36-1.203-.453-.594-.11-1.157-.203-1.157-.656 0-.61.829-.61 1.032-.61 1.03 0 1.078.657 1.093.891.016.125.094.125.204.125.187 0 .187-.031.187-.25zm0 0" style="stroke:none"/></symbol><symbol id="d" overflow="visible"><path d="M4.922-2.031c0-1.266-.844-2.188-2.313-2.188-1.515 0-2.328.969-2.328 2.188S1.141.063 2.61.063c1.516 0 2.313-.922 2.313-2.094M2.609-.281c-1.203 0-1.203-1.078-1.203-1.844 0-.437 0-.906.172-1.234.203-.375.625-.547 1.031-.547.532 0 .86.25 1.016.515.188.329.188.813.188 1.266 0 .766 0 1.844-1.204 1.844m0 0" style="stroke:none"/></symbol><symbol id="e" overflow="visible"><path d="M1.938-2.094c0-.312.062-1.781 1.156-1.781a.5.5 0 0 0-.203.422c0 .39.312.547.547.547a.527.527 0 0 0 .53-.547c0-.469-.484-.735-.921-.735-.735 0-1.063.641-1.188 1.032h-.015v-1.031L.328-4.11v.406c.578 0 .64 0 .64.36v2.937h-.64V0c.219-.016.906-.016 1.172-.016s1.016 0 1.25.016v-.406h-.812Zm0 0" style="stroke:none"/></symbol><symbol id="f" overflow="visible"><path d="M2.078-5.797a.677.677 0 0 0-.672-.672.677.677 0 0 0-.672.672c0 .36.282.672.672.672.36 0 .672-.281.672-.672M.438-4.109v.406c.546 0 .609 0 .609.36v2.937h-.64V0c.218-.016.859-.016 1.109-.016.265 0 .859 0 1.078.016v-.406h-.578v-3.781Zm0 0" style="stroke:none"/></symbol><symbol id="g" overflow="visible"><path d="M4.938-2.844c0-.89-.375-1.344-1.407-1.344-.672 0-1.25.329-1.562 1.032v-1.031L.39-4.11v.406c.578 0 .64 0 .64.36v2.937H.39V0c.218-.016.89-.016 1.14-.016.266 0 .938 0 1.157.016v-.406h-.641v-1.969c0-1.016.75-1.5 1.344-1.5.343 0 .53.219.53.922v2.547h-.64V0c.219-.016.89-.016 1.14-.016.266 0 .938 0 1.157.016v-.406h-.64Zm0 0" style="stroke:none"/></symbol><symbol id="h" overflow="visible"><path d="M1.203-1.687c.453.234.969.234 1.11.234 1.28 0 1.796-.719 1.796-1.36 0-.484-.265-.812-.375-.906a1.5 1.5 0 0 1 .641-.203c-.031.047-.047.078-.047.203 0 .188.125.375.36.375.25 0 .375-.187.375-.375a.516.516 0 0 0-.547-.515c-.407 0-.782.187-.985.359-.375-.219-.734-.312-1.219-.312-1.28 0-1.796.718-1.796 1.375 0 .28.093.671.484.984-.156.172-.328.5-.328.828 0 .406.219.75.422.89C.859-.046.28.173.28.704c0 .547.61 1.172 2.328 1.172 1.532 0 2.313-.516 2.313-1.203 0-.828-.531-1.094-.766-1.203-.452-.22-1.045-.22-1.859-.22-.233 0-.64 0-.687-.016-.406-.062-.515-.421-.515-.593 0-.079.015-.22.11-.328m1.11-.063c-.813 0-.813-.64-.813-1.062 0-.438 0-1.079.813-1.079s.812.641.812 1.079c0 .421 0 1.062-.812 1.062M2.828.11c.688 0 1.344.109 1.344.593 0 .328-.328.875-1.563.875-1.218 0-1.562-.531-1.562-.875 0-.594.594-.594.734-.594zm0 0" style="stroke:none"/></symbol><symbol id="i" overflow="visible"><path d="M2.625 1.406h-.64V-.375c.234.203.64.438 1.187.438 1.281 0 2.281-.782 2.281-2.141 0-1.281-.875-2.11-2.125-2.11-.547 0-1.015.188-1.39.485v-.485l-1.61.079v.406c.578 0 .64 0 .64.36v4.75h-.64v.39c.219-.016.875-.016 1.14-.016.266 0 .938 0 1.157.016zm-.64-4.656a1.49 1.49 0 0 1 1.187-.594c.61 0 1.156.547 1.156 1.766 0 1.36-.672 1.828-1.266 1.828-.39 0-.796-.203-1.078-.64Zm0 0" style="stroke:none"/></symbol><symbol id="j" overflow="visible"><path d="M4.938-2.844c0-.89-.375-1.344-1.407-1.344-.937 0-1.39.657-1.515.938H2v-3.203l-1.61.078v.39c.579 0 .641 0 .641.376v5.203h-.64V0c.218-.016.89-.016 1.14-.016.266 0 .938 0 1.157.016v-.406h-.641v-1.969c0-1.016.75-1.5 1.344-1.5.343 0 .53.219.53.922v2.547h-.64V0c.219-.016.89-.016 1.14-.016.266 0 .938 0 1.157.016v-.406h-.64Zm0 0" style="stroke:none"/></symbol><symbol id="k" overflow="visible"><path d="M4.281-2.781c0-.86-.687-1.438-2-1.438-.515 0-1.61.047-1.61.828 0 .391.298.563.548.563.281 0 .547-.188.547-.547a.53.53 0 0 0-.22-.453c.298-.078.532-.078.704-.078.625 0 1.016.36 1.016 1.11v.374c-1.47 0-2.953.406-2.953 1.453C.313-.125 1.39.062 2.03.062c.719 0 1.172-.39 1.36-.812 0 .344 0 .75.937.75h.484C5 0 5.079 0 5.079-.203S5-.406 4.86-.406c-.578 0-.578-.156-.578-.36ZM3.266-1.297c0 .875-.782 1.047-1.078 1.047-.454 0-.844-.312-.844-.734 0-.844 1.015-1.141 1.922-1.188zm0 0" style="stroke:none"/></symbol><symbol id="l" overflow="visible"><path d="M4.203-2.047c.219 0 .266 0 .266-.234 0-.281-.063-.985-.485-1.422-.39-.39-.921-.516-1.453-.516-1.453 0-2.25.953-2.25 2.125C.281-.797 1.25.063 2.656.063c1.39 0 1.813-1 1.813-1.157 0-.14-.14-.14-.188-.14-.156 0-.156.03-.218.156-.235.61-.86.797-1.297.797-1.36 0-1.36-1.25-1.36-1.766zm-2.797-.281c.016-.375.032-.735.219-1.078.172-.297.5-.5.906-.5 1 0 1.078 1.11 1.078 1.578zm0 0" style="stroke:none"/></symbol><symbol id="m" overflow="visible"><path d="M2.36-4.094c-.922-.203-.954-.875-.954-1 0-.468.313-1.031 1.219-1.031s1.703.438 1.906 1.656c.032.203.032.203.203.203.188 0 .188-.015.188-.234v-1.75c0-.172 0-.234-.14-.234-.063 0-.095 0-.173.093l-.39.454c-.235-.188-.703-.547-1.61-.547-1.328 0-2.03.828-2.03 1.843 0 .625.327 1.063.468 1.188.484.484.734.547 1.703.75.938.219 1.047.234 1.25.422.125.125.39.39.39.86 0 .405-.202 1.14-1.234 1.14-.828 0-2.11-.281-2.187-1.64-.016-.173-.016-.204-.203-.204-.188 0-.188.031-.188.25v1.75c0 .172 0 .234.14.234.063 0 .079 0 .173-.093.093-.094.172-.22.406-.453.547.421 1.312.546 1.86.546 1.452 0 2.062-.984 2.062-1.968 0-.875-.563-1.703-1.578-1.938zm0 0" style="stroke:none"/></symbol><symbol id="n" overflow="visible"><path d="M4.828-4.187h-.344L4-3.407c-.328-.484-.781-.78-1.39-.78-1.297 0-2.25.796-2.25 2.125S1.28.063 2.515.063c.343 0 .828-.079 1.312-.532v1.875h-.656v.39c.219-.015.89-.015 1.156-.015.25 0 .938 0 1.14.016v-.39h-.64ZM3.875-1.11c-.39.734-.953.859-1.25.859-.594 0-1.156-.547-1.156-1.797 0-1.36.703-1.797 1.25-1.797.734 0 1.156.75 1.156 1.172zm0 0" style="stroke:none"/></symbol><symbol id="o" overflow="visible"><path d="M3.281-4.11v.407c.578 0 .64 0 .64.36v1.812c0 .718-.421 1.281-1.14 1.281-.703 0-.734-.234-.734-.75v-3.187L.39-4.11v.406c.578 0 .64 0 .64.36v2.202c0 .922.625 1.204 1.625 1.204.219 0 .906 0 1.297-.766h.016v.766L5.579 0v-.406c-.579 0-.641 0-.641-.36v-3.421Zm0 0" style="stroke:none"/></symbol><symbol id="p" overflow="visible"><path d="M4.094-3.781c.078-.094.078-.11.078-.172 0-.172-.094-.172-.266-.172H.546L.438-2.531h.391c.063-.875.266-1.297 1.297-1.297h.828L.375-.375c-.094.11-.094.125-.094.188C.281 0 .375 0 .563 0h3.484l.156-1.844h-.39C3.734-.859 3.53-.328 2.359-.328h-.843zm0 0" style="stroke:none"/></symbol><symbol id="q" overflow="visible"><path d="M3.703-2.14h2.578c.125 0 .297 0 .297-.172s-.156-.172-.297-.172H3.703v-2.578c0-.125 0-.297-.156-.297-.188 0-.188.156-.188.297v2.578H.797c-.125 0-.297 0-.297.156 0 .187.156.187.297.187h2.562V.422c0 .125 0 .297.172.297s.172-.156.172-.297zm0 0" style="stroke:none"/></symbol><symbol id="r" overflow="visible"><path d="M1.922-2.719a2.5 2.5 0 0 1 .594-.828c.234-.219.547-.36.922-.36.359 0 .5.266.5.641 0 .063 0 .25-.11.688l-.234.953c-.078.281-.25.969-.281 1.063-.032.14-.094.39-.094.421 0 .125.11.235.25.235.281 0 .328-.219.406-.547l.563-2.219c.015-.078.5-1.234 1.515-1.234.375 0 .516.265.516.64 0 .516-.375 1.532-.578 2.094-.079.219-.125.344-.125.516 0 .422.28.75.734.75.86 0 1.188-1.375 1.188-1.422s-.032-.078-.094-.078c-.078 0-.094.015-.14.172-.204.75-.563 1.14-.923 1.14-.093 0-.25-.015-.25-.312 0-.235.11-.531.157-.64.156-.438.578-1.532.578-2.079 0-.562-.328-.969-1.032-.969-.625 0-1.125.344-1.5.89-.015-.5-.328-.89-1.03-.89-.829 0-1.267.578-1.423.813-.031-.531-.406-.813-.828-.813-.266 0-.484.125-.656.485-.172.328-.297.89-.297.937 0 .031.031.078.11.078.062 0 .078-.015.14-.219.125-.546.313-1.093.688-1.093.203 0 .28.14.28.422 0 .203-.093.562-.155.859l-.266 1c-.031.172-.14.594-.188.766a8 8 0 0 0-.156.718.23.23 0 0 0 .235.235c.109 0 .25-.063.312-.203.031-.047.11-.36.156-.547L1.61-1.5Zm0 0" style="stroke:none"/></symbol><symbol id="w" overflow="visible"><path d="M4.14-3.734c.188 0 .266 0 .266-.172C4.406-4 4.328-4 4.172-4h-.766c.188-.969.313-1.625.39-1.922.048-.219.25-.437.485-.437.203 0 .39.078.485.172-.36.03-.47.296-.47.453 0 .187.141.312.313.312a.5.5 0 0 0 .47-.516c0-.39-.391-.609-.798-.609-.406 0-.797.297-.984.656-.156.329-.25.672-.469 1.891h-.625c-.172 0-.265 0-.265.156 0 .11.046.11.234.11h.594c-.157.859-.547 2.968-.75 3.953-.172.812-.313 1.484-.766 1.484-.031 0-.297 0-.469-.172.469-.031.469-.437.469-.453 0-.187-.14-.297-.312-.297a.49.49 0 0 0-.47.516c0 .39.423.594.782.594.938 0 1.328-1.703 1.438-2.157.171-.718.624-3.187.671-3.468zm0 0" style="stroke:none"/></symbol><symbol id="C" overflow="visible"><path d="M1.188-.75c.39-.453.718-.75 1.187-1.172.547-.484.797-.703.922-.844.656-.64.984-1.187.984-1.265 0-.063-.078-.063-.093-.063-.063 0-.094.032-.141.094-.219.406-.453.594-.688.594-.203 0-.296-.078-.484-.297-.187-.235-.344-.39-.61-.39-.687 0-1.093.843-1.093 1.03 0 .032.016.094.094.094s.078-.047.109-.11c.156-.374.61-.437.781-.437.203 0 .375.063.578.157.36.14.5.14.594.14h.156c-.312.36-.812.797-1.234 1.188l-.937.86C.75-.595.406-.048.406.015S.453.094.5.094c.063 0 .063-.016.125-.125.156-.235.453-.578.797-.578.203 0 .281.062.469.297.187.203.343.406.64.406.906 0 1.422-1.188 1.422-1.39 0-.048 0-.095-.094-.095-.078 0-.078.032-.109.125C3.547-.719 3-.5 2.625-.5c-.187 0-.375-.062-.578-.14-.36-.157-.469-.157-.594-.157-.094 0-.187 0-.266.047m0 0" style="stroke:none"/></symbol><symbol id="s" overflow="visible"><path d="M3.031-1.984c0-.657-.062-1.063-.265-1.453a1.24 1.24 0 0 0-1.125-.688c-.782 0-1.063.578-1.157.75C.266-2.922.25-2.297.25-1.985c0 .423.016 1.048.328 1.532.281.469.735.578 1.063.578.297 0 .828-.094 1.14-.703.235-.453.25-1 .25-1.406M1.641-.047C1.438-.047 1-.14.875-.797.813-1.14.813-1.734.813-2.047c0-.437 0-.875.062-1.203.125-.64.61-.703.766-.703.218 0 .64.11.765.672.078.344.078.812.078 1.234 0 .36 0 .922-.078 1.266-.125.656-.562.734-.765.734m0 0" style="stroke:none"/></symbol><symbol id="x" overflow="visible"><path d="M2.938-2.11c.484-.124 1.078-.484 1.078-1.015 0-.61-.782-1.11-1.703-1.11H.28v.204h.14c.485 0 .485.062.485.297V-.5c0 .234 0 .297-.484.297h-.14V0c.53-.016.546-.016.906-.016.359 0 .375 0 .906.016v-.203h-.14c-.485 0-.485-.063-.485-.297v-1.531h.781c.453 0 .656.219.703.281.172.188.172.313.172.734 0 .391 0 .657.266.891.265.219.609.25.797.25.515 0 .64-.5.64-.687 0-.047 0-.125-.094-.125-.093 0-.093.078-.093.109-.032.39-.25.531-.422.531-.344 0-.375-.281-.485-1.062-.046-.36-.109-.782-.796-1m-.704-.093H1.47V-3.78c0-.156 0-.219.156-.25H2c.563 0 1.375 0 1.375.906 0 .688-.5.922-1.14.922m0 0" style="stroke:none"/></symbol><symbol id="B" overflow="visible"><path d="M1.953-3.953c0-.172-.016-.172-.187-.172-.25.25-.578.39-1.172.39v.22c.172 0 .5 0 .86-.172v3.171c0 .235-.016.313-.61.313H.625V0c.266-.016.797-.016 1.078-.016s.813 0 1.063.016v-.203h-.203c-.594 0-.61-.078-.61-.313zm0 0" style="stroke:none"/></symbol><symbol id="t" overflow="visible"><path d="M2.813-2.672c-.266.016-.407.219-.407.39 0 .204.172.25.266.25.14 0 .39-.124.39-.452 0-.36-.374-.61-.859-.61-.953 0-1.906.969-1.906 1.969C.297-.422.766.078 1.469.078c1.047 0 1.64-.734 1.64-.812 0-.047-.046-.11-.093-.11s-.047.016-.11.094c-.422.516-1.062.656-1.422.656-.39 0-.64-.265-.64-.765 0-.297.125-.985.406-1.438.156-.25.531-.61.969-.61.125 0 .422.016.594.235m0 0" style="stroke:none"/></symbol><symbol id="v" overflow="visible"><path d="M2.828-2.828c-.234.047-.36.234-.36.39 0 .126.095.25.282.25.188 0 .375-.171.375-.421 0-.282-.25-.485-.594-.485-.515 0-.812.39-.906.531a.666.666 0 0 0-.672-.53c-.25 0-.406.155-.531.406a3 3 0 0 0-.219.671c0 .063.047.094.094.094.078 0 .094-.047.125-.187.14-.547.281-.797.516-.797.218 0 .218.219.218.328 0 .14-.062.36-.11.531-.046.188-.109.485-.14.578L.625-.329C.578-.155.578-.14.578-.124c0 .094.063.203.219.203.219 0 .265-.187.328-.39.078-.297.078-.313.14-.61.266-1.047.313-1.203.313-1.25.047-.078.375-.734.953-.734.156 0 .25.047.297.078m0 0" style="stroke:none"/></symbol><symbol id="u" overflow="visible"><path d="M.453.563C.422.688.422.719.22.719c-.063 0-.094 0-.11.031a.2.2 0 0 0-.03.094c0 .015.015.062.077.062.125 0 .282-.015.422-.015h.25c.078 0 .172.015.25.015.031 0 .063 0 .078-.031a.2.2 0 0 0 .032-.094C1.172.72 1.125.72 1.047.72.937.72.813.72.813.657c0-.015.03-.14.046-.203l.172-.687c.11.172.282.28.516.28.61 0 1.25-.64 1.25-1.312 0-.484-.344-.78-.75-.78-.39 0-.672.296-.703.327-.078-.281-.375-.328-.5-.328-.219 0-.328.14-.39.25-.11.188-.173.438-.173.453 0 .047.047.078.094.078.063 0 .078-.03.094-.109.094-.39.219-.531.36-.531.155 0 .155.203.155.25v.125zm.875-1.97c.016-.077.016-.077.11-.171.14-.172.375-.328.593-.328.219 0 .36.172.36.468 0 .157-.094.672-.266.954-.172.25-.39.375-.578.375-.344 0-.438-.36-.438-.391s0-.062.016-.078zm0 0" style="stroke:none"/></symbol><symbol id="y" overflow="visible"><path d="m2.25-1.781.734-.922C3.172-2.938 3.438-3 3.72-3v-.187c-.188.015-.36.03-.547.03-.219 0-.578-.015-.64-.03V-3c.187 0 .265.11.265.188 0 .046-.016.062-.063.124l-.609.766-.703-.89c-.016-.032-.031-.047-.031-.063 0-.062.125-.125.28-.125v-.187c-.14.015-.546.03-.733.03a7 7 0 0 1-.641-.03V-3H.39c.312 0 .375.047.468.156l.985 1.266-.89 1.094c-.095.14-.266.297-.735.297V0c.187-.016.375-.016.547-.016.25 0 .562.016.64.016v-.187c-.203 0-.265-.11-.265-.188 0-.047.015-.062.062-.11l.766-.952.843 1.062c.032.047.032.063.032.063 0 .062-.094.125-.281.125V0c.109 0 .546-.016.75-.016.218 0 .515 0 .64.016v-.187h-.11c-.296 0-.359-.032-.452-.141zm0 0" style="stroke:none"/></symbol><symbol id="z" overflow="visible"><path d="M3.219-1.234h-.172C2.984-.672 2.844-.187 2-.187h-.516c-.218 0-.218-.032-.218-.172v-2.438c0-.14 0-.203.437-.203h.172v-.187c-.234.03-.578.03-.828.03-.219 0-.625-.015-.75-.03V-3h.125c.375 0 .375.063.375.203V-.39c0 .157 0 .204-.375.204H.297V0h2.766Zm0 0" style="stroke:none"/></symbol><symbol id="A" overflow="visible"><path d="M1.266-2.797c0-.14 0-.203.375-.203h.14v-.187a9 9 0 0 1-1.5 0V-3h.125c.39 0 .39.063.39.203V-.39c0 .157 0 .204-.39.204H.281V0c.125 0 .516-.016.75-.016.235 0 .625.016.75.016v-.187h-.14c-.375 0-.375-.047-.375-.204zm0 0" style="stroke:none"/></symbol></defs><g style="fill:#000;fill-opacity:1" transform="translate(-170.655 -290.078)"><use xlink:href="#a" width="100%" height="100%" x="217.219" y="416.477"/><use xlink:href="#b" width="100%" height="100%" x="225.117" y="416.477"/><use xlink:href="#c" width="100%" height="100%" x="230.931" y="416.477"/><use xlink:href="#d" width="100%" height="100%" x="235.052" y="416.477"/><use xlink:href="#e" width="100%" height="100%" x="240.28" y="416.477"/><use xlink:href="#b" width="100%" height="100%" x="244.55" y="416.477"/><use xlink:href="#f" width="100%" height="100%" x="250.365" y="416.477"/></g><g style="fill:#000;fill-opacity:1" transform="translate(-170.655 -290.078)"><use xlink:href="#g" width="100%" height="100%" x="253.295" y="416.477"/><use xlink:href="#h" width="100%" height="100%" x="259.109" y="416.477"/></g><g style="fill:#000;fill-opacity:1" transform="translate(-170.655 -290.078)"><use xlink:href="#i" width="100%" height="100%" x="267.826" y="416.477"/><use xlink:href="#j" width="100%" height="100%" x="273.64" y="416.477"/><use xlink:href="#k" width="100%" height="100%" x="279.454" y="416.477"/><use xlink:href="#c" width="100%" height="100%" x="284.534" y="416.477"/><use xlink:href="#l" width="100%" height="100%" x="288.655" y="416.477"/></g><g style="fill:#000;fill-opacity:1" transform="translate(-170.655 -290.078)"><use xlink:href="#m" width="100%" height="100%" x="347.16" y="416.477"/><use xlink:href="#n" width="100%" height="100%" x="352.974" y="416.477"/><use xlink:href="#o" width="100%" height="100%" x="358.491" y="416.477"/><use xlink:href="#l" width="100%" height="100%" x="364.305" y="416.477"/><use xlink:href="#l" width="100%" height="100%" x="369.078" y="416.477"/><use xlink:href="#p" width="100%" height="100%" x="373.85" y="416.477"/><use xlink:href="#f" width="100%" height="100%" x="378.501" y="416.477"/><use xlink:href="#g" width="100%" height="100%" x="381.404" y="416.477"/><use xlink:href="#h" width="100%" height="100%" x="387.218" y="416.477"/></g><g style="fill:#000;fill-opacity:1" transform="translate(-170.655 -290.078)"><use xlink:href="#i" width="100%" height="100%" x="395.953" y="416.477"/><use xlink:href="#j" width="100%" height="100%" x="401.768" y="416.477"/><use xlink:href="#k" width="100%" height="100%" x="407.582" y="416.477"/><use xlink:href="#c" width="100%" height="100%" x="412.661" y="416.477"/><use xlink:href="#l" width="100%" height="100%" x="416.782" y="416.477"/></g><path d="M.31 14.887h1.242v99.261H.31zm0 0" style="fill:#000;fill-opacity:1;fill-rule:nonzero;stroke:#000;stroke-width:.620184;stroke-linecap:butt;stroke-linejoin:miter;stroke-miterlimit:10;stroke-opacity:1"/><path d="M28.197 34.742a8.036 8.036 0 1 0-16.07 0 8.035 8.035 0 0 0 16.07 0zm0 0" style="fill:none;stroke:#000;stroke-width:.620184;stroke-linecap:butt;stroke-linejoin:miter;stroke-miterlimit:10;stroke-opacity:1"/><use xlink:href="#q" width="100%" height="100%" x="187.274" y="327.145" style="fill:#000;fill-opacity:1" transform="translate(-170.655 -290.078)"/><path d="m.31 34.742 10.957-.004" style="fill:none;stroke:#000;stroke-width:.620184;stroke-linecap:butt;stroke-linejoin:miter;stroke-miterlimit:10;stroke-opacity:1"/><path d="M10.056 33.129c.102.601 1.211 1.512 1.512 1.61-.3.1-1.41 1.007-1.512 1.613" style="fill:none;stroke:#000;stroke-width:.496141;stroke-linecap:round;stroke-linejoin:round;stroke-miterlimit:10;stroke-opacity:1"/><path d="m28.505 34.738 10.957.004" style="fill:none;stroke:#000;stroke-width:.620184;stroke-linecap:butt;stroke-linejoin:miter;stroke-miterlimit:10;stroke-opacity:1"/><path d="M38.255 33.129c.098.605 1.207 1.512 1.512 1.613-.305.098-1.414 1.008-1.512 1.61" style="fill:none;stroke:#000;stroke-width:.496141;stroke-linecap:round;stroke-linejoin:round;stroke-miterlimit:10;stroke-opacity:1"/><path d="M20.162 9.926v15.918" style="fill:none;stroke:#000;stroke-width:.620184;stroke-linecap:butt;stroke-linejoin:miter;stroke-miterlimit:10;stroke-opacity:1"/><path d="M21.775 24.637c-.606.097-1.512 1.207-1.613 1.511-.102-.304-1.008-1.414-1.614-1.511" style="fill:none;stroke:#000;stroke-width:.496131;stroke-linecap:round;stroke-linejoin:round;stroke-miterlimit:10;stroke-opacity:1"/><use xlink:href="#r" width="100%" height="100%" x="184.991" y="295.91" style="fill:#000;fill-opacity:1" transform="translate(-170.655 -290.078)"/><use xlink:href="#s" width="100%" height="100%" x="192.958" y="297.305" style="fill:#000;fill-opacity:1" transform="translate(-170.655 -290.078)"/><path d="M.31 94.297h39.348" style="fill:none;stroke:#000;stroke-width:.310088;stroke-linecap:butt;stroke-linejoin:miter;stroke-miterlimit:10;stroke-opacity:1"/><path d="M38.728 93.055c.074.465.93 1.164 1.16 1.242-.23.078-1.086.773-1.16 1.238" style="fill:none;stroke:#000;stroke-width:.248063;stroke-linecap:round;stroke-linejoin:round;stroke-miterlimit:10;stroke-opacity:1"/><path d="m17.681 96.777 4.961-4.965" style="fill:none;stroke:#000;stroke-width:.310088;stroke-linecap:butt;stroke-linejoin:miter;stroke-miterlimit:10;stroke-opacity:1"/><use xlink:href="#t" width="100%" height="100%" x="190.057" y="392.956" style="fill:#000;fill-opacity:1" transform="translate(-170.655 -290.078)"/><use xlink:href="#u" width="100%" height="100%" x="193.161" y="393.731" style="fill:#000;fill-opacity:1" transform="translate(-170.655 -290.078)"/><path d="m17.681 22.332 4.961-4.96" style="fill:none;stroke:#000;stroke-width:.310088;stroke-linecap:butt;stroke-linejoin:miter;stroke-miterlimit:10;stroke-opacity:1"/><use xlink:href="#v" width="100%" height="100%" x="195.843" y="308.112" style="fill:#000;fill-opacity:1" transform="translate(-170.655 -290.078)"/><use xlink:href="#u" width="100%" height="100%" x="199.078" y="308.887" style="fill:#000;fill-opacity:1" transform="translate(-170.655 -290.078)"/><path d="M40.013 108.633v-88.23a5.517 5.517 0 0 1 5.516-5.516h23.71a5.517 5.517 0 0 1 5.516 5.515v88.23a5.515 5.515 0 0 1-5.515 5.516H45.529a5.515 5.515 0 0 1-5.516-5.515zm0 0" style="fill:none;stroke:#000;stroke-width:.620184;stroke-linecap:butt;stroke-linejoin:miter;stroke-miterlimit:10;stroke-opacity:1"/><use xlink:href="#w" width="100%" height="100%" x="216.03" y="356.679" style="fill:#000;fill-opacity:1" transform="translate(-170.655 -290.078)"/><use xlink:href="#x" width="100%" height="100%" x="220.52" y="358.975" style="fill:#000;fill-opacity:1" transform="translate(-170.655 -290.078)"/><g style="fill:#000;fill-opacity:1" transform="translate(-170.655 -290.078)"><use xlink:href="#y" width="100%" height="100%" x="225.367" y="356.654"/><use xlink:href="#z" width="100%" height="100%" x="229.535" y="356.654"/><use xlink:href="#A" width="100%" height="100%" x="233.038" y="356.654"/><use xlink:href="#y" width="100%" height="100%" x="235.094" y="356.654"/></g><path d="M102.642 34.742a8.036 8.036 0 1 0-16.07 0 8.035 8.035 0 0 0 16.07 0zm0 0" style="fill:none;stroke:#000;stroke-width:.620184;stroke-linecap:butt;stroke-linejoin:miter;stroke-miterlimit:10;stroke-opacity:1"/><use xlink:href="#q" width="100%" height="100%" x="261.717" y="327.145" style="fill:#000;fill-opacity:1" transform="translate(-170.655 -290.078)"/><path d="m74.755 34.742 10.954-.004" style="fill:none;stroke:#000;stroke-width:.620184;stroke-linecap:butt;stroke-linejoin:miter;stroke-miterlimit:10;stroke-opacity:1"/><path d="M84.502 33.129c.101.601 1.207 1.512 1.511 1.61-.304.1-1.41 1.007-1.511 1.613" style="fill:none;stroke:#000;stroke-width:.496141;stroke-linecap:round;stroke-linejoin:round;stroke-miterlimit:10;stroke-opacity:1"/><path d="m102.95 34.738 10.958.004" style="fill:none;stroke:#000;stroke-width:.620184;stroke-linecap:butt;stroke-linejoin:miter;stroke-miterlimit:10;stroke-opacity:1"/><path d="M112.697 33.129c.101.605 1.21 1.512 1.512 1.613-.301.098-1.41 1.008-1.512 1.61" style="fill:none;stroke:#000;stroke-width:.496141;stroke-linecap:round;stroke-linejoin:round;stroke-miterlimit:10;stroke-opacity:1"/><path d="M94.607 9.926v15.918" style="fill:none;stroke:#000;stroke-width:.620184;stroke-linecap:butt;stroke-linejoin:miter;stroke-miterlimit:10;stroke-opacity:1"/><path d="M96.22 24.637c-.605.097-1.511 1.207-1.613 1.511-.102-.304-1.008-1.414-1.613-1.511" style="fill:none;stroke:#000;stroke-width:.496131;stroke-linecap:round;stroke-linejoin:round;stroke-miterlimit:10;stroke-opacity:1"/><use xlink:href="#r" width="100%" height="100%" x="259.434" y="295.91" style="fill:#000;fill-opacity:1" transform="translate(-170.655 -290.078)"/><use xlink:href="#B" width="100%" height="100%" x="267.402" y="297.305" style="fill:#000;fill-opacity:1" transform="translate(-170.655 -290.078)"/><path d="M74.755 94.297h39.348" style="fill:none;stroke:#000;stroke-width:.310088;stroke-linecap:butt;stroke-linejoin:miter;stroke-miterlimit:10;stroke-opacity:1"/><path d="M113.17 93.055c.078.465.933 1.164 1.164 1.242-.23.078-1.086.773-1.165 1.238" style="fill:none;stroke:#000;stroke-width:.248063;stroke-linecap:round;stroke-linejoin:round;stroke-miterlimit:10;stroke-opacity:1"/><path d="m92.127 96.777 4.96-4.965" style="fill:none;stroke:#000;stroke-width:.310088;stroke-linecap:butt;stroke-linejoin:miter;stroke-miterlimit:10;stroke-opacity:1"/><use xlink:href="#t" width="100%" height="100%" x="264.5" y="392.956" style="fill:#000;fill-opacity:1" transform="translate(-170.655 -290.078)"/><use xlink:href="#u" width="100%" height="100%" x="267.605" y="393.731" style="fill:#000;fill-opacity:1" transform="translate(-170.655 -290.078)"/><path d="m92.127 22.332 4.96-4.96" style="fill:none;stroke:#000;stroke-width:.310088;stroke-linecap:butt;stroke-linejoin:miter;stroke-miterlimit:10;stroke-opacity:1"/><use xlink:href="#v" width="100%" height="100%" x="270.285" y="308.112" style="fill:#000;fill-opacity:1" transform="translate(-170.655 -290.078)"/><use xlink:href="#u" width="100%" height="100%" x="273.521" y="308.887" style="fill:#000;fill-opacity:1" transform="translate(-170.655 -290.078)"/><path d="M114.459 108.633v-88.23a5.517 5.517 0 0 1 5.515-5.516h23.711a5.516 5.516 0 0 1 5.512 5.515v88.23a5.514 5.514 0 0 1-5.512 5.516h-23.71a5.515 5.515 0 0 1-5.516-5.515zm0 0" style="fill:none;stroke:#000;stroke-width:.620184;stroke-linecap:butt;stroke-linejoin:miter;stroke-miterlimit:10;stroke-opacity:1"/><use xlink:href="#w" width="100%" height="100%" x="290.473" y="356.679" style="fill:#000;fill-opacity:1" transform="translate(-170.655 -290.078)"/><use xlink:href="#x" width="100%" height="100%" x="294.963" y="358.975" style="fill:#000;fill-opacity:1" transform="translate(-170.655 -290.078)"/><g style="fill:#000;fill-opacity:1" transform="translate(-170.655 -290.078)"><use xlink:href="#y" width="100%" height="100%" x="299.81" y="356.654"/><use xlink:href="#z" width="100%" height="100%" x="303.978" y="356.654"/><use xlink:href="#A" width="100%" height="100%" x="307.481" y="356.654"/><use xlink:href="#y" width="100%" height="100%" x="309.536" y="356.654"/></g><path d="M149.197 34.742h19.855m-19.855 59.555h19.855" style="fill:none;stroke:#000;stroke-width:.620184;stroke-linecap:butt;stroke-linejoin:miter;stroke-miterlimit:10;stroke-opacity:1"/><path d="M169.052 129.035V0" style="fill:none;stroke:#000;stroke-width:.620184;stroke-linecap:butt;stroke-linejoin:miter;stroke-miterlimit:10;stroke-dasharray:2.32572,2.32572;stroke-opacity:1"/><path d="M183.939 34.742V10.477" style="fill:none;stroke:#000;stroke-width:.620184;stroke-linecap:butt;stroke-linejoin:miter;stroke-miterlimit:10;stroke-opacity:1"/><path d="M182.326 11.684c.605-.098 1.511-1.207 1.613-1.512.102.305 1.008 1.414 1.613 1.512" style="fill:none;stroke:#000;stroke-width:.496141;stroke-linecap:round;stroke-linejoin:round;stroke-miterlimit:10;stroke-opacity:1"/><use xlink:href="#C" width="100%" height="100%" x="350.634" y="295.91" style="fill:#000;fill-opacity:1" transform="translate(-170.655 -290.078)"/><use xlink:href="#s" width="100%" height="100%" x="354.866" y="297.305" style="fill:#000;fill-opacity:1" transform="translate(-170.655 -290.078)"/><path d="M169.052 34.742h29.227" style="fill:none;stroke:#000;stroke-width:.620184;stroke-linecap:butt;stroke-linejoin:miter;stroke-miterlimit:10;stroke-opacity:1"/><path d="M197.068 33.129c.101.605 1.21 1.512 1.512 1.613-.301.098-1.41 1.008-1.512 1.61" style="fill:none;stroke:#000;stroke-width:.496141;stroke-linecap:round;stroke-linejoin:round;stroke-miterlimit:10;stroke-opacity:1"/><path d="M169.052 94.297h29.227" style="fill:none;stroke:#000;stroke-width:.620184;stroke-linecap:butt;stroke-linejoin:miter;stroke-miterlimit:10;stroke-opacity:1"/><path d="M197.068 92.684c.101.605 1.21 1.511 1.512 1.613-.301.101-1.41 1.008-1.512 1.613" style="fill:none;stroke:#000;stroke-width:.496141;stroke-linecap:round;stroke-linejoin:round;stroke-miterlimit:10;stroke-opacity:1"/><path d="m181.459 96.777 4.96-4.965" style="fill:none;stroke:#000;stroke-width:.310088;stroke-linecap:butt;stroke-linejoin:miter;stroke-miterlimit:10;stroke-opacity:1"/><use xlink:href="#t" width="100%" height="100%" x="353.833" y="392.956" style="fill:#000;fill-opacity:1" transform="translate(-170.655 -290.078)"/><use xlink:href="#u" width="100%" height="100%" x="356.937" y="393.731" style="fill:#000;fill-opacity:1" transform="translate(-170.655 -290.078)"/><path d="m181.459 22.332 4.96-4.96" style="fill:none;stroke:#000;stroke-width:.310088;stroke-linecap:butt;stroke-linejoin:miter;stroke-miterlimit:10;stroke-opacity:1"/><use xlink:href="#v" width="100%" height="100%" x="359.618" y="308.112" style="fill:#000;fill-opacity:1" transform="translate(-170.655 -290.078)"/><use xlink:href="#u" width="100%" height="100%" x="362.854" y="308.887" style="fill:#000;fill-opacity:1" transform="translate(-170.655 -290.078)"/><path d="M198.83 14.887h1.238v99.261h-1.238zm0 0" style="fill:#000;fill-opacity:1;fill-rule:nonzero;stroke:#000;stroke-width:.620184;stroke-linecap:butt;stroke-linejoin:miter;stroke-miterlimit:10;stroke-opacity:1"/></svg>