<svg xmlns="http://www.w3.org/2000/svg" xmlns:xlink="http://www.w3.org/1999/xlink" width="367.629" height="151.588" viewBox="0 0 275.722 113.691"><defs><symbol id="a" overflow="visible"><path d="M2.375 1.656c0-.031-.016-.047-.062-.093C1.422.734 1.14-.531 1.14-1.75c0-1.078.218-2.39 1.203-3.328.031-.031.031-.047.031-.078 0-.047-.031-.078-.078-.078-.078 0-.719.5-1.094 1.265-.328.672-.5 1.39-.5 2.219 0 .5.063 1.297.453 2.125.407.86 1.063 1.36 1.14 1.36.048 0 .079-.016.079-.079m0 0" style="stroke:none"/></symbol><symbol id="c" overflow="visible"><path d="M2.078-1.75c0-.578-.078-1.344-.437-2.125-.422-.86-1.063-1.36-1.157-1.36-.062 0-.078.048-.078.079s.016.047.063.093C.875-4.687 1.64-3.75 1.64-1.75c0 1-.188 2.39-1.188 3.328-.016.016-.047.047-.047.078 0 .032.016.078.078.078.094 0 .72-.5 1.094-1.265.328-.672.5-1.39.5-2.219m0 0" style="stroke:none"/></symbol><symbol id="e" overflow="visible"><path d="M4.984-4.547 5-4.53v3.984c0 .25-.016.328-.562.328H4.28V0c.422-.016.89-.016.985-.016.046 0 .562 0 1 .016v-.219h-.157c-.53 0-.546-.078-.546-.328v-3.672c0-.265.015-.328.546-.328h.157v-.219H5.094c-.14 0-.188 0-.235.125L3.297-.687 1.719-4.61c-.047-.141-.063-.157-.25-.157H.297v.22h.172c.531 0 .547.062.547.327v3.485c0 .187 0 .515-.72.515V0c.392-.016.485-.016.829-.016.328 0 .438 0 .813.016v-.219c-.704 0-.704-.328-.704-.515v-3.75l1.72 4.328c.03.094.062.156.14.156s.125-.062.14-.125zm0 0" style="stroke:none"/></symbol><symbol id="f" overflow="visible"><path d="M.438-4.547c.546 0 .546.063.546.328v3.672c0 .25 0 .328-.546.328H.28V0h2.594c1.203 0 2.203-1.031 2.203-2.344 0-1.328-.969-2.422-2.203-2.422H.281v.22zm1.5 4.328c-.329 0-.344-.047-.344-.281v-3.766c0-.234.015-.28.343-.28h.75c.672 0 1.094.343 1.282.593.312.406.422.922.422 1.61 0 .28 0 1.015-.391 1.5-.36.484-.86.624-1.297.624zm0 0" style="stroke:none"/></symbol><symbol id="g" overflow="visible"><path d="M1.578-2.922c-.547-.14-.734-.578-.734-.89 0-.47.375-.922.969-.922.89 0 1.265.672 1.359 1.375.015.14.031.172.11.172.093 0 .093-.047.093-.188v-1.36c0-.14 0-.187-.078-.187-.047 0-.063 0-.11.094-.093.125-.015.031-.25.39-.109-.14-.484-.484-1.14-.484-.813 0-1.406.64-1.406 1.344 0 .547.328.875.375.922.312.297.437.344 1.265.531.563.14.625.14.86.39.015 0 .25.266.25.673 0 .468-.344 1-.985 1-.531 0-1.5-.22-1.562-1.375 0-.11 0-.141-.094-.141-.11 0-.11.047-.11.187v1.344c0 .14 0 .203.094.203.047 0 .047-.015.11-.093.078-.125.015-.032.25-.391.422.406.984.484 1.328.484.844 0 1.406-.703 1.406-1.453a1.4 1.4 0 0 0-.312-.906c-.297-.39-.61-.469-1.063-.563Zm0 0" style="stroke:none"/></symbol><symbol id="h" overflow="visible"><path d="M4.938-1.594c.093 0 .234 0 .234-.156s-.125-.156-.234-.156h-2v-1.985c0-.125 0-.25-.157-.25-.14 0-.14.141-.14.25v1.985h-2c-.094 0-.25 0-.25.156s.14.156.25.156h2V.391c0 .125 0 .25.156.25.14 0 .14-.141.14-.25v-1.985Zm0 0" style="stroke:none"/></symbol><symbol id="b" overflow="visible"><path d="M1.375-1.75a.384.384 0 0 0-.766 0 .384.384 0 0 0 .766 0m0 0" style="stroke:none"/></symbol><symbol id="d" overflow="visible"><path d="M2.734-.656c.5-.531.61-1.094.61-1.11 0-.062-.078-.062-.078-.062-.079 0-.079.016-.11.11-.11.374-.312.687-.437.827-.016-.093-.016-.203-.016-.312-.062-.578-.5-.844-.953-.844-.719 0-1.39.625-1.39 1.266 0 .484.359.828.906.828.25 0 .656-.063 1.125-.406.078.203.234.406.515.406s.453-.219.453-.328c0-.063-.062-.063-.078-.063-.047 0-.078 0-.094.063-.046.125-.171.172-.265.172-.063 0-.156 0-.188-.547m-.375.14c-.453.36-.875.407-1.093.407-.297 0-.5-.188-.5-.516 0-.172.062-.594.265-.875a.89.89 0 0 1 .703-.406c.329 0 .5.25.563.61.031.202.031.5.062.78m0 0" style="stroke:none"/></symbol><symbol id="i" overflow="visible"><path d="M5.406-4.734c.016-.079.016-.094.016-.11 0-.015 0-.078-.078-.078-.047 0-.063.016-.11.078l-.421.469-.063.063c-.016 0-.016-.016-.062-.063-.11-.14-.422-.547-1.141-.547-1.61 0-3.188 1.547-3.188 3.14C.36-.64 1.188.157 2.313.157c.718 0 1.296-.375 1.578-.625.625-.562.75-1.172.75-1.203s-.016-.078-.094-.078-.094.031-.11.063C4.095-.562 3.095-.062 2.408-.062 1.718-.062 1-.47 1-1.532c0-.312.11-1.421.813-2.28.421-.5 1.109-.891 1.78-.891.766 0 1.188.594 1.188 1.36 0 .234-.031.28-.031.343 0 .078.094.078.11.078.093 0 .093-.015.124-.156zm0 0" style="stroke:none"/></symbol><symbol id="j" overflow="visible"><path d="M2.5-.875h-.172c0 .063-.047.375-.125.422-.031.031-.406.031-.469.031H.86l.594-.484c.156-.125.578-.422.719-.563.14-.14.328-.375.328-.703 0-.578-.516-.922-1.14-.922-.61 0-1.032.39-1.032.828 0 .235.203.266.266.266.11 0 .25-.078.25-.25a.25.25 0 0 0-.266-.25c.11-.234.39-.422.703-.422.5 0 .75.375.75.75 0 .328-.219.672-.547.969l-1.093 1C.344-.156.328-.141.328 0H2.36zm0 0" style="stroke:none"/></symbol><symbol id="m" overflow="visible"><path d="M2.297-1.047h1.5c.062 0 .187 0 .187-.125 0-.11-.125-.11-.187-.11h-1.5v-1.515c0-.062 0-.172-.125-.172s-.125.11-.125.172v1.516h-1.5c-.063 0-.172 0-.172.11 0 .124.11.124.172.124h1.5V.47c0 .062 0 .172.125.172s.125-.11.125-.172zm0 0" style="stroke:none"/></symbol><symbol id="n" overflow="visible"><path d="M1.672-2.953c0-.14-.016-.14-.156-.14-.313.296-.782.296-.953.296v.188c.125 0 .421 0 .703-.141v2.36c0 .156 0 .203-.47.203H.595V0c.25-.016.61-.016.875-.016s.625 0 .875.016v-.187h-.188c-.484 0-.484-.047-.484-.204zm0 0" style="stroke:none"/></symbol><symbol id="q" overflow="visible"><path d="M.797-2.578c.14.031.312.047.469.047.109 0 .359 0 .656-.156.078-.047.375-.235.375-.329 0-.062-.047-.078-.078-.078 0 0-.016 0-.063.016a2 2 0 0 1-.703.125c-.234 0-.484-.031-.687-.11-.047-.03-.079-.03-.094-.03-.063 0-.063.046-.063.124v1.39c0 .079 0 .141.079.141.046 0 .062-.015.093-.062a.86.86 0 0 1 .688-.297c.578 0 .578.688.578.844 0 .187-.016.437-.172.625a.7.7 0 0 1-.562.266c-.329 0-.641-.188-.75-.454.218 0 .25-.187.25-.25A.23.23 0 0 0 .578-1c-.047 0-.25.031-.25.266 0 .422.406.828 1 .828C1.968.094 2.5-.36 2.5-.937c0-.532-.422-1.016-1.031-1.016-.297 0-.532.094-.672.219zm0 0" style="stroke:none"/></symbol><symbol id="r" overflow="visible"><path d="M2.625-.766v-.171h-.547V-3c0-.11 0-.14-.11-.14-.093 0-.093.015-.14.062L.218-.938v.172h1.438v.375c0 .157 0 .204-.39.204H1.14V0c.093 0 .53-.016.734-.016s.64.016.734.016v-.187h-.14c-.39 0-.39-.047-.39-.204v-.375zM1.688-2.64v1.704H.422Zm0 0" style="stroke:none"/></symbol><symbol id="s" overflow="visible"><path d="M1.375-1.547c.39 0 .656.266.656.734 0 .516-.312.75-.64.75-.141 0-.61-.03-.828-.312C.75-.391.828-.5.828-.641a.254.254 0 0 0-.265-.265.267.267 0 0 0-.266.281c0 .469.516.719 1.094.719.703 0 1.156-.438 1.156-.906 0-.329-.266-.688-.813-.829.36-.125.657-.421.657-.796s-.438-.657-.985-.657-.968.25-.968.625c0 .203.156.266.25.266.125 0 .25-.094.25-.25 0-.14-.11-.235-.235-.25.219-.235.64-.235.688-.235.234 0 .53.11.53.5 0 .25-.14.704-.608.72-.079.015-.204.015-.25.015-.047.016-.094.016-.094.078 0 .078.047.078.125.078zm0 0" style="stroke:none"/></symbol><symbol id="k" overflow="visible"><path d="M1.625-2.906c0-.11-.094-.188-.203-.188-.125 0-.25.125-.25.266 0 .11.078.172.187.172.141 0 .266-.14.266-.25m-.281 1.625c.015-.047.062-.157.078-.203a.34.34 0 0 0 .031-.157c0-.265-.234-.406-.469-.406-.468 0-.703.61-.703.703 0 .032.016.078.094.078.063 0 .078-.03.094-.078.125-.453.375-.562.5-.562.094 0 .125.062.125.172 0 .093-.032.172-.032.203l-.25.593C.767-.812.767-.796.704-.64.641-.5.61-.437.61-.359c0 .234.22.406.47.406.484 0 .702-.61.702-.719 0-.015 0-.062-.078-.062-.062 0-.078.015-.094.109-.078.234-.265.516-.515.516-.078 0-.125-.047-.125-.172 0-.094.031-.156.094-.297Zm0 0" style="stroke:none"/></symbol><symbol id="l" overflow="visible"><path d="M2.203-.406c-.031.11-.062.265-.062.297 0 .109.078.156.156.156A.24.24 0 0 0 2.5-.078c.016-.031.047-.188.078-.281l.094-.422c.031-.125.062-.203.078-.313.047-.156.219-.406.39-.578a.77.77 0 0 1 .532-.234c.297 0 .297.25.297.328 0 .281-.188.781-.281.984-.016.078-.063.156-.063.235 0 .234.219.406.484.406.47 0 .704-.61.704-.719 0-.015-.016-.062-.094-.062-.063 0-.078.015-.094.109-.094.266-.297.516-.5.516-.062 0-.14-.032-.14-.172 0-.094.03-.172.078-.266.046-.14.28-.703.28-.969 0-.375-.28-.53-.64-.53-.25 0-.562.093-.875.483-.015-.343-.297-.484-.64-.484-.235 0-.532.063-.829.438-.015-.36-.343-.438-.515-.438-.188 0-.297.094-.39.25a1.3 1.3 0 0 0-.173.453c0 .047.047.078.094.078.063 0 .078-.03.094-.109.094-.375.203-.531.36-.531.155 0 .155.172.155.25 0 .062-.046.25-.078.39-.031.125-.078.313-.094.407A10 10 0 0 1 .72-.5c-.031.125-.094.36-.094.39 0 .11.078.157.172.157.078 0 .156-.063.187-.125a2 2 0 0 0 .079-.281l.109-.422c.031-.125.047-.203.078-.313.047-.156.203-.406.375-.578a.8.8 0 0 1 .547-.234c.297 0 .297.25.297.328 0 .11-.047.297-.078.453zm0 0" style="stroke:none"/></symbol><symbol id="o" overflow="visible"><path d="M3.406-.86c.063 0 .172 0 .172-.109 0-.11-.11-.11-.172-.11H.781c-.062 0-.156 0-.156.11s.094.11.156.11zm0 0" style="stroke:none"/></symbol><symbol id="p" overflow="visible"><path d="M1.547-2.469c0-.11-.016-.11-.14-.11-.282.25-.704.25-.782.25H.547v.173h.078c.078 0 .344-.016.563-.11v1.938c0 .11 0 .156-.407.156H.578V0c.219-.016.563-.016.781-.016.235 0 .579 0 .782.016v-.172h-.188c-.406 0-.406-.047-.406-.156zm0 0" style="stroke:none"/></symbol></defs><path d="M29.227 37.438h-14.34a2.757 2.757 0 0 0-2.758 2.758v14.336a2.757 2.757 0 0 0 2.758 2.758h14.34a2.757 2.757 0 0 0 2.753-2.758V40.196a2.757 2.757 0 0 0-2.753-2.758zm0 0" style="fill:none;stroke:#000;stroke-width:.310088;stroke-linecap:butt;stroke-linejoin:miter;stroke-miterlimit:10;stroke-opacity:1"/><use xlink:href="#a" width="100%" height="100%" x="174.93" y="380.728" style="fill:#000;fill-opacity:1" transform="translate(-158.723 -331.62)"/><use xlink:href="#b" width="100%" height="100%" x="177.713" y="380.728" style="fill:#000;fill-opacity:1" transform="translate(-158.723 -331.62)"/><use xlink:href="#c" width="100%" height="100%" x="179.702" y="380.728" style="fill:#000;fill-opacity:1" transform="translate(-158.723 -331.62)"/><use xlink:href="#d" width="100%" height="100%" x="182.498" y="377.764" style="fill:#000;fill-opacity:1" transform="translate(-158.723 -331.62)"/><path d="M29.227 59.497h-14.34a2.757 2.757 0 0 0-2.758 2.754v14.34a2.757 2.757 0 0 0 2.758 2.757h14.34a2.757 2.757 0 0 0 2.753-2.758V62.25a2.756 2.756 0 0 0-2.753-2.753zm0 0" style="fill:none;stroke:#000;stroke-width:.310088;stroke-linecap:butt;stroke-linejoin:miter;stroke-miterlimit:10;stroke-opacity:1"/><use xlink:href="#a" width="100%" height="100%" x="174.93" y="402.786" style="fill:#000;fill-opacity:1" transform="translate(-158.723 -331.62)"/><use xlink:href="#b" width="100%" height="100%" x="177.713" y="402.786" style="fill:#000;fill-opacity:1" transform="translate(-158.723 -331.62)"/><use xlink:href="#c" width="100%" height="100%" x="179.702" y="402.786" style="fill:#000;fill-opacity:1" transform="translate(-158.723 -331.62)"/><use xlink:href="#d" width="100%" height="100%" x="182.498" y="399.822" style="fill:#000;fill-opacity:1" transform="translate(-158.723 -331.62)"/><path d="M29.227 81.551h-14.34a2.757 2.757 0 0 0-2.758 2.758v14.34a2.757 2.757 0 0 0 2.758 2.754h14.34a2.756 2.756 0 0 0 2.753-2.754v-14.34a2.757 2.757 0 0 0-2.753-2.758zm0 0" style="fill:none;stroke:#000;stroke-width:.310088;stroke-linecap:butt;stroke-linejoin:miter;stroke-miterlimit:10;stroke-opacity:1"/><use xlink:href="#a" width="100%" height="100%" x="174.93" y="424.843" style="fill:#000;fill-opacity:1" transform="translate(-158.723 -331.62)"/><use xlink:href="#b" width="100%" height="100%" x="177.713" y="424.843" style="fill:#000;fill-opacity:1" transform="translate(-158.723 -331.62)"/><use xlink:href="#c" width="100%" height="100%" x="179.702" y="424.843" style="fill:#000;fill-opacity:1" transform="translate(-158.723 -331.62)"/><use xlink:href="#d" width="100%" height="100%" x="182.498" y="421.879" style="fill:#000;fill-opacity:1" transform="translate(-158.723 -331.62)"/><path d="M62.793 25.305h-15.3a2.757 2.757 0 0 0-2.759 2.758v82.715a2.757 2.757 0 0 0 2.758 2.758h15.301a2.757 2.757 0 0 0 2.758-2.758V28.063a2.757 2.757 0 0 0-2.758-2.758zm0 0" style="fill:none;stroke:#000;stroke-width:.310088;stroke-linecap:butt;stroke-linejoin:miter;stroke-miterlimit:10;stroke-opacity:1"/><g style="fill:#000;fill-opacity:1" transform="translate(-158.723 -331.62)"><use xlink:href="#e" width="100%" height="100%" x="205.848" y="403.425"/><use xlink:href="#f" width="100%" height="100%" x="212.413" y="403.425"/><use xlink:href="#g" width="100%" height="100%" x="217.891" y="403.425"/></g><path d="M32.137 47.364h11.62" style="fill:none;stroke:#000;stroke-width:.310088;stroke-linecap:butt;stroke-linejoin:miter;stroke-miterlimit:10;stroke-opacity:1"/><path d="M42.828 46.122c.078.465.93 1.164 1.16 1.242-.23.078-1.082.773-1.16 1.238" style="fill:none;stroke:#000;stroke-width:.248063;stroke-linecap:round;stroke-linejoin:round;stroke-miterlimit:10;stroke-opacity:1"/><path d="M32.137 69.422h11.62" style="fill:none;stroke:#000;stroke-width:.310088;stroke-linecap:butt;stroke-linejoin:miter;stroke-miterlimit:10;stroke-opacity:1"/><path d="M42.828 68.18c.078.465.93 1.164 1.16 1.242-.23.075-1.082.774-1.16 1.239" style="fill:none;stroke:#000;stroke-width:.248063;stroke-linecap:round;stroke-linejoin:round;stroke-miterlimit:10;stroke-opacity:1"/><path d="M32.137 91.477h11.62" style="fill:none;stroke:#000;stroke-width:.310088;stroke-linecap:butt;stroke-linejoin:miter;stroke-miterlimit:10;stroke-opacity:1"/><path d="M42.828 90.239c.078.465.93 1.164 1.16 1.238-.23.078-1.082.777-1.16 1.242" style="fill:none;stroke:#000;stroke-width:.248063;stroke-linecap:round;stroke-linejoin:round;stroke-miterlimit:10;stroke-opacity:1"/><path d="M11.617 47.364H0" style="fill:none;stroke:#000;stroke-width:.310088;stroke-linecap:butt;stroke-linejoin:miter;stroke-miterlimit:10;stroke-opacity:1"/><path d="M10.688 46.122c.078.465.93 1.164 1.164 1.242-.235.078-1.086.773-1.165 1.238" style="fill:none;stroke:#000;stroke-width:.248063;stroke-linecap:round;stroke-linejoin:round;stroke-miterlimit:10;stroke-opacity:1"/><path d="M11.617 69.422H0" style="fill:none;stroke:#000;stroke-width:.310088;stroke-linecap:butt;stroke-linejoin:miter;stroke-miterlimit:10;stroke-opacity:1"/><path d="M10.688 68.18c.078.465.93 1.164 1.164 1.242-.235.075-1.086.774-1.165 1.239" style="fill:none;stroke:#000;stroke-width:.248063;stroke-linecap:round;stroke-linejoin:round;stroke-miterlimit:10;stroke-opacity:1"/><path d="M11.617 91.477H0" style="fill:none;stroke:#000;stroke-width:.310088;stroke-linecap:butt;stroke-linejoin:miter;stroke-miterlimit:10;stroke-opacity:1"/><path d="M10.688 90.239c.078.465.93 1.164 1.164 1.238-.235.078-1.086.777-1.165 1.242" style="fill:none;stroke:#000;stroke-width:.248063;stroke-linecap:round;stroke-linejoin:round;stroke-miterlimit:10;stroke-opacity:1"/><path d="M128.367 47.364a7.05 7.05 0 0 0-7.05-7.05 7.05 7.05 0 0 0-7.051 7.05 7.05 7.05 0 0 0 7.05 7.05 7.05 7.05 0 0 0 7.051-7.05zm0 0" style="fill:none;stroke:#000;stroke-width:.310088;stroke-linecap:butt;stroke-linejoin:miter;stroke-miterlimit:10;stroke-opacity:1"/><use xlink:href="#h" width="100%" height="100%" x="277.248" y="380.728" style="fill:#000;fill-opacity:1" transform="translate(-158.723 -331.62)"/><path d="M128.367 69.422a7.053 7.053 0 0 0-7.05-7.054 7.053 7.053 0 0 0 0 14.105 7.05 7.05 0 0 0 7.05-7.05zm0 0" style="fill:none;stroke:#000;stroke-width:.310088;stroke-linecap:butt;stroke-linejoin:miter;stroke-miterlimit:10;stroke-opacity:1"/><use xlink:href="#h" width="100%" height="100%" x="277.248" y="402.786" style="fill:#000;fill-opacity:1" transform="translate(-158.723 -331.62)"/><path d="M128.367 91.477a7.05 7.05 0 0 0-7.05-7.05 7.053 7.053 0 0 0 0 14.105c3.894 0 7.05-3.16 7.05-7.055zm0 0" style="fill:none;stroke:#000;stroke-width:.310088;stroke-linecap:butt;stroke-linejoin:miter;stroke-miterlimit:10;stroke-opacity:1"/><use xlink:href="#h" width="100%" height="100%" x="277.248" y="424.843" style="fill:#000;fill-opacity:1" transform="translate(-158.723 -331.62)"/><path d="M66.172 47.364h47.582" style="fill:none;stroke:#000;stroke-width:.310088;stroke-linecap:butt;stroke-linejoin:miter;stroke-miterlimit:10;stroke-opacity:1"/><path d="M112.824 46.122c.074.465.93 1.164 1.16 1.242-.23.078-1.086.773-1.16 1.238" style="fill:none;stroke:#000;stroke-width:.248063;stroke-linecap:round;stroke-linejoin:round;stroke-miterlimit:10;stroke-opacity:1"/><path d="M66.172 69.422h47.582" style="fill:none;stroke:#000;stroke-width:.310088;stroke-linecap:butt;stroke-linejoin:miter;stroke-miterlimit:10;stroke-opacity:1"/><path d="M112.824 68.18c.074.465.93 1.164 1.16 1.242-.23.075-1.086.774-1.16 1.239" style="fill:none;stroke:#000;stroke-width:.248063;stroke-linecap:round;stroke-linejoin:round;stroke-miterlimit:10;stroke-opacity:1"/><path d="M66.172 91.477h47.582" style="fill:none;stroke:#000;stroke-width:.310088;stroke-linecap:butt;stroke-linejoin:miter;stroke-miterlimit:10;stroke-opacity:1"/><path d="M112.824 90.239c.074.465.93 1.164 1.16 1.238-.23.078-1.086.777-1.16 1.242" style="fill:none;stroke:#000;stroke-width:.248063;stroke-linecap:round;stroke-linejoin:round;stroke-miterlimit:10;stroke-opacity:1"/><use xlink:href="#i" width="100%" height="100%" x="272.283" y="336.865" style="fill:#000;fill-opacity:1" transform="translate(-158.723 -331.62)"/><use xlink:href="#j" width="100%" height="100%" x="277.402" y="337.64" style="fill:#000;fill-opacity:1" transform="translate(-158.723 -331.62)"/><g style="fill:#000;fill-opacity:1" transform="translate(-158.723 -331.62)"><use xlink:href="#k" width="100%" height="100%" x="280.244" y="337.64"/><use xlink:href="#l" width="100%" height="100%" x="282.314" y="337.64"/></g><use xlink:href="#i" width="100%" height="100%" x="246.629" y="342.057" style="fill:#000;fill-opacity:1" transform="translate(-158.723 -331.62)"/><use xlink:href="#j" width="100%" height="100%" x="251.748" y="342.832" style="fill:#000;fill-opacity:1" transform="translate(-158.723 -331.62)"/><g style="fill:#000;fill-opacity:1" transform="translate(-158.723 -331.62)"><use xlink:href="#k" width="100%" height="100%" x="254.59" y="342.832"/><use xlink:href="#l" width="100%" height="100%" x="256.66" y="342.832"/></g><g style="fill:#000;fill-opacity:1" transform="translate(-158.723 -331.62)"><use xlink:href="#m" width="100%" height="100%" x="261.744" y="342.832"/><use xlink:href="#n" width="100%" height="100%" x="266.093" y="342.832"/></g><use xlink:href="#i" width="100%" height="100%" x="224.572" y="347.571" style="fill:#000;fill-opacity:1" transform="translate(-158.723 -331.62)"/><use xlink:href="#j" width="100%" height="100%" x="229.69" y="348.346" style="fill:#000;fill-opacity:1" transform="translate(-158.723 -331.62)"/><g style="fill:#000;fill-opacity:1" transform="translate(-158.723 -331.62)"><use xlink:href="#k" width="100%" height="100%" x="232.532" y="348.346"/><use xlink:href="#l" width="100%" height="100%" x="234.602" y="348.346"/></g><g style="fill:#000;fill-opacity:1" transform="translate(-158.723 -331.62)"><use xlink:href="#m" width="100%" height="100%" x="239.686" y="348.346"/><use xlink:href="#j" width="100%" height="100%" x="244.035" y="348.346"/></g><path d="M121.316 8.563v31.238" style="fill:none;stroke:#000;stroke-width:.310088;stroke-linecap:butt;stroke-linejoin:miter;stroke-miterlimit:10;stroke-opacity:1"/><path d="M122.555 38.868c-.465.078-1.16.933-1.239 1.164-.078-.23-.777-1.086-1.242-1.164" style="fill:none;stroke:#000;stroke-width:.248063;stroke-linecap:round;stroke-linejoin:round;stroke-miterlimit:10;stroke-opacity:1"/><path d="M99.258 14.403c0 10.902 0 32.96 16.71 49.672" style="fill:none;stroke:#000;stroke-width:.310088;stroke-linecap:butt;stroke-linejoin:miter;stroke-miterlimit:10;stroke-opacity:1"/><path d="M116.188 62.54c-.274.382-.165 1.476-.055 1.699-.219-.11-1.317-.223-1.7.055" style="fill:none;stroke:#000;stroke-width:.24806;stroke-linecap:round;stroke-linejoin:round;stroke-miterlimit:10;stroke-opacity:1"/><path d="M77.2 19.915c0 27.449 22.058 49.507 38.769 66.214" style="fill:none;stroke:#000;stroke-width:.310088;stroke-linecap:butt;stroke-linejoin:miter;stroke-miterlimit:10;stroke-opacity:1"/><path d="M116.188 84.594c-.274.387-.165 1.48-.055 1.7-.219-.11-1.317-.22-1.7.054" style="fill:none;stroke:#000;stroke-width:.24806;stroke-linecap:round;stroke-linejoin:round;stroke-miterlimit:10;stroke-opacity:1"/><path d="M163.496 37.438H145.31a2.757 2.757 0 0 0-2.758 2.758v14.336a2.757 2.757 0 0 0 2.758 2.758h18.187a2.757 2.757 0 0 0 2.758-2.758V40.196a2.757 2.757 0 0 0-2.758-2.758zm0 0" style="fill:none;stroke:#000;stroke-width:.310088;stroke-linecap:butt;stroke-linejoin:miter;stroke-miterlimit:10;stroke-opacity:1"/><use xlink:href="#a" width="100%" height="100%" x="303.662" y="381.862" style="fill:#000;fill-opacity:1" transform="translate(-158.723 -331.62)"/><use xlink:href="#b" width="100%" height="100%" x="306.445" y="381.862" style="fill:#000;fill-opacity:1" transform="translate(-158.723 -331.62)"/><use xlink:href="#c" width="100%" height="100%" x="308.434" y="381.862" style="fill:#000;fill-opacity:1" transform="translate(-158.723 -331.62)"/><use xlink:href="#d" width="100%" height="100%" x="311.231" y="378.898" style="fill:#000;fill-opacity:1" transform="translate(-158.723 -331.62)"/><use xlink:href="#o" width="100%" height="100%" x="314.973" y="376.946" style="fill:#000;fill-opacity:1" transform="translate(-158.723 -331.62)"/><use xlink:href="#p" width="100%" height="100%" x="319.17" y="376.946" style="fill:#000;fill-opacity:1" transform="translate(-158.723 -331.62)"/><path d="M163.496 59.497H145.31a2.757 2.757 0 0 0-2.758 2.754v14.34a2.757 2.757 0 0 0 2.758 2.757h18.187a2.757 2.757 0 0 0 2.758-2.758V62.25a2.757 2.757 0 0 0-2.758-2.753zm0 0" style="fill:none;stroke:#000;stroke-width:.310088;stroke-linecap:butt;stroke-linejoin:miter;stroke-miterlimit:10;stroke-opacity:1"/><use xlink:href="#a" width="100%" height="100%" x="303.662" y="403.919" style="fill:#000;fill-opacity:1" transform="translate(-158.723 -331.62)"/><use xlink:href="#b" width="100%" height="100%" x="306.445" y="403.919" style="fill:#000;fill-opacity:1" transform="translate(-158.723 -331.62)"/><use xlink:href="#c" width="100%" height="100%" x="308.434" y="403.919" style="fill:#000;fill-opacity:1" transform="translate(-158.723 -331.62)"/><use xlink:href="#d" width="100%" height="100%" x="311.231" y="400.955" style="fill:#000;fill-opacity:1" transform="translate(-158.723 -331.62)"/><use xlink:href="#o" width="100%" height="100%" x="314.973" y="399.004" style="fill:#000;fill-opacity:1" transform="translate(-158.723 -331.62)"/><use xlink:href="#p" width="100%" height="100%" x="319.17" y="399.004" style="fill:#000;fill-opacity:1" transform="translate(-158.723 -331.62)"/><path d="M163.496 81.551H145.31a2.757 2.757 0 0 0-2.758 2.758v14.34a2.757 2.757 0 0 0 2.758 2.754h18.187a2.757 2.757 0 0 0 2.758-2.754v-14.34a2.757 2.757 0 0 0-2.758-2.758zm0 0" style="fill:none;stroke:#000;stroke-width:.310088;stroke-linecap:butt;stroke-linejoin:miter;stroke-miterlimit:10;stroke-opacity:1"/><use xlink:href="#a" width="100%" height="100%" x="303.662" y="425.977" style="fill:#000;fill-opacity:1" transform="translate(-158.723 -331.62)"/><use xlink:href="#b" width="100%" height="100%" x="306.445" y="425.977" style="fill:#000;fill-opacity:1" transform="translate(-158.723 -331.62)"/><use xlink:href="#c" width="100%" height="100%" x="308.434" y="425.977" style="fill:#000;fill-opacity:1" transform="translate(-158.723 -331.62)"/><use xlink:href="#d" width="100%" height="100%" x="311.231" y="423.013" style="fill:#000;fill-opacity:1" transform="translate(-158.723 -331.62)"/><use xlink:href="#o" width="100%" height="100%" x="314.973" y="421.061" style="fill:#000;fill-opacity:1" transform="translate(-158.723 -331.62)"/><use xlink:href="#p" width="100%" height="100%" x="319.17" y="421.061" style="fill:#000;fill-opacity:1" transform="translate(-158.723 -331.62)"/><path d="M128.523 47.364h13.516" style="fill:none;stroke:#000;stroke-width:.310088;stroke-linecap:butt;stroke-linejoin:miter;stroke-miterlimit:10;stroke-opacity:1"/><path d="M141.11 46.122c.077.465.93 1.164 1.163 1.242-.234.078-1.085.773-1.164 1.238" style="fill:none;stroke:#000;stroke-width:.248063;stroke-linecap:round;stroke-linejoin:round;stroke-miterlimit:10;stroke-opacity:1"/><path d="M128.523 69.422h13.516" style="fill:none;stroke:#000;stroke-width:.310088;stroke-linecap:butt;stroke-linejoin:miter;stroke-miterlimit:10;stroke-opacity:1"/><path d="M141.11 68.18c.077.465.93 1.164 1.163 1.242-.234.075-1.085.774-1.164 1.239" style="fill:none;stroke:#000;stroke-width:.248063;stroke-linecap:round;stroke-linejoin:round;stroke-miterlimit:10;stroke-opacity:1"/><path d="M128.523 91.477h13.516" style="fill:none;stroke:#000;stroke-width:.310088;stroke-linecap:butt;stroke-linejoin:miter;stroke-miterlimit:10;stroke-opacity:1"/><path d="M141.11 90.239c.077.465.93 1.164 1.163 1.238-.234.078-1.085.777-1.164 1.242" style="fill:none;stroke:#000;stroke-width:.248063;stroke-linecap:round;stroke-linejoin:round;stroke-miterlimit:10;stroke-opacity:1"/><path d="M195.14 25.305h-15.3a2.757 2.757 0 0 0-2.758 2.758v82.715a2.757 2.757 0 0 0 2.758 2.758h15.3a2.757 2.757 0 0 0 2.755-2.758V28.063a2.757 2.757 0 0 0-2.754-2.758zm0 0" style="fill:none;stroke:#000;stroke-width:.310088;stroke-linecap:butt;stroke-linejoin:miter;stroke-miterlimit:10;stroke-opacity:1"/><g style="fill:#000;fill-opacity:1" transform="translate(-158.723 -331.62)"><use xlink:href="#e" width="100%" height="100%" x="338.193" y="403.426"/><use xlink:href="#f" width="100%" height="100%" x="344.758" y="403.426"/><use xlink:href="#g" width="100%" height="100%" x="350.235" y="403.426"/></g><path d="M166.41 47.364h9.695" style="fill:none;stroke:#000;stroke-width:.310088;stroke-linecap:butt;stroke-linejoin:miter;stroke-miterlimit:10;stroke-opacity:1"/><path d="M175.172 46.122c.078.465.933 1.164 1.164 1.242-.23.078-1.086.773-1.164 1.238" style="fill:none;stroke:#000;stroke-width:.248063;stroke-linecap:round;stroke-linejoin:round;stroke-miterlimit:10;stroke-opacity:1"/><path d="M166.41 69.422h9.695" style="fill:none;stroke:#000;stroke-width:.310088;stroke-linecap:butt;stroke-linejoin:miter;stroke-miterlimit:10;stroke-opacity:1"/><path d="M175.172 68.18c.078.465.933 1.164 1.164 1.242-.23.075-1.086.774-1.164 1.239" style="fill:none;stroke:#000;stroke-width:.248063;stroke-linecap:round;stroke-linejoin:round;stroke-miterlimit:10;stroke-opacity:1"/><path d="M166.41 91.477h9.695" style="fill:none;stroke:#000;stroke-width:.310088;stroke-linecap:butt;stroke-linejoin:miter;stroke-miterlimit:10;stroke-opacity:1"/><path d="M175.172 90.239c.078.465.933 1.164 1.164 1.238-.23.078-1.086.777-1.164 1.242" style="fill:none;stroke:#000;stroke-width:.248063;stroke-linecap:round;stroke-linejoin:round;stroke-miterlimit:10;stroke-opacity:1"/><use xlink:href="#i" width="100%" height="100%" x="356.917" y="347.571" style="fill:#000;fill-opacity:1" transform="translate(-158.723 -331.62)"/><use xlink:href="#j" width="100%" height="100%" x="362.035" y="348.346" style="fill:#000;fill-opacity:1" transform="translate(-158.723 -331.62)"/><g style="fill:#000;fill-opacity:1" transform="translate(-158.723 -331.62)"><use xlink:href="#k" width="100%" height="100%" x="364.877" y="348.346"/><use xlink:href="#l" width="100%" height="100%" x="366.947" y="348.346"/></g><g style="fill:#000;fill-opacity:1" transform="translate(-158.723 -331.62)"><use xlink:href="#m" width="100%" height="100%" x="372.031" y="348.346"/><use xlink:href="#q" width="100%" height="100%" x="376.38" y="348.346"/></g><use xlink:href="#i" width="100%" height="100%" x="378.974" y="342.057" style="fill:#000;fill-opacity:1" transform="translate(-158.723 -331.62)"/><use xlink:href="#j" width="100%" height="100%" x="384.092" y="342.832" style="fill:#000;fill-opacity:1" transform="translate(-158.723 -331.62)"/><g style="fill:#000;fill-opacity:1" transform="translate(-158.723 -331.62)"><use xlink:href="#k" width="100%" height="100%" x="386.934" y="342.832"/><use xlink:href="#l" width="100%" height="100%" x="389.004" y="342.832"/></g><g style="fill:#000;fill-opacity:1" transform="translate(-158.723 -331.62)"><use xlink:href="#m" width="100%" height="100%" x="394.088" y="342.832"/><use xlink:href="#r" width="100%" height="100%" x="398.437" y="342.832"/></g><use xlink:href="#i" width="100%" height="100%" x="401.032" y="336.542" style="fill:#000;fill-opacity:1" transform="translate(-158.723 -331.62)"/><use xlink:href="#j" width="100%" height="100%" x="406.15" y="337.317" style="fill:#000;fill-opacity:1" transform="translate(-158.723 -331.62)"/><g style="fill:#000;fill-opacity:1" transform="translate(-158.723 -331.62)"><use xlink:href="#k" width="100%" height="100%" x="408.992" y="337.317"/><use xlink:href="#l" width="100%" height="100%" x="411.062" y="337.317"/></g><g style="fill:#000;fill-opacity:1" transform="translate(-158.723 -331.62)"><use xlink:href="#m" width="100%" height="100%" x="416.146" y="337.317"/><use xlink:href="#s" width="100%" height="100%" x="420.495" y="337.317"/></g><path d="M260.715 47.364a7.053 7.053 0 0 0-14.105 0 7.053 7.053 0 0 0 14.105 0zm0 0" style="fill:none;stroke:#000;stroke-width:.310088;stroke-linecap:butt;stroke-linejoin:miter;stroke-miterlimit:10;stroke-opacity:1"/><use xlink:href="#h" width="100%" height="100%" x="409.593" y="380.728" style="fill:#000;fill-opacity:1" transform="translate(-158.723 -331.62)"/><path d="M260.715 69.422a7.053 7.053 0 1 0-14.107-.002 7.053 7.053 0 0 0 14.107.002zm0 0" style="fill:none;stroke:#000;stroke-width:.310088;stroke-linecap:butt;stroke-linejoin:miter;stroke-miterlimit:10;stroke-opacity:1"/><use xlink:href="#h" width="100%" height="100%" x="409.593" y="402.786" style="fill:#000;fill-opacity:1" transform="translate(-158.723 -331.62)"/><path d="M260.715 91.477a7.053 7.053 0 1 0-14.104.005 7.053 7.053 0 0 0 14.104-.005zm0 0" style="fill:none;stroke:#000;stroke-width:.310088;stroke-linecap:butt;stroke-linejoin:miter;stroke-miterlimit:10;stroke-opacity:1"/><use xlink:href="#h" width="100%" height="100%" x="409.593" y="424.843" style="fill:#000;fill-opacity:1" transform="translate(-158.723 -331.62)"/><path d="M253.664 8.887v30.914" style="fill:none;stroke:#000;stroke-width:.310088;stroke-linecap:butt;stroke-linejoin:miter;stroke-miterlimit:10;stroke-opacity:1"/><path d="M254.902 38.868c-.464.078-1.164.933-1.238 1.164-.078-.23-.777-1.086-1.242-1.164" style="fill:none;stroke:#000;stroke-width:.248063;stroke-linecap:round;stroke-linejoin:round;stroke-miterlimit:10;stroke-opacity:1"/><path d="M231.605 14.403c0 10.902 0 32.96 16.708 49.672" style="fill:none;stroke:#000;stroke-width:.310088;stroke-linecap:butt;stroke-linejoin:miter;stroke-miterlimit:10;stroke-opacity:1"/><path d="M248.535 62.54c-.277.382-.164 1.476-.055 1.699-.222-.11-1.316-.223-1.699.055" style="fill:none;stroke:#000;stroke-width:.24806;stroke-linecap:round;stroke-linejoin:round;stroke-miterlimit:10;stroke-opacity:1"/><path d="M209.547 19.915c0 27.449 22.058 49.507 38.766 66.214" style="fill:none;stroke:#000;stroke-width:.310088;stroke-linecap:butt;stroke-linejoin:miter;stroke-miterlimit:10;stroke-opacity:1"/><path d="M248.535 84.594c-.277.387-.164 1.48-.055 1.7-.222-.11-1.316-.22-1.699.054" style="fill:none;stroke:#000;stroke-width:.24806;stroke-linecap:round;stroke-linejoin:round;stroke-miterlimit:10;stroke-opacity:1"/><path d="M198.52 47.364h47.578" style="fill:none;stroke:#000;stroke-width:.310088;stroke-linecap:butt;stroke-linejoin:miter;stroke-miterlimit:10;stroke-opacity:1"/><path d="M245.168 46.122c.078.465.93 1.164 1.164 1.242-.234.078-1.086.773-1.164 1.238" style="fill:none;stroke:#000;stroke-width:.248063;stroke-linecap:round;stroke-linejoin:round;stroke-miterlimit:10;stroke-opacity:1"/><path d="M198.52 69.422h47.578" style="fill:none;stroke:#000;stroke-width:.310088;stroke-linecap:butt;stroke-linejoin:miter;stroke-miterlimit:10;stroke-opacity:1"/><path d="M245.168 68.18c.078.465.93 1.164 1.164 1.242-.234.075-1.086.774-1.164 1.239" style="fill:none;stroke:#000;stroke-width:.248063;stroke-linecap:round;stroke-linejoin:round;stroke-miterlimit:10;stroke-opacity:1"/><path d="M198.52 91.477h47.578" style="fill:none;stroke:#000;stroke-width:.310088;stroke-linecap:butt;stroke-linejoin:miter;stroke-miterlimit:10;stroke-opacity:1"/><path d="M245.168 90.239c.078.465.93 1.164 1.164 1.238-.234.078-1.086.777-1.164 1.242" style="fill:none;stroke:#000;stroke-width:.248063;stroke-linecap:round;stroke-linejoin:round;stroke-miterlimit:10;stroke-opacity:1"/><path d="M260.871 47.364h14.492" style="fill:none;stroke:#000;stroke-width:.310088;stroke-linecap:butt;stroke-linejoin:miter;stroke-miterlimit:10;stroke-opacity:1"/><path d="M274.434 46.122c.078.465.93 1.164 1.164 1.242-.235.078-1.086.773-1.164 1.238" style="fill:none;stroke:#000;stroke-width:.248063;stroke-linecap:round;stroke-linejoin:round;stroke-miterlimit:10;stroke-opacity:1"/><path d="M260.871 69.422h14.492" style="fill:none;stroke:#000;stroke-width:.310088;stroke-linecap:butt;stroke-linejoin:miter;stroke-miterlimit:10;stroke-opacity:1"/><path d="M274.434 68.18c.078.465.93 1.164 1.164 1.242-.235.075-1.086.774-1.164 1.239" style="fill:none;stroke:#000;stroke-width:.248063;stroke-linecap:round;stroke-linejoin:round;stroke-miterlimit:10;stroke-opacity:1"/><path d="M260.871 91.477h14.492" style="fill:none;stroke:#000;stroke-width:.310088;stroke-linecap:butt;stroke-linejoin:miter;stroke-miterlimit:10;stroke-opacity:1"/><path d="M274.434 90.239c.078.465.93 1.164 1.164 1.238-.235.078-1.086.777-1.164 1.242" style="fill:none;stroke:#000;stroke-width:.248063;stroke-linecap:round;stroke-linejoin:round;stroke-miterlimit:10;stroke-opacity:1"/></svg>