<svg xmlns="http://www.w3.org/2000/svg" xmlns:xlink="http://www.w3.org/1999/xlink" width="483.781" height="362.833" viewBox="0 0 362.836 272.125"><defs><symbol id="b" overflow="visible" style="overflow:visible"><path d="M7.156-7.297c-1.031-.594-1.625-.75-2.687-.75-2.422 0-3.844 2.11-3.844 4.172C.625-1.703 2.219.188 4.391.188A4.88 4.88 0 0 0 7.25-.703l-.11-1.172a4.28 4.28 0 0 1-2.718.953c-1.453 0-2.438-1.265-2.438-2.969 0-1.359.657-3.03 2.5-3.03.907 0 1.5.124 2.47.765zm0 0" style="stroke:none"/></symbol><symbol id="c" overflow="visible" style="overflow:visible"><path d="M8.188-3.844c0-2.328-1.75-4.203-3.829-4.203-2.14 0-3.828 1.922-3.828 4.203C.531-1.53 2.297.187 4.344.187c2.093 0 3.843-1.765 3.843-4.03M4.344-.922c-1.203 0-2.453-.984-2.453-3.094s1.328-2.968 2.453-2.968c1.218 0 2.484.906 2.484 2.968 0 2.063-1.187 3.094-2.484 3.094m0 0" style="stroke:none"/></symbol><symbol id="d" overflow="visible" style="overflow:visible"><path d="M12.438-5.203c0-1.172-.266-2.734-2.391-2.734-1.047 0-1.953.484-2.594 1.421C7-7.844 5.781-7.937 5.22-7.937c-1.25 0-2.078.718-2.547 1.343v-1.265H1.406V0h1.375v-4.281c0-1.188.469-2.594 1.75-2.594 1.625 0 1.719 1.14 1.719 1.797V0h1.36v-4.281c0-1.188.468-2.594 1.765-2.594 1.625 0 1.703 1.14 1.703 1.797V0h1.36Zm0 0" style="stroke:none"/></symbol><symbol id="e" overflow="visible" style="overflow:visible"><path d="M2.797-.797c.531.5 1.297.985 2.36.985 1.687 0 3.218-1.704 3.218-4.079 0-2.093-1.094-4.046-2.766-4.046a4.44 4.44 0 0 0-2.875 1.046v-.859H1.438V3.39h1.359zm0-5.015c.422-.61 1.094-1.016 1.844-1.016 1.328 0 2.375 1.328 2.375 2.937 0 1.797-1.235 3.016-2.547 3.016-.688 0-1.157-.344-1.5-.812-.172-.266-.172-.297-.172-.61Zm0 0" style="stroke:none"/></symbol><symbol id="f" overflow="visible" style="overflow:visible"><path d="M7.594-7.75h-1.36v5.063c0 1.312-.984 1.921-2.093 1.921-1.25 0-1.36-.453-1.36-1.203V-7.75H1.406v5.844c0 1.265.407 2.093 1.86 2.093.922 0 2.156-.28 3.015-1.03V0h1.313zm0 0" style="stroke:none"/></symbol><symbol id="g" overflow="visible" style="overflow:visible"><path d="M3.047-6.734h2.469V-7.75h-2.47v-2.219H1.845v2.219H.328v1.016h1.469v4.656c0 1.047.25 2.266 1.453 2.266 1.219 0 2.11-.438 2.547-.657L5.516-1.5c-.453.36-1.016.578-1.578.578-.641 0-.891-.531-.891-1.453zm0 0" style="stroke:none"/></symbol><symbol id="h" overflow="visible" style="overflow:visible"><path d="M6.969-5.047c0-1.781-1.282-3-2.89-3-1.126 0-1.907.281-2.735.75l.11 1.156c.905-.656 1.78-.875 2.624-.875.828 0 1.531.704 1.531 1.985v.75C2.984-4.234.766-3.516.766-1.97c0 .75.468 2.157 1.984 2.157.25 0 1.89-.032 2.906-.813V0H6.97zm-1.36 2.75c0 .328 0 .766-.593 1.094-.516.312-1.172.328-1.375.328-.828 0-1.61-.406-1.61-1.125 0-1.234 2.828-1.344 3.578-1.39zm0 0" style="stroke:none"/></symbol><symbol id="i" overflow="visible" style="overflow:visible"><path d="M2.844-11.875H1.297v1.563h1.547ZM2.719-7.75H1.406V0H2.72zm0 0" style="stroke:none"/></symbol><symbol id="j" overflow="visible" style="overflow:visible"><path d="M7.594-5.203c0-1.156-.266-2.734-2.39-2.734-1.579 0-2.423 1.187-2.532 1.328v-1.25H1.406V0h1.375v-4.281c0-1.14.438-2.594 1.75-2.594 1.688 0 1.703 1.234 1.703 1.797V0h1.36Zm0 0" style="stroke:none"/></symbol><symbol id="U" overflow="visible" style="overflow:visible"><path d="M8.469-5.5v-1.062H3.188v-4.375h2.296c.204 0 .422.015.625.015h3.079v-1.14H1.64V0h1.547v-5.5zm0 0" style="stroke:none"/></symbol><symbol id="V" overflow="visible" style="overflow:visible"><path d="M7.313-5.687C9.109-6.22 10.28-7.453 10.28-8.86c0-1.735-1.906-3.25-4.406-3.25H1.672V0h1.5v-5.531h2.766L9.218 0h1.548zm-4.141-.907v-4.547h2.516c2.03 0 3.171 1.032 3.171 2.282 0 1.234-1.109 2.265-3.171 2.265Zm0 0" style="stroke:none"/></symbol><symbol id="W" overflow="visible" style="overflow:visible"><path d="M3.188-12.11H1.64V0h1.547Zm0 0" style="stroke:none"/></symbol><symbol id="k" overflow="visible" style="overflow:visible"><path d="M7.453-10.594c.125-.484.188-.594.406-.64.157-.047.735-.047 1.094-.047 1.766 0 2.547.078 2.547 1.437 0 .266-.062.938-.14 1.39a3 3 0 0 0-.047.345c0 .093.046.218.203.218.203 0 .234-.14.265-.406l.469-3.031c.016-.063.031-.25.031-.297 0-.187-.172-.187-.468-.187H2.125c-.422 0-.437.015-.547.343L.531-8.39c-.031.032-.11.282-.11.313 0 .11.079.187.204.187.172 0 .188-.078.297-.359.953-2.703 1.406-3.031 3.984-3.031h.672c.5 0 .5.078.5.219 0 .109-.062.312-.078.359L3.672-1.375c-.156.64-.219.828-2.078.828-.64 0-.735 0-.735.344C.86 0 1.047 0 1.156 0c.469 0 .953-.031 1.422-.031.5 0 1-.016 1.485-.016.5 0 .984.016 1.453.016.5 0 1.03.031 1.515.031.172 0 .39 0 .39-.344 0-.203-.14-.203-.593-.203-.437 0-.672 0-1.125-.031-.5-.047-.64-.11-.64-.375 0-.031 0-.11.062-.375zm0 0" style="stroke:none"/></symbol><symbol id="M" overflow="visible" style="overflow:visible"><path d="M8.469-7.172 7-10.64c-.047-.14-.094-.218-.094-.234 0-.11.297-.437 1.032-.5.171-.016.359-.047.359-.344 0-.203-.219-.203-.266-.203-.719 0-1.469.047-2.203.047-.437 0-1.516-.047-1.953-.047-.11 0-.312 0-.312.344 0 .203.171.203.406.203 1.047 0 1.14.172 1.297.547l2.062 4.875-3.687 3.969-.22.187C2.564-.875 1.75-.594.86-.547.625-.53.47-.53.47-.187.47-.172.47 0 .704 0c.516 0 1.094-.047 1.64-.047.641 0 1.329.047 1.954.047.094 0 .312 0 .312-.344 0-.187-.171-.203-.218-.203-.157-.015-.688-.047-.688-.531 0-.281.266-.563.469-.797l1.78-1.875 1.563-1.719L9.28-1.297c.078.203.094.219.094.25 0 .14-.328.438-1.016.5-.187.016-.343.047-.343.344 0 .203.187.203.25.203.5 0 1.718-.047 2.203-.047.437 0 1.5.047 1.937.047.125 0 .328 0 .328-.328 0-.219-.171-.219-.312-.219-1.172-.015-1.203-.062-1.5-.765-.672-1.625-1.844-4.344-2.25-5.391C9.859-7.922 11.687-10 12.25-10.484c.516-.422 1.172-.844 2.219-.891.234-.016.39-.016.39-.36 0-.015 0-.187-.234-.187-.516 0-1.094.047-1.64.047-.641 0-1.313-.047-1.938-.047-.11 0-.328 0-.328.344 0 .125.078.187.203.203.156.016.703.047.703.531 0 .25-.187.469-.328.64zm0 0" style="stroke:none"/></symbol><symbol id="l" overflow="visible" style="overflow:visible"><path d="M4.031-2.562c.032-.126.032-.204.032-.313 0-.64-.422-1.156-1.157-1.156-.64 0-1.078.187-1.453.375-.031.265-.062.547-.078.578.406-.25.86-.438 1.406-.438.547 0 .594.547.594.688 0 .156-.094.656-.125.672a1 1 0 0 1-.203.031C2.407-2.109.563-1.937.563-.75c0 .14.046.844.796.844.235 0 .97-.047 1.532-.406-.016.078-.047.25-.063.312h.656zm-.984 1.421c-.156.704-1 .704-1.125.704-.438 0-.703-.188-.703-.47 0-.702 1.547-.765 1.937-.78zm0 0" style="stroke:none"/></symbol><symbol id="m" overflow="visible" style="overflow:visible"><path d="M2.656-6.062H2L.703 0h.656zm0 0" style="stroke:none"/></symbol><symbol id="n" overflow="visible" style="overflow:visible"><path d="M1.672-.61c-.14 0-.422 0-.422-.343 0-.156.063-.313.172-.438.25.204.516.266.766.266.874 0 1.718-.844 1.718-1.719 0-.25-.078-.469-.156-.594.016 0 .047.016.047.016.187 0 .453-.031.656-.031.156 0 .328.015.469.015.031 0 .047 0 .047-.093.015-.047.015-.36.015-.438a3.8 3.8 0 0 0-1.437.281 1.14 1.14 0 0 0-.766-.28c-.906 0-1.734.859-1.734 1.718 0 .203.047.39.14.578-.39.422-.437.797-.437.953 0 .14.031.328.11.438C.343-.016.093.453.093.78c0 .563.672 1.016 1.703 1.016.969 0 2.219-.453 2.219-1.438 0-.656-.547-.968-1.563-.968zm.61-1.015c-.329 0-.626-.187-.626-.64 0-.516.328-1.204 1.016-1.204.328 0 .625.188.625.625 0 .531-.328 1.219-1.016 1.219m.03 1.656c.532 0 1.063.094 1.063.516 0 .437-.719.75-1.469.75-.672 0-1.187-.25-1.187-.594 0-.14.156-.672.812-.672zm0 0" style="stroke:none"/></symbol><symbol id="o" overflow="visible" style="overflow:visible"><path d="M4.031-1.906c.032-.157.078-.5.078-.782 0-.156 0-.609-.28-.953-.157-.203-.47-.39-.923-.39C1.781-4.031.672-2.766.672-1.5c0 .906.578 1.594 1.5 1.594.594 0 1.14-.235 1.484-.453.016-.11.047-.438.063-.563-.313.219-.86.485-1.438.485s-.984-.438-.984-1.157c0-.11 0-.203.016-.312zM1.47-2.391c.297-.703.86-1.109 1.328-1.109.844 0 .844.828.844 1.11zm0 0" style="stroke:none"/></symbol><symbol id="p" overflow="visible" style="overflow:visible"><path d="M2.656-6.062h-.64L.719 0h.672l.093-.406c.25.297.579.5 1.063.5 1.047 0 2.125-1.219 2.125-2.64 0-.72-.328-1.423-1.063-1.423-.5 0-1.078.203-1.5.516zm-.625 3.125c.078-.094.469-.5 1.031-.5.516 0 .922.343.922 1.015 0 .985-.671 1.985-1.656 1.985-.375 0-.61-.204-.719-.563zm0 0" style="stroke:none"/></symbol><symbol id="q" overflow="visible" style="overflow:visible"><path d="M3.703-3.969c-1.031.016-1.672.797-1.687.813H2l.172-.781h-.61L.72 0h.656c.219-1.078.39-1.906.438-2.047.156-.562.796-1.312 1.765-1.344zm0 0" style="stroke:none"/></symbol><symbol id="r" overflow="visible" style="overflow:visible"><path d="M2.688-5.937h-.782l-.172.78h.782zM.702 0h.656l.829-3.875H1.53Zm0 0" style="stroke:none"/></symbol><symbol id="s" overflow="visible" style="overflow:visible"><path d="M4.36-3.64c-.47-.329-.798-.391-1.266-.391-1.406 0-2.422 1.39-2.422 2.562 0 .782.5 1.563 1.515 1.563.454 0 .97-.125 1.516-.438l.063-.593c-.328.218-.828.468-1.453.468s-.954-.437-.954-1.062c0-.75.532-1.938 1.625-1.938.516 0 .75.094 1.141.39zm0 0" style="stroke:none"/></symbol><symbol id="t" overflow="visible" style="overflow:visible"><path d="m2.703-2 2-1.875H3.97L2.5-2.437l-.906-1.438H.875L2.125-2 0 0h.719l1.61-1.64L3.296 0h.719zm0 0" style="stroke:none"/></symbol><symbol id="u" overflow="visible" style="overflow:visible"><path d="M4.625-3.875h-.687L3.39-1.297c-.079.375-.47.906-1.235.906-.437 0-.594-.093-.594-.343 0-.032 0-.094.032-.203l.61-2.938H1.53L.906-.922a1.4 1.4 0 0 0-.047.36c0 .312.094.656.75.656.5 0 1.141-.156 1.625-.516L3.141 0h.656zm0 0" style="stroke:none"/></symbol><symbol id="v" overflow="visible" style="overflow:visible"><path d="M2.25-3.375h1.219l.11-.5H2.343l.234-1.11h-.594l-.234 1.11H.984l-.109.5h.734c-.109.5-.546 2.469-.546 2.797 0 .5.218.672.546.672.454 0 .922-.125 1.344-.328L2.922-.75a1.5 1.5 0 0 1-.86.281c-.093 0-.328 0-.328-.406a.7.7 0 0 1 .032-.203zm0 0" style="stroke:none"/></symbol><symbol id="w" overflow="visible" style="overflow:visible"><path d="M4.563-2.406c0-.875-.594-1.625-1.532-1.625C1.781-4.031.625-2.72.625-1.47c0 .875.61 1.563 1.547 1.563 1.172 0 2.39-1.156 2.39-2.5M2.28-.47c-.406 0-.969-.234-.969-1.078 0-1.031.704-1.953 1.61-1.953.578 0 .969.406.969 1.047 0 .875-.61 1.984-1.61 1.984m0 0" style="stroke:none"/></symbol><symbol id="x" overflow="visible" style="overflow:visible"><path d="M4.36-2.656c.046-.25.046-.313.046-.438 0-.547-.25-.875-.953-.875-.547 0-1.047.266-1.406.656l.125-.624h-.625L.703 0h.688l.422-1.984c.203-.953.609-1.453 1.187-1.453.406 0 .703.14.703.578 0 .015-.015.156-.015.172L3.125 0h.672zm0 0" style="stroke:none"/></symbol><symbol id="G" overflow="visible" style="overflow:visible"><path d="M6.781-2.656c.047-.156.063-.25.063-.438 0-.547-.266-.875-.969-.875-.766 0-1.25.5-1.469.719-.031-.344-.203-.719-.953-.719-.703 0-1.219.453-1.406.656l.125-.624h-.625L.703 0h.688l.422-1.984c.171-.797.53-1.453 1.187-1.453.375 0 .719.109.719.578 0 .015-.031.156-.031.172L3.125 0h.688l.421-1.984c.172-.797.532-1.453 1.188-1.453.375 0 .703.109.703.578 0 .015-.016.156-.016.172L5.547 0h.687zm0 0" style="stroke:none"/></symbol><symbol id="H" overflow="visible" style="overflow:visible"><path d="M5.078-6.062h-.656L3.875-3.5c-.312-.328-.781-.469-1.172-.469-1.047 0-2.047 1.281-2.047 2.61 0 .812.422 1.453 1.14 1.453.266 0 .813-.063 1.407-.547L3.11 0h.688zM3.36-1.173c-.046.234-.515.734-1.093.734-.36 0-.907-.187-.907-1.03 0-1.032.688-1.97 1.641-1.97.578 0 .734.47.734.485s0 .047-.015.11zm0 0" style="stroke:none"/></symbol><symbol id="I" overflow="visible" style="overflow:visible"><path d="M1.484-.406c.125.156.454.5 1.063.5 1.031 0 2.125-1.203 2.125-2.656 0-.735-.328-1.407-1.016-1.407a2.8 2.8 0 0 0-1.547.516l.079-.422H1.53L.36 1.688h.688zm.5-2.375c.047-.14.047-.156.157-.266.39-.328.734-.375.906-.375.547 0 .922.453.922 1.11 0 .984-.828 1.874-1.64 1.874-.595 0-.72-.546-.72-.578 0 0 .032-.109.032-.125zm0 0" style="stroke:none"/></symbol><symbol id="J" overflow="visible" style="overflow:visible"><path d="M3.797-3.75c-.406-.187-.719-.281-1.219-.281-.312 0-.781.047-1.187.36a1.36 1.36 0 0 0-.516 1c0 .265.11.468.281.624.219.219.438.266.969.375.234.047.64.14.64.516 0 .015 0 .703-.968.703-.313 0-.813-.078-1.25-.422l-.203.469c0 .015-.031.078-.031.11 0 .03.546.39 1.375.39 1.453 0 1.718-1.078 1.718-1.438 0-.422-.25-.64-.328-.718-.25-.188-.39-.22-.875-.329-.344-.062-.672-.14-.672-.484 0-.016 0-.64.875-.64.469 0 .813.109 1.156.343h.016zm0 0" style="stroke:none"/></symbol><symbol id="O" overflow="visible" style="overflow:visible"><path d="M4.719-3.875h-.657L2.875-1.906c-.266.468-.61 1.094-.687 1.406h-.016c.015-.062.015-.125.015-.219 0-.453-.156-1.328-.25-1.781l-.296-1.375H.938l.859 3.75c0 .016.016.094.016.11 0 .046-.391.671-.47.78-.25.376-.39.532-.609.532-.156 0-.421-.047-.656-.14l-.062.562c.234.047.468.078.609.078.25 0 .61-.047 1.219-1.031zm0 0" style="stroke:none"/></symbol><symbol id="T" overflow="visible" style="overflow:visible"><path d="M4.64-3.969h-.656l-.125.578a1.29 1.29 0 0 0-1.078-.578C1.75-3.969.656-2.766.656-1.359c0 .828.422 1.453 1.11 1.453.625 0 1.156-.313 1.437-.516l-.453 2.11h.688zM3.39-1.203c-.046.219-.25.406-.421.516-.25.187-.5.25-.688.25-.594 0-.922-.516-.922-1.11 0-1.016.844-1.875 1.625-1.875.704 0 .704.813.704.813l-.032.156zm0 0" style="stroke:none"/></symbol><symbol id="y" overflow="visible" style="overflow:visible"><path d="M5.375-5.469c-.781-.453-1.219-.562-2.016-.562-1.828 0-2.89 1.578-2.89 3.125C.469-1.281 1.656.14 3.297.14a3.7 3.7 0 0 0 2.14-.672l-.078-.875a3.2 3.2 0 0 1-2.046.718C2.218-.687 1.5-1.64 1.5-2.921c0-1.015.484-2.281 1.86-2.281.687 0 1.124.11 1.859.578zm0 0" style="stroke:none"/></symbol><symbol id="z" overflow="visible" style="overflow:visible"><path d="M6.14-2.875c0-1.766-1.312-3.156-2.874-3.156C1.656-6.031.39-4.594.39-2.875S1.734.141 3.266.141C4.828.14 6.14-1.172 6.14-2.875M3.267-.687c-.907 0-1.844-.735-1.844-2.329 0-1.578.984-2.218 1.844-2.218.906 0 1.859.672 1.859 2.218 0 1.547-.89 2.329-1.86 2.329m0 0" style="stroke:none"/></symbol><symbol id="A" overflow="visible" style="overflow:visible"><path d="M5.703-3.906c0-.86-.203-2.047-1.797-2.047-1.187 0-1.828.89-1.906.984v-.922h-.937V0h1.015v-3.203c0-.875.328-1.953 1.328-1.953 1.25 0 1.266.922 1.266 1.343V0h1.031zm0 0" style="stroke:none"/></symbol><symbol id="B" overflow="visible" style="overflow:visible"><path d="M4.484-5.625a4.1 4.1 0 0 0-1.875-.406c-.328 0-2.171 0-2.171 1.703 0 .656.375 1.062.703 1.312.406.297.687.344 1.406.485.484.094 1.234.25 1.234.953 0 .89-1.031.89-1.234.89C1.5-.687.766-1.171.53-1.328l-.172.89c.422.22 1.141.579 2.204.579.234 0 .953 0 1.515-.422.406-.313.64-.828.64-1.39 0-.72-.484-1.173-.515-1.204-.516-.469-.86-.547-1.516-.656-.718-.14-1.328-.281-1.328-.922 0-.813.938-.813 1.11-.813.422 0 1.125.047 1.86.5zm0 0" style="stroke:none"/></symbol><symbol id="C" overflow="visible" style="overflow:visible"><path d="M2.297-5.047H4.14v-.766H2.297v-1.656H1.39v1.657H.25v.765h1.094v3.484c0 .797.187 1.704 1.094 1.704.921 0 1.578-.328 1.906-.5l-.203-.766a1.9 1.9 0 0 1-1.188.438c-.484 0-.656-.407-.656-1.094zm0 0" style="stroke:none"/></symbol><symbol id="D" overflow="visible" style="overflow:visible"><path d="M2.063-2.797c0-1.312.937-2.25 2.218-2.281v-.875c-1.172.016-1.89.656-2.297 1.25v-1.188h-.906V0h.984Zm0 0" style="stroke:none"/></symbol><symbol id="E" overflow="visible" style="overflow:visible"><path d="M5.219-3.781c0-1.344-.953-2.25-2.157-2.25-.843 0-1.437.203-2.046.562l.078.86c.672-.485 1.328-.657 1.969-.657.609 0 1.14.532 1.14 1.5v.563C2.234-3.188.578-2.625.578-1.484.578-.922.922.14 2.063.14 2.25.14 3.484.125 4.25-.47V0h.969zM4.203-1.734c0 .25 0 .578-.437.828-.391.234-.891.25-1.032.25-.625 0-1.218-.297-1.218-.844 0-.922 2.125-1.016 2.687-1.047zm0 0" style="stroke:none"/></symbol><symbol id="F" overflow="visible" style="overflow:visible"><path d="M2.14-8.906H.97v1.172h1.17Zm-.093 3.094h-.985V0h.985zm0 0" style="stroke:none"/></symbol><symbol id="K" overflow="visible" style="overflow:visible"><path d="M4.39-6.922h1.563c.344 0 .375 0 .469-.094.11-.078.156-.312.156-.421 0-.313-.297-.313-.578-.313H4.61L5.171-10c.062-.281.062-.39.062-.453 0-.563-.453-.766-.812-.766-.266 0-.734.125-1.016.61-.078.14-.281.937-.406 1.422L2.656-7.75H1.078c-.344 0-.64 0-.64.5 0 .328.28.328.593.328h1.407l-.985 3.969c-.125.453-.297 1.187-.297 1.375C1.156-.438 2.266.14 3.344.14c2.078 0 3.265-2.422 3.265-2.72 0-.25-.25-.25-.406-.25-.297 0-.328.017-.437.282-.672 1.5-1.641 2.063-2.328 2.063-.157 0-.422 0-.422-.657 0-.328.062-.515.109-.75zm0 0" style="stroke:none"/></symbol><symbol id="S" overflow="visible" style="overflow:visible"><path d="M9.484-7.578c0-.078-.078-.313-.328-.313-.015 0-1.047.25-1.578.75-.25-.28-.844-.75-1.875-.75C2.672-7.89.781-5.125.781-2.734.781-.594 2.391.14 3.844.14c.828 0 1.531-.328 1.89-.563l-.656 2.656c-.062.266-.094.282-.203.297-.203.031-.484.031-.672.031-.297 0-.39 0-.484.11s-.14.375-.14.406c0 .094.062.313.343.313.594 0 1.25-.063 1.86-.063.64 0 1.312.063 1.937.063.125 0 .453 0 .453-.516 0-.297-.297-.312-.453-.312-.25 0-.532 0-.75-.016zM6.11-1.875c-.093.297-.093.344-.28.516-.563.562-1.298.875-1.907.875-1.078 0-1.172-.953-1.172-1.328 0-.907.594-3.063.875-3.735.547-1.281 1.406-1.719 2.11-1.719 1.03 0 1.452.829 1.452 1.016 0 .078-.015.188-.03.25zm0 0" style="stroke:none"/></symbol><symbol id="L" overflow="visible" style="overflow:visible"><path d="M5.781 4.188c0-.047 0-.094-.297-.375-2.187-2.204-2.75-5.5-2.75-8.172 0-3.047.672-6.078 2.813-8.266.234-.203.234-.234.234-.297 0-.11-.078-.172-.172-.172-.187 0-1.75 1.188-2.78 3.406-.892 1.922-1.095 3.86-1.095 5.329 0 1.359.188 3.468 1.141 5.437C3.922 3.234 5.422 4.36 5.609 4.36c.094 0 .172-.046.172-.171m0 0" style="stroke:none"/></symbol><symbol id="N" overflow="visible" style="overflow:visible"><path d="M5.047-4.36c0-1.359-.188-3.484-1.156-5.452-1.047-2.141-2.547-3.282-2.72-3.282-.109 0-.171.078-.171.172 0 .063 0 .094.328.406 1.703 1.735 2.703 4.5 2.703 8.157 0 2.984-.64 6.047-2.812 8.25C1 4.094 1 4.14 1 4.188c0 .109.063.171.172.171.172 0 1.75-1.187 2.766-3.406.89-1.906 1.109-3.844 1.109-5.312m0 0" style="stroke:none"/></symbol><symbol id="P" overflow="visible" style="overflow:visible"><path d="M3.313-8.031c.218 0 .984 0 .984-.688 0-.703-.766-.703-.984-.703V-14c0-.562 0-1.219-.688-1.219-.703 0-.703.656-.703 1.219v10.547c0 .562 0 1.219.703 1.219.688 0 .688-.657.688-1.22zm0 0" style="stroke:none"/></symbol><symbol id="Q" overflow="visible" style="overflow:visible"><path d="M23-8.031c.594 0 1.219 0 1.219-.688 0-.703-.625-.703-1.219-.703H4.125c-.594 0-1.234 0-1.234.703 0 .688.64.688 1.234.688zm0 0" style="stroke:none"/></symbol><symbol id="R" overflow="visible" style="overflow:visible"><path d="M29.11-8.031c-1.922 1.469-2.86 2.906-3.141 3.36-1.563 2.405-1.844 4.609-1.844 4.64 0 .422.406.422.688.422.593 0 .64-.079.78-.703.798-3.422 2.86-6.36 6.798-7.954.422-.14.53-.218.53-.453 0-.25-.218-.36-.28-.39-1.547-.594-5.766-2.344-7.094-8.203-.094-.422-.14-.532-.735-.532-.28 0-.687 0-.687.422 0 .078.313 2.266 1.781 4.61a13.5 13.5 0 0 0 3.203 3.39H3.172c-.625 0-1.25 0-1.25.703 0 .688.625.688 1.25.688zm0 0" style="stroke:none"/></symbol><clipPath id="a"><path d="M239.527 161.574h362.836V433.7H239.527Zm0 0"/></clipPath></defs><g clip-path="url(#a)" style="clip-rule:nonzero" transform="translate(-239.527 -161.574)"><path d="M239.527 161.574h362.836V433.7H239.527Zm0 0" style="fill:#fff;fill-opacity:1;fill-rule:nonzero;stroke:none"/></g><g style="fill:#000;fill-opacity:1" transform="translate(-239.527 -161.574)"><use xlink:href="#b" width="100%" height="100%" x="356.673" y="197.742"/><use xlink:href="#c" width="100%" height="100%" x="364.423" y="197.742"/><use xlink:href="#d" width="100%" height="100%" x="373.15" y="197.742"/><use xlink:href="#e" width="100%" height="100%" x="387.009" y="197.742"/><use xlink:href="#f" width="100%" height="100%" x="396.016" y="197.742"/><use xlink:href="#g" width="100%" height="100%" x="405.023" y="197.742"/><use xlink:href="#h" width="100%" height="100%" x="411.324" y="197.742"/></g><g style="fill:#000;fill-opacity:1" transform="translate(-239.527 -161.574)"><use xlink:href="#g" width="100%" height="100%" x="419.754" y="197.742"/><use xlink:href="#i" width="100%" height="100%" x="426.055" y="197.742"/><use xlink:href="#c" width="100%" height="100%" x="430.209" y="197.742"/><use xlink:href="#j" width="100%" height="100%" x="438.937" y="197.742"/></g><use xlink:href="#k" width="100%" height="100%" x="350.655" y="267.505" style="fill:#7f0000;fill-opacity:1" transform="translate(-239.527 -161.574)"/><g style="fill:#7f0000;fill-opacity:1" transform="translate(-239.527 -161.574)"><use xlink:href="#l" width="100%" height="100%" x="297.455" y="252.866"/><use xlink:href="#m" width="100%" height="100%" x="301.644" y="252.866"/><use xlink:href="#n" width="100%" height="100%" x="303.721" y="252.866"/><use xlink:href="#o" width="100%" height="100%" x="308.084" y="252.866"/><use xlink:href="#p" width="100%" height="100%" x="311.959" y="252.866"/></g><g style="fill:#7f0000;fill-opacity:1" transform="translate(-239.527 -161.574)"><use xlink:href="#q" width="100%" height="100%" x="316.244" y="252.866"/><use xlink:href="#l" width="100%" height="100%" x="319.22" y="252.866"/><use xlink:href="#r" width="100%" height="100%" x="323.41" y="252.866"/><use xlink:href="#s" width="100%" height="100%" x="325.487" y="252.866"/></g><g style="fill:#7f0000;fill-opacity:1" transform="translate(-239.527 -161.574)"><use xlink:href="#o" width="100%" height="100%" x="296.565" y="263.705"/><use xlink:href="#t" width="100%" height="100%" x="300.44" y="263.705"/><use xlink:href="#o" width="100%" height="100%" x="304.463" y="263.705"/><use xlink:href="#s" width="100%" height="100%" x="308.338" y="263.705"/><use xlink:href="#u" width="100%" height="100%" x="312.213" y="263.705"/><use xlink:href="#v" width="100%" height="100%" x="316.716" y="263.705"/><use xlink:href="#r" width="100%" height="100%" x="319.867" y="263.705"/></g><g style="fill:#7f0000;fill-opacity:1" transform="translate(-239.527 -161.574)"><use xlink:href="#w" width="100%" height="100%" x="321.97" y="263.705"/><use xlink:href="#x" width="100%" height="100%" x="326.334" y="263.705"/></g><g style="fill:#7f0000;fill-opacity:1" transform="translate(-239.527 -161.574)"><use xlink:href="#v" width="100%" height="100%" x="304.444" y="274.545"/><use xlink:href="#q" width="100%" height="100%" x="307.595" y="274.545"/><use xlink:href="#l" width="100%" height="100%" x="310.571" y="274.545"/><use xlink:href="#s" width="100%" height="100%" x="314.76" y="274.545"/><use xlink:href="#o" width="100%" height="100%" x="318.635" y="274.545"/></g><g style="fill:#7f0000;fill-opacity:1" transform="translate(-239.527 -161.574)"><use xlink:href="#y" width="100%" height="100%" x="395.363" y="265.988"/><use xlink:href="#z" width="100%" height="100%" x="401.176" y="265.988"/><use xlink:href="#A" width="100%" height="100%" x="407.721" y="265.988"/><use xlink:href="#B" width="100%" height="100%" x="414.476" y="265.988"/><use xlink:href="#C" width="100%" height="100%" x="419.49" y="265.988"/><use xlink:href="#D" width="100%" height="100%" x="424.216" y="265.988"/><use xlink:href="#E" width="100%" height="100%" x="428.68" y="265.988"/></g><g style="fill:#7f0000;fill-opacity:1" transform="translate(-239.527 -161.574)"><use xlink:href="#F" width="100%" height="100%" x="435.003" y="265.988"/><use xlink:href="#A" width="100%" height="100%" x="438.118" y="265.988"/><use xlink:href="#C" width="100%" height="100%" x="444.873" y="265.988"/><use xlink:href="#B" width="100%" height="100%" x="449.599" y="265.988"/></g><g style="fill:#7f0000;fill-opacity:1" transform="translate(-239.527 -161.574)"><use xlink:href="#l" width="100%" height="100%" x="482.101" y="252.866"/><use xlink:href="#m" width="100%" height="100%" x="486.29" y="252.866"/><use xlink:href="#n" width="100%" height="100%" x="488.368" y="252.866"/><use xlink:href="#o" width="100%" height="100%" x="492.731" y="252.866"/><use xlink:href="#p" width="100%" height="100%" x="496.606" y="252.866"/></g><g style="fill:#7f0000;fill-opacity:1" transform="translate(-239.527 -161.574)"><use xlink:href="#q" width="100%" height="100%" x="500.891" y="252.866"/><use xlink:href="#l" width="100%" height="100%" x="503.867" y="252.866"/><use xlink:href="#r" width="100%" height="100%" x="508.056" y="252.866"/><use xlink:href="#s" width="100%" height="100%" x="510.133" y="252.866"/></g><g style="fill:#7f0000;fill-opacity:1" transform="translate(-239.527 -161.574)"><use xlink:href="#r" width="100%" height="100%" x="475.515" y="263.705"/><use xlink:href="#x" width="100%" height="100%" x="477.592" y="263.705"/><use xlink:href="#v" width="100%" height="100%" x="482.095" y="263.705"/><use xlink:href="#o" width="100%" height="100%" x="485.246" y="263.705"/><use xlink:href="#q" width="100%" height="100%" x="489.121" y="263.705"/></g><g style="fill:#7f0000;fill-opacity:1" transform="translate(-239.527 -161.574)"><use xlink:href="#G" width="100%" height="100%" x="492.123" y="263.705"/><use xlink:href="#o" width="100%" height="100%" x="499.052" y="263.705"/><use xlink:href="#H" width="100%" height="100%" x="502.927" y="263.705"/><use xlink:href="#r" width="100%" height="100%" x="507.431" y="263.705"/><use xlink:href="#l" width="100%" height="100%" x="509.508" y="263.705"/></g><g style="fill:#7f0000;fill-opacity:1" transform="translate(-239.527 -161.574)"><use xlink:href="#v" width="100%" height="100%" x="513.723" y="263.705"/><use xlink:href="#o" width="100%" height="100%" x="516.874" y="263.705"/></g><g style="fill:#7f0000;fill-opacity:1" transform="translate(-239.527 -161.574)"><use xlink:href="#q" width="100%" height="100%" x="472.763" y="274.545"/><use xlink:href="#o" width="100%" height="100%" x="475.739" y="274.545"/><use xlink:href="#I" width="100%" height="100%" x="479.614" y="274.545"/></g><g style="fill:#7f0000;fill-opacity:1" transform="translate(-239.527 -161.574)"><use xlink:href="#q" width="100%" height="100%" x="483.89" y="274.545"/><use xlink:href="#o" width="100%" height="100%" x="486.866" y="274.545"/><use xlink:href="#J" width="100%" height="100%" x="490.741" y="274.545"/><use xlink:href="#o" width="100%" height="100%" x="494.084" y="274.545"/><use xlink:href="#x" width="100%" height="100%" x="497.959" y="274.545"/><use xlink:href="#v" width="100%" height="100%" x="502.462" y="274.545"/><use xlink:href="#l" width="100%" height="100%" x="505.612" y="274.545"/></g><g style="fill:#7f0000;fill-opacity:1" transform="translate(-239.527 -161.574)"><use xlink:href="#v" width="100%" height="100%" x="509.828" y="274.545"/><use xlink:href="#r" width="100%" height="100%" x="512.978" y="274.545"/><use xlink:href="#w" width="100%" height="100%" x="515.055" y="274.545"/><use xlink:href="#x" width="100%" height="100%" x="519.419" y="274.545"/></g><path d="m393.152 207.266-27.66 41.476" style="fill:none;stroke:#000;stroke-width:.99628001;stroke-linecap:butt;stroke-linejoin:miter;stroke-miterlimit:10;stroke-opacity:1" transform="translate(-239.527 -161.574)"/><path d="M2.029 369.728c.12-.72 1.444-1.803 1.804-1.922-.361-.12-1.683-1.2-1.804-1.922" style="fill:none;stroke:#000;stroke-width:.663064;stroke-linecap:round;stroke-linejoin:round;stroke-miterlimit:10;stroke-opacity:1" transform="matrix(-.66685 1 1 .66685 -239.527 -161.574)"/><path d="m406.914 207.266 14.813 44.433" style="fill:none;stroke:#7f7f7f;stroke-width:.99628001;stroke-linecap:butt;stroke-linejoin:miter;stroke-miterlimit:10;stroke-dasharray:2.98883,2.98883;stroke-opacity:1" transform="translate(-239.527 -161.574)"/><path d="M351.403 306.238c.135-.823 1.643-2.055 2.054-2.192-.413-.136-1.918-1.373-2.056-2.194" style="fill:none;stroke:#7f7f7f;stroke-width:.75607598;stroke-linecap:round;stroke-linejoin:round;stroke-miterlimit:10;stroke-opacity:1" transform="matrix(.33333 1 1 -.33333 -239.527 -161.574)"/><use xlink:href="#K" width="100%" height="100%" x="338.64" y="333.937" style="fill:#00007f;fill-opacity:1" transform="translate(-239.527 -161.574)"/><use xlink:href="#L" width="100%" height="100%" x="345.884" y="333.937" style="fill:#00007f;fill-opacity:1" transform="translate(-239.527 -161.574)"/><use xlink:href="#M" width="100%" height="100%" x="352.656" y="333.937" style="fill:#00007f;fill-opacity:1" transform="translate(-239.527 -161.574)"/><use xlink:href="#N" width="100%" height="100%" x="368.505" y="333.937" style="fill:#00007f;fill-opacity:1" transform="translate(-239.527 -161.574)"/><g style="fill:#00007f;fill-opacity:1" transform="translate(-239.527 -161.574)"><use xlink:href="#v" width="100%" height="100%" x="287.936" y="326.321"/><use xlink:href="#q" width="100%" height="100%" x="291.087" y="326.321"/><use xlink:href="#l" width="100%" height="100%" x="294.063" y="326.321"/><use xlink:href="#s" width="100%" height="100%" x="298.252" y="326.321"/><use xlink:href="#o" width="100%" height="100%" x="302.127" y="326.321"/></g><use xlink:href="#I" width="100%" height="100%" x="275.565" y="337.16" style="fill:#00007f;fill-opacity:1" transform="translate(-239.527 -161.574)"/><g style="fill:#00007f;fill-opacity:1" transform="translate(-239.527 -161.574)"><use xlink:href="#w" width="100%" height="100%" x="280.321" y="337.16"/><use xlink:href="#m" width="100%" height="100%" x="284.685" y="337.16"/><use xlink:href="#O" width="100%" height="100%" x="286.762" y="337.16"/><use xlink:href="#x" width="100%" height="100%" x="290.785" y="337.16"/><use xlink:href="#w" width="100%" height="100%" x="295.288" y="337.16"/><use xlink:href="#G" width="100%" height="100%" x="299.652" y="337.16"/><use xlink:href="#r" width="100%" height="100%" x="306.582" y="337.16"/></g><g style="fill:#00007f;fill-opacity:1" transform="translate(-239.527 -161.574)"><use xlink:href="#l" width="100%" height="100%" x="308.685" y="337.16"/><use xlink:href="#m" width="100%" height="100%" x="312.874" y="337.16"/><use xlink:href="#J" width="100%" height="100%" x="314.951" y="337.16"/></g><g style="fill:#000;fill-opacity:1" transform="translate(-239.527 -161.574)"><use xlink:href="#P" width="100%" height="100%" x="396.878" y="335.977"/><use xlink:href="#Q" width="100%" height="100%" x="396.878" y="335.977"/></g><use xlink:href="#R" width="100%" height="100%" x="418.208" y="335.977" style="fill:#000;fill-opacity:1" transform="translate(-239.527 -161.574)"/><use xlink:href="#S" width="100%" height="100%" x="473.273" y="333.937" style="fill:#00007f;fill-opacity:1" transform="translate(-239.527 -161.574)"/><use xlink:href="#L" width="100%" height="100%" x="483.38" y="333.937" style="fill:#00007f;fill-opacity:1" transform="translate(-239.527 -161.574)"/><use xlink:href="#M" width="100%" height="100%" x="490.152" y="333.937" style="fill:#00007f;fill-opacity:1" transform="translate(-239.527 -161.574)"/><use xlink:href="#N" width="100%" height="100%" x="506.001" y="333.937" style="fill:#00007f;fill-opacity:1" transform="translate(-239.527 -161.574)"/><g style="fill:#00007f;fill-opacity:1" transform="translate(-239.527 -161.574)"><use xlink:href="#T" width="100%" height="100%" x="538.768" y="326.321"/><use xlink:href="#u" width="100%" height="100%" x="543.271" y="326.321"/><use xlink:href="#w" width="100%" height="100%" x="547.775" y="326.321"/><use xlink:href="#v" width="100%" height="100%" x="552.138" y="326.321"/><use xlink:href="#r" width="100%" height="100%" x="555.289" y="326.321"/><use xlink:href="#o" width="100%" height="100%" x="557.366" y="326.321"/></g><g style="fill:#00007f;fill-opacity:1" transform="translate(-239.527 -161.574)"><use xlink:href="#x" width="100%" height="100%" x="561.267" y="326.321"/><use xlink:href="#v" width="100%" height="100%" x="565.77" y="326.321"/></g><use xlink:href="#I" width="100%" height="100%" x="532.453" y="337.16" style="fill:#00007f;fill-opacity:1" transform="translate(-239.527 -161.574)"/><g style="fill:#00007f;fill-opacity:1" transform="translate(-239.527 -161.574)"><use xlink:href="#w" width="100%" height="100%" x="537.209" y="337.16"/><use xlink:href="#m" width="100%" height="100%" x="541.573" y="337.16"/><use xlink:href="#O" width="100%" height="100%" x="543.65" y="337.16"/><use xlink:href="#x" width="100%" height="100%" x="547.673" y="337.16"/><use xlink:href="#w" width="100%" height="100%" x="552.177" y="337.16"/><use xlink:href="#G" width="100%" height="100%" x="556.54" y="337.16"/><use xlink:href="#r" width="100%" height="100%" x="563.47" y="337.16"/></g><g style="fill:#00007f;fill-opacity:1" transform="translate(-239.527 -161.574)"><use xlink:href="#l" width="100%" height="100%" x="565.573" y="337.16"/><use xlink:href="#m" width="100%" height="100%" x="569.762" y="337.16"/><use xlink:href="#J" width="100%" height="100%" x="571.839" y="337.16"/></g><path d="M356.969 273.637v40.238" style="fill:none;stroke:#000;stroke-width:.99628001;stroke-linecap:butt;stroke-linejoin:miter;stroke-miterlimit:10;stroke-opacity:1" transform="translate(-239.527 -161.574)"/><path d="M312.152 359.275c.144-.867 1.73-2.168 2.164-2.313-.434-.144-2.02-1.445-2.164-2.312" style="fill:none;stroke:#000;stroke-width:.79699397;stroke-linecap:round;stroke-linejoin:round;stroke-miterlimit:10;stroke-opacity:1" transform="scale(1 -1)rotate(-89.999 -38.975 200.553)"/><path d="M425.004 270.586 425 326.473" style="fill:none;stroke:#7f7f7f;stroke-width:.99628001;stroke-linecap:butt;stroke-linejoin:miter;stroke-miterlimit:10;stroke-dasharray:2.98883,2.98883;stroke-opacity:1" transform="translate(-239.527 -161.574)"/><path d="M324.704 427.338c.145-.867 1.735-2.167 2.168-2.312-.433-.144-2.023-1.445-2.168-2.313" style="fill:none;stroke:#7f7f7f;stroke-width:.79699397;stroke-linecap:round;stroke-linejoin:round;stroke-miterlimit:10;stroke-opacity:1" transform="scale(-1 1)rotate(89.995 200.557 38.986)"/><path d="M519.96 369.258h-53.858a7.085 7.085 0 0 0-7.086 7.086v19.844a7.085 7.085 0 0 0 7.086 7.085h53.859a7.09 7.09 0 0 0 7.09-7.086v-19.843a7.09 7.09 0 0 0-7.09-7.086zm0 0" style="fill:none;stroke:#007f00;stroke-width:.3985;stroke-linecap:butt;stroke-linejoin:miter;stroke-miterlimit:10;stroke-opacity:1" transform="translate(-239.527 -161.574)"/><g style="fill:#007f00;fill-opacity:1" transform="translate(-239.527 -161.574)"><use xlink:href="#U" width="100%" height="100%" x="480" y="392.327"/><use xlink:href="#V" width="100%" height="100%" x="489.932" y="392.327"/><use xlink:href="#W" width="100%" height="100%" x="501.19" y="392.327"/></g><path d="m493.047 344.438-.004 23.671" style="fill:none;stroke:#000;stroke-width:.99628001;stroke-linecap:butt;stroke-linejoin:miter;stroke-miterlimit:10;stroke-opacity:1" transform="translate(-239.527 -161.574)"/><path d="M366.33 495.388c.145-.867 1.735-2.167 2.169-2.312-.434-.144-2.024-1.445-2.168-2.313" style="fill:none;stroke:#000;stroke-width:.79699397;stroke-linecap:round;stroke-linejoin:round;stroke-miterlimit:10;stroke-opacity:1" transform="scale(-1 1)rotate(89.995 200.558 38.987)"/></svg>