<svg xmlns="http://www.w3.org/2000/svg" xmlns:xlink="http://www.w3.org/1999/xlink" width="483.781" height="362.833" viewBox="0 0 362.836 272.125"><defs><symbol id="b" overflow="visible"><path d="M4.516-2.39c0-.376-.016-1.188-.438-1.844a1.77 1.77 0 0 0-1.5-.797C1.36-5.031.375-3.875.375-2.47c0 1.44 1.047 2.595 2.36 2.595.687 0 1.312-.266 1.734-.578l-.063-.703a2.65 2.65 0 0 1-1.656.61c-.875 0-1.578-.766-1.61-1.845zm-3.313-.594c.172-.828.75-1.375 1.375-1.375.563 0 1.172.375 1.313 1.375zm0 0" style="stroke:none"/></symbol><symbol id="c" overflow="visible"><path d="m2.828-2.5 2-2.344h-.89l-1.47 1.797-1.5-1.797H.064L2.109-2.5 0 0h.89l1.58-2.047L4.109 0h.907zm0 0" style="stroke:none"/></symbol><symbol id="d" overflow="visible"><path d="M4.469-4.562c-.64-.36-1.016-.47-1.672-.47C1.28-5.031.39-3.702.39-2.421c0 1.36 1 2.547 2.359 2.547.594 0 1.188-.156 1.781-.562l-.078-.735a2.65 2.65 0 0 1-1.687.594c-.907 0-1.516-.781-1.516-1.86 0-.843.39-1.89 1.547-1.89.578 0 .937.078 1.547.484zm0 0" style="stroke:none"/></symbol><symbol id="e" overflow="visible"><path d="M4.75-4.844h-.86v3.172c0 .813-.609 1.188-1.312 1.188-.765 0-.844-.282-.844-.75v-3.61H.891v3.657c0 .78.25 1.312 1.156 1.312.578 0 1.344-.172 1.875-.656V0h.828Zm0 0" style="stroke:none"/></symbol><symbol id="f" overflow="visible"><path d="M1.906-4.203h1.547v-.64H1.906v-1.391h-.75v1.39H.203v.64h.922v2.907c0 .656.156 1.422.906 1.422.766 0 1.313-.281 1.594-.422l-.172-.64c-.297.234-.64.359-.984.359-.406 0-.563-.328-.563-.906zm0 0" style="stroke:none"/></symbol><symbol id="g" overflow="visible"><path d="M1.781-7.422H.813v.969h.968Zm-.078 2.578H.891V0h.812zm0 0" style="stroke:none"/></symbol><symbol id="h" overflow="visible"><path d="M5.11-2.406c0-1.453-1.079-2.625-2.391-2.625-1.328 0-2.39 1.203-2.39 2.625C.328-.953 1.437.125 2.718.125c1.312 0 2.39-1.11 2.39-2.531M2.718-.578c-.75 0-1.547-.61-1.547-1.938 0-1.312.828-1.843 1.547-1.843.765 0 1.547.562 1.547 1.843 0 1.297-.75 1.938-1.547 1.938m0 0" style="stroke:none"/></symbol><symbol id="i" overflow="visible"><path d="M4.75-3.25c0-.719-.172-1.719-1.5-1.719-.984 0-1.516.75-1.578.828v-.765H.89V0h.843v-2.672c0-.719.266-1.625 1.094-1.625 1.047 0 1.063.781 1.063 1.125V0h.859Zm0 0" style="stroke:none"/></symbol><symbol id="j" overflow="visible"><path d="M1.719-2.328c0-1.094.781-1.875 1.844-1.906v-.735c-.97.016-1.563.547-1.907 1.047v-.984H.891V0h.828Zm0 0" style="stroke:none"/></symbol><symbol id="k" overflow="visible"><path d="M4.36-3.156c0-1.11-.798-1.875-1.813-1.875-.703 0-1.188.172-1.703.468l.062.72c.563-.407 1.11-.548 1.64-.548.517 0 .954.438.954 1.25v.47C1.86-2.657.484-2.189.484-1.235c0 .469.297 1.36 1.236 1.36.156 0 1.187-.031 1.812-.516V0h.828ZM3.5-1.437c0 .203 0 .484-.375.687-.312.188-.719.203-.844.203-.531 0-1.015-.25-1.015-.703 0-.766 1.765-.844 2.234-.86zm0 0" style="stroke:none"/></symbol><symbol id="y" overflow="visible"><path d="M1.75-.5c.328.313.813.625 1.469.625 1.062 0 2.015-1.078 2.015-2.562 0-1.297-.687-2.532-1.734-2.532-.656 0-1.281.235-1.781.657v-.532H.89V2.11h.859Zm0-3.125c.25-.39.688-.64 1.156-.64.828 0 1.485.827 1.485 1.827 0 1.126-.782 1.891-1.594 1.891-.438 0-.719-.219-.938-.515-.109-.157-.109-.188-.109-.375Zm0 0" style="stroke:none"/></symbol><symbol id="z" overflow="visible"><path d="M1.703-7.562H.891V0h.812zm0 0" style="stroke:none"/></symbol><symbol id="A" overflow="visible"><path d="M4.86-4.844h-.813C2.625-1.375 2.609-.875 2.594-.625h-.016c-.062-.734-.937-2.75-.969-2.86l-.593-1.359h-.86L2.266 0c-.125.344-.344.89-.391.984-.281.625-.469.625-.625.625a2.3 2.3 0 0 1-.844-.171l.063.718a4.4 4.4 0 0 0 .781.078c.39 0 .797-.125 1.234-1.234Zm0 0" style="stroke:none"/></symbol><symbol id="B" overflow="visible"><path d="M7.781-3.25c0-.734-.172-1.719-1.5-1.719-.656 0-1.218.313-1.625.907-.281-.829-1.047-.907-1.39-.907-.797 0-1.297.453-1.594.844v-.781H.89V0h.843v-2.672c0-.734.297-1.625 1.094-1.625 1.016 0 1.078.703 1.078 1.125V0h.844v-2.672c0-.734.297-1.625 1.11-1.625 1.015 0 1.062.703 1.062 1.125V0h.86Zm0 0" style="stroke:none"/></symbol><symbol id="C" overflow="visible"><path d="M3.734-4.672a3.4 3.4 0 0 0-1.562-.36c-.281 0-1.813 0-1.813 1.438 0 .531.313.875.594 1.078.328.25.578.297 1.172.407.39.078 1.031.218 1.031.797 0 .75-.86.75-1.031.75-.875 0-1.5-.407-1.687-.532l-.125.735c.343.172.937.484 1.828.484.187 0 .797 0 1.265-.36.328-.25.516-.687.516-1.156 0-.609-.406-.968-.422-1.015-.422-.375-.719-.438-1.266-.531-.593-.126-1.093-.235-1.093-.766 0-.688.78-.688.922-.688.343 0 .921.047 1.546.422zm0 0" style="stroke:none"/></symbol><symbol id="M" overflow="visible"><path d="M1.719-7.562H.89V0h.859v-.5c.25.234.719.625 1.453.625 1.094 0 2.031-1.094 2.031-2.562 0-1.344-.734-2.532-1.765-2.532-.422 0-1.11.11-1.75.657zm.031 3.906c.172-.266.563-.64 1.156-.64.656 0 1.485.468 1.485 1.859 0 1.421-.922 1.89-1.594 1.89-.422 0-.781-.187-1.047-.703Zm0 0" style="stroke:none"/></symbol><symbol id="N" overflow="visible"><path d="M4.734-7.562h-.812v3.203a2.53 2.53 0 0 0-1.594-.61C1.25-4.969.391-3.829.391-2.422.39-1 1.234.125 2.266.125c.359 0 1-.11 1.609-.687V0h.86Zm-.859 6.046c0 .157 0 .344-.36.672-.25.219-.515.297-.796.297-.672 0-1.469-.515-1.469-1.86 0-1.437.938-1.89 1.578-1.89.485 0 .813.25 1.047.594zm0 0" style="stroke:none"/></symbol><symbol id="W" overflow="visible"><path d="M4.734-4.969h-.812v.75c-.11-.14-.656-.75-1.5-.75C1.328-4.969.39-3.875.39-2.406c0 1.375.797 2.531 1.843 2.531.61 0 1.188-.25 1.641-.672V2.11h.86zM3.922-1.53c0 .203 0 .218-.11.36-.296.437-.687.624-1.093.624-.828 0-1.469-.844-1.469-1.86 0-1.109.781-1.859 1.578-1.859.75 0 1.094.782 1.094 1.22zm0 0" style="stroke:none"/></symbol><symbol id="l" overflow="visible"><path d="M4.875-3.516c.922-.171 1.688-.765 1.688-1.53 0-.876-.97-1.657-2.282-1.657H.563v.312h.234c.766 0 .781.094.781.454v5.171c0 .36-.016.47-.781.47H.562V0h3.985c1.36 0 2.297-.875 2.297-1.797 0-.828-.797-1.578-1.969-1.703ZM2.391-6c0-.328.015-.39.484-.39h1.328c1 0 1.406.796 1.406 1.343 0 .688-.578 1.453-1.687 1.453H2.39zm1.968 2.625c1.016 0 1.516.875 1.516 1.563 0 .734-.594 1.515-1.64 1.515h-1.36c-.469 0-.484-.078-.484-.406v-2.672Zm0 0" style="stroke:none"/></symbol><symbol id="m" overflow="visible"><path d="M5.734-2.5c0-1.469-1.156-2.687-2.609-2.687C1.656-5.187.5-3.97.5-2.5A2.624 2.624 0 0 0 3.125.14a2.62 2.62 0 0 0 2.61-2.64M3.125-.125c-.703 0-1.781-.547-1.781-2.484 0-1.844 1.125-2.328 1.781-2.328s1.766.5 1.766 2.328c0 1.937-1.078 2.484-1.766 2.484m0 0" style="stroke:none"/></symbol><symbol id="n" overflow="visible"><path d="M1.828-4.344c0-.39.063-.453.719-.453v-.25c-.297.016-.844.031-1.063.031S.72-5.03.422-5.046v.25c.672 0 .703.062.703.484v2.125c0 .25 0 .609.016.734C1.234-.656 2.016.14 3.109.14c1.141 0 1.766-1 1.782-1.72v-2.609c0-.39.265-.609.703-.609v-.25c-.25.016-.766.031-.828.031-.266 0-.563-.015-.828-.03v.25c.703 0 .703.515.703.75v2.296c0 1.14-.844 1.64-1.516 1.64-.297 0-1.297-.109-1.297-1.593zm0 0" style="stroke:none"/></symbol><symbol id="o" overflow="visible"><path d="M1.89-4.922c-.077-.125-.109-.125-.296-.125H.422v.25c.234 0 .516 0 .703.063v3.75c0 .218 0 .734-.703.734V0c.203-.016.64-.031.844-.031.14 0 .593.015.843.031v-.25c-.703 0-.703-.516-.703-.734V-4.5l.094.11L4.578-.11c.078.11.11.11.172.11.14 0 .14-.062.14-.25v-3.797c0-.234 0-.75.704-.75v-.25c-.203.016-.64.031-.844.031-.14 0-.594-.015-.844-.03v.25c.703 0 .703.515.703.75v2.905zm0 0" style="stroke:none"/></symbol><symbol id="p" overflow="visible"><path d="M1.14-.703c0 .406-.046.453-.702.453V0h2.765c1.375 0 2.422-1.14 2.422-2.484 0-1.36-1.016-2.563-2.422-2.563H.438v.25c.656 0 .703.063.703.453zm1.08.453c-.344 0-.39-.031-.39-.422v-3.703c0-.39.046-.422.39-.422h.75c.844 0 1.265.453 1.406.64.219.266.438.688.438 1.673 0 .812-.157 1.218-.36 1.53-.156.22-.578.704-1.484.704Zm0 0" style="stroke:none"/></symbol><symbol id="q" overflow="visible"><path d="M3.234-5c-.062-.156-.109-.203-.218-.203-.141 0-.157.047-.203.172L1.234-.97c-.109.266-.28.703-.906.719V0c.219-.016.5-.031.719-.031.172 0 .625.015.812.031v-.25c-.406-.016-.437-.344-.437-.437 0-.079 0-.094.328-.97h2.031L4-1.108c.078.203.203.53.203.593 0 .266-.344.266-.516.266V0c.266-.016.844-.031 1.047-.031.329 0 .72.015.954.031v-.25c-.563 0-.641-.047-.766-.39Zm.454 3.094H1.859l.922-2.36Zm0 0" style="stroke:none"/></symbol><symbol id="r" overflow="visible"><path d="M1.828-4.375c0-.25.016-.344.11-.39.078-.032.343-.032.515-.032.719 0 1.563.031 1.563 1.078 0 .375-.047 1.094-1.328 1.094h-.86ZM3.563-2.5c.687-.172 1.296-.625 1.296-1.219 0-.687-.875-1.328-2.062-1.328H.437v.25c.657 0 .704.063.704.453v3.64c0 .407-.047.454-.703.454V0c.296-.016.765-.031 1.046-.031s.797.015 1.047.031v-.25c-.656 0-.703-.047-.703-.453v-1.703h.875c.25 0 .5 0 .813.312.203.203.203.438.203.875 0 .547 0 .735.312 1.032.172.171.578.328 1.016.328.625 0 .766-.61.766-.813 0-.047 0-.14-.125-.14-.11 0-.11.093-.11.125-.078.593-.422.609-.5.609-.187 0-.281-.125-.344-.234C4.656-.47 4.61-.75 4.47-1.375c-.078-.344-.172-.844-.907-1.125m0 0" style="stroke:none"/></symbol><symbol id="s" overflow="visible"><path d="m3.266-2.344-1.36-2a.46.46 0 0 1-.11-.265c0-.188.282-.188.407-.188v-.25c-.265.016-.906.031-1.062.031-.266 0-.657-.015-.953-.03v.25c.515 0 .625.062.796.312l1.688 2.468v1.313c0 .406-.047.453-.703.453V0C2.25-.016 2.734-.031 3-.031c.281 0 .797.015 1.047.031v-.25c-.656 0-.703-.047-.703-.484v-1.282l1.422-2.093c.359-.532.687-.672 1.062-.688v-.25a10 10 0 0 1-.687.031c-.266 0-.532-.015-.797-.03v.25c.203.015.281.14.281.296 0 .14-.078.266-.156.375zm0 0" style="stroke:none"/></symbol><symbol id="t" overflow="visible"><path d="M6.219-6.047c-.328-.328-.922-.875-1.938-.875C2.36-6.922.703-5.344.703-3.359c0 2 1.656 3.578 3.594 3.578C5.953.219 7-1.125 7-2.281c0-.11 0-.172-.125-.172-.11 0-.11.062-.125.156C6.672-.875 5.531-.094 4.422-.094c-.86 0-2.703-.5-2.703-3.25 0-2.89 2.015-3.265 2.687-3.265 1.047 0 2.047.812 2.282 2.328.015.125.03.156.156.156C7-4.125 7-4.156 7-4.359v-2.328c0-.157 0-.235-.11-.235-.046 0-.077 0-.156.125zm0 0" style="stroke:none"/></symbol><symbol id="u" overflow="visible"><path d="M3.766-4.953c0-.156 0-.234-.094-.234-.063 0-.078.015-.219.234-.047.047-.14.187-.187.25a1.74 1.74 0 0 0-1.22-.484C1.142-5.187.5-4.516.5-3.75c0 .547.313.875.438 1 .296.281.484.328 1.39.531.531.125.625.14.844.36.062.03.328.297.328.734 0 .484-.39 1.016-1.062 1.016-.266 0-.782-.032-1.204-.375C.781-.828.75-1.312.75-1.578c-.016-.078-.094-.094-.125-.094-.125 0-.125.078-.125.25v1.328C.5.063.5.141.594.141.656.14.672.125.813-.094A1.4 1.4 0 0 0 1-.344c.281.25.797.485 1.438.485A1.54 1.54 0 0 0 4-1.391c0-.625-.39-1.015-.39-1.015-.36-.375-.516-.406-1.36-.61a21 21 0 0 1-.594-.14C1.156-3.36 1-3.734 1-4.031c0-.453.39-.938 1.047-.938 1.25 0 1.422 1.157 1.469 1.469.015.063.015.125.125.125.125 0 .125-.047.125-.234zm0 0" style="stroke:none"/></symbol><symbol id="v" overflow="visible"><path d="M5.313-4.984H.484L.36-3.328h.235C.688-4.563.89-4.734 1.969-4.734c.547 0 .578 0 .578.422V-.75c0 .39-.031.5-.797.5h-.203V0c.39-.031.969-.031 1.36-.031.39 0 .968 0 1.359.031v-.25h-.22c-.75 0-.796-.11-.796-.5v-3.562c0-.422.031-.422.594-.422 1.047 0 1.265.156 1.36 1.406h.25zm0 0" style="stroke:none"/></symbol><symbol id="w" overflow="visible"><path d="M1.828-4.328c0-.422.063-.469.75-.469v-.25c-.328.016-.844.031-1.094.031S.72-5.03.375-5.046v.25c.703 0 .75.046.75.468v3.61c0 .421-.047.468-.75.468V0c.344-.016.86-.031 1.11-.031S2.25-.016 2.577 0v-.25c-.687 0-.75-.047-.75-.469zm0 0" style="stroke:none"/></symbol><symbol id="x" overflow="visible"><path d="M7-6.64H.703L.516-4.439H.75c.14-1.64.344-1.906 1.875-1.906.188 0 .469 0 .578.032.219.015.219.14.219.359v5.172c0 .344 0 .484-1.031.484h-.407V0c.407-.031 1.407-.031 1.86-.031s1.469 0 1.86.031v-.297h-.391C4.28-.297 4.28-.437 4.28-.78v-5.172c0-.219 0-.344.219-.36.11-.03.39-.03.578-.03 1.531 0 1.734.265 1.875 1.906h.234Zm0 0" style="stroke:none"/></symbol><symbol id="D" overflow="visible"><path d="M5.563 2.516V1.78l-.72-.156v.734ZM0 .656v.625l3.64.766v-.61Zm0 0" style="stroke:none"/></symbol><symbol id="E" overflow="visible"><path d="M2.484 4.078c.235.063.297.063.422.063.5 0 .813-.25.813-.907 0-.515-.25-.968-.61-1.312l.579.11v-.579L0 .656v.64l1.86.391c.906.204 1.359.594 1.359 1.126 0 .374-.125.656-.531.656-.032 0-.157-.016-.172-.016L0 2.922v.64Zm0 0" style="stroke:none"/></symbol><symbol id="F" overflow="visible"><path d="M3.156 2.11v1.156l.485.093V2.203l1.03.219v-.563l-1.03-.218V.92L3.156.829v.688C2.687 1.406.844 1 .546 1c-.468 0-.64.203-.64.5 0 .438.125.86.313 1.266l.484-.032a1.4 1.4 0 0 1-.265-.796c0-.094 0-.313.375-.313.093 0 .156.016.203.031zm0 0" style="stroke:none"/></symbol><symbol id="G" overflow="visible"><path d="M1.797 3.781c.14.031.453.078.719.078.14 0 .578 0 .906-.265.187-.156.36-.453.36-.875 0-1.047-1.188-2.094-2.376-2.094-.843 0-1.5.547-1.5 1.406 0 .563.219 1.078.422 1.406.11.016.422.032.547.047-.219-.296-.469-.796-.469-1.343s.422-.922 1.078-.922c.11 0 .204 0 .313.015zm.453-2.406c.64.281 1.031.797 1.031 1.25 0 .781-.781.781-1.031.781Zm0 0" style="stroke:none"/></symbol><symbol id="H" overflow="visible"><path d="M3.719 3.469c-.016-.969-.735-1.563-.75-1.578v-.016l.719.156v-.578L0 .672v.61c1 .218 1.797.374 1.922.406.531.156 1.234.765 1.25 1.656zm0 0" style="stroke:none"/></symbol><symbol id="I" overflow="visible"><path d="M.375 1.39c-.14.126-.469.423-.469 1 0 .97 1.14 1.985 2.5 1.985.688 0 1.313-.312 1.313-.953 0-.5-.203-1.063-.485-1.453l.407.093v-.624L-1.594.327v.64Zm2.234.47c.141.046.141.046.235.14.312.36.36.688.36.86 0 .5-.423.859-1.032.859-.922 0-1.766-.781-1.766-1.531 0-.563.516-.672.547-.672 0 0 .094.03.11.03zm0 0" style="stroke:none"/></symbol><symbol id="J" overflow="visible"><path d="M2.25 4.281c.828 0 1.531-.562 1.531-1.437 0-1.172-1.234-2.266-2.39-2.266-.828 0-1.485.578-1.485 1.453 0 1.11 1.078 2.25 2.344 2.25M.438 2.141c0-.391.218-.907 1.015-.907.969 0 1.828.657 1.828 1.5 0 .547-.39.922-.984.922-.828 0-1.86-.578-1.86-1.515m0 0" style="stroke:none"/></symbol><symbol id="K" overflow="visible"><path d="M5.688 2.484v-.609L0 .656v.625zm0 0" style="stroke:none"/></symbol><symbol id="L" overflow="visible"><path d="M2.406 3.781c.11.031.188.031.297.031.594 0 1.078-.39 1.078-1.093 0-.594-.172-1-.36-1.36a10 10 0 0 0-.546-.062c.25.375.422.797.422 1.312 0 .516-.516.563-.656.563s-.61-.094-.625-.125S2 2.875 2 2.844C1.969 2.25 1.813.53.703.53c-.14 0-.797.031-.797.75 0 .203.047.907.375 1.422C.22 2.688.062 2.672 0 2.656v.61ZM1.062 2.86C.407 2.703.407 1.922.407 1.797c0-.406.188-.656.438-.656.656 0 .734 1.453.75 1.828zm0 0" style="stroke:none"/></symbol><symbol id="O" overflow="visible"><path d="M5.688 4.766v-.61L3.28 3.641a1.57 1.57 0 0 0 .438-1.11c0-.969-1.203-1.906-2.438-1.906-.765 0-1.375.39-1.375 1.063 0 .25.063.75.516 1.312L0 2.922v.625zm-4.594-1.61C.89 3.11.406 2.656.406 2.125c0-.328.188-.86.969-.86.969 0 1.844.657 1.844 1.548a.7.7 0 0 1-.453.687c-.016 0-.047 0-.11-.016Zm0 0" style="stroke:none"/></symbol><symbol id="P" overflow="visible"><path d="M3.516 3.547c.172-.36.265-.656.265-1.125 0-.297-.047-.735-.328-1.125A1.3 1.3 0 0 0 2.5.813c-.234 0-.422.109-.578.28-.203.204-.25.407-.344.891-.062.22-.14.61-.5.61 0 0-.656 0-.656-.906C.422 1.39.484.922.828.5L.391.328A.3.3 0 0 0 .28.297c-.031 0-.375.5-.375 1.297 0 1.344 1.016 1.594 1.36 1.594.39 0 .593-.235.672-.313.171-.219.203-.36.296-.812.063-.329.125-.626.454-.626.015 0 .609 0 .609.813 0 .438-.11.766-.313 1.094zm0 0" style="stroke:none"/></symbol><symbol id="Q" overflow="visible"><path d="M3.64 4.328v-.64l-2.421-.5c-.36-.079-.86-.454-.86-1.172 0-.407.094-.547.329-.547.03 0 .078 0 .203.015l2.75.594v-.64L.875.844C.765.813.641.813.531.813c-.297 0-.625.093-.625.703 0 .468.157 1.062.485 1.515L0 2.953v.61Zm0 0" style="stroke:none"/></symbol><symbol id="R" overflow="visible"><path d="M5.688 2.5v-.61L0 .673v.64l.375.079c-.266.234-.469.547-.469 1 0 .968 1.14 1.984 2.485 1.984.656 0 1.328-.297 1.328-.984 0-.47-.188-1.016-.469-1.422ZM2.75 1.906c.094.078.469.438.469.953 0 .485-.328.875-.953.875-.922 0-1.86-.625-1.86-1.546 0-.36.203-.579.532-.672zm0 0" style="stroke:none"/></symbol><symbol id="S" overflow="visible"><path d="M3.422 4.078c.297-.422.36-.734.36-1.187C3.781 1.594 2.468.625 1.39.625c-.75 0-1.485.484-1.485 1.422 0 .437.125.906.422 1.422l.547.062C.672 3.22.438 2.766.438 2.156c0-.562.406-.875 1-.875.703 0 1.812.5 1.812 1.516 0 .484-.094.703-.36 1.078Zm0 0" style="stroke:none"/></symbol><symbol id="T" overflow="visible"><path d="M3.64 4.422v-.61L1.798 2.689C1.345 2.439.767 2.126.47 2.048V2.03a.8.8 0 0 0 .203.016c.437 0 1.25-.14 1.672-.235l1.297-.28V.89L.11 1.67c-.015 0-.078.032-.093.032-.047 0-.625-.375-.735-.437-.36-.235-.5-.375-.5-.578a1.7 1.7 0 0 1 .14-.61l-.53-.062a3 3 0 0 0-.063.562c0 .235.031.578.953 1.156zm0 0" style="stroke:none"/></symbol><symbol id="U" overflow="visible"><path d="M2.484 6.36c.157.03.235.046.422.046.5 0 .813-.234.813-.906 0-.703-.469-1.172-.672-1.36.328-.03.672-.202.672-.906 0-.656-.422-1.14-.61-1.312l.579.11v-.579L0 .656v.64l1.86.391c.75.172 1.359.5 1.359 1.126 0 .343-.094.671-.531.671-.032 0-.157-.015-.172-.015L0 2.938v.624l1.86.407c.75.156 1.359.5 1.359 1.11 0 .343-.094.671-.531.671-.032 0-.157-.016-.172-.016L0 5.204v.64Zm0 0" style="stroke:none"/></symbol><symbol id="V" overflow="visible"><path d="M3.64 4.422v-.61L2.017 2.86C.719 2.094.53 2.031.422 1.984h.016c.484 0 1.421-.156 1.453-.171l1.75-.297V.89L0 1.516v.734Zm0 0" style="stroke:none"/></symbol><symbol id="X" overflow="visible"><path d="M5.844-2.437c0-.547-.14-1.282-1.125-1.282-.5 0-.922.219-1.219.672-.219-.625-.797-.672-1.047-.672-.594 0-.984.328-1.203.625v-.594H.656V0h.64v-2c0-.562.22-1.219.829-1.219.766 0 .813.531.813.844V0h.624v-2c0-.562.235-1.219.829-1.219.765 0 .812.531.812.844V0h.64Zm0 0" style="stroke:none"/></symbol><symbol id="Y" overflow="visible"><path d="M3.563-3.64h-.641v2.374c0 .625-.453.907-.985.907-.578 0-.64-.22-.64-.563V-3.64h-.64v2.75c0 .594.187.985.874.985.438 0 1.016-.14 1.422-.485V0h.61Zm0 0" style="stroke:none"/></symbol><symbol id="Z" overflow="visible"><path d="M1.281-5.687H.656V0h.625zm0 0" style="stroke:none"/></symbol><symbol id="aa" overflow="visible"><path d="M1.438-3.156h1.156v-.485H1.438v-1.03H.875v1.03H.156v.485h.688V-.97c0 .485.11 1.063.672 1.063.578 0 1-.203 1.203-.313l-.125-.484a1.22 1.22 0 0 1-.75.265c-.297 0-.407-.234-.407-.671Zm0 0" style="stroke:none"/></symbol><symbol id="ab" overflow="visible"><path d="M1.328-5.562H.61v.718h.72zm-.047 1.921H.656V0h.625zm0 0" style="stroke:none"/></symbol><symbol id="ac" overflow="visible"><path d="M1.313-.375c.25.234.609.469 1.109.469.781 0 1.515-.813 1.515-1.922 0-.984-.515-1.89-1.312-1.89-.484 0-.969.171-1.344.484v-.407h-.61v5.235h.642Zm0-2.344a1.03 1.03 0 0 1 .859-.484c.625 0 1.125.625 1.125 1.375 0 .844-.594 1.422-1.203 1.422-.313 0-.531-.172-.703-.39-.079-.126-.079-.141-.079-.282Zm0 0" style="stroke:none"/></symbol><symbol id="ad" overflow="visible"><path d="M3.656-3.64h-.625C1.97-1.032 1.953-.657 1.953-.47h-.016c-.046-.547-.703-2.062-.734-2.14L.766-3.641H.109L1.703 0c-.094.25-.266.656-.297.734-.203.485-.343.485-.468.485s-.391-.047-.641-.14l.062.53c.172.047.407.063.579.063.296 0 .593-.094.921-.922zm0 0" style="stroke:none"/></symbol><symbol id="ae" overflow="visible"><path d="M3.844-1.797c0-1.094-.828-1.984-1.797-1.984-1 0-1.797.906-1.797 1.984S1.078.093 2.031.093c.985 0 1.813-.827 1.813-1.89M2.03-.437C1.468-.437.89-.891.89-1.891c0-.984.609-1.39 1.14-1.39.578 0 1.172.437 1.172 1.39 0 .97-.562 1.454-1.172 1.454m0 0" style="stroke:none"/></symbol><symbol id="af" overflow="visible"><path d="M1.281-1.75c0-.828.594-1.406 1.39-1.422v-.547c-.718 0-1.171.406-1.421.781v-.75H.672V0h.61Zm0 0" style="stroke:none"/></symbol><symbol id="ag" overflow="visible"><path d="M3.547-5.687h-.61v2.406A1.86 1.86 0 0 0 1.75-3.72c-.812 0-1.453.844-1.453 1.906C.297-.75.922.095 1.703.095c.266 0 .75-.078 1.219-.516V0h.625zm-.625 4.546c0 .11-.016.266-.281.5a.86.86 0 0 1-.61.235c-.5 0-1.094-.39-1.094-1.406 0-1.079.704-1.407 1.188-1.407.36 0 .61.188.797.438zm0 0" style="stroke:none"/></symbol><symbol id="ah" overflow="visible"><path d="M3.656-3.64h-.625l-.64 1.703c-.172.453-.422 1.125-.485 1.5h-.015c-.047-.297-.266-.86-.344-1.079L.75-3.64H.11L1.515 0h.734Zm0 0" style="stroke:none"/></symbol><symbol id="ai" overflow="visible"><path d="M3.39-1.797c0-.281-.015-.89-.328-1.375a1.32 1.32 0 0 0-1.124-.61C1.03-3.781.28-2.905.28-1.843.28-.765 1.077.095 2.061.095c.516 0 .97-.203 1.297-.422l-.046-.547a1.95 1.95 0 0 1-1.25.469C1.406-.406.89-.984.859-1.796zM.907-2.25c.125-.61.563-1.031 1.031-1.031.422 0 .876.281.985 1.031zm0 0" style="stroke:none"/></symbol><symbol id="aj" overflow="visible"><path d="M1.281-5.687h-.61V0h.642v-.375c.187.172.546.469 1.093.469.813 0 1.531-.828 1.531-1.922 0-1.016-.562-1.89-1.328-1.89a2.13 2.13 0 0 0-1.328.468zm.032 2.937c.125-.187.421-.469.875-.469.484 0 1.109.344 1.109 1.39 0 1.063-.688 1.423-1.188 1.423-.328 0-.593-.156-.796-.531zm0 0" style="stroke:none"/></symbol><symbol id="ak" overflow="visible"><path d="M3.281-3.312v-.329H.344v.485H2.42L.235-.328V0h3.063v-.5H1.094Zm0 0" style="stroke:none"/></symbol><symbol id="al" overflow="visible"><path d="M3.734-5.687h-.671v.671h.671zm-.03 2.046h-.61V0h.61Zm-2.266.485h.968v-.485h-.984v-.984c0-.531.297-.64.5-.64.172 0 .344.046.484.14v-.562a1.6 1.6 0 0 0-.484-.079c-.61 0-1.094.563-1.094 1.391v.734h-.61v.485h.61V0h.61Zm0 0" style="stroke:none"/></symbol><clipPath id="a"><path d="M0 0h362.836v272.125H0Zm0 0"/></clipPath></defs><g clip-path="url(#a)"><path d="M0 0h362.836v272.125H0Zm0 0" style="fill:#fff;fill-opacity:1;fill-rule:nonzero;stroke:none"/></g><g style="fill:#7f0000;fill-opacity:1"><use xlink:href="#b" width="100%" height="100%" x="153.943" y="22.107"/><use xlink:href="#c" width="100%" height="100%" x="158.787" y="22.107"/><use xlink:href="#b" width="100%" height="100%" x="163.816" y="22.107"/><use xlink:href="#d" width="100%" height="100%" x="168.659" y="22.107"/><use xlink:href="#e" width="100%" height="100%" x="173.503" y="22.107"/><use xlink:href="#f" width="100%" height="100%" x="179.132" y="22.107"/><use xlink:href="#g" width="100%" height="100%" x="183.07" y="22.107"/></g><g style="fill:#7f0000;fill-opacity:1"><use xlink:href="#h" width="100%" height="100%" x="185.699" y="22.107"/><use xlink:href="#i" width="100%" height="100%" x="191.154" y="22.107"/></g><g style="fill:#7f0000;fill-opacity:1"><use xlink:href="#f" width="100%" height="100%" x="164.064" y="35.656"/><use xlink:href="#j" width="100%" height="100%" x="168.002" y="35.656"/><use xlink:href="#k" width="100%" height="100%" x="171.722" y="35.656"/><use xlink:href="#d" width="100%" height="100%" x="176.959" y="35.656"/><use xlink:href="#b" width="100%" height="100%" x="181.802" y="35.656"/></g><g style="fill:#7f0000;fill-opacity:1"><use xlink:href="#l" width="100%" height="100%" x="65.697" y="22.513"/><use xlink:href="#m" width="100%" height="100%" x="73.257" y="22.513"/><use xlink:href="#n" width="100%" height="100%" x="79.492" y="22.513"/><use xlink:href="#o" width="100%" height="100%" x="85.511" y="22.513"/><use xlink:href="#p" width="100%" height="100%" x="91.529" y="22.513"/></g><g style="fill:#7f0000;fill-opacity:1"><use xlink:href="#q" width="100%" height="100%" x="97.459" y="22.513"/><use xlink:href="#r" width="100%" height="100%" x="103.478" y="22.513"/></g><use xlink:href="#s" width="100%" height="100%" x="108.74" y="22.513" style="fill:#7f0000;fill-opacity:1"/><g style="fill:#7f0000;fill-opacity:1"><use xlink:href="#t" width="100%" height="100%" x="59.578" y="34.708"/><use xlink:href="#m" width="100%" height="100%" x="67.295" y="34.708"/><use xlink:href="#o" width="100%" height="100%" x="73.53" y="34.708"/><use xlink:href="#u" width="100%" height="100%" x="79.549" y="34.708"/><use xlink:href="#v" width="100%" height="100%" x="84.035" y="34.708"/><use xlink:href="#r" width="100%" height="100%" x="89.838" y="34.708"/><use xlink:href="#q" width="100%" height="100%" x="95.749" y="34.708"/><use xlink:href="#w" width="100%" height="100%" x="101.767" y="34.708"/></g><g style="fill:#7f0000;fill-opacity:1"><use xlink:href="#o" width="100%" height="100%" x="104.762" y="34.708"/><use xlink:href="#v" width="100%" height="100%" x="110.78" y="34.708"/><use xlink:href="#u" width="100%" height="100%" x="116.583" y="34.708"/></g><g style="fill:#7f0000;fill-opacity:1"><use xlink:href="#x" width="100%" height="100%" x="233.323" y="22.514"/><use xlink:href="#r" width="100%" height="100%" x="241.04" y="22.514"/><use xlink:href="#q" width="100%" height="100%" x="246.951" y="22.514"/><use xlink:href="#o" width="100%" height="100%" x="252.969" y="22.514"/><use xlink:href="#u" width="100%" height="100%" x="258.988" y="22.514"/><use xlink:href="#w" width="100%" height="100%" x="263.475" y="22.514"/><use xlink:href="#v" width="100%" height="100%" x="266.44" y="22.514"/><use xlink:href="#w" width="100%" height="100%" x="272.242" y="22.514"/><use xlink:href="#m" width="100%" height="100%" x="275.207" y="22.514"/></g><use xlink:href="#o" width="100%" height="100%" x="281.471" y="22.514" style="fill:#7f0000;fill-opacity:1"/><g style="fill:#7f0000;fill-opacity:1"><use xlink:href="#t" width="100%" height="100%" x="229.657" y="34.708"/><use xlink:href="#m" width="100%" height="100%" x="237.374" y="34.708"/><use xlink:href="#o" width="100%" height="100%" x="243.609" y="34.708"/><use xlink:href="#u" width="100%" height="100%" x="249.627" y="34.708"/><use xlink:href="#v" width="100%" height="100%" x="254.114" y="34.708"/><use xlink:href="#r" width="100%" height="100%" x="259.917" y="34.708"/><use xlink:href="#q" width="100%" height="100%" x="265.827" y="34.708"/><use xlink:href="#w" width="100%" height="100%" x="271.846" y="34.708"/></g><g style="fill:#7f0000;fill-opacity:1"><use xlink:href="#o" width="100%" height="100%" x="274.841" y="34.708"/><use xlink:href="#v" width="100%" height="100%" x="280.859" y="34.708"/><use xlink:href="#u" width="100%" height="100%" x="286.662" y="34.708"/></g><g style="fill:#00007f;fill-opacity:1"><use xlink:href="#f" width="100%" height="100%" x="164.064" y="107.147"/><use xlink:href="#j" width="100%" height="100%" x="168.002" y="107.147"/><use xlink:href="#k" width="100%" height="100%" x="171.722" y="107.147"/><use xlink:href="#d" width="100%" height="100%" x="176.959" y="107.147"/><use xlink:href="#b" width="100%" height="100%" x="181.802" y="107.147"/></g><use xlink:href="#y" width="100%" height="100%" x="148.655" y="120.696" style="fill:#00007f;fill-opacity:1"/><g style="fill:#00007f;fill-opacity:1"><use xlink:href="#h" width="100%" height="100%" x="154.6" y="120.696"/><use xlink:href="#z" width="100%" height="100%" x="160.055" y="120.696"/><use xlink:href="#A" width="100%" height="100%" x="162.651" y="120.696"/><use xlink:href="#i" width="100%" height="100%" x="167.68" y="120.696"/><use xlink:href="#h" width="100%" height="100%" x="173.31" y="120.696"/><use xlink:href="#B" width="100%" height="100%" x="178.764" y="120.696"/><use xlink:href="#g" width="100%" height="100%" x="187.426" y="120.696"/></g><g style="fill:#00007f;fill-opacity:1"><use xlink:href="#k" width="100%" height="100%" x="190.055" y="120.696"/><use xlink:href="#z" width="100%" height="100%" x="195.291" y="120.696"/><use xlink:href="#C" width="100%" height="100%" x="197.888" y="120.696"/></g><path d="M175.367 43.555V93.37" style="fill:none;stroke:#000;stroke-width:.3985;stroke-linecap:butt;stroke-linejoin:miter;stroke-miterlimit:10;stroke-opacity:1"/><path d="M92.176 176.96c.097-.597 1.195-1.495 1.492-1.593-.297-.101-1.395-.996-1.492-1.594" style="fill:none;stroke:#000;stroke-width:.31879;stroke-linecap:round;stroke-linejoin:round;stroke-miterlimit:10;stroke-opacity:1" transform="matrix(0 1 1 0 0 0)"/><g style="fill:#7f7f7f;fill-opacity:1"><use xlink:href="#D" width="100%" height="100%" x="179.835" y="47.005"/><use xlink:href="#E" width="100%" height="100%" x="179.835" y="48.952"/><use xlink:href="#F" width="100%" height="100%" x="179.835" y="53.174"/><use xlink:href="#G" width="100%" height="100%" x="179.835" y="56.128"/><use xlink:href="#H" width="100%" height="100%" x="179.835" y="59.76"/></g><use xlink:href="#I" width="100%" height="100%" x="179.835" y="62.575" style="fill:#7f7f7f;fill-opacity:1"/><g style="fill:#7f7f7f;fill-opacity:1"><use xlink:href="#J" width="100%" height="100%" x="179.835" y="67.034"/><use xlink:href="#K" width="100%" height="100%" x="179.835" y="71.125"/><use xlink:href="#L" width="100%" height="100%" x="179.835" y="73.072"/><use xlink:href="#F" width="100%" height="100%" x="179.835" y="77"/><use xlink:href="#D" width="100%" height="100%" x="179.835" y="79.953"/><use xlink:href="#J" width="100%" height="100%" x="179.835" y="81.9"/><use xlink:href="#E" width="100%" height="100%" x="179.835" y="85.991"/></g><use xlink:href="#M" width="100%" height="100%" x="69.328" y="163.839" style="fill:#00007f;fill-opacity:1"/><g style="fill:#00007f;fill-opacity:1"><use xlink:href="#h" width="100%" height="100%" x="75.273" y="163.839"/><use xlink:href="#e" width="100%" height="100%" x="80.728" y="163.839"/><use xlink:href="#i" width="100%" height="100%" x="86.357" y="163.839"/><use xlink:href="#N" width="100%" height="100%" x="91.986" y="163.839"/><use xlink:href="#k" width="100%" height="100%" x="97.615" y="163.839"/></g><g style="fill:#00007f;fill-opacity:1"><use xlink:href="#j" width="100%" height="100%" x="102.568" y="163.839"/><use xlink:href="#A" width="100%" height="100%" x="106.288" y="163.839"/></g><use xlink:href="#y" width="100%" height="100%" x="63.616" y="177.389" style="fill:#00007f;fill-opacity:1"/><g style="fill:#00007f;fill-opacity:1"><use xlink:href="#h" width="100%" height="100%" x="69.561" y="177.389"/><use xlink:href="#z" width="100%" height="100%" x="75.016" y="177.389"/><use xlink:href="#A" width="100%" height="100%" x="77.612" y="177.389"/><use xlink:href="#i" width="100%" height="100%" x="82.641" y="177.389"/><use xlink:href="#h" width="100%" height="100%" x="88.271" y="177.389"/><use xlink:href="#B" width="100%" height="100%" x="93.725" y="177.389"/><use xlink:href="#g" width="100%" height="100%" x="102.387" y="177.389"/></g><g style="fill:#00007f;fill-opacity:1"><use xlink:href="#k" width="100%" height="100%" x="105.016" y="177.389"/><use xlink:href="#z" width="100%" height="100%" x="110.252" y="177.389"/><use xlink:href="#C" width="100%" height="100%" x="112.849" y="177.389"/></g><g style="fill:#00007f;fill-opacity:1"><use xlink:href="#f" width="100%" height="100%" x="238.922" y="163.839"/><use xlink:href="#j" width="100%" height="100%" x="242.86" y="163.839"/><use xlink:href="#k" width="100%" height="100%" x="246.58" y="163.839"/><use xlink:href="#i" width="100%" height="100%" x="251.817" y="163.839"/><use xlink:href="#C" width="100%" height="100%" x="257.446" y="163.839"/><use xlink:href="#g" width="100%" height="100%" x="261.624" y="163.839"/></g><g style="fill:#00007f;fill-opacity:1"><use xlink:href="#f" width="100%" height="100%" x="264.253" y="163.839"/><use xlink:href="#g" width="100%" height="100%" x="268.191" y="163.839"/><use xlink:href="#h" width="100%" height="100%" x="270.787" y="163.839"/><use xlink:href="#i" width="100%" height="100%" x="276.242" y="163.839"/></g><use xlink:href="#y" width="100%" height="100%" x="233.695" y="177.389" style="fill:#00007f;fill-opacity:1"/><g style="fill:#00007f;fill-opacity:1"><use xlink:href="#h" width="100%" height="100%" x="239.64" y="177.389"/><use xlink:href="#z" width="100%" height="100%" x="245.095" y="177.389"/><use xlink:href="#A" width="100%" height="100%" x="247.691" y="177.389"/><use xlink:href="#i" width="100%" height="100%" x="252.72" y="177.389"/><use xlink:href="#h" width="100%" height="100%" x="258.35" y="177.389"/><use xlink:href="#B" width="100%" height="100%" x="263.804" y="177.389"/><use xlink:href="#g" width="100%" height="100%" x="272.466" y="177.389"/></g><g style="fill:#00007f;fill-opacity:1"><use xlink:href="#k" width="100%" height="100%" x="275.095" y="177.389"/><use xlink:href="#z" width="100%" height="100%" x="280.331" y="177.389"/><use xlink:href="#C" width="100%" height="100%" x="282.928" y="177.389"/></g><path d="M90.328 41.816v108.247" style="fill:none;stroke:#000;stroke-width:.3985;stroke-linecap:butt;stroke-linejoin:miter;stroke-miterlimit:10;stroke-opacity:1"/><path d="M148.867 91.922c.102-.598 1.196-1.496 1.496-1.594-.3-.101-1.394-.996-1.496-1.594" style="fill:none;stroke:#000;stroke-width:.31879;stroke-linecap:round;stroke-linejoin:round;stroke-miterlimit:10;stroke-opacity:1" transform="matrix(0 1 1 0 0 0)"/><g style="fill:#7f7f7f;fill-opacity:1"><use xlink:href="#D" width="100%" height="100%" x="81.77" y="54.726"/><use xlink:href="#E" width="100%" height="100%" x="81.77" y="56.673"/><use xlink:href="#F" width="100%" height="100%" x="81.77" y="60.895"/><use xlink:href="#G" width="100%" height="100%" x="81.77" y="63.849"/><use xlink:href="#H" width="100%" height="100%" x="81.77" y="67.481"/></g><use xlink:href="#I" width="100%" height="100%" x="81.77" y="70.296" style="fill:#7f7f7f;fill-opacity:1"/><g style="fill:#7f7f7f;fill-opacity:1"><use xlink:href="#J" width="100%" height="100%" x="81.77" y="74.755"/><use xlink:href="#K" width="100%" height="100%" x="81.77" y="78.846"/><use xlink:href="#L" width="100%" height="100%" x="81.77" y="80.793"/><use xlink:href="#F" width="100%" height="100%" x="81.77" y="84.721"/><use xlink:href="#G" width="100%" height="100%" x="81.77" y="87.674"/></g><g style="fill:#7f7f7f;fill-opacity:1"><use xlink:href="#L" width="100%" height="100%" x="81.77" y="94.048"/><use xlink:href="#E" width="100%" height="100%" x="81.77" y="97.975"/><use xlink:href="#O" width="100%" height="100%" x="81.77" y="102.197"/></g><g style="fill:#7f7f7f;fill-opacity:1"><use xlink:href="#P" width="100%" height="100%" x="81.77" y="109.151"/><use xlink:href="#Q" width="100%" height="100%" x="81.77" y="112.285"/><use xlink:href="#R" width="100%" height="100%" x="81.77" y="116.507"/><use xlink:href="#F" width="100%" height="100%" x="81.77" y="120.729"/><use xlink:href="#H" width="100%" height="100%" x="81.77" y="123.682"/></g><g style="fill:#7f7f7f;fill-opacity:1"><use xlink:href="#L" width="100%" height="100%" x="81.77" y="126.497"/><use xlink:href="#S" width="100%" height="100%" x="81.77" y="130.424"/><use xlink:href="#F" width="100%" height="100%" x="81.77" y="134.057"/></g><path d="M138.383 111.21H90.785" style="fill:none;stroke:#000;stroke-width:.3985;stroke-linecap:butt;stroke-linejoin:miter;stroke-miterlimit:10;stroke-opacity:1"/><path d="M137.188 109.617c.101.598 1.195 1.496 1.496 1.594-.301.101-1.395.996-1.496 1.594m-45.208 0c-.101-.598-1.195-1.493-1.496-1.594.301-.098 1.395-.996 1.496-1.594" style="fill:none;stroke:#000;stroke-width:.31879;stroke-linecap:round;stroke-linejoin:round;stroke-miterlimit:10;stroke-opacity:1"/><path d="M260.406 41.816v108.247" style="fill:none;stroke:#000;stroke-width:.3985;stroke-linecap:butt;stroke-linejoin:miter;stroke-miterlimit:10;stroke-opacity:1"/><path d="M148.867 262c.102-.598 1.196-1.492 1.496-1.594-.3-.097-1.394-.996-1.496-1.594" style="fill:none;stroke:#000;stroke-width:.31879;stroke-linecap:round;stroke-linejoin:round;stroke-miterlimit:10;stroke-opacity:1" transform="matrix(0 1 1 0 0 0)"/><g style="fill:#7f7f7f;fill-opacity:1"><use xlink:href="#P" width="100%" height="100%" x="264.874" y="62.642"/><use xlink:href="#T" width="100%" height="100%" x="264.874" y="65.776"/><use xlink:href="#U" width="100%" height="100%" x="264.874" y="69.547"/><use xlink:href="#R" width="100%" height="100%" x="264.874" y="76.044"/></g><g style="fill:#7f7f7f;fill-opacity:1"><use xlink:href="#J" width="100%" height="100%" x="264.874" y="80.511"/><use xlink:href="#K" width="100%" height="100%" x="264.874" y="84.602"/><use xlink:href="#D" width="100%" height="100%" x="264.874" y="86.549"/><use xlink:href="#S" width="100%" height="100%" x="264.874" y="88.497"/></g><g style="fill:#7f7f7f;fill-opacity:1"><use xlink:href="#G" width="100%" height="100%" x="264.874" y="94.87"/><use xlink:href="#V" width="100%" height="100%" x="264.874" y="98.503"/><use xlink:href="#L" width="100%" height="100%" x="264.874" y="102.275"/><use xlink:href="#K" width="100%" height="100%" x="264.874" y="106.202"/><use xlink:href="#Q" width="100%" height="100%" x="264.874" y="108.149"/><use xlink:href="#L" width="100%" height="100%" x="264.874" y="112.371"/></g><g style="fill:#7f7f7f;fill-opacity:1"><use xlink:href="#F" width="100%" height="100%" x="264.874" y="116.323"/><use xlink:href="#D" width="100%" height="100%" x="264.874" y="119.277"/><use xlink:href="#J" width="100%" height="100%" x="264.874" y="121.224"/><use xlink:href="#E" width="100%" height="100%" x="264.874" y="125.315"/></g><path d="M211.89 111.21h48.06" style="fill:none;stroke:#000;stroke-width:.3985;stroke-linecap:butt;stroke-linejoin:miter;stroke-miterlimit:10;stroke-opacity:1"/><path d="M258.754 109.617c.098.598 1.195 1.496 1.492 1.594-.297.101-1.394.996-1.492 1.594" style="fill:none;stroke:#000;stroke-width:.31879;stroke-linecap:round;stroke-linejoin:round;stroke-miterlimit:10;stroke-opacity:1"/><path d="M59.71 221.586h61.231v34.371h-61.23Zm0 0" style="fill:none;stroke:#007f00;stroke-width:.3985;stroke-linecap:butt;stroke-linejoin:miter;stroke-miterlimit:10;stroke-opacity:1"/><use xlink:href="#M" width="100%" height="100%" x="69.328" y="234.706" style="fill:#00007f;fill-opacity:1"/><g style="fill:#00007f;fill-opacity:1"><use xlink:href="#h" width="100%" height="100%" x="75.273" y="234.706"/><use xlink:href="#e" width="100%" height="100%" x="80.728" y="234.706"/><use xlink:href="#i" width="100%" height="100%" x="86.357" y="234.706"/><use xlink:href="#N" width="100%" height="100%" x="91.986" y="234.706"/><use xlink:href="#k" width="100%" height="100%" x="97.615" y="234.706"/></g><g style="fill:#00007f;fill-opacity:1"><use xlink:href="#j" width="100%" height="100%" x="102.568" y="234.706"/><use xlink:href="#A" width="100%" height="100%" x="106.288" y="234.706"/></g><g style="fill:#00007f;fill-opacity:1"><use xlink:href="#W" width="100%" height="100%" x="69.389" y="248.255"/><use xlink:href="#e" width="100%" height="100%" x="75.018" y="248.255"/><use xlink:href="#h" width="100%" height="100%" x="80.647" y="248.255"/><use xlink:href="#f" width="100%" height="100%" x="86.102" y="248.255"/><use xlink:href="#g" width="100%" height="100%" x="90.04" y="248.255"/><use xlink:href="#b" width="100%" height="100%" x="92.636" y="248.255"/></g><g style="fill:#00007f;fill-opacity:1"><use xlink:href="#i" width="100%" height="100%" x="97.513" y="248.255"/><use xlink:href="#f" width="100%" height="100%" x="103.142" y="248.255"/><use xlink:href="#C" width="100%" height="100%" x="107.08" y="248.255"/></g><path d="M229.309 221.586h62.199v34.371h-62.2zm0 0" style="fill:none;stroke:#007f00;stroke-width:.3985;stroke-linecap:butt;stroke-linejoin:miter;stroke-miterlimit:10;stroke-opacity:1"/><g style="fill:#00007f;fill-opacity:1"><use xlink:href="#f" width="100%" height="100%" x="238.922" y="234.706"/><use xlink:href="#j" width="100%" height="100%" x="242.86" y="234.706"/><use xlink:href="#k" width="100%" height="100%" x="246.58" y="234.706"/><use xlink:href="#i" width="100%" height="100%" x="251.817" y="234.706"/><use xlink:href="#C" width="100%" height="100%" x="257.446" y="234.706"/><use xlink:href="#g" width="100%" height="100%" x="261.624" y="234.706"/></g><g style="fill:#00007f;fill-opacity:1"><use xlink:href="#f" width="100%" height="100%" x="264.253" y="234.706"/><use xlink:href="#g" width="100%" height="100%" x="268.191" y="234.706"/><use xlink:href="#h" width="100%" height="100%" x="270.787" y="234.706"/><use xlink:href="#i" width="100%" height="100%" x="276.242" y="234.706"/></g><g style="fill:#00007f;fill-opacity:1"><use xlink:href="#W" width="100%" height="100%" x="239.467" y="248.255"/><use xlink:href="#e" width="100%" height="100%" x="245.096" y="248.255"/><use xlink:href="#h" width="100%" height="100%" x="250.725" y="248.255"/><use xlink:href="#f" width="100%" height="100%" x="256.18" y="248.255"/><use xlink:href="#g" width="100%" height="100%" x="260.118" y="248.255"/><use xlink:href="#b" width="100%" height="100%" x="262.714" y="248.255"/></g><g style="fill:#00007f;fill-opacity:1"><use xlink:href="#i" width="100%" height="100%" x="267.591" y="248.255"/><use xlink:href="#f" width="100%" height="100%" x="273.22" y="248.255"/><use xlink:href="#C" width="100%" height="100%" x="277.158" y="248.255"/></g><path d="M90.328 185.75v35.18" style="fill:none;stroke:#000;stroke-width:.3985;stroke-linecap:butt;stroke-linejoin:miter;stroke-miterlimit:10;stroke-opacity:1"/><path d="M-186.945-88.734c.101-.598 1.195-1.493 1.496-1.594-.301-.098-1.395-.996-1.496-1.594" style="fill:none;stroke:#000;stroke-width:.31879;stroke-linecap:round;stroke-linejoin:round;stroke-miterlimit:10;stroke-opacity:1" transform="scale(1 -1)rotate(90)"/><path d="M219.734 91.922c.102-.598 1.196-1.496 1.496-1.594-.3-.101-1.394-.996-1.496-1.594" style="fill:none;stroke:#000;stroke-width:.31879;stroke-linecap:round;stroke-linejoin:round;stroke-miterlimit:10;stroke-opacity:1" transform="matrix(0 1 1 0 0 0)"/><g style="fill:#7f7f7f;fill-opacity:1"><use xlink:href="#X" width="100%" height="100%" x="97.688" y="195.208"/><use xlink:href="#Y" width="100%" height="100%" x="104.184" y="195.208"/><use xlink:href="#Z" width="100%" height="100%" x="108.406" y="195.208"/><use xlink:href="#aa" width="100%" height="100%" x="110.353" y="195.208"/><use xlink:href="#ab" width="100%" height="100%" x="113.307" y="195.208"/></g><g style="fill:#7f7f7f;fill-opacity:1"><use xlink:href="#ac" width="100%" height="100%" x="115.278" y="195.208"/><use xlink:href="#Z" width="100%" height="100%" x="119.5" y="195.208"/><use xlink:href="#ad" width="100%" height="100%" x="121.448" y="195.208"/></g><use xlink:href="#ae" width="100%" height="100%" x="127.96" y="195.208" style="fill:#7f7f7f;fill-opacity:1"/><use xlink:href="#af" width="100%" height="100%" x="131.83" y="195.208" style="fill:#7f7f7f;fill-opacity:1"/><g style="fill:#7f7f7f;fill-opacity:1"><use xlink:href="#ag" width="100%" height="100%" x="97.688" y="205.37"/><use xlink:href="#ab" width="100%" height="100%" x="101.909" y="205.37"/><use xlink:href="#ah" width="100%" height="100%" x="103.857" y="205.37"/><use xlink:href="#ab" width="100%" height="100%" x="107.628" y="205.37"/></g><g style="fill:#7f7f7f;fill-opacity:1"><use xlink:href="#ag" width="100%" height="100%" x="109.6" y="205.37"/><use xlink:href="#ai" width="100%" height="100%" x="113.822" y="205.37"/></g><use xlink:href="#aj" width="100%" height="100%" x="120.188" y="205.37" style="fill:#7f7f7f;fill-opacity:1"/><use xlink:href="#ad" width="100%" height="100%" x="124.18" y="205.37" style="fill:#7f7f7f;fill-opacity:1"/><g style="fill:#7f7f7f;fill-opacity:1"><use xlink:href="#ak" width="100%" height="100%" x="97.688" y="215.531"/><use xlink:href="#ai" width="100%" height="100%" x="101.238" y="215.531"/><use xlink:href="#af" width="100%" height="100%" x="104.871" y="215.531"/><use xlink:href="#ae" width="100%" height="100%" x="107.661" y="215.531"/></g><use xlink:href="#al" width="100%" height="100%" x="111.752" y="215.531" style="fill:#7f7f7f;fill-opacity:1"/><g style="fill:#7f7f7f;fill-opacity:1"><use xlink:href="#ai" width="100%" height="100%" x="116.138" y="215.531"/><use xlink:href="#af" width="100%" height="100%" x="119.77" y="215.531"/></g><path d="M260.406 185.75v35.18" style="fill:none;stroke:#000;stroke-width:.3985;stroke-linecap:butt;stroke-linejoin:miter;stroke-miterlimit:10;stroke-opacity:1"/><path d="M-186.945-258.812c.101-.598 1.195-1.497 1.496-1.594-.301-.102-1.395-.996-1.496-1.594" style="fill:none;stroke:#000;stroke-width:.31879;stroke-linecap:round;stroke-linejoin:round;stroke-miterlimit:10;stroke-opacity:1" transform="scale(1 -1)rotate(90)"/><path d="M219.734 262c.102-.598 1.196-1.492 1.496-1.594-.3-.097-1.394-.996-1.496-1.594" style="fill:none;stroke:#000;stroke-width:.31879;stroke-linecap:round;stroke-linejoin:round;stroke-miterlimit:10;stroke-opacity:1" transform="matrix(0 1 1 0 0 0)"/><g style="fill:#7f7f7f;fill-opacity:1"><use xlink:href="#X" width="100%" height="100%" x="267.767" y="195.208"/><use xlink:href="#Y" width="100%" height="100%" x="274.263" y="195.208"/><use xlink:href="#Z" width="100%" height="100%" x="278.485" y="195.208"/><use xlink:href="#aa" width="100%" height="100%" x="280.432" y="195.208"/><use xlink:href="#ab" width="100%" height="100%" x="283.386" y="195.208"/></g><g style="fill:#7f7f7f;fill-opacity:1"><use xlink:href="#ac" width="100%" height="100%" x="285.357" y="195.208"/><use xlink:href="#Z" width="100%" height="100%" x="289.579" y="195.208"/><use xlink:href="#ad" width="100%" height="100%" x="291.527" y="195.208"/></g><use xlink:href="#ae" width="100%" height="100%" x="298.039" y="195.208" style="fill:#7f7f7f;fill-opacity:1"/><use xlink:href="#af" width="100%" height="100%" x="301.901" y="195.208" style="fill:#7f7f7f;fill-opacity:1"/><g style="fill:#7f7f7f;fill-opacity:1"><use xlink:href="#ag" width="100%" height="100%" x="267.767" y="205.37"/><use xlink:href="#ab" width="100%" height="100%" x="271.988" y="205.37"/><use xlink:href="#ah" width="100%" height="100%" x="273.936" y="205.37"/><use xlink:href="#ab" width="100%" height="100%" x="277.707" y="205.37"/></g><g style="fill:#7f7f7f;fill-opacity:1"><use xlink:href="#ag" width="100%" height="100%" x="279.679" y="205.37"/><use xlink:href="#ai" width="100%" height="100%" x="283.901" y="205.37"/></g><use xlink:href="#aj" width="100%" height="100%" x="290.267" y="205.37" style="fill:#7f7f7f;fill-opacity:1"/><use xlink:href="#ad" width="100%" height="100%" x="294.259" y="205.37" style="fill:#7f7f7f;fill-opacity:1"/><g style="fill:#7f7f7f;fill-opacity:1"><use xlink:href="#ak" width="100%" height="100%" x="267.767" y="215.531"/><use xlink:href="#ai" width="100%" height="100%" x="271.317" y="215.531"/><use xlink:href="#af" width="100%" height="100%" x="274.95" y="215.531"/><use xlink:href="#ae" width="100%" height="100%" x="277.74" y="215.531"/></g><use xlink:href="#al" width="100%" height="100%" x="281.831" y="215.531" style="fill:#7f7f7f;fill-opacity:1"/><g style="fill:#7f7f7f;fill-opacity:1"><use xlink:href="#ai" width="100%" height="100%" x="286.217" y="215.531"/><use xlink:href="#af" width="100%" height="100%" x="289.849" y="215.531"/></g></svg>